<svg id="Grupo_1018620" data-name="Grupo 1018620" xmlns="http://www.w3.org/2000/svg" xmlns:xlink="http://www.w3.org/1999/xlink" width="169.102" height="105.958" viewBox="0 0 169.102 105.958">
  <defs>
    <clipPath id="clip-path">
      <rect id="Rectángulo_355713" data-name="Rectángulo 355713" width="169.102" height="105.958" fill="none"/>
    </clipPath>
    <clipPath id="clip-path-2">
      <rect id="Rectángulo_355608" data-name="Rectángulo 355608" width="169.102" height="105.957" fill="none"/>
    </clipPath>
    <clipPath id="clip-path-3">
      <rect id="Rectángulo_355605" data-name="Rectángulo 355605" width="4.404" height="10.873" fill="none"/>
    </clipPath>
    <clipPath id="clip-path-4">
      <rect id="Rectángulo_355607" data-name="Rectángulo 355607" width="4.406" height="10.873" fill="none"/>
    </clipPath>
    <clipPath id="clip-path-12">
      <rect id="Rectángulo_355677" data-name="Rectángulo 355677" width="4.405" height="10.873" fill="none"/>
    </clipPath>
  </defs>
  <g id="Grupo_1018619" data-name="Grupo 1018619" clip-path="url(#clip-path)">
    <rect id="Rectángulo_355578" data-name="Rectángulo 355578" width="4.836" height="11.487" transform="translate(10.919 91.1)" fill="#ad7c5e"/>
    <rect id="Rectángulo_355579" data-name="Rectángulo 355579" width="4.836" height="11.487" transform="translate(35.507 91.1)" fill="#ad7c5e"/>
    <rect id="Rectángulo_355580" data-name="Rectángulo 355580" width="4.838" height="11.487" transform="translate(60.093 91.1)" fill="#ad7c5e"/>
    <rect id="Rectángulo_355581" data-name="Rectángulo 355581" width="4.836" height="11.487" transform="translate(84.681 91.1)" fill="#ad7c5e"/>
    <rect id="Rectángulo_355582" data-name="Rectángulo 355582" width="4.836" height="11.487" transform="translate(109.269 91.1)" fill="#ad7c5e"/>
    <rect id="Rectángulo_355583" data-name="Rectángulo 355583" width="111.853" height="4.252" transform="translate(6.586 88.974)" fill="#cd9c7d"/>
    <rect id="Rectángulo_355584" data-name="Rectángulo 355584" width="111.851" height="4.252" transform="translate(6.586 100.461)" fill="#cd9c7d"/>
    <rect id="Rectángulo_355585" data-name="Rectángulo 355585" width="40.09" height="44.888" transform="translate(41.476 42.29)" fill="#d7ba76"/>
    <rect id="Rectángulo_355586" data-name="Rectángulo 355586" width="17.212" height="7.744" transform="translate(43.247 77.708)" fill="#fcf7ea"/>
    <rect id="Rectángulo_355587" data-name="Rectángulo 355587" width="1.018" height="6.597" transform="translate(44.178 78.282)" fill="#354546"/>
    <rect id="Rectángulo_355588" data-name="Rectángulo 355588" width="0.34" height="6.597" transform="translate(45.815 78.282)" fill="#354546"/>
    <rect id="Rectángulo_355589" data-name="Rectángulo 355589" width="0.34" height="6.597" transform="translate(56.974 78.282)" fill="#354546"/>
    <rect id="Rectángulo_355590" data-name="Rectángulo 355590" width="1.02" height="6.597" transform="translate(47.452 78.282)" fill="#354546"/>
    <rect id="Rectángulo_355591" data-name="Rectángulo 355591" width="0.51" height="6.597" transform="translate(49.09 78.282)" fill="#354546"/>
    <rect id="Rectángulo_355592" data-name="Rectángulo 355592" width="0.508" height="6.597" transform="translate(46.589 78.282)" fill="#354546"/>
    <rect id="Rectángulo_355593" data-name="Rectángulo 355593" width="1.702" height="6.597" transform="translate(50.044 78.282)" fill="#354546"/>
    <rect id="Rectángulo_355594" data-name="Rectángulo 355594" width="1.018" height="6.597" transform="translate(55.618 78.282)" fill="#354546"/>
    <rect id="Rectángulo_355595" data-name="Rectángulo 355595" width="1.018" height="6.597" transform="translate(53.291 78.282)" fill="#354546"/>
    <rect id="Rectángulo_355596" data-name="Rectángulo 355596" width="0.51" height="6.597" transform="translate(52.366 78.282)" fill="#354546"/>
    <rect id="Rectángulo_355597" data-name="Rectángulo 355597" width="0.508" height="6.597" transform="translate(54.635 78.282)" fill="#354546"/>
    <rect id="Rectángulo_355598" data-name="Rectángulo 355598" width="1.679" height="6.597" transform="translate(57.564 78.282)" fill="#354546"/>
    <rect id="Rectángulo_355599" data-name="Rectángulo 355599" width="1.255" height="44.888" transform="translate(61.521 42.29)" fill="#b59d63"/>
    <rect id="Rectángulo_355600" data-name="Rectángulo 355600" width="40.09" height="5.666" transform="translate(41.476 42.29)" fill="#b59d63"/>
    <rect id="Rectángulo_355601" data-name="Rectángulo 355601" width="1.065" height="4.273" transform="translate(67.142 79.464)" fill="#b59d63"/>
    <path id="Trazado_747451" data-name="Trazado 747451" d="M36.293,45.143l1.593-2.76,1.593,2.76Z" transform="translate(29.789 34.787)" fill="#b59d63"/>
    <rect id="Rectángulo_355602" data-name="Rectángulo 355602" width="1.065" height="4.273" transform="translate(70.669 79.464)" fill="#b59d63"/>
    <path id="Trazado_747452" data-name="Trazado 747452" d="M38.229,45.143l1.6-2.76,1.593,2.76Z" transform="translate(31.378 34.787)" fill="#b59d63"/>
    <rect id="Rectángulo_355603" data-name="Rectángulo 355603" width="6.711" height="0.668" transform="translate(66.082 84.211)" fill="#b59d63"/>
    <g id="Grupo_1018586" data-name="Grupo 1018586" transform="translate(0 0.001)">
      <g id="Grupo_1018585" data-name="Grupo 1018585" clip-path="url(#clip-path-2)">
        <g id="Grupo_1018581" data-name="Grupo 1018581" transform="translate(47.963 42.29)" style="mix-blend-mode: multiply;isolation: isolate">
          <g id="Grupo_1018580" data-name="Grupo 1018580">
            <g id="Grupo_1018579" data-name="Grupo 1018579" clip-path="url(#clip-path-3)">
              <rect id="Rectángulo_355604" data-name="Rectángulo 355604" width="4.404" height="10.874" transform="translate(0 0)" fill="#b59d63"/>
            </g>
          </g>
        </g>
        <g id="Grupo_1018584" data-name="Grupo 1018584" transform="translate(69.853 42.29)" style="mix-blend-mode: multiply;isolation: isolate">
          <g id="Grupo_1018583" data-name="Grupo 1018583">
            <g id="Grupo_1018582" data-name="Grupo 1018582" clip-path="url(#clip-path-4)">
              <rect id="Rectángulo_355606" data-name="Rectángulo 355606" width="4.406" height="10.874" transform="translate(0 0)" fill="#b59d63"/>
            </g>
          </g>
        </g>
      </g>
    </g>
    <rect id="Rectángulo_355609" data-name="Rectángulo 355609" width="40.09" height="35.325" transform="translate(82.751 51.853)" fill="#d7ba76"/>
    <rect id="Rectángulo_355610" data-name="Rectángulo 355610" width="17.212" height="7.744" transform="translate(84.523 77.708)" fill="#fcf7ea"/>
    <rect id="Rectángulo_355611" data-name="Rectángulo 355611" width="1.018" height="6.597" transform="translate(85.452 78.282)" fill="#354546"/>
    <rect id="Rectángulo_355612" data-name="Rectángulo 355612" width="0.34" height="6.597" transform="translate(87.09 78.282)" fill="#354546"/>
    <rect id="Rectángulo_355613" data-name="Rectángulo 355613" width="0.342" height="6.597" transform="translate(98.25 78.282)" fill="#354546"/>
    <rect id="Rectángulo_355614" data-name="Rectángulo 355614" width="1.02" height="6.597" transform="translate(88.727 78.282)" fill="#354546"/>
    <rect id="Rectángulo_355615" data-name="Rectángulo 355615" width="0.51" height="6.597" transform="translate(90.368 78.282)" fill="#354546"/>
    <rect id="Rectángulo_355616" data-name="Rectángulo 355616" width="0.508" height="6.597" transform="translate(87.864 78.282)" fill="#354546"/>
    <rect id="Rectángulo_355617" data-name="Rectángulo 355617" width="1.701" height="6.597" transform="translate(91.32 78.282)" fill="#354546"/>
    <rect id="Rectángulo_355618" data-name="Rectángulo 355618" width="1.018" height="6.597" transform="translate(96.892 78.282)" fill="#354546"/>
    <rect id="Rectángulo_355619" data-name="Rectángulo 355619" width="1.02" height="6.597" transform="translate(94.565 78.282)" fill="#354546"/>
    <rect id="Rectángulo_355620" data-name="Rectángulo 355620" width="0.508" height="6.597" transform="translate(93.643 78.282)" fill="#354546"/>
    <rect id="Rectángulo_355621" data-name="Rectángulo 355621" width="0.508" height="6.597" transform="translate(95.91 78.282)" fill="#354546"/>
    <rect id="Rectángulo_355622" data-name="Rectángulo 355622" width="1.679" height="6.597" transform="translate(98.84 78.282)" fill="#354546"/>
    <rect id="Rectángulo_355623" data-name="Rectángulo 355623" width="1.255" height="35.323" transform="translate(102.796 51.855)" fill="#b59d63"/>
    <rect id="Rectángulo_355624" data-name="Rectángulo 355624" width="40.09" height="5.666" transform="translate(82.751 51.855)" fill="#b59d63"/>
    <rect id="Rectángulo_355625" data-name="Rectángulo 355625" width="1.067" height="4.273" transform="translate(108.417 79.464)" fill="#b59d63"/>
    <path id="Trazado_747453" data-name="Trazado 747453" d="M58.962,45.143l1.593-2.76,1.593,2.76Z" transform="translate(48.395 34.787)" fill="#b59d63"/>
    <rect id="Rectángulo_355626" data-name="Rectángulo 355626" width="1.065" height="4.273" transform="translate(111.944 79.464)" fill="#b59d63"/>
    <path id="Trazado_747454" data-name="Trazado 747454" d="M60.9,45.143l1.6-2.76,1.593,2.76Z" transform="translate(49.984 34.787)" fill="#b59d63"/>
    <rect id="Rectángulo_355627" data-name="Rectángulo 355627" width="6.711" height="0.668" transform="translate(107.358 84.211)" fill="#b59d63"/>
    <g id="Grupo_1018594" data-name="Grupo 1018594" transform="translate(0 0.001)">
      <g id="Grupo_1018593" data-name="Grupo 1018593" clip-path="url(#clip-path-2)">
        <g id="Grupo_1018589" data-name="Grupo 1018589" transform="translate(89.238 51.853)" style="mix-blend-mode: multiply;isolation: isolate">
          <g id="Grupo_1018588" data-name="Grupo 1018588">
            <g id="Grupo_1018587" data-name="Grupo 1018587" clip-path="url(#clip-path-3)">
              <rect id="Rectángulo_355628" data-name="Rectángulo 355628" width="4.404" height="10.874" transform="translate(0.001 -0.001)" fill="#b59d63"/>
            </g>
          </g>
        </g>
        <g id="Grupo_1018592" data-name="Grupo 1018592" transform="translate(111.129 51.853)" style="mix-blend-mode: multiply;isolation: isolate">
          <g id="Grupo_1018591" data-name="Grupo 1018591">
            <g id="Grupo_1018590" data-name="Grupo 1018590" clip-path="url(#clip-path-4)">
              <rect id="Rectángulo_355630" data-name="Rectángulo 355630" width="4.406" height="10.874" transform="translate(0 -0.001)" fill="#b59d63"/>
            </g>
          </g>
        </g>
      </g>
    </g>
    <rect id="Rectángulo_355633" data-name="Rectángulo 355633" width="40.09" height="35.325" transform="translate(82.751 15.104)" fill="#d7ba76"/>
    <rect id="Rectángulo_355634" data-name="Rectángulo 355634" width="17.212" height="7.746" transform="translate(84.523 40.958)" fill="#fcf7ea"/>
    <rect id="Rectángulo_355635" data-name="Rectángulo 355635" width="1.018" height="6.599" transform="translate(85.452 41.531)" fill="#354546"/>
    <rect id="Rectángulo_355636" data-name="Rectángulo 355636" width="0.34" height="6.599" transform="translate(87.09 41.531)" fill="#354546"/>
    <rect id="Rectángulo_355637" data-name="Rectángulo 355637" width="0.342" height="6.599" transform="translate(98.25 41.531)" fill="#354546"/>
    <rect id="Rectángulo_355638" data-name="Rectángulo 355638" width="1.02" height="6.599" transform="translate(88.727 41.531)" fill="#354546"/>
    <rect id="Rectángulo_355639" data-name="Rectángulo 355639" width="0.51" height="6.599" transform="translate(90.368 41.531)" fill="#354546"/>
    <rect id="Rectángulo_355640" data-name="Rectángulo 355640" width="0.508" height="6.599" transform="translate(87.864 41.531)" fill="#354546"/>
    <rect id="Rectángulo_355641" data-name="Rectángulo 355641" width="1.701" height="6.599" transform="translate(91.32 41.531)" fill="#354546"/>
    <rect id="Rectángulo_355642" data-name="Rectángulo 355642" width="1.018" height="6.599" transform="translate(96.892 41.531)" fill="#354546"/>
    <rect id="Rectángulo_355643" data-name="Rectángulo 355643" width="1.02" height="6.599" transform="translate(94.565 41.531)" fill="#354546"/>
    <rect id="Rectángulo_355644" data-name="Rectángulo 355644" width="0.508" height="6.599" transform="translate(93.643 41.531)" fill="#354546"/>
    <rect id="Rectángulo_355645" data-name="Rectángulo 355645" width="0.508" height="6.599" transform="translate(95.91 41.531)" fill="#354546"/>
    <rect id="Rectángulo_355646" data-name="Rectángulo 355646" width="1.679" height="6.599" transform="translate(98.84 41.531)" fill="#354546"/>
    <rect id="Rectángulo_355647" data-name="Rectángulo 355647" width="1.255" height="35.323" transform="translate(102.796 15.106)" fill="#b59d63"/>
    <rect id="Rectángulo_355648" data-name="Rectángulo 355648" width="40.09" height="5.666" transform="translate(82.751 15.104)" fill="#b59d63"/>
    <rect id="Rectángulo_355649" data-name="Rectángulo 355649" width="1.067" height="4.273" transform="translate(108.417 42.715)" fill="#b59d63"/>
    <path id="Trazado_747455" data-name="Trazado 747455" d="M58.962,24.959l1.593-2.76,1.593,2.76Z" transform="translate(48.395 18.221)" fill="#b59d63"/>
    <rect id="Rectángulo_355650" data-name="Rectángulo 355650" width="1.065" height="4.273" transform="translate(111.944 42.715)" fill="#b59d63"/>
    <path id="Trazado_747456" data-name="Trazado 747456" d="M60.9,24.959l1.6-2.76,1.593,2.76Z" transform="translate(49.984 18.221)" fill="#b59d63"/>
    <rect id="Rectángulo_355651" data-name="Rectángulo 355651" width="6.711" height="0.668" transform="translate(107.358 47.461)" fill="#b59d63"/>
    <g id="Grupo_1018602" data-name="Grupo 1018602" transform="translate(0 0.001)">
      <g id="Grupo_1018601" data-name="Grupo 1018601" clip-path="url(#clip-path-2)">
        <g id="Grupo_1018597" data-name="Grupo 1018597" transform="translate(89.238 15.103)" style="mix-blend-mode: multiply;isolation: isolate">
          <g id="Grupo_1018596" data-name="Grupo 1018596">
            <g id="Grupo_1018595" data-name="Grupo 1018595" clip-path="url(#clip-path-3)">
              <rect id="Rectángulo_355652" data-name="Rectángulo 355652" width="4.404" height="10.874" transform="translate(0.001 0)" fill="#b59d63"/>
            </g>
          </g>
        </g>
        <g id="Grupo_1018600" data-name="Grupo 1018600" transform="translate(111.129 15.103)" style="mix-blend-mode: multiply;isolation: isolate">
          <g id="Grupo_1018599" data-name="Grupo 1018599">
            <g id="Grupo_1018598" data-name="Grupo 1018598" clip-path="url(#clip-path-4)">
              <rect id="Rectángulo_355654" data-name="Rectángulo 355654" width="4.406" height="10.874" transform="translate(0 0)" fill="#b59d63"/>
            </g>
          </g>
        </g>
      </g>
    </g>
    <rect id="Rectángulo_355657" data-name="Rectángulo 355657" width="40.09" height="66.14" transform="translate(0 21.038)" fill="#d7ba76"/>
    <rect id="Rectángulo_355658" data-name="Rectángulo 355658" width="17.21" height="7.744" transform="translate(1.772 77.708)" fill="#fcf7ea"/>
    <rect id="Rectángulo_355659" data-name="Rectángulo 355659" width="1.02" height="6.597" transform="translate(2.698 78.282)" fill="#354546"/>
    <rect id="Rectángulo_355660" data-name="Rectángulo 355660" width="0.34" height="6.597" transform="translate(4.339 78.282)" fill="#354546"/>
    <rect id="Rectángulo_355661" data-name="Rectángulo 355661" width="0.344" height="6.597" transform="translate(15.495 78.282)" fill="#354546"/>
    <rect id="Rectángulo_355662" data-name="Rectángulo 355662" width="1.018" height="6.597" transform="translate(5.976 78.282)" fill="#354546"/>
    <rect id="Rectángulo_355663" data-name="Rectángulo 355663" width="0.51" height="6.597" transform="translate(7.613 78.282)" fill="#354546"/>
    <rect id="Rectángulo_355664" data-name="Rectángulo 355664" width="0.508" height="6.597" transform="translate(5.113 78.282)" fill="#354546"/>
    <rect id="Rectángulo_355665" data-name="Rectángulo 355665" width="1.702" height="6.597" transform="translate(8.567 78.282)" fill="#354546"/>
    <rect id="Rectángulo_355666" data-name="Rectángulo 355666" width="1.02" height="6.597" transform="translate(14.138 78.282)" fill="#354546"/>
    <rect id="Rectángulo_355667" data-name="Rectángulo 355667" width="1.02" height="6.597" transform="translate(11.813 78.282)" fill="#354546"/>
    <rect id="Rectángulo_355668" data-name="Rectángulo 355668" width="0.51" height="6.597" transform="translate(10.888 78.282)" fill="#354546"/>
    <rect id="Rectángulo_355669" data-name="Rectángulo 355669" width="0.51" height="6.597" transform="translate(13.157 78.282)" fill="#354546"/>
    <rect id="Rectángulo_355670" data-name="Rectángulo 355670" width="1.679" height="6.597" transform="translate(16.089 78.282)" fill="#354546"/>
    <rect id="Rectángulo_355671" data-name="Rectángulo 355671" width="1.253" height="66.14" transform="translate(20.045 21.038)" fill="#b59d63"/>
    <rect id="Rectángulo_355672" data-name="Rectángulo 355672" width="40.09" height="5.666" transform="translate(0 21.038)" fill="#b59d63"/>
    <rect id="Rectángulo_355673" data-name="Rectángulo 355673" width="1.065" height="4.273" transform="translate(25.666 79.464)" fill="#b59d63"/>
    <path id="Trazado_747457" data-name="Trazado 747457" d="M13.513,45.143l1.6-2.76,1.593,2.76Z" transform="translate(11.091 34.787)" fill="#b59d63"/>
    <rect id="Rectángulo_355674" data-name="Rectángulo 355674" width="1.065" height="4.273" transform="translate(29.193 79.464)" fill="#b59d63"/>
    <path id="Trazado_747458" data-name="Trazado 747458" d="M15.449,45.143l1.593-2.76,1.6,2.76Z" transform="translate(12.681 34.787)" fill="#b59d63"/>
    <rect id="Rectángulo_355675" data-name="Rectángulo 355675" width="6.713" height="0.668" transform="translate(24.604 84.211)" fill="#b59d63"/>
    <g id="Grupo_1018610" data-name="Grupo 1018610" transform="translate(0 0.001)">
      <g id="Grupo_1018609" data-name="Grupo 1018609" clip-path="url(#clip-path-2)">
        <g id="Grupo_1018605" data-name="Grupo 1018605" transform="translate(6.485 21.038)" style="mix-blend-mode: multiply;isolation: isolate">
          <g id="Grupo_1018604" data-name="Grupo 1018604">
            <g id="Grupo_1018603" data-name="Grupo 1018603" clip-path="url(#clip-path-12)">
              <rect id="Rectángulo_355676" data-name="Rectángulo 355676" width="4.404" height="10.874" transform="translate(-0.001 0)" fill="#b59d63"/>
            </g>
          </g>
        </g>
        <g id="Grupo_1018608" data-name="Grupo 1018608" transform="translate(28.377 21.038)" style="mix-blend-mode: multiply;isolation: isolate">
          <g id="Grupo_1018607" data-name="Grupo 1018607">
            <g id="Grupo_1018606" data-name="Grupo 1018606" clip-path="url(#clip-path-3)">
              <rect id="Rectángulo_355678" data-name="Rectángulo 355678" width="4.404" height="10.874" transform="translate(0 0)" fill="#b59d63"/>
            </g>
          </g>
        </g>
      </g>
    </g>
    <rect id="Rectángulo_355681" data-name="Rectángulo 355681" width="40.09" height="24.699" transform="translate(41.538 16.696)" fill="#d7ba76"/>
    <rect id="Rectángulo_355682" data-name="Rectángulo 355682" width="17.21" height="7.744" transform="translate(43.309 31.925)" fill="#fcf7ea"/>
    <rect id="Rectángulo_355683" data-name="Rectángulo 355683" width="1.02" height="6.597" transform="translate(44.238 32.498)" fill="#354546"/>
    <rect id="Rectángulo_355684" data-name="Rectángulo 355684" width="0.34" height="6.597" transform="translate(45.877 32.498)" fill="#354546"/>
    <rect id="Rectángulo_355685" data-name="Rectángulo 355685" width="0.342" height="6.597" transform="translate(57.034 32.498)" fill="#354546"/>
    <rect id="Rectángulo_355686" data-name="Rectángulo 355686" width="1.02" height="6.597" transform="translate(47.515 32.498)" fill="#354546"/>
    <rect id="Rectángulo_355687" data-name="Rectángulo 355687" width="0.508" height="6.597" transform="translate(49.152 32.498)" fill="#354546"/>
    <rect id="Rectángulo_355688" data-name="Rectángulo 355688" width="0.508" height="6.597" transform="translate(46.65 32.498)" fill="#354546"/>
    <rect id="Rectángulo_355689" data-name="Rectángulo 355689" width="1.704" height="6.597" transform="translate(50.105 32.498)" fill="#354546"/>
    <rect id="Rectángulo_355690" data-name="Rectángulo 355690" width="1.02" height="6.597" transform="translate(55.678 32.498)" fill="#354546"/>
    <rect id="Rectángulo_355691" data-name="Rectángulo 355691" width="1.02" height="6.597" transform="translate(53.351 32.498)" fill="#354546"/>
    <rect id="Rectángulo_355692" data-name="Rectángulo 355692" width="0.512" height="6.597" transform="translate(52.428 32.498)" fill="#354546"/>
    <rect id="Rectángulo_355693" data-name="Rectángulo 355693" width="0.508" height="6.597" transform="translate(54.697 32.498)" fill="#354546"/>
    <rect id="Rectángulo_355694" data-name="Rectángulo 355694" width="1.679" height="6.597" transform="translate(57.626 32.498)" fill="#354546"/>
    <rect id="Rectángulo_355695" data-name="Rectángulo 355695" width="1.253" height="24.699" transform="translate(61.583 16.696)" fill="#b59d63"/>
    <rect id="Rectángulo_355696" data-name="Rectángulo 355696" width="40.09" height="5.666" transform="translate(41.538 16.697)" fill="#b59d63"/>
    <rect id="Rectángulo_355697" data-name="Rectángulo 355697" width="1.065" height="4.273" transform="translate(67.204 33.68)" fill="#b59d63"/>
    <path id="Trazado_747459" data-name="Trazado 747459" d="M36.326,20l1.6-2.76L39.514,20Z" transform="translate(29.816 14.148)" fill="#b59d63"/>
    <rect id="Rectángulo_355698" data-name="Rectángulo 355698" width="1.065" height="4.273" transform="translate(70.73 33.68)" fill="#b59d63"/>
    <path id="Trazado_747460" data-name="Trazado 747460" d="M38.263,20l1.593-2.76,1.6,2.76Z" transform="translate(31.406 14.148)" fill="#b59d63"/>
    <rect id="Rectángulo_355699" data-name="Rectángulo 355699" width="6.715" height="0.668" transform="translate(66.142 38.427)" fill="#b59d63"/>
    <g id="Grupo_1018618" data-name="Grupo 1018618" transform="translate(0 0.001)">
      <g id="Grupo_1018617" data-name="Grupo 1018617" clip-path="url(#clip-path-2)">
        <g id="Grupo_1018613" data-name="Grupo 1018613" transform="translate(48.023 16.695)" style="mix-blend-mode: multiply;isolation: isolate">
          <g id="Grupo_1018612" data-name="Grupo 1018612">
            <g id="Grupo_1018611" data-name="Grupo 1018611" clip-path="url(#clip-path-3)">
              <rect id="Rectángulo_355700" data-name="Rectángulo 355700" width="4.404" height="10.874" transform="translate(0 -0.001)" fill="#b59d63"/>
            </g>
          </g>
        </g>
        <g id="Grupo_1018616" data-name="Grupo 1018616" transform="translate(69.915 16.695)" style="mix-blend-mode: multiply;isolation: isolate">
          <g id="Grupo_1018615" data-name="Grupo 1018615">
            <g id="Grupo_1018614" data-name="Grupo 1018614" clip-path="url(#clip-path-3)">
              <rect id="Rectángulo_355702" data-name="Rectángulo 355702" width="4.404" height="10.874" transform="translate(-0.001 -0.001)" fill="#b59d63"/>
            </g>
          </g>
        </g>
        <path id="Trazado_747461" data-name="Trazado 747461" d="M50.518,72.37l1-1.968,7.556-16.278c.242-.925-4.7-6.03-5.326-6.733l-4.781-5.506a2.858,2.858,0,0,0-3.7-.5,2.609,2.609,0,0,0-1.083,1.307l-8.5,21.1-3.461,8.58Z" transform="translate(26.447 33.587)" fill="#eab99a"/>
        <path id="Trazado_747462" data-name="Trazado 747462" d="M104.983,72.371h-18.3l-.6-1.184-.4-.783L83.3,65.27c0-.018-.018-.036-.018-.056-.018,0-.018-.016-.018-.035l-.437-.929v-.02l-.055-.091L80.075,58.3l-1.948-4.171c-.237-.927,4.7-6.025,5.335-6.737l.71-.818,4.06-4.679a1.029,1.029,0,0,1,.218-.184v-.018a2.813,2.813,0,0,1,3.478-.31,2.624,2.624,0,0,1,1.092,1.311l8.394,20.832.109.273Z" transform="translate(64.119 33.586)" fill="#eab99a"/>
        <path id="Trazado_747463" data-name="Trazado 747463" d="M120.01,45.112c-.291,1.293-.6,2.547-.91,3.824v.016c-1.766,7.356-3.678,14.586-5.517,21.76v.016a4.314,4.314,0,0,1-.127.528c-.018.038-.018.093-.036.129-.2.854-.437,1.675-.619,2.494q-.71,2.892-1.42,5.735H50.073c-.564-2.24-1.165-4.479-1.766-6.719-.036-.129-.055-.2-.073-.275A.692.692,0,0,1,48.2,72.5c-.109-.419-.237-.838-.346-1.275-.036-.164-.091-.348-.127-.51l-.219-.765c-1.93-6.992-3.9-13.929-5.608-20.85-.328-1.327-.637-2.638-.947-3.968a7.3,7.3,0,0,1,.31-4.206,7,7,0,0,1,1.985-2.877,7.182,7.182,0,0,1,3.077-1.622l7.411-1.473,13.474-2.658a7.877,7.877,0,0,1,1.73-.2H92.079a8.006,8.006,0,0,1,1.73.2s6.773,1.366,12.782,2.586c4.752.965,9.013,1.855,9.177,1.928a4.067,4.067,0,0,1,.382.184,7.052,7.052,0,0,1,3.623,4.133v.016a6.986,6.986,0,0,1,.237,3.971" transform="translate(33.47 26.341)" fill="#eab99a"/>
        <rect id="Rectángulo_355704" data-name="Rectángulo 355704" width="20.884" height="18.556" transform="translate(104.284 46.545)" fill="#eab99a"/>
        <path id="Trazado_747464" data-name="Trazado 747464" d="M70.921,23.591h0a2.675,2.675,0,0,0,3.436-2l1.076-4.854a2.763,2.763,0,0,0-1.857-3.179,2.677,2.677,0,0,0-3.436,2.007l-1.076,4.852a2.765,2.765,0,0,0,1.857,3.179" transform="translate(56.638 11.022)" fill="#eab99a"/>
        <path id="Trazado_747465" data-name="Trazado 747465" d="M83.5,16.384,84.719,31.67A12.473,12.473,0,0,1,84.5,35.3a10.779,10.779,0,0,1-1.859,4.341,8.437,8.437,0,0,1-2.008,2.043L75.5,48.206c-.712,1.056-2.957,1.639-4.958,1.624a4.785,4.785,0,0,1-3.25-.97L61.158,43.2a7.551,7.551,0,0,1-2.234-1.65A10.732,10.732,0,0,1,56.362,37.5a12.26,12.26,0,0,1-.788-3.514L54.357,18.7C53.891,12.859,57.3,7.781,61.939,7.411l12.289-.978c4.638-.37,8.809,4.106,9.275,9.951" transform="translate(44.581 5.262)" fill="#eab99a"/>
        <path id="Trazado_747466" data-name="Trazado 747466" d="M81.582,16.468,82.8,31.754a12.537,12.537,0,0,1-.22,3.631,10.807,10.807,0,0,1-1.861,4.341,8.437,8.437,0,0,1-2.008,2.043L73.581,48.29a4.726,4.726,0,0,1-3.037,1.471,4.794,4.794,0,0,1-3.252-.97L61.16,43.126a7.528,7.528,0,0,1-2.234-1.65,10.732,10.732,0,0,1-2.562-4.042,12.26,12.26,0,0,1-.788-3.514L54.357,18.635C53.893,12.79,57.3,7.712,61.941,7.342l10.368-.825c4.636-.37,8.809,4.106,9.273,9.951" transform="translate(44.581 5.331)" fill="#f4caaf"/>
        <path id="Trazado_747467" data-name="Trazado 747467" d="M58.323,24.558h0a2.675,2.675,0,0,1-3.711-1.437L52.783,18.5a2.762,2.762,0,0,1,1.329-3.432A2.674,2.674,0,0,1,57.823,16.5l1.83,4.619a2.765,2.765,0,0,1-1.329,3.434" transform="translate(43.175 12.131)" fill="#f4caaf"/>
        <path id="Trazado_747468" data-name="Trazado 747468" d="M85.409,19.085,84.277,31.5l-4.951-7.64-4.248-.508L59.5,21.514,57.078,34.2l-.122.606-.153-.663-2.9-12.072,1.966-13.02,1.686-.133L60.073,3.2l1.417,1.81,2.343-3.8,6.921,4.255L72.46,3.042l8.525,7.147.08-.064,1.8-1.662Z" transform="translate(44.247 0.994)" fill="#7d4c2e"/>
        <path id="Trazado_747469" data-name="Trazado 747469" d="M83.257,9.172,81.717,14.1c.375,4.718-2.347,8.876-6.247,9.956L59.886,22.223,57.47,34.912a1.317,1.317,0,0,1-.275-.056l-3.764-7.944V17.631l2.833-7.868,4.2-5.852,1.615-1.051,2.145-.94L71.43.348,77.82,2.861l4.689,3.851Z" transform="translate(43.856 0.285)" fill="#8d5c3e"/>
        <path id="Trazado_747470" data-name="Trazado 747470" d="M137.136,70.275l-.965.493L120.84,78.432l-.674.328s-1.366-4.1-2.112-6.245c0-.016-.018-.035-.018-.055-.018,0-.018-.016-.018-.035a8.892,8.892,0,0,0-.455-1.167c-.018.038-.018.093-.036.127-.2.856-.437,1.675-.619,2.494-.473,2-.892,3.9-1.293,5.737H54.072c-.473-2.1-1.02-4.3-1.657-6.719-.036-.129-.055-.2-.073-.275a.736.736,0,0,1-.036-.126c-.091-.218-.036.126-.255-.674l-2.677,6.7-.765-.854v-.018L35.846,63.411l-.073-.071,8.5-21.1a2.607,2.607,0,0,1,1.092-1.311,6.991,6.991,0,0,1,1.985-2.877,7.162,7.162,0,0,1,3.077-1.622l7.411-1.473L71.315,32.3a7.771,7.771,0,0,1,1.73-.2l4.5,3.838a11.294,11.294,0,0,0,15.189-.49l3.45-3.348a7.9,7.9,0,0,1,1.73.2s6.773,1.366,12.782,2.586c4.752.965,9.013,1.855,9.177,1.928a3.661,3.661,0,0,1,.382.184,7.054,7.054,0,0,1,3.623,4.131v.018a2.535,2.535,0,0,1,.819,1.094Z" transform="translate(29.362 26.341)" fill="#707070"/>
        <path id="Trazado_747471" data-name="Trazado 747471" d="M113.708,52.56,112.343,70l.018.218-.055-.091c-.2.856-.437,1.675-.619,2.5-.473,2-.892,3.895-1.293,5.735H48.852c-.473-2.094-1.02-4.3-1.657-6.719-.036-.129-.055-.2-.073-.275a.692.692,0,0,1-.036-.126c-.091-.218-.036.126-.255-.674l-.091-.6-.073-.619V69.33L44.209,51.775,42.133,36.792A7.162,7.162,0,0,1,45.21,35.17L52.621,33.7,59.9,57.627l39.568-.082,6.012-23.922c4.752.965,9.013,1.855,9.177,1.928a3.661,3.661,0,0,1,.382.184Z" transform="translate(34.582 27.598)" fill="#f3aa43"/>
        <path id="Trazado_747472" data-name="Trazado 747472" d="M65.493,1.1c0,.61-.89,1.105-1.988,1.105s-1.988-.5-1.988-1.105S62.406,0,63.5,0s1.988.493,1.988,1.1" transform="translate(50.492 0)" fill="#ef893a"/>
        <path id="Trazado_747473" data-name="Trazado 747473" d="M87.932,19.742C87.326,8.914,79.751.349,70.478.349S53.628,8.914,53.022,19.742Z" transform="translate(43.52 0.286)" fill="#ef893a"/>
        <path id="Trazado_747474" data-name="Trazado 747474" d="M67.046.349S56.955,7.71,57.206,21.108H77.26S77.011,5.631,67.046.349" transform="translate(46.95 0.286)" fill="#f19b2c"/>
        <path id="Trazado_747475" data-name="Trazado 747475" d="M88.273,12.114c0,3.09-7.924,6.935-17.7,6.935S52.9,15.426,52.9,12.336s7.935-.761,17.709-.761,17.662-2.553,17.662.539" transform="translate(43.422 8.687)" fill="#f19b2c"/>
        <path id="Trazado_747476" data-name="Trazado 747476" d="M88.284,12.377c0,3.09-7.924,5.6-17.7,5.6s-17.7-2.505-17.7-5.6S60.848,10.5,70.623,10.5s17.662-1.214,17.662,1.877" transform="translate(43.41 8.425)" fill="#f3aa43"/>
        <path id="Trazado_747477" data-name="Trazado 747477" d="M83.453,60.193c-.018.038-.018.093-.036.127-.2.856-.437,1.675-.619,2.494-.473,2-.892,3.9-1.293,5.737H77.281c1.038-4.006,2.349-9.468,3.441-14.077,1.184-4.951,2.094-8.9,2.094-8.9Z" transform="translate(63.432 37.406)" fill="#ef893a"/>
        <path id="Trazado_747478" data-name="Trazado 747478" d="M79.876,40.921H68.349a1.623,1.623,0,0,0-1.617,1.619V57.705a1.623,1.623,0,0,0,1.617,1.619h.115l.492,3.265H79.27l.492-3.265h.115a1.622,1.622,0,0,0,1.617-1.619V42.54a1.622,1.622,0,0,0-1.617-1.619" transform="translate(54.773 33.587)" fill="#354546"/>
        <path id="Trazado_747479" data-name="Trazado 747479" d="M78.481,40.921H68.721a1.515,1.515,0,0,0-1.369,1.619V57.705a1.515,1.515,0,0,0,1.369,1.619h.1l.415,3.265h8.733l.417-3.265h.1a1.514,1.514,0,0,0,1.369-1.619V42.54a1.514,1.514,0,0,0-1.369-1.619" transform="translate(55.282 33.587)" fill="#455556"/>
        <path id="Trazado_747480" data-name="Trazado 747480" d="M69.445,62.347h0a.685.685,0,0,1-.834-.49L64.2,44.9a.683.683,0,1,1,1.322-.346l4.41,16.962a.683.683,0,0,1-.488.832" transform="translate(52.677 36.149)" fill="#354546"/>
        <rect id="Rectángulo_355705" data-name="Rectángulo 355705" width="19.193" height="2.345" transform="translate(119.291 96.174)" fill="#ef893a"/>
        <rect id="Rectángulo_355706" data-name="Rectángulo 355706" width="17.525" height="10.834" transform="translate(90.683 85.335)" fill="#e0e0e0"/>
        <path id="Trazado_747481" data-name="Trazado 747481" d="M59.122,48.319h-5.61a.662.662,0,0,1-.661-.661V46.567a.661.661,0,0,1,.661-.661h5.61a.66.66,0,0,1,.661.661v1.091a.661.661,0,0,1-.661.661" transform="translate(43.38 37.679)" fill="#354546"/>
        <rect id="Rectángulo_355707" data-name="Rectángulo 355707" width="7.454" height="0.854" transform="translate(99.987 87.817)" fill="silver"/>
        <rect id="Rectángulo_355708" data-name="Rectángulo 355708" width="7.454" height="0.852" transform="translate(99.987 89.801)" fill="silver"/>
        <rect id="Rectángulo_355709" data-name="Rectángulo 355709" width="7.454" height="0.854" transform="translate(99.987 91.784)" fill="silver"/>
        <rect id="Rectángulo_355710" data-name="Rectángulo 355710" width="2.453" height="2.179" transform="translate(94.302 91.806)" fill="#eab99a"/>
        <path id="Trazado_747482" data-name="Trazado 747482" d="M53.365,50.22h0a.312.312,0,0,0,.4-.235l.127-.57a.325.325,0,0,0-.219-.373.312.312,0,0,0-.4.235l-.127.57a.324.324,0,0,0,.218.373" transform="translate(43.616 40.24)" fill="#eab99a"/>
        <path id="Trazado_747483" data-name="Trazado 747483" d="M54.842,49.374l.144,1.793a1.446,1.446,0,0,1-.027.428,1.254,1.254,0,0,1-.218.51,1.017,1.017,0,0,1-.235.24l-.6.765a.771.771,0,0,1-.581.191.57.57,0,0,1-.382-.113l-.721-.666a.912.912,0,0,1-.262-.193,1.258,1.258,0,0,1-.3-.477,1.493,1.493,0,0,1-.093-.412l-.142-1.8a1.146,1.146,0,0,1,.889-1.326l1.444-.115a1.148,1.148,0,0,1,1.089,1.169" transform="translate(42.201 39.564)" fill="#eab99a"/>
        <path id="Trazado_747484" data-name="Trazado 747484" d="M54.617,49.384l.142,1.793a1.442,1.442,0,0,1-.027.428,1.23,1.23,0,0,1-.218.51.983.983,0,0,1-.235.24l-.6.765a.542.542,0,0,1-.355.175.57.57,0,0,1-.382-.115l-.721-.666a.912.912,0,0,1-.262-.193,1.265,1.265,0,0,1-.3-.475,1.521,1.521,0,0,1-.093-.413l-.142-1.793a1.149,1.149,0,0,1,.889-1.327l1.218-.1a1.152,1.152,0,0,1,1.091,1.169" transform="translate(42.2 39.572)" fill="#f4caaf"/>
        <path id="Trazado_747485" data-name="Trazado 747485" d="M51.885,50.333h0a.313.313,0,0,1-.435-.169l-.215-.543a.32.32,0,0,1,.157-.4.313.313,0,0,1,.435.166l.215.543a.327.327,0,0,1-.157.4" transform="translate(42.035 40.371)" fill="#f4caaf"/>
        <path id="Trazado_747486" data-name="Trazado 747486" d="M55.066,49.692l-.133,1.457-.583-.9-.5-.062-1.828-.215-.284,1.491-.015.071-.018-.078-.34-1.418.231-1.529.2-.015.295-.67.168.211.273-.446.814.5.2-.284,1,.839.009-.007.211-.2Z" transform="translate(42.161 39.063)" fill="#7d4c2e"/>
        <path id="Trazado_747487" data-name="Trazado 747487" d="M54.812,48.527l-.182.579a1.089,1.089,0,0,1-.734,1.169l-1.828-.215-.284,1.489-.033-.007-.441-.93V49.521l.331-.925.493-.686.189-.124.251-.111.847-.184.75.295.552.453Z" transform="translate(42.116 38.979)" fill="#8d5c3e"/>
        <path id="Trazado_747488" data-name="Trazado 747488" d="M55.436,52.548H51.718a.607.607,0,0,1,0-1.214h3.718a.607.607,0,0,1,0,1.214" transform="translate(41.952 42.134)" fill="#f3aa43"/>
        <path id="Trazado_747489" data-name="Trazado 747489" d="M68.1,6.578l0-.007v0a.263.263,0,0,0-.018-.093l-.024-.033a.254.254,0,0,0-.038-.049L68,6.382,64.647,3.858a.227.227,0,0,0-.275-.005L60.885,6.294a.234.234,0,0,0-.1.2.19.19,0,0,0,.007.031l-.007.042-.117,4.727a.237.237,0,0,0,.117.208l3.478,2.061.009,0a.261.261,0,0,0,.106.029h0a.25.25,0,0,0,.109-.029l.013,0L67.982,11.5a.24.24,0,0,0,.113-.2V6.584l0-.005M64.5,4.333l2.953,2.221-2.946,1.9L61.44,6.478ZM61.245,6.91l3.023,1.954-.109,4.089-3.015-1.788Zm3.385,6.03.107-4.073L67.627,7v4.161Z" transform="translate(49.797 3.126)" fill="#fff"/>
        <rect id="Rectángulo_355711" data-name="Rectángulo 355711" width="8.947" height="13.935" transform="translate(124.213 76.593)" fill="#469da7"/>
      </g>
    </g>
  </g>
</svg>
