<svg xmlns="http://www.w3.org/2000/svg" xmlns:xlink="http://www.w3.org/1999/xlink" width="271" height="172" viewBox="0 0 271 172">
  <defs>
    <linearGradient id="linear-gradient" x1="0.5" y1="1" x2="0.5" gradientUnits="objectBoundingBox">
      <stop offset="0" stop-color="#fff"/>
      <stop offset="0.742" stop-color="#f1f1f1"/>
      <stop offset="1" stop-color="#fff"/>
    </linearGradient>
    <clipPath id="clip-path">
      <rect id="Rectángulo_352812" data-name="Rectángulo 352812" width="194.4" height="127.8" fill="none"/>
    </clipPath>
    <clipPath id="clip-path-3">
      <rect id="Rectángulo_352786" data-name="Rectángulo 352786" width="18.759" height="20.386" fill="none"/>
    </clipPath>
    <clipPath id="clip-path-4">
      <rect id="Rectángulo_352787" data-name="Rectángulo 352787" width="9.417" height="4.782" fill="none"/>
    </clipPath>
    <clipPath id="clip-path-5">
      <rect id="Rectángulo_352809" data-name="Rectángulo 352809" width="162.187" height="9.921" fill="none"/>
    </clipPath>
  </defs>
  <g id="Grupo_1019118" data-name="Grupo 1019118" transform="translate(-959 -5559)">
    <rect id="hombre-negocios-dibuja-grafico-crecimiento-progreso-negocios-analiza-finanzas-inversion" width="271" height="172" rx="10" transform="translate(959 5559)" fill="url(#linear-gradient)"/>
    <g id="Grupo_1015543" data-name="Grupo 1015543" transform="translate(997.3 5581.429)">
      <g id="Grupo_1013060" data-name="Grupo 1013060" clip-path="url(#clip-path)">
        <g id="Grupo_1013059" data-name="Grupo 1013059" transform="translate(0 0)">
          <g id="Grupo_1013058" data-name="Grupo 1013058" clip-path="url(#clip-path)">
            <path id="Trazado_733075" data-name="Trazado 733075" d="M71.171,9.585s-.081.016-.225.047a5.091,5.091,0,0,0-2.274,8.779l.068.059c.062.023.122.045.184.064a4.061,4.061,0,0,0,5.321-3.962,11.238,11.238,0,0,0-.152-1.713,4.731,4.731,0,0,0-2.921-3.276" transform="translate(14.035 2.009)" fill="#7f452f"/>
            <path id="Trazado_733076" data-name="Trazado 733076" d="M81.711,48.094l1.626,10.065V72.493H72.919L71.694,45.4Z" transform="translate(15.029 9.518)" fill="#534a59"/>
            <path id="Trazado_733077" data-name="Trazado 733077" d="M61.043,51.644l-.212.96a43.906,43.906,0,0,0-.963,11.868l.422,7.635h17.56l2.123-17.386V47.246l-16.749,2Z" transform="translate(12.536 9.904)" fill="#534a59"/>
            <path id="Trazado_733078" data-name="Trazado 733078" d="M77.129,18.052a151.765,151.765,0,0,1,18.649,5,.534.534,0,0,1,.881.307c2.228.786,3.532,1.316,3.532,1.316l-.976,4.264s-.749-.062-2.014-.19l-.123.281a4.306,4.306,0,0,1-1.655,0,171.124,171.124,0,0,1-17.1-3.249Z" transform="translate(16.168 3.784)" fill="#c1bb68"/>
            <path id="Trazado_733079" data-name="Trazado 733079" d="M107.2,10.455a7.557,7.557,0,0,0-1.973-.074c-.194.613.532.815.532.815h1.309Z" transform="translate(22.052 2.168)" fill="#f1a19a"/>
            <path id="Trazado_733080" data-name="Trazado 733080" d="M102.823,12.4s.531-1.76,1.089-1.956c.9-.316,2.388.083,3.5.1,0,0,.509.588.24,2.2l-.975,1.695a3.625,3.625,0,0,1-1.654-.335Z" transform="translate(21.554 2.164)" fill="#f1a19a"/>
            <rect id="Rectángulo_352783" data-name="Rectángulo 352783" width="11.883" height="18.077" transform="translate(126.486 9.497)" fill="#f8c187"/>
            <rect id="Rectángulo_352784" data-name="Rectángulo 352784" width="3.674" height="18.077" transform="translate(138.369 9.497)" fill="#f7a374"/>
            <rect id="Rectángulo_352785" data-name="Rectángulo 352785" width="8.158" height="4.719" transform="translate(128.349 14.643)" fill="#fff"/>
            <path id="Trazado_733081" data-name="Trazado 733081" d="M78.312,22.847c-3.412,1.149-7.518-.374-7.518-.374s.437-1.875.846-4.063a44.442,44.442,0,0,0,.653-4.526,9,9,0,0,0,.017-1.408c.98.523,2.026,1.1,2.944,1.615,1.472.826,2.613,1.488,2.613,1.488s-.068,1.147-.04,2.655a22.551,22.551,0,0,0,.485,4.614" transform="translate(14.84 2.615)" fill="#f6c1af"/>
            <path id="Trazado_733082" data-name="Trazado 733082" d="M77.68,17.99c-2.987-.6-3.862-1.974-3.862-1.974l-2.324,2.151c.233-1.25.456-2.6.583-3.767a1.884,1.884,0,0,0,.7-.125q-.074-.314-.122-.634h.506c.018.062.037.123.058.184a4.953,4.953,0,0,0,3.039,2.931c.475.2.953.379,1.416.525,0,.225,0,.462.006.709" transform="translate(14.987 2.86)" fill="#f1a19a"/>
            <path id="Trazado_733083" data-name="Trazado 733083" d="M85.036,54.286A6.243,6.243,0,0,1,82.864,57a9.6,9.6,0,0,1-4.5,1.73,18.391,18.391,0,0,1-5.637-.2c-2.66-.46-4.663-.792-6.193-1.016a19.4,19.4,0,0,0-4.317-.351,2.327,2.327,0,0,0-1.384.606c.042-1.637,3.282-5.311,5.212-9.236.12-.25.233-.489.337-.721a7.647,7.647,0,0,0,.692-2.279c.022-.175.036-.357.042-.548,0-.154,0-.31,0-.472,0-.143-.01-.287-.017-.427-.473-12.667-2.13-16.559-1.545-19.488a5.362,5.362,0,0,1,.417-1.262c1.874-3.993,7.547-5.134,7.547-5.134L79.83,18c.134,0,.267,0,.4,0,3.353.354,6.7,8.458,6.7,12.671,0,2.205-1.952,3.953-2.549,6.075-.065.233-.129.474-.195.722A43.288,43.288,0,0,0,83,43.836c-.092.852-.156,1.726-.185,2.615-.012.348-.019.7-.019,1.052,0,.238.015.5.041.764.045.487.126,1.014.227,1.54a29.548,29.548,0,0,0,1.26,3.9c.555-.062.714.573.714.573" transform="translate(12.751 3.773)" fill="#b1aa42"/>
            <g id="Grupo_1013051" data-name="Grupo 1013051" transform="translate(78.178 28.379)" opacity="0.75">
              <g id="Grupo_1013050" data-name="Grupo 1013050">
                <g id="Grupo_1013049" data-name="Grupo 1013049" clip-path="url(#clip-path-3)">
                  <path id="Trazado_733084" data-name="Trazado 733084" d="M83.389,36.329A43.319,43.319,0,0,0,82.2,42.691c-6.17-1.764-14.332-9.966-14.332-9.966L66.315,43.847q.007-.229,0-.472c0-.143-.01-.285-.017-.426-.473-12.667-2.13-16.56-1.545-19.49h.872l7.55,5.668L80.54,36.1Z" transform="translate(-64.63 -23.461)" fill="#a59a35"/>
                </g>
              </g>
            </g>
            <path id="Trazado_733085" data-name="Trazado 733085" d="M84.6,14.785c0,.046,0,.09-.008.134a18.577,18.577,0,0,1-.726,3.324,2.763,2.763,0,0,1-2.779,2.05l-.1-.006c-.287-.012-.584-.038-.889-.074A11.728,11.728,0,0,1,78,19.74c-.44-.14-.894-.307-1.346-.5a4.707,4.707,0,0,1-2.889-2.787c-.021-.057-.039-.116-.056-.175a4.929,4.929,0,0,1-.172-.889c-.006-.05-.152-.108-.385-.209a9.283,9.283,0,0,1-2.823-1.765,1.615,1.615,0,0,1-.243-.36,7.993,7.993,0,0,1,1.5-8.975,8.821,8.821,0,0,1,5.224-2.621,5.6,5.6,0,0,1,5.013,1.961,11.939,11.939,0,0,1,1.367,2.659,24.347,24.347,0,0,1,.179,3.776c.007.1.013.183.018.259.017.279.024.438.024.438s.1.209.242.552c.035.083.073.173.115.272s.076.189.114.293.085.242.125.369c.194.607.367,1.325.519,1.992a2.723,2.723,0,0,1,.065.431,2.678,2.678,0,0,1,.007.327" transform="translate(14.533 0.296)" fill="#f6c1af"/>
            <path id="Trazado_733086" data-name="Trazado 733086" d="M81.249,12.922a2.027,2.027,0,0,0-1.329.945l1.034-.062a1.264,1.264,0,0,0,.3-.883" transform="translate(16.753 2.709)" fill="#f1a19a"/>
            <path id="Trazado_733087" data-name="Trazado 733087" d="M81.886,6.218a2.894,2.894,0,0,0-1.4-.779c-.472.866-2.608,2.2-3.654.91s-.745-1.791-.745-1.791l1.1-.308,3.3-.341s.867.252.888.278.6.555.6.555Z" transform="translate(15.941 0.819)" fill="#f1a19a"/>
            <path id="Trazado_733088" data-name="Trazado 733088" d="M74.786,9.414c.105-.1.213-.191.324-.279s.224-.173.337-.256c.229-.167.465-.322.705-.469.121-.075.244-.143.368-.213s.248-.137.377-.2a6.128,6.128,0,0,1,.8-.337,2.23,2.23,0,0,1,.394-.015,2.82,2.82,0,0,1,.321.033,3.288,3.288,0,0,1,.616.16A3.43,3.43,0,0,1,79.6,8.1a2.523,2.523,0,0,1,.5.369c-.2-.046-.4-.09-.594-.128s-.387-.074-.578-.1-.38-.047-.566-.056c-.093,0-.186,0-.278,0-.046,0-.093,0-.138,0s-.091.006-.137.01l.067-.015c-.247.087-.5.194-.75.3l-.762.327c-.256.108-.513.214-.774.317s-.526.2-.8.287" transform="translate(15.677 1.602)" fill="#7f452f"/>
            <path id="Trazado_733089" data-name="Trazado 733089" d="M79.077,3.113a2.061,2.061,0,0,1,1.564-.328c.975.806,1.389,2.949.606,3.641a2.111,2.111,0,0,0-1.36-1.256Z" transform="translate(16.577 0.575)" fill="#7f452f"/>
            <path id="Trazado_733090" data-name="Trazado 733090" d="M70.138,14.51a5.6,5.6,0,0,0,3.289,1.131,5.035,5.035,0,0,0,.764-.04c0-.12.013-.238.024-.357.157-1.726.841-3.335,2.269-3.976.056-.025.109-.05.162-.077a6.4,6.4,0,0,0,2.087-4.485c.01-.214.012-.438,0-.673C81.2,7.842,82.2,5.745,82.2,5.745c.5-3.671-2.546-6.151-6.773-5.69s-5.509,5.189-5.509,5.189A4.989,4.989,0,0,0,68.17,7.576c-.485,2.566.2,4.461,1.968,6.934" transform="translate(14.258 0)" fill="#7f452f"/>
            <path id="Trazado_733091" data-name="Trazado 733091" d="M73.259,14.842a1.784,1.784,0,0,1-.667.12A3.7,3.7,0,0,1,71.1,14.61a2.245,2.245,0,0,1-1.36-1.847,2.023,2.023,0,0,1,.013-.455,1.482,1.482,0,0,1,.49-.933c.018-.015.036-.031.057-.046a2.621,2.621,0,0,1,2.876.52,8,8,0,0,0-.111,1.291c0,.179,0,.357.017.537s.033.375.059.562.069.4.116.6" transform="translate(14.618 2.335)" fill="#fdcfbf"/>
            <path id="Trazado_733092" data-name="Trazado 733092" d="M73.729,13.829a.863.863,0,0,1-.223-.181.5.5,0,0,1-.077-.125.294.294,0,0,1-.021-.073.51.51,0,0,1,0-.074,1.261,1.261,0,0,1,.04-.288,1.885,1.885,0,0,0,.054-.271,5.155,5.155,0,0,0-.693-.547,3.757,3.757,0,0,0-.394-.225c-.137-.065-.276-.127-.417-.179a4.491,4.491,0,0,0-.881-.22,4.344,4.344,0,0,0-.451-.042,3.494,3.494,0,0,0-.451.007,2.256,2.256,0,0,1-.1.226,1.785,1.785,0,0,0-.092.275,2.007,2.007,0,0,0-.05.583,2.458,2.458,0,0,0,.109.582,3.451,3.451,0,0,0,.232.553,2.882,2.882,0,0,1-.275-.537C70,13.2,69.973,13.1,69.945,13a2.307,2.307,0,0,1-.053-.3,1.927,1.927,0,0,1,.028-.612,1.789,1.789,0,0,1,.087-.3c.021-.048.041-.1.065-.143a1.513,1.513,0,0,1,.082-.137,3.2,3.2,0,0,1,.98,0,4.2,4.2,0,0,1,.906.229,3.8,3.8,0,0,1,1.528,1.05.425.425,0,0,1-.019.177c-.013.047-.027.092-.041.137a1.15,1.15,0,0,0-.058.273.308.308,0,0,0,.013.133.485.485,0,0,0,.064.121.92.92,0,0,0,.2.2" transform="translate(14.649 2.406)" fill="#f1a19a"/>
            <path id="Trazado_733093" data-name="Trazado 733093" d="M79.07,10.053a2.615,2.615,0,0,1-.088.421c-.438.1-1.11.27-1.482.325-.042.006-.082.011-.116.013l-.075,0A1.21,1.21,0,0,1,76.07,9.74a23.458,23.458,0,0,0,2.3-.842,1.933,1.933,0,0,1,.7.688,2.01,2.01,0,0,1,0,.467" transform="translate(15.946 1.865)" fill="#f6f7e9"/>
            <path id="Trazado_733094" data-name="Trazado 733094" d="M75.563,9.93c.24-.1.48-.189.721-.281l.723-.267c.121-.042.241-.087.362-.132s.241-.087.362-.133l.722-.267A.775.775,0,0,1,78.718,9a1.494,1.494,0,0,1,.183.178,1.876,1.876,0,0,1,.154.2,1.6,1.6,0,0,1,.123.218,2.447,2.447,0,0,0-.333-.364,2.235,2.235,0,0,0-.19-.149,1.766,1.766,0,0,0-.207-.12,3.867,3.867,0,0,1-.653.318c-.12.048-.242.094-.363.14s-.243.086-.365.127-.247.077-.371.115-.248.07-.373.1c-.252.064-.5.122-.76.161" transform="translate(15.84 1.855)" fill="#7f452f"/>
            <path id="Trazado_733095" data-name="Trazado 733095" d="M79.584,8.347a1.765,1.765,0,0,1,.276-.278,2.894,2.894,0,0,1,.311-.22,2.465,2.465,0,0,1,.342-.175,1.7,1.7,0,0,1,.379-.116.37.37,0,0,1,.18.045.377.377,0,0,1,.106.088.367.367,0,0,1,.094.23.762.762,0,0,0-.19-.1.413.413,0,0,0-.166-.011,1.666,1.666,0,0,1-.272.152c-.109.053-.221.1-.334.154s-.231.094-.35.134a2.46,2.46,0,0,1-.377.094" transform="translate(16.683 1.584)" fill="#7f452f"/>
            <path id="Trazado_733096" data-name="Trazado 733096" d="M78.838,10.009a2.614,2.614,0,0,1-.088.421c-.438.1-1.11.27-1.482.325a1.557,1.557,0,0,1-.09-.473c-.018-.634.344-1.16.807-1.175.409-.011.761.376.853.9" transform="translate(16.178 1.909)" fill="#402318"/>
            <path id="Trazado_733097" data-name="Trazado 733097" d="M77.619,9.8a.347.347,0,1,1-.358-.336.348.348,0,0,1,.358.336" transform="translate(16.126 1.983)" fill="#f6f7e9"/>
            <path id="Trazado_733098" data-name="Trazado 733098" d="M81.511,9.646a2.906,2.906,0,0,1-1.256.337c-.036,0-.074,0-.109,0h-.461a11.734,11.734,0,0,1-.112-1.208c.025-.011.581-.3.914-.412a3.671,3.671,0,0,1,.74.036c.006.094.011.181.017.258,0,.054.006.105.008.149.011.186.015.289.015.289s.1.21.243.552" transform="translate(16.681 1.753)" fill="#f6f7e9"/>
            <path id="Trazado_733099" data-name="Trazado 733099" d="M79.572,8.787a1.9,1.9,0,0,1,.207-.149c.07-.046.144-.088.218-.129a2.5,2.5,0,0,1,.229-.111.781.781,0,0,1,.519-.092c.086,0,.172.017.258.029s.167.031.252.051a2.5,2.5,0,0,1,.247.071c-.086,0-.171-.006-.255-.011l-.254-.011c-.085,0-.168,0-.252,0s-.166,0-.246.012c-.063.019-.142.05-.218.08l-.23.091c-.155.062-.311.123-.474.174" transform="translate(16.68 1.74)" fill="#7f452f"/>
            <path id="Trazado_733100" data-name="Trazado 733100" d="M81.406,9.588a2.906,2.906,0,0,1-1.256.337,1.1,1.1,0,0,1-.073-.3.848.848,0,0,1,.648-.991.644.644,0,0,1,.422.108c.011.186.015.289.015.289s.1.21.243.552" transform="translate(16.785 1.81)" fill="#402318"/>
            <path id="Trazado_733101" data-name="Trazado 733101" d="M80.474,9.225a.327.327,0,1,1-.336-.317.328.328,0,0,1,.336.317" transform="translate(16.733 1.867)" fill="#f6f7e9"/>
            <path id="Trazado_733102" data-name="Trazado 733102" d="M72.682,16.067a5.468,5.468,0,0,0,1.377,2.572,7.8,7.8,0,0,1-.8-3.128,8.96,8.96,0,0,1-.006-1.02c.006-.12.015-.238.025-.357.157-1.726.841-3.335,2.269-3.976.054-.025.108-.05.161-.077A4.107,4.107,0,0,0,77.8,5.595c-.028-.187-.057-.3-.057-.3a4.5,4.5,0,0,1-2.845,3.9c-1.069.425-1.989,2.019-2.3,3.88a8.069,8.069,0,0,0-.109,1.456,7.1,7.1,0,0,0,.191,1.536" transform="translate(15.196 1.11)" fill="#bf6449"/>
            <path id="Trazado_733103" data-name="Trazado 733103" d="M79.563,8.317a10.633,10.633,0,0,0,.047,1.494,9.292,9.292,0,0,0,.272,1.476,7.29,7.29,0,0,0,.541,1.4,4.884,4.884,0,0,0,.377.654,4.277,4.277,0,0,0,.48.589.854.854,0,0,0-.025.186,1.392,1.392,0,0,1-.041.225,1.046,1.046,0,0,1-.081.213.842.842,0,0,1-.132.185c-.317.022-.66.051-1.005.091.346,0,.693-.015,1.037-.022a.692.692,0,0,0,.181-.208,1.063,1.063,0,0,0,.1-.227,1.428,1.428,0,0,0,.056-.242,1.556,1.556,0,0,0,.016-.25,5.74,5.74,0,0,1-.823-1.262,8.1,8.1,0,0,1-.536-1.375c-.037-.119-.065-.238-.1-.357s-.058-.24-.083-.36c-.054-.242-.094-.485-.132-.729s-.068-.492-.094-.739-.041-.495-.058-.743" transform="translate(16.677 1.743)" fill="#f1a19a"/>
            <path id="Trazado_733104" data-name="Trazado 733104" d="M80.5,15.026c-.086.006-.172.013-.258.013s-.171,0-.255,0a3.35,3.35,0,0,1-.5-.054,2.213,2.213,0,0,1-.479-.154,1.5,1.5,0,0,1-.217-.128,1.683,1.683,0,0,1-.2-.162,1.233,1.233,0,0,0,.387.345,1.732,1.732,0,0,0,.491.178,2.284,2.284,0,0,0,.52.037,2.215,2.215,0,0,0,.513-.074" transform="translate(16.475 3.048)" fill="#f1a19a"/>
            <path id="Trazado_733105" data-name="Trazado 733105" d="M79.744,15.343a1.212,1.212,0,0,1-.4-.011,1.192,1.192,0,0,1-.357-.184.98.98,0,0,0,.156.135.651.651,0,0,0,.191.087.747.747,0,0,0,.412-.028" transform="translate(16.557 3.175)" fill="#f1a19a"/>
            <path id="Trazado_733106" data-name="Trazado 733106" d="M94.333,29.351l1.456,1.3a6.633,6.633,0,0,0,1.118-.933,15.127,15.127,0,0,0,1.825-2.066c2.846-3.949,1.514-3.272,8.134-13.554l-.353-.272a1.691,1.691,0,0,0,.423-2.52l1.084-.573.5.419a.616.616,0,0,0,.682.069.169.169,0,0,0,.07-.229l-.624-1.161h-1.43c-.667.317-1.443.783-1.443.783a3.92,3.92,0,0,0-.97,1.891c-8.28,10.1-8.034,9.242-10.611,12.649-.031.041-.065.086-.1.129-.046.06-.09.115-.133.175a2.882,2.882,0,0,0,.37,3.9" transform="translate(19.574 2.06)" fill="#f6c1af"/>
            <path id="Trazado_733107" data-name="Trazado 733107" d="M93.521,27.812a1.409,1.409,0,0,0,1.494.567,3.11,3.11,0,0,0,.95-.331,6.754,6.754,0,0,1-1.715-5.385.5.5,0,0,0-.443-.328.787.787,0,0,0-.4.132c-.639.383-1.39,3.131.114,5.345" transform="translate(19.421 4.682)" fill="#dad6a4"/>
            <path id="Trazado_733108" data-name="Trazado 733108" d="M79.514,21.17c2.025-2.164-1.133-3.08-1.442-3.164-.132-.007-.265-.008-.4,0l-6.317.208c-1.7,1.835,6.029,5.234,8.157,2.96" transform="translate(14.908 3.773)" fill="#f6c1af"/>
            <path id="Trazado_733109" data-name="Trazado 733109" d="M95.672,27.995a6.632,6.632,0,0,0,1.118-.933A7.444,7.444,0,0,1,94.075,22.5c-.031.041-.065.085-.1.129a6.786,6.786,0,0,0,1.693,5.368" transform="translate(19.691 4.716)" fill="#f1a19a"/>
            <path id="Trazado_733110" data-name="Trazado 733110" d="M76.639,37.159a1.958,1.958,0,0,0,3.127,1.808,10.821,10.821,0,0,0,2.728-2.159c2.091-2.29,2.719-3.317,7.657-10.322l-.513-3.025c-8.059,7.53-11.816,9.809-12.7,11.979a4.3,4.3,0,0,0-.294,1.719" transform="translate(16.065 4.918)" fill="#f6c1af"/>
            <path id="Trazado_733111" data-name="Trazado 733111" d="M85.775,19.715a2.7,2.7,0,0,0,2.7,2.7h4.48a2.514,2.514,0,0,0,2.51-2.511v-1a1.275,1.275,0,0,0-1.275-1.275H87.856a2.081,2.081,0,0,0-2.081,2.081" transform="translate(17.981 3.697)" fill="#6686b5"/>
            <path id="Trazado_733112" data-name="Trazado 733112" d="M86.8,19.715a2.686,2.686,0,0,0,.273,1.187,2.727,2.727,0,0,0,.517.725,2.692,2.692,0,0,0,1.91.791h4.479a2.514,2.514,0,0,0,2.511-2.511v-1a1.275,1.275,0,0,0-1.275-1.275H88.884A2.081,2.081,0,0,0,86.8,19.715" transform="translate(18.196 3.697)" fill="#859ec4"/>
            <g id="Grupo_1013054" data-name="Grupo 1013054" transform="translate(105.272 21.33)" opacity="0.25">
              <g id="Grupo_1013053" data-name="Grupo 1013053">
                <g id="Grupo_1013052" data-name="Grupo 1013052" clip-path="url(#clip-path-4)">
                  <path id="Trazado_733113" data-name="Trazado 733113" d="M93.122,20.9A2.085,2.085,0,0,0,95.2,18.91a1.276,1.276,0,0,0-1.276-1.276H95.17a1.275,1.275,0,0,1,1.275,1.276v1a2.5,2.5,0,0,1-.481,1.475c-.028.041-.056.077-.085.112-.063.075-.105.121-.149.165a2.424,2.424,0,0,1-.184.172c-.092.075-.148.117-.206.156s-.127.081-.186.114a2.016,2.016,0,0,1-.226.112c-.109.045-.177.07-.247.092s-.145.04-.217.057c-.111.023-.184.033-.258.041-.117.011-.195.016-.273.016H89.456A2.7,2.7,0,0,1,87.028,20.9Z" transform="translate(-87.028 -17.634)" fill="#6686b5"/>
                </g>
              </g>
            </g>
            <path id="Trazado_733114" data-name="Trazado 733114" d="M89.25,28.053a1.393,1.393,0,0,0,1.362-1.1l1.15-5.365H89.472l-1.143,5.325a.943.943,0,0,0,.922,1.141" transform="translate(18.512 4.525)" fill="#6686b5"/>
            <path id="Trazado_733115" data-name="Trazado 733115" d="M89.912,22.45l1.605.42a.752.752,0,0,1,.41.271.761.761,0,0,1,.065.832l-.113.206a.942.942,0,0,1-.017.993.948.948,0,0,1-.224.959l-.1.105a.752.752,0,0,1-.665.507l-1.193.073-.409-2.281Z" transform="translate(18.713 4.706)" fill="#f1a19a"/>
            <path id="Trazado_733116" data-name="Trazado 733116" d="M87.386,23.68s1.543-1.412,2.8-1.248a1.356,1.356,0,0,1,.515.207,2.464,2.464,0,0,1,.616,3.594,1.225,1.225,0,0,1-.712.517c-2.1.34-2.7-.044-2.7-.044Z" transform="translate(18.318 4.699)" fill="#f6c1af"/>
            <rect id="Rectángulo_352788" data-name="Rectángulo 352788" width="4.941" height="3.247" transform="translate(54.963 47.143)" fill="#9c95b6"/>
            <path id="Trazado_733117" data-name="Trazado 733117" d="M75.105,41.657H37.377a1.709,1.709,0,0,0-1.709,1.708v9.79H76.813v-9.79a1.708,1.708,0,0,0-1.708-1.708" transform="translate(7.477 8.732)" fill="#9c95b6"/>
            <path id="Trazado_733118" data-name="Trazado 733118" d="M80.2,51.162H31.522A1.236,1.236,0,0,0,30.286,52.4v4.5H81.431V52.4A1.235,1.235,0,0,0,80.2,51.162" transform="translate(6.349 10.725)" fill="#6f6377"/>
            <path id="Trazado_733119" data-name="Trazado 733119" d="M184.334,61.114H28.209V56.846a.941.941,0,0,1,.94-.941H183.395a.941.941,0,0,1,.94.941Z" transform="translate(5.913 11.719)" fill="#9c95b6"/>
            <path id="Trazado_733120" data-name="Trazado 733120" d="M188.954,64.123H25.029a.253.253,0,0,1-.253-.253V60.464a.253.253,0,0,1,.253-.253H188.954a.253.253,0,0,1,.253.253V63.87a.253.253,0,0,1-.253.253" transform="translate(5.194 12.622)" fill="#c0b3cd"/>
            <rect id="Rectángulo_352789" data-name="Rectángulo 352789" width="162.186" height="49.137" transform="translate(31.092 76.745)" fill="#9c95b6"/>
            <rect id="Rectángulo_352790" data-name="Rectángulo 352790" width="9.081" height="13.814" transform="translate(117.19 53.868)" fill="#f8c187"/>
            <rect id="Rectángulo_352791" data-name="Rectángulo 352791" width="2.808" height="13.814" transform="translate(126.271 53.868)" fill="#f7a374"/>
            <rect id="Rectángulo_352792" data-name="Rectángulo 352792" width="6.232" height="3.606" transform="translate(118.615 57.8)" fill="#fff"/>
            <rect id="Rectángulo_352793" data-name="Rectángulo 352793" width="9.081" height="13.814" transform="translate(130.037 53.868)" fill="#f8c187"/>
            <rect id="Rectángulo_352794" data-name="Rectángulo 352794" width="2.808" height="13.814" transform="translate(139.118 53.868)" fill="#f7a374"/>
            <rect id="Rectángulo_352795" data-name="Rectángulo 352795" width="6.233" height="3.606" transform="translate(131.461 57.8)" fill="#fff"/>
            <path id="Trazado_733121" data-name="Trazado 733121" d="M122.547,33.359h-2.626l-3.715,11.585a.778.778,0,0,0-.037.242V59.9a.793.793,0,0,0,.792.792h8.545a.794.794,0,0,0,.795-.792V45.186a.779.779,0,0,0-.039-.242Z" transform="translate(24.352 6.993)" fill="#bacce8"/>
            <path id="Trazado_733122" data-name="Trazado 733122" d="M122.067,31.986h-2.841a.254.254,0,0,0-.254.254v1.153a.254.254,0,0,0,.254.253h2.841a.255.255,0,0,0,.254-.253V32.24a.255.255,0,0,0-.254-.254" transform="translate(24.94 6.705)" fill="#6686b5"/>
            <rect id="Rectángulo_352796" data-name="Rectángulo 352796" width="10.132" height="6.738" transform="translate(140.521 55.073)" fill="#f8c187"/>
            <path id="Trazado_733123" data-name="Trazado 733123" d="M123.251,48.79a2.481,2.481,0,1,1-2.466-2.747,2.618,2.618,0,0,1,2.466,2.747" transform="translate(24.803 9.652)" fill="#fff"/>
            <path id="Trazado_733124" data-name="Trazado 733124" d="M129.592,33.359h-2.627l-3.714,11.585a.778.778,0,0,0-.037.242V59.9a.793.793,0,0,0,.792.792h8.545a.793.793,0,0,0,.794-.792V45.186a.779.779,0,0,0-.039-.242Z" transform="translate(25.829 6.993)" fill="#c1bb68"/>
            <path id="Trazado_733125" data-name="Trazado 733125" d="M129.111,31.986h-2.84a.254.254,0,0,0-.254.254v1.153a.254.254,0,0,0,.254.253h2.84a.254.254,0,0,0,.254-.253V32.24a.254.254,0,0,0-.254-.254" transform="translate(26.417 6.705)" fill="#b1aa42"/>
            <rect id="Rectángulo_352797" data-name="Rectángulo 352797" width="10.131" height="6.738" transform="translate(149.043 55.073)" fill="#fff"/>
            <path id="Trazado_733126" data-name="Trazado 733126" d="M130.295,48.79a2.481,2.481,0,1,1-2.466-2.747,2.618,2.618,0,0,1,2.466,2.747" transform="translate(26.279 9.652)" fill="#c1bb68"/>
            <path id="Trazado_733127" data-name="Trazado 733127" d="M149.111,43.279l-4.382-4.927L140.1,43.279V59.642h9.014Z" transform="translate(29.368 8.04)" fill="#bacce8"/>
            <rect id="Rectángulo_352798" data-name="Rectángulo 352798" width="5.775" height="16.363" transform="translate(178.479 51.32)" fill="#6686b5"/>
            <rect id="Rectángulo_352799" data-name="Rectángulo 352799" width="9.014" height="1.858" transform="translate(169.465 52.944)" fill="#fff"/>
            <rect id="Rectángulo_352800" data-name="Rectángulo 352800" width="5.775" height="1.858" transform="translate(178.479 52.944)" fill="#bacce8"/>
            <rect id="Rectángulo_352801" data-name="Rectángulo 352801" width="9.014" height="1.857" transform="translate(169.465 64.959)" fill="#fff"/>
            <rect id="Rectángulo_352802" data-name="Rectángulo 352802" width="5.775" height="1.857" transform="translate(178.479 64.959)" fill="#bacce8"/>
            <rect id="Rectángulo_352803" data-name="Rectángulo 352803" width="9.014" height="3.58" transform="translate(169.465 59.452)" fill="#fff"/>
            <rect id="Rectángulo_352804" data-name="Rectángulo 352804" width="5.775" height="3.58" transform="translate(178.479 59.452)" fill="#bacce8"/>
            <path id="Trazado_733128" data-name="Trazado 733128" d="M154.083,43.279,149.7,38.352h-5.775l4.382,4.927Z" transform="translate(30.171 8.04)" fill="#6686b5"/>
            <rect id="Rectángulo_352805" data-name="Rectángulo 352805" width="5.758" height="0.879" transform="translate(174.097 45.513)" fill="#6686b5"/>
            <path id="Trazado_733129" data-name="Trazado 733129" d="M138.752,44.748l-3.873-4.356-4.1,4.356V59.215h7.969Z" transform="translate(27.416 8.467)" fill="#f8c187"/>
            <rect id="Rectángulo_352806" data-name="Rectángulo 352806" width="5.107" height="14.467" transform="translate(166.168 53.215)" fill="#f7a374"/>
            <path id="Trazado_733130" data-name="Trazado 733130" d="M143.149,44.748l-3.874-4.356h-5.106l3.873,4.356Z" transform="translate(28.125 8.467)" fill="#f7a374"/>
            <rect id="Rectángulo_352807" data-name="Rectángulo 352807" width="5.089" height="0.778" transform="translate(162.294 48.081)" fill="#f7a374"/>
            <path id="Trazado_733131" data-name="Trazado 733131" d="M135.695,53.97h-2.315a1.5,1.5,0,0,1-1.5-1.5V47.3a1.5,1.5,0,0,1,1.5-1.5h2.315a1.5,1.5,0,0,1,1.5,1.5v5.174a1.5,1.5,0,0,1-1.5,1.5" transform="translate(27.646 9.601)" fill="#fff"/>
            <path id="Trazado_733132" data-name="Trazado 733132" d="M141.769,46.491h-3.726a.162.162,0,0,1-.162-.162v-.365a.162.162,0,0,1,.162-.162h3.726a.162.162,0,0,1,.162.162v.365a.162.162,0,0,1-.162.162" transform="translate(28.904 9.601)" fill="#fff"/>
            <path id="Trazado_733133" data-name="Trazado 733133" d="M141.769,48.551h-3.726a.162.162,0,0,1-.162-.162v-.365a.161.161,0,0,1,.162-.161h3.726a.161.161,0,0,1,.162.161v.365a.162.162,0,0,1-.162.162" transform="translate(28.904 10.033)" fill="#fff"/>
            <path id="Trazado_733134" data-name="Trazado 733134" d="M141.769,50.613h-3.726a.163.163,0,0,1-.162-.163v-.364a.162.162,0,0,1,.162-.162h3.726a.162.162,0,0,1,.162.162v.364a.163.163,0,0,1-.162.163" transform="translate(28.904 10.465)" fill="#fff"/>
            <path id="Trazado_733135" data-name="Trazado 733135" d="M141.769,52.673h-3.726a.163.163,0,0,1-.162-.162v-.365a.161.161,0,0,1,.162-.161h3.726a.161.161,0,0,1,.162.161v.365a.163.163,0,0,1-.162.162" transform="translate(28.904 10.897)" fill="#fff"/>
            <path id="Trazado_733136" data-name="Trazado 733136" d="M159.558,61.114H3.433V56.846a.941.941,0,0,1,.94-.941H158.62a.941.941,0,0,1,.939.941Z" transform="translate(0.72 11.719)" fill="#c0b3cd"/>
            <path id="Trazado_733137" data-name="Trazado 733137" d="M164.179,64.123H.254A.254.254,0,0,1,0,63.87V60.464a.253.253,0,0,1,.254-.253H164.179a.253.253,0,0,1,.253.253V63.87a.253.253,0,0,1-.253.253" transform="translate(0 12.622)" fill="#fff"/>
            <rect id="Rectángulo_352808" data-name="Rectángulo 352808" width="162.187" height="49.137" transform="translate(1.123 76.745)" fill="#c0b3cd"/>
            <g id="Grupo_1013057" data-name="Grupo 1013057" transform="translate(1.122 76.745)" opacity="0.5">
              <g id="Grupo_1013056" data-name="Grupo 1013056">
                <g id="Grupo_1013055" data-name="Grupo 1013055" clip-path="url(#clip-path-5)">
                  <path id="Trazado_733138" data-name="Trazado 733138" d="M.928,63.445H163.115v9.921L.928,65.448Z" transform="translate(-0.928 -63.445)" fill="#9c95b6"/>
                </g>
              </g>
            </g>
            <path id="Trazado_733139" data-name="Trazado 733139" d="M59.849,51.162H22.281A1.236,1.236,0,0,0,21.045,52.4v4.5h40.04V52.4a1.236,1.236,0,0,0-1.236-1.235" transform="translate(4.412 10.725)" fill="#534a59"/>
            <path id="Trazado_733140" data-name="Trazado 733140" d="M65.14,41.657H27.412A1.708,1.708,0,0,0,25.7,43.365v9.79H66.848v-9.79a1.708,1.708,0,0,0-1.708-1.708" transform="translate(5.388 8.732)" fill="#c0b3cd"/>
            <path id="Trazado_733141" data-name="Trazado 733141" d="M64.563,41.9H36.177a1.02,1.02,0,0,1-1.021-1.021V26.019A1.021,1.021,0,0,1,36.177,25H64.563a1.021,1.021,0,0,1,1.021,1.022V40.882A1.021,1.021,0,0,1,64.563,41.9" transform="translate(7.37 5.24)" fill="#9a88a0"/>
            <path id="Trazado_733142" data-name="Trazado 733142" d="M63.764,41.9H35.378a1.021,1.021,0,0,1-1.022-1.021V26.019A1.022,1.022,0,0,1,35.378,25H63.764a1.022,1.022,0,0,1,1.022,1.022V40.882A1.022,1.022,0,0,1,63.764,41.9" transform="translate(7.202 5.24)" fill="#534a59"/>
            <rect id="Rectángulo_352810" data-name="Rectángulo 352810" width="4.941" height="3.247" transform="translate(54.303 47.143)" fill="#c0b3cd"/>
            <path id="Trazado_733143" data-name="Trazado 733143" d="M80.226,33.5a.617.617,0,0,0-.221.127,5.828,5.828,0,0,0-2.1,3.964,2.032,2.032,0,0,0,.1.65c-3.014-2.044-9.05-6.5-12.474-11.475a4.664,4.664,0,0,1-.63-1.407,3.385,3.385,0,0,1,5.113-3.744l.1.071c3.757,2.707,5.631,7.679,10.106,11.813" transform="translate(13.579 4.41)" fill="#c1bb68"/>
            <path id="Trazado_733144" data-name="Trazado 733144" d="M78.592,31.914c-1.914,3.116-1.471,4.606-.979,5.25a1.417,1.417,0,0,0,.489.425s-.233-.006-.554-.036a2.119,2.119,0,0,1-1.818-1.47,2.063,2.063,0,0,1-.1-.648,5.823,5.823,0,0,1,2.1-3.965.636.636,0,0,1,.221-.127.577.577,0,0,1,.542.094.392.392,0,0,1,.1.478" transform="translate(15.855 6.564)" fill="#dad6a4"/>
            <path id="Trazado_733145" data-name="Trazado 733145" d="M105.624,87.676l-.168-.266,11.254-7.1h9.1l11.116,6.707-.162.27-11.043-6.663H116.8Z" transform="translate(22.106 16.834)" fill="#fff"/>
            <path id="Trazado_733146" data-name="Trazado 733146" d="M137.066,87.9h-31.3a1.375,1.375,0,1,1,0-2.751h31.3a1.375,1.375,0,0,1,0,2.751" transform="translate(21.882 17.85)" fill="#b97a57"/>
            <path id="Trazado_733147" data-name="Trazado 733147" d="M131.639,101.282H109.426a.829.829,0,1,1,0-1.658h22.214a.829.829,0,0,1,0,1.658" transform="translate(22.765 20.884)" fill="#b97a57"/>
            <path id="Trazado_733148" data-name="Trazado 733148" d="M105.526,87.426l4.545,14.754h22.212l4.545-14.754Zm7.292,14.3a.526.526,0,0,1-.469-.4l-2.511-11.458c-.173-.784.169-1.47.767-1.507s1.2.593,1.338,1.381c.007.041.015.086.019.126l1.23,11.458a.351.351,0,0,1-.374.4m6.182-.4a.4.4,0,0,1-.42.4.455.455,0,0,1-.423-.4l-1.264-11.458c-.086-.784.327-1.47.93-1.507s1.136.593,1.189,1.381c0,.041,0,.086,0,.126Zm6.47-11.583a1.076,1.076,0,0,1-.011.126L124.2,101.321a.454.454,0,0,1-.462.4.4.4,0,0,1-.381-.4l-.016-11.458a1.407,1.407,0,0,1,1.092-1.507c.607-.036,1.073.593,1.04,1.381m7.045.126-2.51,11.458a.519.519,0,0,1-.507.4.351.351,0,0,1-.337-.4l1.231-11.458a1.612,1.612,0,0,1,1.258-1.507c.61-.036,1.008.593.889,1.381-.007.041-.015.086-.024.126" transform="translate(22.121 18.327)" fill="#f7a374"/>
            <path id="Trazado_733149" data-name="Trazado 733149" d="M122.6,81.125h-6.876a.25.25,0,0,1-.25-.25V80.2a.25.25,0,0,1,.25-.25H122.6a.251.251,0,0,1,.25.25v.673a.251.251,0,0,1-.25.25" transform="translate(24.206 16.76)" fill="#f7a374"/>
            <path id="Trazado_733150" data-name="Trazado 733150" d="M137.066,92.56h-31.3a1.375,1.375,0,1,1,0-2.749h31.3a1.375,1.375,0,1,1,0,2.749" transform="translate(21.882 18.827)" fill="#fce6cf"/>
            <path id="Trazado_733151" data-name="Trazado 733151" d="M131.639,105.939H109.426a.829.829,0,1,1,0-1.658h22.214a.829.829,0,0,1,0,1.658" transform="translate(22.765 21.86)" fill="#fce6cf"/>
            <path id="Trazado_733152" data-name="Trazado 733152" d="M105.526,92.083l4.545,14.755h22.212l4.545-14.755Zm7.292,14.3a.523.523,0,0,1-.469-.4l-2.511-11.456c-.173-.784.169-1.47.767-1.507s1.2.592,1.338,1.381c.007.041.015.086.019.126l1.23,11.456a.351.351,0,0,1-.374.4m6.182-.4a.4.4,0,0,1-.42.4.453.453,0,0,1-.423-.4l-1.264-11.456c-.086-.784.327-1.47.93-1.507s1.136.592,1.189,1.381c0,.041,0,.086,0,.126ZM125.47,94.4a1.075,1.075,0,0,1-.011.126L124.2,105.978a.454.454,0,0,1-.462.4.4.4,0,0,1-.381-.4l-.016-11.456a1.407,1.407,0,0,1,1.092-1.507c.607-.037,1.073.592,1.04,1.381m7.045.126-2.51,11.456a.519.519,0,0,1-.507.4.35.35,0,0,1-.337-.4l1.231-11.456a1.612,1.612,0,0,1,1.258-1.507c.61-.037,1.008.592.889,1.381-.007.041-.015.086-.024.126" transform="translate(22.121 19.303)" fill="#f8c187"/>
          </g>
        </g>
      </g>
    </g>
  </g>
</svg>
