<svg xmlns="http://www.w3.org/2000/svg" xmlns:xlink="http://www.w3.org/1999/xlink" width="135" height="135" viewBox="0 0 135 135">
  <defs>
    <clipPath id="clip-path">
      <rect id="Rectángulo_351540" data-name="Rectángulo 351540" width="123.667" height="108.565" fill="none"/>
    </clipPath>
    <clipPath id="clip-path-3">
      <rect id="Rectángulo_351379" data-name="Rectángulo 351379" width="24.689" height="23.509" fill="none"/>
    </clipPath>
    <clipPath id="clip-path-4">
      <rect id="Rectángulo_351439" data-name="Rectángulo 351439" width="45.333" height="54.582" fill="none"/>
    </clipPath>
    <clipPath id="clip-path-5">
      <rect id="Rectángulo_351469" data-name="Rectángulo 351469" width="50.043" height="30.236" fill="none"/>
    </clipPath>
    <clipPath id="clip-path-7">
      <rect id="Rectángulo_351537" data-name="Rectángulo 351537" width="10.642" height="14.299" fill="none"/>
    </clipPath>
    <clipPath id="clip-path-8">
      <rect id="Rectángulo_351538" data-name="Rectángulo 351538" width="10.643" height="14.299" fill="none"/>
    </clipPath>
  </defs>
  <g id="Grupo_1012534" data-name="Grupo 1012534" transform="translate(-313 -608)">
    <rect id="Rectángulo_351084" data-name="Rectángulo 351084" width="135" height="135" transform="translate(313 608)" fill="none"/>
    <g id="Grupo_1012533" data-name="Grupo 1012533" transform="translate(319 621)">
      <g id="Grupo_1012532" data-name="Grupo 1012532" clip-path="url(#clip-path)">
        <rect id="Rectángulo_351315" data-name="Rectángulo 351315" width="35.35" height="33.478" transform="translate(25.878 0.045)" fill="#f5cb95"/>
        <path id="Trazado_730508" data-name="Trazado 730508" d="M17.735,33.508h35.35L17.735.031Z" transform="translate(8.144 0.014)" fill="#d1ad7f"/>
        <rect id="Rectángulo_351316" data-name="Rectángulo 351316" width="5.396" height="10.168" transform="translate(40.842 0)" fill="#9c805f"/>
        <rect id="Rectángulo_351317" data-name="Rectángulo 351317" width="10.121" height="9.412" transform="translate(28.399 3.811)" fill="#ebebeb"/>
        <rect id="Rectángulo_351318" data-name="Rectángulo 351318" width="7.703" height="0.871" transform="translate(29.384 4.999)" fill="#9e9e9e"/>
        <rect id="Rectángulo_351319" data-name="Rectángulo 351319" width="7.703" height="0.871" transform="translate(29.384 7.313)" fill="#9e9e9e"/>
        <rect id="Rectángulo_351320" data-name="Rectángulo 351320" width="7.703" height="0.871" transform="translate(29.384 9.626)" fill="#9e9e9e"/>
        <rect id="Rectángulo_351321" data-name="Rectángulo 351321" width="4.378" height="0.871" transform="translate(29.384 10.891)" fill="#9e9e9e"/>
        <rect id="Rectángulo_351322" data-name="Rectángulo 351322" width="14.311" height="1.148" transform="translate(43.565 24.173)" fill="#9c8469"/>
        <rect id="Rectángulo_351323" data-name="Rectángulo 351323" width="14.311" height="1.15" transform="translate(43.565 28.071)" fill="#9c8469"/>
        <rect id="Rectángulo_351324" data-name="Rectángulo 351324" width="14.311" height="1.15" transform="translate(43.565 30.058)" fill="#9c8469"/>
        <rect id="Rectángulo_351325" data-name="Rectángulo 351325" width="7.156" height="1.15" transform="translate(43.565 26.161)" fill="#9c8469"/>
        <rect id="Rectángulo_351326" data-name="Rectángulo 351326" width="10.121" height="4.483" transform="translate(28.399 14.929)" fill="#ebebeb"/>
        <rect id="Rectángulo_351327" data-name="Rectángulo 351327" width="0.248" height="2.088" transform="translate(32.106 15.698)" fill="#424242"/>
        <rect id="Rectángulo_351328" data-name="Rectángulo 351328" width="0.248" height="2.088" transform="translate(29.654 15.698)" fill="#424242"/>
        <rect id="Rectángulo_351329" data-name="Rectángulo 351329" width="0.248" height="2.088" transform="translate(35.442 15.698)" fill="#424242"/>
        <rect id="Rectángulo_351330" data-name="Rectángulo 351330" width="0.248" height="2.088" transform="translate(36.081 15.698)" fill="#424242"/>
        <rect id="Rectángulo_351331" data-name="Rectángulo 351331" width="0.401" height="2.088" transform="translate(28.824 15.698)" fill="#424242"/>
        <rect id="Rectángulo_351332" data-name="Rectángulo 351332" width="0.401" height="2.088" transform="translate(31.423 15.698)" fill="#424242"/>
        <rect id="Rectángulo_351333" data-name="Rectángulo 351333" width="0.098" height="2.088" transform="translate(32.989 15.698)" fill="#424242"/>
        <rect id="Rectángulo_351334" data-name="Rectángulo 351334" width="0.098" height="2.088" transform="translate(30.62 15.698)" fill="#424242"/>
        <rect id="Rectángulo_351335" data-name="Rectángulo 351335" width="0.098" height="2.088" transform="translate(33.399 15.698)" fill="#424242"/>
        <rect id="Rectángulo_351336" data-name="Rectángulo 351336" width="0.096" height="2.088" transform="translate(33.761 15.698)" fill="#424242"/>
        <rect id="Rectángulo_351337" data-name="Rectángulo 351337" width="0.096" height="2.088" transform="translate(30.263 15.698)" fill="#424242"/>
        <rect id="Rectángulo_351338" data-name="Rectángulo 351338" width="0.096" height="2.088" transform="translate(34.962 15.698)" fill="#424242"/>
        <rect id="Rectángulo_351339" data-name="Rectángulo 351339" width="0.096" height="2.088" transform="translate(36.676 15.698)" fill="#424242"/>
        <rect id="Rectángulo_351340" data-name="Rectángulo 351340" width="0.124" height="2.088" transform="translate(32.59 15.698)" fill="#424242"/>
        <rect id="Rectángulo_351341" data-name="Rectángulo 351341" width="0.124" height="2.088" transform="translate(30.998 15.698)" fill="#424242"/>
        <rect id="Rectángulo_351342" data-name="Rectángulo 351342" width="0.4" height="2.088" transform="translate(34.174 15.698)" fill="#424242"/>
        <rect id="Rectángulo_351343" data-name="Rectángulo 351343" width="0.401" height="2.088" transform="translate(37.247 15.698)" fill="#424242"/>
        <rect id="Rectángulo_351344" data-name="Rectángulo 351344" width="38.321" height="36.291" transform="translate(7.257 23.651)" fill="#f5cb95"/>
        <path id="Trazado_730509" data-name="Trazado 730509" d="M43.294,52.5H4.973V16.208Z" transform="translate(2.284 7.443)" fill="#d1ad7f"/>
        <rect id="Rectángulo_351345" data-name="Rectángulo 351345" width="5.851" height="11.023" transform="translate(23.476 23.603)" fill="#9c805f"/>
        <rect id="Rectángulo_351346" data-name="Rectángulo 351346" width="15.514" height="1.246" transform="translate(26.43 49.808)" fill="#9c8469"/>
        <rect id="Rectángulo_351347" data-name="Rectángulo 351347" width="15.514" height="1.246" transform="translate(26.43 54.032)" fill="#9c8469"/>
        <rect id="Rectángulo_351348" data-name="Rectángulo 351348" width="15.514" height="1.245" transform="translate(26.43 56.187)" fill="#9c8469"/>
        <rect id="Rectángulo_351349" data-name="Rectángulo 351349" width="7.757" height="1.245" transform="translate(26.43 51.963)" fill="#9c8469"/>
        <rect id="Rectángulo_351350" data-name="Rectángulo 351350" width="10.972" height="4.859" transform="translate(9.99 27.28)" fill="#ebebeb"/>
        <rect id="Rectángulo_351351" data-name="Rectángulo 351351" width="0.268" height="2.265" transform="translate(14.007 28.113)" fill="#424242"/>
        <rect id="Rectángulo_351352" data-name="Rectángulo 351352" width="0.268" height="2.265" transform="translate(11.35 28.113)" fill="#424242"/>
        <rect id="Rectángulo_351353" data-name="Rectángulo 351353" width="0.268" height="2.265" transform="translate(17.623 28.113)" fill="#424242"/>
        <rect id="Rectángulo_351354" data-name="Rectángulo 351354" width="0.268" height="2.265" transform="translate(18.315 28.113)" fill="#424242"/>
        <rect id="Rectángulo_351355" data-name="Rectángulo 351355" width="0.433" height="2.265" transform="translate(10.45 28.113)" fill="#424242"/>
        <rect id="Rectángulo_351356" data-name="Rectángulo 351356" width="0.433" height="2.265" transform="translate(13.267 28.113)" fill="#424242"/>
        <rect id="Rectángulo_351357" data-name="Rectángulo 351357" width="0.105" height="2.265" transform="translate(14.964 28.113)" fill="#424242"/>
        <rect id="Rectángulo_351358" data-name="Rectángulo 351358" width="0.104" height="2.265" transform="translate(12.396 28.113)" fill="#424242"/>
        <rect id="Rectángulo_351359" data-name="Rectángulo 351359" width="0.105" height="2.265" transform="translate(15.408 28.113)" fill="#424242"/>
        <rect id="Rectángulo_351360" data-name="Rectángulo 351360" width="0.105" height="2.265" transform="translate(15.801 28.113)" fill="#424242"/>
        <rect id="Rectángulo_351361" data-name="Rectángulo 351361" width="0.105" height="2.265" transform="translate(12.008 28.113)" fill="#424242"/>
        <rect id="Rectángulo_351362" data-name="Rectángulo 351362" width="0.105" height="2.265" transform="translate(17.102 28.113)" fill="#424242"/>
        <rect id="Rectángulo_351363" data-name="Rectángulo 351363" width="0.104" height="2.265" transform="translate(18.961 28.113)" fill="#424242"/>
        <rect id="Rectángulo_351364" data-name="Rectángulo 351364" width="0.136" height="2.265" transform="translate(14.531 28.113)" fill="#424242"/>
        <rect id="Rectángulo_351365" data-name="Rectángulo 351365" width="0.136" height="2.265" transform="translate(12.806 28.113)" fill="#424242"/>
        <rect id="Rectángulo_351366" data-name="Rectángulo 351366" width="0.433" height="2.265" transform="translate(16.248 28.113)" fill="#424242"/>
        <rect id="Rectángulo_351367" data-name="Rectángulo 351367" width="0.433" height="2.265" transform="translate(19.58 28.113)" fill="#424242"/>
        <rect id="Rectángulo_351368" data-name="Rectángulo 351368" width="95.703" height="1.558" transform="translate(0 101.686)" fill="#a17a3c"/>
        <rect id="Rectángulo_351369" data-name="Rectángulo 351369" width="95.703" height="1.558" transform="translate(0 92.08)" fill="#a17a3c"/>
        <rect id="Rectángulo_351370" data-name="Rectángulo 351370" width="5.561" height="8.048" transform="translate(1.456 93.638)" fill="#a17a3c"/>
        <rect id="Rectángulo_351371" data-name="Rectángulo 351371" width="5.561" height="0.956" transform="translate(1.456 100.73)" fill="#876632"/>
        <rect id="Rectángulo_351372" data-name="Rectángulo 351372" width="5.561" height="4.025" transform="translate(1.456 93.637)" fill="#806130"/>
        <rect id="Rectángulo_351373" data-name="Rectángulo 351373" width="5.563" height="8.049" transform="translate(87.933 93.637)" fill="#a17a3c"/>
        <rect id="Rectángulo_351374" data-name="Rectángulo 351374" width="5.563" height="4.025" transform="translate(87.933 93.637)" fill="#806130"/>
        <rect id="Rectángulo_351375" data-name="Rectángulo 351375" width="5.563" height="8.049" transform="translate(45.07 93.637)" fill="#a17a3c"/>
        <rect id="Rectángulo_351376" data-name="Rectángulo 351376" width="5.563" height="4.025" transform="translate(45.07 93.637)" fill="#806130"/>
        <rect id="Rectángulo_351377" data-name="Rectángulo 351377" width="5.563" height="0.956" transform="translate(45.07 100.73)" fill="#876632"/>
        <rect id="Rectángulo_351378" data-name="Rectángulo 351378" width="5.563" height="0.956" transform="translate(87.933 100.73)" fill="#876632"/>
        <path id="Trazado_730510" data-name="Trazado 730510" d="M65.746,32.346H41.058V8.837H65.746Z" transform="translate(18.855 4.058)" fill="#ff9040"/>
        <g id="Grupo_1012523" data-name="Grupo 1012523" transform="translate(0 0)">
          <g id="Grupo_1012522" data-name="Grupo 1012522" clip-path="url(#clip-path)">
            <path id="Trazado_730511" data-name="Trazado 730511" d="M64.2,30.478H41.866V9.81H64.2V30.478" transform="translate(19.226 4.505)" fill="#ab602a"/>
            <g id="Grupo_1012515" data-name="Grupo 1012515" transform="translate(59.913 12.895)" opacity="0.2">
              <g id="Grupo_1012514" data-name="Grupo 1012514">
                <g id="Grupo_1012513" data-name="Grupo 1012513" clip-path="url(#clip-path-3)">
                  <path id="Trazado_730512" data-name="Trazado 730512" d="M65.747,32.345H41.058V8.837l1.179,1.418v1.421L64.567,29.885l-.038,1.07Z" transform="translate(-41.058 -8.836)"/>
                </g>
              </g>
            </g>
            <rect id="Rectángulo_351380" data-name="Rectángulo 351380" width="11.429" height="7.547" transform="translate(62.256 16.587)" fill="#ebebeb"/>
            <rect id="Rectángulo_351381" data-name="Rectángulo 351381" width="8.697" height="0.698" transform="translate(63.37 17.541)" fill="#9e9e9e"/>
            <rect id="Rectángulo_351382" data-name="Rectángulo 351382" width="8.697" height="0.698" transform="translate(63.37 19.396)" fill="#9e9e9e"/>
            <rect id="Rectángulo_351383" data-name="Rectángulo 351383" width="8.697" height="0.699" transform="translate(63.37 21.249)" fill="#9e9e9e"/>
            <rect id="Rectángulo_351384" data-name="Rectángulo 351384" width="4.941" height="0.698" transform="translate(63.37 22.265)" fill="#9e9e9e"/>
            <rect id="Rectángulo_351385" data-name="Rectángulo 351385" width="5.171" height="0.752" transform="translate(75.422 28.033)" fill="#401818"/>
            <rect id="Rectángulo_351386" data-name="Rectángulo 351386" width="5.171" height="0.753" transform="translate(75.422 30.584)" fill="#401818"/>
            <rect id="Rectángulo_351387" data-name="Rectángulo 351387" width="5.171" height="0.753" transform="translate(75.422 31.886)" fill="#401818"/>
            <rect id="Rectángulo_351388" data-name="Rectángulo 351388" width="6.841" height="0.753" transform="translate(75.422 29.333)" fill="#401818"/>
            <rect id="Rectángulo_351389" data-name="Rectángulo 351389" width="10.636" height="4.71" transform="translate(62.258 26.495)" fill="#ebebeb"/>
            <rect id="Rectángulo_351390" data-name="Rectángulo 351390" width="0.261" height="2.195" transform="translate(66.153 27.305)" fill="#424242"/>
            <rect id="Rectángulo_351391" data-name="Rectángulo 351391" width="0.261" height="2.195" transform="translate(63.577 27.305)" fill="#424242"/>
            <rect id="Rectángulo_351392" data-name="Rectángulo 351392" width="0.261" height="2.195" transform="translate(69.658 27.305)" fill="#424242"/>
            <rect id="Rectángulo_351393" data-name="Rectángulo 351393" width="0.261" height="2.195" transform="translate(70.329 27.305)" fill="#424242"/>
            <rect id="Rectángulo_351394" data-name="Rectángulo 351394" width="0.42" height="2.195" transform="translate(62.704 27.305)" fill="#424242"/>
            <rect id="Rectángulo_351395" data-name="Rectángulo 351395" width="0.42" height="2.195" transform="translate(65.436 27.305)" fill="#424242"/>
            <rect id="Rectángulo_351396" data-name="Rectángulo 351396" width="0.102" height="2.195" transform="translate(67.081 27.305)" fill="#424242"/>
            <rect id="Rectángulo_351397" data-name="Rectángulo 351397" width="0.102" height="2.195" transform="translate(64.59 27.305)" fill="#424242"/>
            <rect id="Rectángulo_351398" data-name="Rectángulo 351398" width="0.101" height="2.195" transform="translate(67.513 27.305)" fill="#424242"/>
            <rect id="Rectángulo_351399" data-name="Rectángulo 351399" width="0.102" height="2.195" transform="translate(67.891 27.305)" fill="#424242"/>
            <rect id="Rectángulo_351400" data-name="Rectángulo 351400" width="0.102" height="2.195" transform="translate(64.215 27.305)" fill="#424242"/>
            <rect id="Rectángulo_351401" data-name="Rectángulo 351401" width="0.102" height="2.195" transform="translate(69.153 27.305)" fill="#424242"/>
            <rect id="Rectángulo_351402" data-name="Rectángulo 351402" width="0.102" height="2.195" transform="translate(70.955 27.305)" fill="#424242"/>
            <rect id="Rectángulo_351403" data-name="Rectángulo 351403" width="0.13" height="2.195" transform="translate(66.662 27.305)" fill="#424242"/>
            <rect id="Rectángulo_351404" data-name="Rectángulo 351404" width="0.13" height="2.195" transform="translate(64.99 27.305)" fill="#424242"/>
            <rect id="Rectángulo_351405" data-name="Rectángulo 351405" width="0.42" height="2.195" transform="translate(68.325 27.305)" fill="#424242"/>
            <rect id="Rectángulo_351406" data-name="Rectángulo 351406" width="0.42" height="2.195" transform="translate(71.555 27.305)" fill="#424242"/>
            <rect id="Rectángulo_351407" data-name="Rectángulo 351407" width="25.455" height="1.094" transform="translate(59.588 11.801)" fill="#404040"/>
            <rect id="Rectángulo_351408" data-name="Rectángulo 351408" width="25.455" height="1.093" transform="translate(59.588 36.403)" fill="#404040"/>
            <rect id="Rectángulo_351409" data-name="Rectángulo 351409" width="31.795" height="54.582" transform="translate(59.188 37.497)" fill="#f5cb95"/>
            <path id="Trazado_730513" data-name="Trazado 730513" d="M72.356,80.278h-31.8V25.7Z" transform="translate(18.627 11.801)" fill="#bd9c73"/>
            <rect id="Rectángulo_351410" data-name="Rectángulo 351410" width="6.488" height="12.224" transform="translate(71.842 37.444)" fill="#9c805f"/>
            <rect id="Rectángulo_351411" data-name="Rectángulo 351411" width="7.422" height="11.315" transform="translate(80.758 41.283)" fill="#ebebeb"/>
            <rect id="Rectángulo_351412" data-name="Rectángulo 351412" width="5.647" height="1.046" transform="translate(81.482 42.713)" fill="#9e9e9e"/>
            <rect id="Rectángulo_351413" data-name="Rectángulo 351413" width="5.647" height="1.046" transform="translate(81.482 45.494)" fill="#9e9e9e"/>
            <rect id="Rectángulo_351414" data-name="Rectángulo 351414" width="5.647" height="1.046" transform="translate(81.482 48.276)" fill="#9e9e9e"/>
            <rect id="Rectángulo_351415" data-name="Rectángulo 351415" width="3.209" height="1.046" transform="translate(81.48 49.796)" fill="#9e9e9e"/>
            <rect id="Rectángulo_351416" data-name="Rectángulo 351416" width="6.504" height="1.382" transform="translate(80.449 80.84)" fill="#9c8469"/>
            <rect id="Rectángulo_351417" data-name="Rectángulo 351417" width="6.504" height="1.382" transform="translate(80.449 85.525)" fill="#9c8469"/>
            <rect id="Rectángulo_351418" data-name="Rectángulo 351418" width="6.504" height="1.382" transform="translate(80.449 87.915)" fill="#9c8469"/>
            <rect id="Rectángulo_351419" data-name="Rectángulo 351419" width="8.602" height="1.382" transform="translate(80.449 83.23)" fill="#9c8469"/>
            <rect id="Rectángulo_351420" data-name="Rectángulo 351420" width="12.168" height="5.389" transform="translate(60.888 51.781)" fill="#ebebeb"/>
            <rect id="Rectángulo_351421" data-name="Rectángulo 351421" width="0.298" height="2.511" transform="translate(65.346 52.704)" fill="#424242"/>
            <rect id="Rectángulo_351422" data-name="Rectángulo 351422" width="0.298" height="2.511" transform="translate(62.398 52.704)" fill="#424242"/>
            <rect id="Rectángulo_351423" data-name="Rectángulo 351423" width="0.298" height="2.511" transform="translate(69.356 52.704)" fill="#424242"/>
            <rect id="Rectángulo_351424" data-name="Rectángulo 351424" width="0.298" height="2.511" transform="translate(70.123 52.704)" fill="#424242"/>
            <rect id="Rectángulo_351425" data-name="Rectángulo 351425" width="0.48" height="2.511" transform="translate(61.4 52.704)" fill="#424242"/>
            <rect id="Rectángulo_351426" data-name="Rectángulo 351426" width="0.48" height="2.511" transform="translate(64.526 52.704)" fill="#424242"/>
            <rect id="Rectángulo_351427" data-name="Rectángulo 351427" width="0.115" height="2.511" transform="translate(66.406 52.704)" fill="#424242"/>
            <rect id="Rectángulo_351428" data-name="Rectángulo 351428" width="0.115" height="2.511" transform="translate(63.56 52.704)" fill="#424242"/>
            <rect id="Rectángulo_351429" data-name="Rectángulo 351429" width="0.115" height="2.511" transform="translate(66.9 52.704)" fill="#424242"/>
            <rect id="Rectángulo_351430" data-name="Rectángulo 351430" width="0.115" height="2.511" transform="translate(67.335 52.704)" fill="#424242"/>
            <rect id="Rectángulo_351431" data-name="Rectángulo 351431" width="0.115" height="2.511" transform="translate(63.129 52.704)" fill="#424242"/>
            <rect id="Rectángulo_351432" data-name="Rectángulo 351432" width="0.115" height="2.511" transform="translate(68.778 52.704)" fill="#424242"/>
            <rect id="Rectángulo_351433" data-name="Rectángulo 351433" width="0.115" height="2.511" transform="translate(70.84 52.704)" fill="#424242"/>
            <rect id="Rectángulo_351434" data-name="Rectángulo 351434" width="0.149" height="2.511" transform="translate(65.928 52.704)" fill="#424242"/>
            <rect id="Rectángulo_351435" data-name="Rectángulo 351435" width="0.149" height="2.511" transform="translate(64.013 52.704)" fill="#424242"/>
            <rect id="Rectángulo_351436" data-name="Rectángulo 351436" width="0.48" height="2.511" transform="translate(67.831 52.704)" fill="#424242"/>
            <rect id="Rectángulo_351437" data-name="Rectángulo 351437" width="0.48" height="2.511" transform="translate(71.525 52.704)" fill="#424242"/>
            <rect id="Rectángulo_351438" data-name="Rectángulo 351438" width="45.332" height="54.582" transform="translate(20.376 35.531)" fill="#f55b5b"/>
            <path id="Trazado_730514" data-name="Trazado 730514" d="M56.448,75.5h-41V26.137h41Z" transform="translate(7.094 12.003)" fill="#9e3b3b"/>
            <g id="Grupo_1012518" data-name="Grupo 1012518" transform="translate(20.376 35.531)" opacity="0.2">
              <g id="Grupo_1012517" data-name="Grupo 1012517">
                <g id="Grupo_1012516" data-name="Grupo 1012516" clip-path="url(#clip-path-4)">
                  <path id="Trazado_730515" data-name="Trazado 730515" d="M59.3,78.931H13.964V24.349l2.164,2.606v2.611l41,44.849-.069,1.961Z" transform="translate(-13.964 -24.349)"/>
                </g>
              </g>
            </g>
            <rect id="Rectángulo_351440" data-name="Rectángulo 351440" width="17.133" height="11.315" transform="translate(43.043 41.175)" fill="#ebebeb"/>
            <rect id="Rectángulo_351441" data-name="Rectángulo 351441" width="13.038" height="1.046" transform="translate(44.711 42.605)" fill="#9e9e9e"/>
            <rect id="Rectángulo_351442" data-name="Rectángulo 351442" width="13.038" height="1.046" transform="translate(44.711 45.386)" fill="#9e9e9e"/>
            <rect id="Rectángulo_351443" data-name="Rectángulo 351443" width="13.038" height="1.046" transform="translate(44.711 48.168)" fill="#9e9e9e"/>
            <rect id="Rectángulo_351444" data-name="Rectángulo 351444" width="7.407" height="1.046" transform="translate(44.711 49.688)" fill="#9e9e9e"/>
            <rect id="Rectángulo_351445" data-name="Rectángulo 351445" width="9.495" height="1.38" transform="translate(47.4 76.357)" fill="#401818"/>
            <rect id="Rectángulo_351446" data-name="Rectángulo 351446" width="9.495" height="1.382" transform="translate(47.4 81.041)" fill="#401818"/>
            <rect id="Rectángulo_351447" data-name="Rectángulo 351447" width="9.495" height="1.382" transform="translate(47.4 83.43)" fill="#401818"/>
            <rect id="Rectángulo_351448" data-name="Rectángulo 351448" width="12.56" height="1.382" transform="translate(47.4 78.744)" fill="#401818"/>
            <rect id="Rectángulo_351449" data-name="Rectángulo 351449" width="12.168" height="5.389" transform="translate(43.041 53.498)" fill="#ebebeb"/>
            <rect id="Rectángulo_351450" data-name="Rectángulo 351450" width="0.298" height="2.511" transform="translate(47.499 54.422)" fill="#424242"/>
            <rect id="Rectángulo_351451" data-name="Rectángulo 351451" width="0.298" height="2.511" transform="translate(44.553 54.422)" fill="#424242"/>
            <rect id="Rectángulo_351452" data-name="Rectángulo 351452" width="0.298" height="2.511" transform="translate(51.509 54.422)" fill="#424242"/>
            <rect id="Rectángulo_351453" data-name="Rectángulo 351453" width="0.298" height="2.511" transform="translate(52.277 54.422)" fill="#424242"/>
            <rect id="Rectángulo_351454" data-name="Rectángulo 351454" width="0.48" height="2.511" transform="translate(43.555 54.422)" fill="#424242"/>
            <rect id="Rectángulo_351455" data-name="Rectángulo 351455" width="0.48" height="2.511" transform="translate(46.679 54.422)" fill="#424242"/>
            <rect id="Rectángulo_351456" data-name="Rectángulo 351456" width="0.115" height="2.511" transform="translate(48.562 54.422)" fill="#424242"/>
            <rect id="Rectángulo_351457" data-name="Rectángulo 351457" width="0.115" height="2.511" transform="translate(45.713 54.422)" fill="#424242"/>
            <rect id="Rectángulo_351458" data-name="Rectángulo 351458" width="0.115" height="2.511" transform="translate(49.053 54.422)" fill="#424242"/>
            <rect id="Rectángulo_351459" data-name="Rectángulo 351459" width="0.115" height="2.511" transform="translate(49.488 54.422)" fill="#424242"/>
            <rect id="Rectángulo_351460" data-name="Rectángulo 351460" width="0.115" height="2.511" transform="translate(45.283 54.422)" fill="#424242"/>
            <rect id="Rectángulo_351461" data-name="Rectángulo 351461" width="0.115" height="2.511" transform="translate(50.931 54.422)" fill="#424242"/>
            <rect id="Rectángulo_351462" data-name="Rectángulo 351462" width="0.115" height="2.511" transform="translate(52.993 54.422)" fill="#424242"/>
            <rect id="Rectángulo_351463" data-name="Rectángulo 351463" width="0.149" height="2.511" transform="translate(48.082 54.422)" fill="#424242"/>
            <rect id="Rectángulo_351464" data-name="Rectángulo 351464" width="0.149" height="2.511" transform="translate(46.168 54.422)" fill="#424242"/>
            <rect id="Rectángulo_351465" data-name="Rectángulo 351465" width="0.48" height="2.511" transform="translate(49.984 54.422)" fill="#424242"/>
            <rect id="Rectángulo_351466" data-name="Rectángulo 351466" width="0.48" height="2.511" transform="translate(53.679 54.422)" fill="#424242"/>
            <rect id="Rectángulo_351467" data-name="Rectángulo 351467" width="46.739" height="2.008" transform="translate(19.778 33.523)" fill="#404040"/>
            <rect id="Rectángulo_351468" data-name="Rectángulo 351468" width="46.739" height="2.008" transform="translate(19.778 90.113)" fill="#404040"/>
            <path id="Trazado_730516" data-name="Trazado 730516" d="M51.813,71.883H1.771V41.647H51.813Z" transform="translate(0.813 19.126)" fill="#b7f567"/>
            <path id="Trazado_730517" data-name="Trazado 730517" d="M48.67,69.984H3.409V42.637H48.67Z" transform="translate(1.566 19.58)" fill="#739e3a"/>
            <g id="Grupo_1012521" data-name="Grupo 1012521" transform="translate(2.585 60.773)" opacity="0.2">
              <g id="Grupo_1012520" data-name="Grupo 1012520">
                <g id="Grupo_1012519" data-name="Grupo 1012519" clip-path="url(#clip-path-5)">
                  <path id="Trazado_730518" data-name="Trazado 730518" d="M51.814,71.883H1.771V41.647L4.16,43.09l0,1.446L49.424,69.381l-.076,1.087Z" transform="translate(-1.771 -41.647)"/>
                </g>
              </g>
            </g>
            <rect id="Rectángulo_351470" data-name="Rectángulo 351470" width="17.133" height="9.065" transform="translate(31.772 63.593)" fill="#ebebeb"/>
            <rect id="Rectángulo_351471" data-name="Rectángulo 351471" width="13.038" height="1.046" transform="translate(33.438 65.562)" fill="#9e9e9e"/>
            <rect id="Rectángulo_351472" data-name="Rectángulo 351472" width="13.038" height="1.046" transform="translate(33.438 67.377)" fill="#9e9e9e"/>
            <rect id="Rectángulo_351473" data-name="Rectángulo 351473" width="7.407" height="1.046" transform="translate(33.44 69.233)" fill="#9e9e9e"/>
            <rect id="Rectángulo_351474" data-name="Rectángulo 351474" width="10.482" height="0.765" transform="translate(32.415 83.389)" fill="#425c22"/>
            <rect id="Rectángulo_351475" data-name="Rectángulo 351475" width="10.482" height="0.766" transform="translate(32.415 85.982)" fill="#425c22"/>
            <rect id="Rectángulo_351476" data-name="Rectángulo 351476" width="10.482" height="0.766" transform="translate(32.415 87.306)" fill="#425c22"/>
            <rect id="Rectángulo_351477" data-name="Rectángulo 351477" width="13.864" height="0.765" transform="translate(32.415 84.712)" fill="#425c22"/>
            <rect id="Rectángulo_351478" data-name="Rectángulo 351478" width="12.168" height="5.389" transform="translate(17.775 63.776)" fill="#ebebeb"/>
            <rect id="Rectángulo_351479" data-name="Rectángulo 351479" width="0.298" height="2.511" transform="translate(22.233 64.701)" fill="#424242"/>
            <rect id="Rectángulo_351480" data-name="Rectángulo 351480" width="0.298" height="2.511" transform="translate(19.287 64.701)" fill="#424242"/>
            <rect id="Rectángulo_351481" data-name="Rectángulo 351481" width="0.298" height="2.511" transform="translate(26.243 64.701)" fill="#424242"/>
            <rect id="Rectángulo_351482" data-name="Rectángulo 351482" width="0.298" height="2.511" transform="translate(27.01 64.701)" fill="#424242"/>
            <rect id="Rectángulo_351483" data-name="Rectángulo 351483" width="0.48" height="2.511" transform="translate(18.287 64.701)" fill="#424242"/>
            <rect id="Rectángulo_351484" data-name="Rectángulo 351484" width="0.48" height="2.511" transform="translate(21.413 64.701)" fill="#424242"/>
            <rect id="Rectángulo_351485" data-name="Rectángulo 351485" width="0.115" height="2.511" transform="translate(23.294 64.701)" fill="#424242"/>
            <rect id="Rectángulo_351486" data-name="Rectángulo 351486" width="0.115" height="2.511" transform="translate(20.447 64.701)" fill="#424242"/>
            <rect id="Rectángulo_351487" data-name="Rectángulo 351487" width="0.115" height="2.511" transform="translate(23.787 64.701)" fill="#424242"/>
            <rect id="Rectángulo_351488" data-name="Rectángulo 351488" width="0.115" height="2.511" transform="translate(24.222 64.701)" fill="#424242"/>
            <rect id="Rectángulo_351489" data-name="Rectángulo 351489" width="0.115" height="2.511" transform="translate(20.016 64.701)" fill="#424242"/>
            <rect id="Rectángulo_351490" data-name="Rectángulo 351490" width="0.115" height="2.511" transform="translate(25.665 64.701)" fill="#424242"/>
            <rect id="Rectángulo_351491" data-name="Rectángulo 351491" width="0.115" height="2.511" transform="translate(27.727 64.701)" fill="#424242"/>
            <rect id="Rectángulo_351492" data-name="Rectángulo 351492" width="0.149" height="2.511" transform="translate(22.815 64.701)" fill="#424242"/>
            <rect id="Rectángulo_351493" data-name="Rectángulo 351493" width="0.149" height="2.511" transform="translate(20.901 64.701)" fill="#424242"/>
            <rect id="Rectángulo_351494" data-name="Rectángulo 351494" width="0.48" height="2.511" transform="translate(24.718 64.701)" fill="#424242"/>
            <rect id="Rectángulo_351495" data-name="Rectángulo 351495" width="0.48" height="2.511" transform="translate(28.413 64.701)" fill="#424242"/>
            <rect id="Rectángulo_351496" data-name="Rectángulo 351496" width="51.594" height="1.112" transform="translate(1.926 59.66)" fill="#404040"/>
            <rect id="Rectángulo_351497" data-name="Rectángulo 351497" width="51.594" height="1.112" transform="translate(1.926 91.009)" fill="#404040"/>
            <rect id="Rectángulo_351498" data-name="Rectángulo 351498" width="28.793" height="27.269" transform="translate(43.149 64.853)" fill="#f5cb95"/>
            <path id="Trazado_730519" data-name="Trazado 730519" d="M58.364,71.712H29.569V44.443Z" transform="translate(13.579 20.41)" fill="#d1ad7f"/>
            <rect id="Rectángulo_351499" data-name="Rectángulo 351499" width="4.397" height="8.283" transform="translate(55.335 64.816)" fill="#9c805f"/>
            <rect id="Rectángulo_351500" data-name="Rectángulo 351500" width="8.245" height="7.667" transform="translate(45.201 67.92)" fill="#ebebeb"/>
            <rect id="Rectángulo_351501" data-name="Rectángulo 351501" width="6.275" height="0.709" transform="translate(46.004 68.889)" fill="#9e9e9e"/>
            <rect id="Rectángulo_351502" data-name="Rectángulo 351502" width="6.275" height="0.709" transform="translate(46.004 70.774)" fill="#9e9e9e"/>
            <rect id="Rectángulo_351503" data-name="Rectángulo 351503" width="6.275" height="0.709" transform="translate(46.004 72.658)" fill="#9e9e9e"/>
            <rect id="Rectángulo_351504" data-name="Rectángulo 351504" width="3.565" height="0.709" transform="translate(46.004 73.688)" fill="#9e9e9e"/>
            <rect id="Rectángulo_351505" data-name="Rectángulo 351505" width="11.658" height="0.935" transform="translate(57.553 84.507)" fill="#9c8469"/>
            <rect id="Rectángulo_351506" data-name="Rectángulo 351506" width="11.658" height="0.935" transform="translate(57.553 87.682)" fill="#9c8469"/>
            <rect id="Rectángulo_351507" data-name="Rectángulo 351507" width="11.658" height="0.935" transform="translate(57.553 89.3)" fill="#9c8469"/>
            <rect id="Rectángulo_351508" data-name="Rectángulo 351508" width="5.83" height="0.935" transform="translate(57.553 86.126)" fill="#9c8469"/>
            <rect id="Rectángulo_351509" data-name="Rectángulo 351509" width="8.245" height="3.651" transform="translate(45.201 76.976)" fill="#ebebeb"/>
            <rect id="Rectángulo_351510" data-name="Rectángulo 351510" width="0.203" height="1.701" transform="translate(48.22 77.603)" fill="#424242"/>
            <rect id="Rectángulo_351511" data-name="Rectángulo 351511" width="0.203" height="1.701" transform="translate(46.224 77.603)" fill="#424242"/>
            <rect id="Rectángulo_351512" data-name="Rectángulo 351512" width="0.201" height="1.701" transform="translate(50.939 77.603)" fill="#424242"/>
            <rect id="Rectángulo_351513" data-name="Rectángulo 351513" width="0.201" height="1.701" transform="translate(51.458 77.603)" fill="#424242"/>
            <rect id="Rectángulo_351514" data-name="Rectángulo 351514" width="0.325" height="1.701" transform="translate(45.548 77.603)" fill="#424242"/>
            <rect id="Rectángulo_351515" data-name="Rectángulo 351515" width="0.325" height="1.701" transform="translate(47.666 77.603)" fill="#424242"/>
            <rect id="Rectángulo_351516" data-name="Rectángulo 351516" width="0.079" height="1.701" transform="translate(48.94 77.603)" fill="#424242"/>
            <rect id="Rectángulo_351517" data-name="Rectángulo 351517" width="0.079" height="1.701" transform="translate(47.01 77.603)" fill="#424242"/>
            <rect id="Rectángulo_351518" data-name="Rectángulo 351518" width="0.079" height="1.701" transform="translate(49.274 77.603)" fill="#424242"/>
            <rect id="Rectángulo_351519" data-name="Rectángulo 351519" width="0.079" height="1.701" transform="translate(49.568 77.603)" fill="#424242"/>
            <rect id="Rectángulo_351520" data-name="Rectángulo 351520" width="0.079" height="1.701" transform="translate(46.719 77.603)" fill="#424242"/>
            <rect id="Rectángulo_351521" data-name="Rectángulo 351521" width="0.079" height="1.701" transform="translate(50.546 77.603)" fill="#424242"/>
            <rect id="Rectángulo_351522" data-name="Rectángulo 351522" width="0.079" height="1.701" transform="translate(51.943 77.603)" fill="#424242"/>
            <rect id="Rectángulo_351523" data-name="Rectángulo 351523" width="0.101" height="1.701" transform="translate(48.616 77.603)" fill="#424242"/>
            <rect id="Rectángulo_351524" data-name="Rectángulo 351524" width="0.101" height="1.701" transform="translate(47.318 77.603)" fill="#424242"/>
            <rect id="Rectángulo_351525" data-name="Rectángulo 351525" width="0.325" height="1.701" transform="translate(49.904 77.603)" fill="#424242"/>
            <rect id="Rectángulo_351526" data-name="Rectángulo 351526" width="0.325" height="1.701" transform="translate(52.408 77.603)" fill="#424242"/>
          </g>
        </g>
        <rect id="Rectángulo_351528" data-name="Rectángulo 351528" width="15.66" height="22.472" transform="translate(67.257 58.995)" fill="#bd8779"/>
        <g id="Grupo_1012531" data-name="Grupo 1012531" transform="translate(0 0)">
          <g id="Grupo_1012530" data-name="Grupo 1012530" clip-path="url(#clip-path)">
            <path id="Trazado_730520" data-name="Trazado 730520" d="M37.457,27.406c-1.8,7.3.7,22.087,10.512,26.727H68.061c10.947-5.675,12.443-22.021,10.75-26.6C73.4,23.866,59.88,19.268,59.88,19.268s-18.353,4.607-22.422,8.138" transform="translate(16.953 8.849)" fill="#5e3624"/>
            <path id="Trazado_730521" data-name="Trazado 730521" d="M108.8,58.766c0-5.773-31.913-10.914-31.913-10.914v1.817a1.527,1.527,0,0,0-.346-.1l-.687-.107c-.5-.079-1.027-.422-1.361-.038L67.9,57.512a1.479,1.479,0,0,1-2.215.018L58.832,49.5c-.34-.378-.789-.086-1.29,0h-.018a1.467,1.467,0,0,0-.822.46v-2.11S24.788,52.993,24.788,58.766c-7.519,11.687-6.38,27.825-6.38,27.825H115.18s1.14-16.138-6.38-27.825" transform="translate(8.425 21.975)" fill="#eba83d"/>
            <path id="Trazado_730522" data-name="Trazado 730522" d="M43.029,79.533H32.923V50.5L43.029,48.65Z" transform="translate(15.119 22.342)" fill="#244c5e"/>
            <path id="Trazado_730523" data-name="Trazado 730523" d="M63.5,79.533H73.6V50.5L63.5,48.65Z" transform="translate(29.159 22.342)" fill="#244c5e"/>
            <rect id="Rectángulo_351529" data-name="Rectángulo 351529" width="68.859" height="7.127" transform="translate(40.823 101.438)" fill="#244c5e"/>
            <rect id="Rectángulo_351530" data-name="Rectángulo 351530" width="17.144" height="3.079" transform="translate(89.29 86.75)" fill="#874931"/>
            <rect id="Rectángulo_351531" data-name="Rectángulo 351531" width="16.018" height="15.173" transform="translate(89.853 89.829)" fill="#fff"/>
            <rect id="Rectángulo_351532" data-name="Rectángulo 351532" width="4.019" height="4.792" transform="translate(91.641 91.512)" fill="#f94646"/>
            <rect id="Rectángulo_351533" data-name="Rectángulo 351533" width="12.471" height="1.875" transform="translate(91.642 97.777)" fill="#46788a"/>
            <rect id="Rectángulo_351534" data-name="Rectángulo 351534" width="12.471" height="1.875" transform="translate(91.642 100.903)" fill="#46788a"/>
            <rect id="Rectángulo_351535" data-name="Rectángulo 351535" width="3.771" height="1.945" transform="translate(95.992 84.804)" fill="#aba4a1"/>
            <rect id="Rectángulo_351536" data-name="Rectángulo 351536" width="7.191" height="20.692" transform="translate(71.441 73.834)" fill="#c78e34"/>
            <path id="Trazado_730524" data-name="Trazado 730524" d="M40.128,33.656c-3.028.626-6.056-1.62-6.764-5.021s1.179-6.66,4.213-7.292,5.587,11.678,2.551,12.313" transform="translate(15.254 9.791)" fill="#ffb7a4"/>
            <path id="Trazado_730525" data-name="Trazado 730525" d="M65.123,33.656c3.031.626,6.06-1.62,6.764-5.021s-1.179-6.66-4.213-7.292S62.09,33.021,65.123,33.656" transform="translate(29.281 9.791)" fill="#ffb7a4"/>
            <path id="Trazado_730526" data-name="Trazado 730526" d="M58.039,63.206c25.126,0,21.106-43.107,21.106-43.107S78.113,5.971,58.582,5.971c-17.025,0-21.22,14.478-21.22,14.478S32.739,63.206,58.039,63.206" transform="translate(17.006 2.742)" fill="#ffb7a4"/>
            <path id="Trazado_730527" data-name="Trazado 730527" d="M35.986,31.524c2.055-.458,4.257,3.458,4.257,3.458l.843-14.948s-1.119,4.43,10.429,4.939c-1.788-1.906-1.894-4.464-.114-5.811,1.685-.7,4.941,4.729,12.081,5.494a5.4,5.4,0,0,1,4.524-5.087c.765,2.294,1.1,3.578,5.532,5.031-.994-4.741,1.649-4.769,2.2-4.741.994.05,1.64.127,1.64.127S79.164,36.335,79.1,35.709c1.074-4.208,4.064-3.779,4.064-3.779S93.968.041,57.743.041c-12.357,0-12.87,4.4-16.659,9.913-11.735,2.767-5.128,21.07-5.1,21.57" transform="translate(15.662 0.019)" fill="#5e3624"/>
            <g id="Grupo_1012526" data-name="Grupo 1012526" transform="translate(75.456 66.685)" opacity="0.5">
              <g id="Grupo_1012525" data-name="Grupo 1012525">
                <g id="Grupo_1012524" data-name="Grupo 1012524" clip-path="url(#clip-path-7)">
                  <path id="Trazado_730528" data-name="Trazado 730528" d="M51.882,53.5,58.5,59.9a.443.443,0,0,0,.7-.228l3.155-11.706-2.368-2.076a.44.44,0,0,0-.69-.054L51.83,52.848a.445.445,0,0,0,.053.655" transform="translate(-51.71 -45.699)"/>
                </g>
              </g>
            </g>
            <path id="Trazado_730529" data-name="Trazado 730529" d="M51.882,53.675l6.793,5.237a.444.444,0,0,0,.7-.229l2.98-10.255a.453.453,0,0,0-.058-.372L60.159,44.9a.441.441,0,0,0-.69-.055L51.83,53.02a.445.445,0,0,0,.053.655" transform="translate(23.747 20.53)" fill="#eba83d"/>
            <g id="Grupo_1012529" data-name="Grupo 1012529" transform="translate(64.253 66.685)" opacity="0.5">
              <g id="Grupo_1012528" data-name="Grupo 1012528">
                <g id="Grupo_1012527" data-name="Grupo 1012527" clip-path="url(#clip-path-8)">
                  <path id="Trazado_730530" data-name="Trazado 730530" d="M54.5,53.5l-6.618,6.4a.443.443,0,0,1-.7-.228s-3.228-11.6-3.155-11.706L46.4,45.895a.442.442,0,0,1,.692-.054l7.464,7.007a.445.445,0,0,1-.053.655" transform="translate(-44.033 -45.699)"/>
                </g>
              </g>
            </g>
            <path id="Trazado_730531" data-name="Trazado 730531" d="M54.507,53.675l-6.791,5.237a.446.446,0,0,1-.7-.229L44.04,48.427a.437.437,0,0,1,.058-.372L46.23,44.9a.445.445,0,0,1,.695-.055l7.636,8.173a.443.443,0,0,1-.054.655" transform="translate(20.216 20.53)" fill="#eba83d"/>
            <path id="Trazado_730532" data-name="Trazado 730532" d="M53.662,36.015H46.087v.028c0,1.548,2.508,2.8,5.6,2.8h3.946c3.094,0,5.6-1.253,5.6-2.8v-.028Z" transform="translate(21.164 16.539)" fill="#b58274"/>
            <path id="Trazado_730533" data-name="Trazado 730533" d="M53.152,55.729a1.245,1.245,0,1,1-1.246-1.246,1.246,1.246,0,0,1,1.246,1.246" transform="translate(23.265 25.02)" fill="#c7b69b"/>
            <path id="Trazado_730534" data-name="Trazado 730534" d="M53.152,61.548A1.245,1.245,0,1,1,51.906,60.3a1.246,1.246,0,0,1,1.246,1.246" transform="translate(23.265 27.693)" fill="#c7b69b"/>
          </g>
        </g>
      </g>
    </g>
  </g>
</svg>
