<svg xmlns="http://www.w3.org/2000/svg" xmlns:xlink="http://www.w3.org/1999/xlink" width="135" height="135" viewBox="0 0 135 135">
  <defs>
    <clipPath id="clip-path">
      <rect id="Rectángulo_351239" data-name="Rectángulo 351239" width="85.484" height="106.226" fill="none"/>
    </clipPath>
    <clipPath id="clip-path-3">
      <rect id="Rectángulo_351237" data-name="Rectángulo 351237" width="37.271" height="30.435" fill="none"/>
    </clipPath>
  </defs>
  <g id="Grupo_1012536" data-name="Grupo 1012536" transform="translate(-1153 -608)">
    <rect id="Rectángulo_351086" data-name="Rectángulo 351086" width="135" height="135" transform="translate(1153 608)" fill="none"/>
    <g id="Grupo_1012502" data-name="Grupo 1012502" transform="translate(1178 622)">
      <g id="Grupo_1012501" data-name="Grupo 1012501" clip-path="url(#clip-path)">
        <rect id="Rectángulo_351199" data-name="Rectángulo 351199" width="51.95" height="67.927" transform="translate(30.31 21.71)" fill="#949494"/>
        <rect id="Rectángulo_351200" data-name="Rectángulo 351200" width="50.502" height="65.408" transform="translate(31.035 22.833)" fill="#ebebeb"/>
        <rect id="Rectángulo_351201" data-name="Rectángulo 351201" width="0.936" height="7.878" transform="translate(46.921 28.367)" fill="#424242"/>
        <rect id="Rectángulo_351202" data-name="Rectángulo 351202" width="0.935" height="7.878" transform="translate(37.677 28.367)" fill="#424242"/>
        <rect id="Rectángulo_351203" data-name="Rectángulo 351203" width="0.935" height="7.878" transform="translate(59.502 28.367)" fill="#424242"/>
        <rect id="Rectángulo_351204" data-name="Rectángulo 351204" width="0.936" height="7.878" transform="translate(61.906 28.367)" fill="#424242"/>
        <rect id="Rectángulo_351205" data-name="Rectángulo 351205" width="1.509" height="7.878" transform="translate(34.545 28.367)" fill="#424242"/>
        <rect id="Rectángulo_351206" data-name="Rectángulo 351206" width="1.509" height="7.878" transform="translate(44.347 28.367)" fill="#424242"/>
        <rect id="Rectángulo_351207" data-name="Rectángulo 351207" width="0.366" height="7.878" transform="translate(50.249 28.367)" fill="#424242"/>
        <rect id="Rectángulo_351208" data-name="Rectángulo 351208" width="0.364" height="7.878" transform="translate(41.316 28.367)" fill="#424242"/>
        <rect id="Rectángulo_351209" data-name="Rectángulo 351209" width="0.364" height="7.878" transform="translate(51.795 28.367)" fill="#424242"/>
        <rect id="Rectángulo_351210" data-name="Rectángulo 351210" width="0.364" height="7.878" transform="translate(53.161 28.367)" fill="#424242"/>
        <rect id="Rectángulo_351211" data-name="Rectángulo 351211" width="0.364" height="7.878" transform="translate(39.966 28.367)" fill="#424242"/>
        <rect id="Rectángulo_351212" data-name="Rectángulo 351212" width="0.366" height="7.878" transform="translate(57.685 28.367)" fill="#424242"/>
        <rect id="Rectángulo_351213" data-name="Rectángulo 351213" width="0.366" height="7.878" transform="translate(64.154 28.367)" fill="#424242"/>
        <rect id="Rectángulo_351214" data-name="Rectángulo 351214" width="0.468" height="7.878" transform="translate(48.747 28.367)" fill="#424242"/>
        <rect id="Rectángulo_351215" data-name="Rectángulo 351215" width="0.468" height="7.878" transform="translate(42.744 28.367)" fill="#424242"/>
        <rect id="Rectángulo_351216" data-name="Rectángulo 351216" width="1.509" height="7.878" transform="translate(54.714 28.367)" fill="#424242"/>
        <rect id="Rectángulo_351217" data-name="Rectángulo 351217" width="1.509" height="7.878" transform="translate(66.306 28.367)" fill="#424242"/>
        <rect id="Rectángulo_351218" data-name="Rectángulo 351218" width="43.449" height="2.776" transform="translate(34.545 39.469)" fill="#9e9e9e"/>
        <rect id="Rectángulo_351219" data-name="Rectángulo 351219" width="43.449" height="2.776" transform="translate(34.545 45.927)" fill="#9e9e9e"/>
        <rect id="Rectángulo_351220" data-name="Rectángulo 351220" width="43.449" height="2.776" transform="translate(34.545 52.385)" fill="#9e9e9e"/>
        <rect id="Rectángulo_351221" data-name="Rectángulo 351221" width="43.449" height="2.776" transform="translate(34.545 73.374)" fill="#9e9e9e"/>
        <rect id="Rectángulo_351222" data-name="Rectángulo 351222" width="43.449" height="2.776" transform="translate(34.545 79.832)" fill="#9e9e9e"/>
        <rect id="Rectángulo_351223" data-name="Rectángulo 351223" width="26.394" height="2.776" transform="translate(34.545 60.457)" fill="#9e9e9e"/>
        <g id="Grupo_1012500" data-name="Grupo 1012500" transform="translate(0 0)">
          <g id="Grupo_1012499" data-name="Grupo 1012499" clip-path="url(#clip-path)">
            <path id="Trazado_730418" data-name="Trazado 730418" d="M42.451,47.223H5.86A5.86,5.86,0,0,1,0,41.363V11.354A5.86,5.86,0,0,1,5.86,5.493H42.451a5.86,5.86,0,0,1,5.86,5.861V41.363a5.86,5.86,0,0,1-5.86,5.86" transform="translate(0 3.594)" fill="#363636"/>
            <rect id="Rectángulo_351224" data-name="Rectángulo 351224" width="39.488" height="32.246" transform="translate(4.518 13.57)" fill="#1a1a1a"/>
            <rect id="Rectángulo_351225" data-name="Rectángulo 351225" width="37.27" height="30.434" transform="translate(5.628 14.477)" fill="#99bebf"/>
            <rect id="Rectángulo_351226" data-name="Rectángulo 351226" width="26.153" height="4.139" transform="translate(7.277 38.917)" fill="#262626"/>
            <rect id="Rectángulo_351227" data-name="Rectángulo 351227" width="31.096" height="11.208" transform="translate(7.277 26.504)" fill="#607878"/>
            <rect id="Rectángulo_351228" data-name="Rectángulo 351228" width="3.161" height="5.691" transform="translate(10.209 18.455)" fill="#262626"/>
            <rect id="Rectángulo_351229" data-name="Rectángulo 351229" width="15.405" height="0.748" transform="translate(18.025 18.455)" fill="#262626"/>
            <rect id="Rectángulo_351230" data-name="Rectángulo 351230" width="15.405" height="0.748" transform="translate(18.025 20.927)" fill="#262626"/>
            <rect id="Rectángulo_351231" data-name="Rectángulo 351231" width="20.348" height="0.748" transform="translate(18.025 23.398)" fill="#262626"/>
            <path id="Trazado_730419" data-name="Trazado 730419" d="M38.263,0H5.857A2.315,2.315,0,0,0,3.543,2.316V9.087H40.579V2.316A2.316,2.316,0,0,0,38.263,0" transform="translate(2.318 0)" fill="#363636"/>
            <rect id="Rectángulo_351232" data-name="Rectángulo 351232" width="37.036" height="1.724" transform="translate(5.861 7.363)" fill="#1a1a1a"/>
            <path id="Trazado_730420" data-name="Trazado 730420" d="M37.712,2.9v.041a1.53,1.53,0,0,1-.1.553,2.511,2.511,0,0,0-2.483-1.628H7.17A2.51,2.51,0,0,0,4.687,3.5a1.5,1.5,0,0,1-.1-.553V2.9A2.4,2.4,0,0,1,7.17.723H35.133A2.4,2.4,0,0,1,37.712,2.9" transform="translate(3.004 0.473)" fill="#6e2020"/>
            <path id="Trazado_730421" data-name="Trazado 730421" d="M37.577,3.044a2.51,2.51,0,0,1-2.483,1.628H7.131A2.511,2.511,0,0,1,4.648,3.044,2.511,2.511,0,0,1,7.131,1.416H35.094a2.51,2.51,0,0,1,2.483,1.628" transform="translate(3.041 0.926)" fill="#ad3232"/>
            <path id="Trazado_730422" data-name="Trazado 730422" d="M33.549,86.127H10.574A7.032,7.032,0,0,1,3.542,79.1V30.718H40.58V79.1a7.032,7.032,0,0,1-7.031,7.031" transform="translate(2.318 20.098)" fill="#363636"/>
            <rect id="Rectángulo_351233" data-name="Rectángulo 351233" width="37.036" height="4.713" transform="translate(5.861 50.817)" fill="#262626"/>
            <path id="Trazado_730423" data-name="Trazado 730423" d="M3.24,46.573A6.328,6.328,0,0,1,.5,44.19V8.169A5.85,5.85,0,0,1,3.24,5.775Z" transform="translate(0.33 3.778)" fill="#080808"/>
            <path id="Trazado_730424" data-name="Trazado 730424" d="M43.5,55.313a1.283,1.283,0,0,1-.1.243l-1.975,3.83-.435-.124.354-4.295a1.322,1.322,0,0,1,.046-.256L55.615,5.032l2.1.6Z" transform="translate(26.822 3.292)" fill="#454545"/>
            <path id="Trazado_730425" data-name="Trazado 730425" d="M52.28,2.927l-.516-.147a.827.827,0,0,0-1.022.566l-.91,3.183,2.1.6.912-3.181a.827.827,0,0,0-.567-1.022" transform="translate(32.605 1.797)" fill="#a6a6a6"/>
            <rect id="Rectángulo_351234" data-name="Rectángulo 351234" width="0.374" height="2.19" transform="translate(68.761 56.099) rotate(-74.043)" fill="#1c1c1c"/>
            <path id="Trazado_730426" data-name="Trazado 730426" d="M43.013,52.473l-.569-.164L55.858,5.448l.569.162Z" transform="translate(27.771 3.564)" fill="#919191"/>
            <path id="Trazado_730427" data-name="Trazado 730427" d="M51.585,4.849c-.232.809-.546,1.428-.7,1.383s-.1-.738.134-1.545.546-1.429.7-1.385.1.738-.134,1.547" transform="translate(33.235 2.159)" fill="#fff"/>
            <rect id="Rectángulo_351235" data-name="Rectángulo 351235" width="37.746" height="0.425" transform="translate(5.628 49.854)" fill="#171717"/>
            <path id="Trazado_730428" data-name="Trazado 730428" d="M3.4,5.823s36.611-.273,37.473,0a6.843,6.843,0,0,1,4.642,5.484c0,.647-.23,29.873-.23,29.873l-.144-29.7s-.665-4.291-4.47-5.259c-.95-.6-37.271-.4-37.271-.4" transform="translate(2.225 3.73)" fill="#bababa"/>
            <path id="Trazado_730429" data-name="Trazado 730429" d="M25.694.646c.3.306.43.67.285.812s-.5.008-.807-.3-.428-.67-.285-.812.506-.008.807.3" transform="translate(16.244 0.19)" fill="#fff"/>
            <path id="Trazado_730430" data-name="Trazado 730430" d="M25.694,1.407c.174.177.248.387.165.47s-.293,0-.467-.172-.248-.387-.165-.47.293,0,.467.172" transform="translate(16.484 0.786)" fill="#fff"/>
            <path id="Trazado_730431" data-name="Trazado 730431" d="M25.516,78.688V33.567h-.948Z" transform="translate(16.075 21.963)" fill="#fff"/>
            <path id="Trazado_730432" data-name="Trazado 730432" d="M42.219,27.825c0,.071-8.839.129-19.744.129S2.731,27.9,2.731,27.825s8.841-.129,19.744-.129,19.744.058,19.744.129" transform="translate(1.787 18.121)" fill="#fff"/>
            <path id="Trazado_730433" data-name="Trazado 730433" d="M3.966,37.25V75.358c.371,5.777,6,6.035,6,6.035h23.8l-23.652-.66A6.439,6.439,0,0,1,4.681,74.9c-.012-.663-.715-37.649-.715-37.649" transform="translate(2.595 24.372)" fill="#141414"/>
            <path id="Trazado_730434" data-name="Trazado 730434" d="M11.983,40.19H6.478a1.205,1.205,0,0,1-1.206-1.206V36.311a1.205,1.205,0,0,1,1.206-1.206h5.506a1.205,1.205,0,0,1,1.206,1.206v2.673a1.205,1.205,0,0,1-1.206,1.206" transform="translate(3.449 22.969)" fill="#1f1f1f"/>
            <path id="Trazado_730435" data-name="Trazado 730435" d="M11.678,39.94H6.563a1.12,1.12,0,0,1-1.122-1.12V36.334a1.12,1.12,0,0,1,1.122-1.12h5.115a1.12,1.12,0,0,1,1.12,1.12V38.82a1.12,1.12,0,0,1-1.12,1.12" transform="translate(3.56 23.04)" fill="#949494"/>
            <path id="Trazado_730436" data-name="Trazado 730436" d="M5.783,35.671a1.027,1.027,0,0,1,.726-.3H11.2A1.027,1.027,0,0,1,12.225,36.4v2.278a1.027,1.027,0,0,1-.281.706c-.187.2-2.213-2.333-6.161-3.711" transform="translate(3.784 23.142)" fill="#6e6e6e"/>
            <path id="Trazado_730437" data-name="Trazado 730437" d="M18.762,40.19H13.257a1.205,1.205,0,0,1-1.206-1.206V36.311a1.205,1.205,0,0,1,1.206-1.206h5.506a1.205,1.205,0,0,1,1.206,1.206v2.673a1.205,1.205,0,0,1-1.206,1.206" transform="translate(7.885 22.969)" fill="#1f1f1f"/>
            <path id="Trazado_730438" data-name="Trazado 730438" d="M18.458,39.94H13.343a1.12,1.12,0,0,1-1.122-1.12V36.334a1.12,1.12,0,0,1,1.122-1.12h5.115a1.12,1.12,0,0,1,1.12,1.12V38.82a1.12,1.12,0,0,1-1.12,1.12" transform="translate(7.996 23.04)" fill="#949494"/>
            <path id="Trazado_730439" data-name="Trazado 730439" d="M12.562,35.671a1.027,1.027,0,0,1,.726-.3h4.688A1.027,1.027,0,0,1,19,36.4v2.278a1.027,1.027,0,0,1-.281.706c-.187.2-2.213-2.333-6.161-3.711" transform="translate(8.219 23.142)" fill="#6e6e6e"/>
            <path id="Trazado_730440" data-name="Trazado 730440" d="M25.329,40.19H19.824a1.205,1.205,0,0,1-1.206-1.206V36.311a1.205,1.205,0,0,1,1.206-1.206h5.506a1.205,1.205,0,0,1,1.206,1.206v2.673a1.205,1.205,0,0,1-1.206,1.206" transform="translate(12.182 22.969)" fill="#1f1f1f"/>
            <path id="Trazado_730441" data-name="Trazado 730441" d="M25.024,39.94H19.909a1.12,1.12,0,0,1-1.122-1.12V36.334a1.12,1.12,0,0,1,1.122-1.12h5.115a1.12,1.12,0,0,1,1.12,1.12V38.82a1.12,1.12,0,0,1-1.12,1.12" transform="translate(12.292 23.04)" fill="#949494"/>
            <path id="Trazado_730442" data-name="Trazado 730442" d="M19.129,35.671a1.027,1.027,0,0,1,.726-.3h4.688A1.027,1.027,0,0,1,25.571,36.4v2.278a1.027,1.027,0,0,1-.281.706c-.187.2-2.213-2.333-6.161-3.711" transform="translate(12.516 23.142)" fill="#6e6e6e"/>
            <path id="Trazado_730443" data-name="Trazado 730443" d="M11.983,45.195H6.478a1.205,1.205,0,0,1-1.206-1.206V41.314a1.206,1.206,0,0,1,1.206-1.206h5.506a1.206,1.206,0,0,1,1.206,1.206v2.675a1.205,1.205,0,0,1-1.206,1.206" transform="translate(3.449 26.242)" fill="#1f1f1f"/>
            <path id="Trazado_730444" data-name="Trazado 730444" d="M11.678,44.943H6.563a1.12,1.12,0,0,1-1.122-1.12V41.339a1.12,1.12,0,0,1,1.122-1.122h5.115a1.12,1.12,0,0,1,1.12,1.122v2.485a1.12,1.12,0,0,1-1.12,1.12" transform="translate(3.56 26.314)" fill="#949494"/>
            <path id="Trazado_730445" data-name="Trazado 730445" d="M5.783,40.674a1.027,1.027,0,0,1,.726-.3H11.2A1.027,1.027,0,0,1,12.225,41.4v2.278a1.027,1.027,0,0,1-.281.706c-.187.2-2.213-2.333-6.161-3.711" transform="translate(3.784 26.416)" fill="#6e6e6e"/>
            <path id="Trazado_730446" data-name="Trazado 730446" d="M18.762,45.195H13.257a1.205,1.205,0,0,1-1.206-1.206V41.314a1.206,1.206,0,0,1,1.206-1.206h5.506a1.206,1.206,0,0,1,1.206,1.206v2.675a1.205,1.205,0,0,1-1.206,1.206" transform="translate(7.885 26.242)" fill="#1f1f1f"/>
            <path id="Trazado_730447" data-name="Trazado 730447" d="M18.458,44.943H13.343a1.12,1.12,0,0,1-1.122-1.12V41.339a1.12,1.12,0,0,1,1.122-1.122h5.115a1.12,1.12,0,0,1,1.12,1.122v2.485a1.12,1.12,0,0,1-1.12,1.12" transform="translate(7.996 26.314)" fill="#949494"/>
            <path id="Trazado_730448" data-name="Trazado 730448" d="M12.562,40.674a1.027,1.027,0,0,1,.726-.3h4.688A1.027,1.027,0,0,1,19,41.4v2.278a1.027,1.027,0,0,1-.281.706c-.187.2-2.213-2.333-6.161-3.711" transform="translate(8.219 26.416)" fill="#6e6e6e"/>
            <path id="Trazado_730449" data-name="Trazado 730449" d="M25.329,45.195H19.824a1.205,1.205,0,0,1-1.206-1.206V41.314a1.206,1.206,0,0,1,1.206-1.206h5.506a1.206,1.206,0,0,1,1.206,1.206v2.675a1.205,1.205,0,0,1-1.206,1.206" transform="translate(12.182 26.242)" fill="#1f1f1f"/>
            <path id="Trazado_730450" data-name="Trazado 730450" d="M25.024,44.943H19.909a1.12,1.12,0,0,1-1.122-1.12V41.339a1.12,1.12,0,0,1,1.122-1.122h5.115a1.12,1.12,0,0,1,1.12,1.122v2.485a1.12,1.12,0,0,1-1.12,1.12" transform="translate(12.292 26.314)" fill="#949494"/>
            <path id="Trazado_730451" data-name="Trazado 730451" d="M19.129,40.674a1.027,1.027,0,0,1,.726-.3h4.688A1.027,1.027,0,0,1,25.571,41.4v2.278a1.027,1.027,0,0,1-.281.706c-.187.2-2.213-2.333-6.161-3.711" transform="translate(12.516 26.416)" fill="#6e6e6e"/>
            <path id="Trazado_730452" data-name="Trazado 730452" d="M11.983,50.2H6.478a1.205,1.205,0,0,1-1.206-1.206V46.318a1.205,1.205,0,0,1,1.206-1.206h5.506a1.205,1.205,0,0,1,1.206,1.206v2.673A1.205,1.205,0,0,1,11.983,50.2" transform="translate(3.449 29.516)" fill="#1f1f1f"/>
            <path id="Trazado_730453" data-name="Trazado 730453" d="M11.678,49.946H6.563a1.12,1.12,0,0,1-1.122-1.12V46.342A1.12,1.12,0,0,1,6.563,45.22h5.115a1.12,1.12,0,0,1,1.12,1.122v2.485a1.12,1.12,0,0,1-1.12,1.12" transform="translate(3.56 29.587)" fill="#949494"/>
            <path id="Trazado_730454" data-name="Trazado 730454" d="M5.783,45.677a1.027,1.027,0,0,1,.726-.3H11.2A1.027,1.027,0,0,1,12.225,46.4v2.278a1.027,1.027,0,0,1-.281.706c-.187.2-2.213-2.333-6.161-3.711" transform="translate(3.784 29.689)" fill="#6e6e6e"/>
            <path id="Trazado_730455" data-name="Trazado 730455" d="M18.762,50.2H13.257a1.205,1.205,0,0,1-1.206-1.206V46.318a1.205,1.205,0,0,1,1.206-1.206h5.506a1.205,1.205,0,0,1,1.206,1.206v2.673A1.205,1.205,0,0,1,18.762,50.2" transform="translate(7.885 29.516)" fill="#1f1f1f"/>
            <path id="Trazado_730456" data-name="Trazado 730456" d="M18.458,49.946H13.343a1.12,1.12,0,0,1-1.122-1.12V46.342a1.12,1.12,0,0,1,1.122-1.122h5.115a1.12,1.12,0,0,1,1.12,1.122v2.485a1.12,1.12,0,0,1-1.12,1.12" transform="translate(7.996 29.587)" fill="#949494"/>
            <path id="Trazado_730457" data-name="Trazado 730457" d="M12.562,45.677a1.027,1.027,0,0,1,.726-.3h4.688A1.027,1.027,0,0,1,19,46.4v2.278a1.027,1.027,0,0,1-.281.706c-.187.2-2.213-2.333-6.161-3.711" transform="translate(8.219 29.689)" fill="#6e6e6e"/>
            <path id="Trazado_730458" data-name="Trazado 730458" d="M25.329,50.2H19.824a1.205,1.205,0,0,1-1.206-1.206V46.318a1.205,1.205,0,0,1,1.206-1.206h5.506a1.205,1.205,0,0,1,1.206,1.206v2.673A1.205,1.205,0,0,1,25.329,50.2" transform="translate(12.182 29.516)" fill="#1f1f1f"/>
            <path id="Trazado_730459" data-name="Trazado 730459" d="M25.024,49.946H19.909a1.12,1.12,0,0,1-1.122-1.12V46.342a1.12,1.12,0,0,1,1.122-1.122h5.115a1.12,1.12,0,0,1,1.12,1.122v2.485a1.12,1.12,0,0,1-1.12,1.12" transform="translate(12.292 29.587)" fill="#949494"/>
            <path id="Trazado_730460" data-name="Trazado 730460" d="M19.129,45.677a1.027,1.027,0,0,1,.726-.3h4.688A1.027,1.027,0,0,1,25.571,46.4v2.278a1.027,1.027,0,0,1-.281.706c-.187.2-2.213-2.333-6.161-3.711" transform="translate(12.516 29.689)" fill="#6e6e6e"/>
            <path id="Trazado_730461" data-name="Trazado 730461" d="M11.983,55.2H6.478a1.205,1.205,0,0,1-1.206-1.206V51.32a1.206,1.206,0,0,1,1.206-1.206h5.506a1.206,1.206,0,0,1,1.206,1.206v2.675A1.205,1.205,0,0,1,11.983,55.2" transform="translate(3.449 32.789)" fill="#1f1f1f"/>
            <path id="Trazado_730462" data-name="Trazado 730462" d="M11.678,54.949H6.563a1.12,1.12,0,0,1-1.122-1.12V51.345a1.12,1.12,0,0,1,1.122-1.122h5.115a1.12,1.12,0,0,1,1.12,1.122v2.485a1.12,1.12,0,0,1-1.12,1.12" transform="translate(3.56 32.861)" fill="#d92e2e"/>
            <path id="Trazado_730463" data-name="Trazado 730463" d="M5.783,50.681a1.027,1.027,0,0,1,.726-.3H11.2a1.027,1.027,0,0,1,1.027,1.027v2.278a1.027,1.027,0,0,1-.281.706c-.187.2-2.213-2.333-6.161-3.711" transform="translate(3.784 32.963)" fill="#992020"/>
            <path id="Trazado_730464" data-name="Trazado 730464" d="M18.762,55.2H13.257a1.205,1.205,0,0,1-1.206-1.206V51.32a1.206,1.206,0,0,1,1.206-1.206h5.506a1.206,1.206,0,0,1,1.206,1.206v2.675A1.205,1.205,0,0,1,18.762,55.2" transform="translate(7.885 32.789)" fill="#1f1f1f"/>
            <path id="Trazado_730465" data-name="Trazado 730465" d="M18.458,54.949H13.343a1.12,1.12,0,0,1-1.122-1.12V51.345a1.12,1.12,0,0,1,1.122-1.122h5.115a1.12,1.12,0,0,1,1.12,1.122v2.485a1.12,1.12,0,0,1-1.12,1.12" transform="translate(7.996 32.861)" fill="#949494"/>
            <path id="Trazado_730466" data-name="Trazado 730466" d="M12.562,50.681a1.027,1.027,0,0,1,.726-.3h4.688A1.027,1.027,0,0,1,19,51.407v2.278a1.027,1.027,0,0,1-.281.706c-.187.2-2.213-2.333-6.161-3.711" transform="translate(8.219 32.963)" fill="#6e6e6e"/>
            <path id="Trazado_730467" data-name="Trazado 730467" d="M25.329,55.2H19.824a1.205,1.205,0,0,1-1.206-1.206V51.32a1.206,1.206,0,0,1,1.206-1.206h5.506a1.206,1.206,0,0,1,1.206,1.206v2.675A1.205,1.205,0,0,1,25.329,55.2" transform="translate(12.182 32.789)" fill="#1f1f1f"/>
            <path id="Trazado_730468" data-name="Trazado 730468" d="M25.024,54.949H19.909a1.12,1.12,0,0,1-1.122-1.12V51.345a1.12,1.12,0,0,1,1.122-1.122h5.115a1.12,1.12,0,0,1,1.12,1.122v2.485a1.12,1.12,0,0,1-1.12,1.12" transform="translate(12.292 32.861)" fill="#2ed950"/>
            <path id="Trazado_730469" data-name="Trazado 730469" d="M19.129,50.681a1.027,1.027,0,0,1,.726-.3h4.688a1.027,1.027,0,0,1,1.027,1.027v2.278a1.027,1.027,0,0,1-.281.706c-.187.2-2.213-2.333-6.161-3.711" transform="translate(12.516 32.963)" fill="#1f9437"/>
            <rect id="Rectángulo_351236" data-name="Rectángulo 351236" width="29.437" height="8.736" transform="translate(9.001 89.443)" fill="#575757"/>
            <g id="Grupo_1012498" data-name="Grupo 1012498" transform="translate(5.626 14.476)" opacity="0.2">
              <g id="Grupo_1012497" data-name="Grupo 1012497">
                <g id="Grupo_1012496" data-name="Grupo 1012496" clip-path="url(#clip-path-3)">
                  <path id="Trazado_730470" data-name="Trazado 730470" d="M40.672,39.185,3.4,8.751H40.672Z" transform="translate(-3.401 -8.75)" fill="#fff"/>
                </g>
              </g>
            </g>
          </g>
        </g>
      </g>
    </g>
  </g>
</svg>
