<svg xmlns="http://www.w3.org/2000/svg" xmlns:xlink="http://www.w3.org/1999/xlink" width="99.317" height="86.726" viewBox="0 0 99.317 86.726">
  <defs>
    <clipPath id="clip-path">
      <rect id="Rectángulo_351082" data-name="Rectángulo 351082" width="99.317" height="86.726" fill="none"/>
    </clipPath>
  </defs>
  <g id="Grupo_1010997" data-name="Grupo 1010997" transform="translate(0 0)">
    <g id="Grupo_1010996" data-name="Grupo 1010996" transform="translate(0 0)" clip-path="url(#clip-path)">
      <path id="Trazado_730400" data-name="Trazado 730400" d="M102.067,26.792,65.548.241A1.256,1.256,0,0,0,64.732,0L19.665,2.792a1.255,1.255,0,0,0-.66,2.266l36.52,26.554a1.249,1.249,0,0,0,.815.237l45.066-2.791a1.254,1.254,0,0,0,.66-2.266" transform="translate(-3.268 0)" fill="#595bc1"/>
      <path id="Trazado_730401" data-name="Trazado 730401" d="M53.733,30.182,17.212,3.629a1.255,1.255,0,0,0-1.941.664L.05,56.55a1.249,1.249,0,0,0,.412,1.321L36.22,87.043a1.254,1.254,0,0,0,2-.62L54.2,31.547a1.254,1.254,0,0,0-.466-1.365" transform="translate(0 -0.599)" fill="#595bc1"/>
      <path id="Trazado_730402" data-name="Trazado 730402" d="M106.719,32.726a1.259,1.259,0,0,0-1.057-.47L60.595,35.046a1.255,1.255,0,0,0-1.126.9L43.485,90.823a1.254,1.254,0,0,0,1.378,1.591l46.125-6.426a1.258,1.258,0,0,0,1.032-.892l14.924-51.237a1.254,1.254,0,0,0-.226-1.133" transform="translate(-7.678 -5.701)" fill="#161091"/>
      <path id="Trazado_730403" data-name="Trazado 730403" d="M77.551,9.584,32.772,14.053,26.941,34.073a1.428,1.428,0,0,0,.508,1.534L37.51,43.2a1.379,1.379,0,0,0,.459.232,1.421,1.421,0,0,0,1.763-.969L45.3,23.337l46.538-3.365Z" transform="translate(-4.752 -1.694)" fill="#fc7062"/>
      <path id="Trazado_730404" data-name="Trazado 730404" d="M57.194,91.474,74.46,89.027Z" transform="translate(-10.11 -15.737)" fill="#8eb3fa"/>
      <path id="Trazado_730405" data-name="Trazado 730405" d="M56.573,92.41a1.255,1.255,0,0,1,.175-2.447l17.266-2.447A1.254,1.254,0,1,1,74.367,90L57.1,92.448a1.254,1.254,0,0,1-.527-.037" transform="translate(-9.84 -15.467)" fill="#fc7062"/>
      <path id="Trazado_730406" data-name="Trazado 730406" d="M59.456,79.461a1.252,1.252,0,0,1-.356-2.238l4.566-3.113a1.253,1.253,0,0,1,1.684.253l2.14,2.669A1.254,1.254,0,1,1,65.532,78.6l-1.413-1.763-3.6,2.458a1.258,1.258,0,0,1-1.059.166" transform="translate(-10.35 -13.061)" fill="#fc7062"/>
      <path id="Trazado_730407" data-name="Trazado 730407" d="M60.383,89.4a1.253,1.253,0,0,1-.854-1.553l3.8-13.052a1.254,1.254,0,0,1,2.408.7l-3.8,13.052a1.254,1.254,0,0,1-1.554.852" transform="translate(-10.514 -13.061)" fill="#fc7062"/>
      <path id="Trazado_730408" data-name="Trazado 730408" d="M71.911,77.922a1.252,1.252,0,0,1-.356-2.238l4.562-3.112a1.254,1.254,0,0,1,1.686.252l2.14,2.671a1.254,1.254,0,0,1-1.957,1.568L76.573,75.3l-3.6,2.457a1.254,1.254,0,0,1-1.057.166" transform="translate(-12.551 -12.789)" fill="#fc7062"/>
      <path id="Trazado_730409" data-name="Trazado 730409" d="M72.836,87.863a1.253,1.253,0,0,1-.852-1.554l3.8-13.051a1.253,1.253,0,1,1,2.406.7l-3.8,13.051a1.254,1.254,0,0,1-1.555.854" transform="translate(-12.715 -12.789)" fill="#fc7062"/>
      <path id="Trazado_730410" data-name="Trazado 730410" d="M44.247,23.459,33.83,15.887l-1.013-.738a1.223,1.223,0,0,0-.191.387L26.94,35.057a1.432,1.432,0,0,0,.508,1.534L37.51,44.183a1.374,1.374,0,0,0,.459.233,1.422,1.422,0,0,0,1.763-.969l5.593-19.2Z" transform="translate(-4.752 -2.678)" fill="#fc7062"/>
    </g>
  </g>
</svg>
