<svg xmlns="http://www.w3.org/2000/svg" xmlns:xlink="http://www.w3.org/1999/xlink" width="69.284" height="48.592" viewBox="0 0 69.284 48.592">
  <defs>
    <clipPath id="clip-path">
      <rect id="Rectángulo_351081" data-name="Rectángulo 351081" width="69.284" height="48.592" fill="none"/>
    </clipPath>
  </defs>
  <g id="Grupo_1010995" data-name="Grupo 1010995" transform="translate(0 0)">
    <g id="Grupo_1010994" data-name="Grupo 1010994" transform="translate(0 0)" clip-path="url(#clip-path)">
      <path id="Trazado_730399" data-name="Trazado 730399" d="M64.274,0,.657,6.6A.732.732,0,0,0,0,7.4l4.2,40.533a.731.731,0,0,0,.8.651l63.618-6.6a.731.731,0,0,0,.652-.8L65.077.657a.732.732,0,0,0-.8-.652" transform="translate(0 0)" fill="#161091"/>
      <rect id="Rectángulo_351063" data-name="Rectángulo 351063" width="2.824" height="32.025" transform="translate(6.914 11.145) rotate(-5.914)" fill="#fff"/>
      <rect id="Rectángulo_351064" data-name="Rectángulo 351064" width="2.824" height="32.025" transform="translate(31.412 8.605) rotate(-5.914)" fill="#fff"/>
      <rect id="Rectángulo_351065" data-name="Rectángulo 351065" width="2.824" height="32.025" transform="translate(56.88 5.964) rotate(-5.914)" fill="#fff"/>
      <rect id="Rectángulo_351066" data-name="Rectángulo 351066" width="1.372" height="29.097" transform="matrix(0.995, -0.103, 0.103, 0.995, 11.53, 10.809)" fill="#fff"/>
      <rect id="Rectángulo_351067" data-name="Rectángulo 351067" width="1.372" height="29.097" transform="translate(22.686 9.653) rotate(-5.929)" fill="#fff"/>
      <rect id="Rectángulo_351068" data-name="Rectángulo 351068" width="0.704" height="29.097" transform="translate(20.061 9.925) rotate(-5.924)" fill="#fff"/>
      <rect id="Rectángulo_351069" data-name="Rectángulo 351069" width="1.699" height="29.097" transform="matrix(0.995, -0.103, 0.103, 0.995, 26.118, 9.297)" fill="#fff"/>
      <rect id="Rectángulo_351070" data-name="Rectángulo 351070" width="0.704" height="29.097" transform="translate(29.481 8.948) rotate(-5.924)" fill="#fff"/>
      <rect id="Rectángulo_351071" data-name="Rectángulo 351071" width="0.704" height="29.097" transform="translate(14.288 10.523) rotate(-5.924)" fill="#fff"/>
      <rect id="Rectángulo_351072" data-name="Rectángulo 351072" width="1.916" height="29.097" transform="matrix(0.995, -0.103, 0.103, 0.995, 16.468, 10.297)" fill="#fff"/>
      <rect id="Rectángulo_351073" data-name="Rectángulo 351073" width="1.372" height="29.097" transform="translate(53.219 6.486) rotate(-5.929)" fill="#fff"/>
      <rect id="Rectángulo_351074" data-name="Rectángulo 351074" width="1.372" height="29.097" transform="translate(42.063 7.643) rotate(-5.929)" fill="#fff"/>
      <rect id="Rectángulo_351075" data-name="Rectángulo 351075" width="0.704" height="29.097" transform="translate(45.357 7.302) rotate(-5.918)" fill="#fff"/>
      <rect id="Rectángulo_351076" data-name="Rectángulo 351076" width="1.699" height="29.097" transform="matrix(0.995, -0.103, 0.103, 0.995, 38.305, 8.033)" fill="#fff"/>
      <rect id="Rectángulo_351077" data-name="Rectángulo 351077" width="0.703" height="29.097" transform="matrix(0.995, -0.103, 0.103, 0.995, 35.934, 8.279)" fill="#fff"/>
      <rect id="Rectángulo_351078" data-name="Rectángulo 351078" width="0.703" height="29.097" transform="matrix(0.995, -0.103, 0.103, 0.995, 51.127, 6.703)" fill="#fff"/>
      <rect id="Rectángulo_351079" data-name="Rectángulo 351079" width="1.916" height="29.097" transform="translate(47.743 7.054) rotate(-5.922)" fill="#fff"/>
      <rect id="Rectángulo_351080" data-name="Rectángulo 351080" width="65.422" height="3.559" transform="translate(1.254 19.463) rotate(-5.918)" fill="#fc7062"/>
    </g>
  </g>
</svg>
