<svg id="Grupo_1010987" data-name="Grupo 1010987" xmlns="http://www.w3.org/2000/svg" xmlns:xlink="http://www.w3.org/1999/xlink" width="427.272" height="321.95" viewBox="0 0 427.272 321.95">
  <defs>
    <clipPath id="clip-path">
      <rect id="Rectángulo_351054" data-name="Rectángulo 351054" width="427.272" height="321.95" fill="none"/>
    </clipPath>
    <clipPath id="clip-path-3">
      <rect id="Rectángulo_351021" data-name="Rectángulo 351021" width="427.272" height="21.404" fill="none"/>
    </clipPath>
  </defs>
  <g id="Grupo_1010986" data-name="Grupo 1010986" clip-path="url(#clip-path)">
    <g id="Grupo_1010985" data-name="Grupo 1010985">
      <g id="Grupo_1010984" data-name="Grupo 1010984" clip-path="url(#clip-path)">
        <g id="Grupo_1010983" data-name="Grupo 1010983" transform="translate(0 300.545)" opacity="0.1">
          <g id="Grupo_1010982" data-name="Grupo 1010982">
            <g id="Grupo_1010981" data-name="Grupo 1010981" clip-path="url(#clip-path-3)">
              <path id="Trazado_730201" data-name="Trazado 730201" d="M213.635,309.448c117.99,0,213.637,4.794,213.637,10.7s-95.648,10.7-213.637,10.7S0,326.063,0,320.152s95.648-10.7,213.635-10.7" transform="translate(0 -309.448)" fill-rule="evenodd"/>
            </g>
          </g>
        </g>
        <path id="Trazado_730202" data-name="Trazado 730202" d="M232.915,46.027c-.874,12-2.645,13.659-14.089,14.583,11.444.926,13.215,2.581,14.089,14.585.875-12,2.646-13.659,14.09-14.585-11.444-.924-13.215-2.581-14.09-14.583m46.522,31.656c-.468,6.41-1.412,7.294-7.521,7.789,6.109.492,7.053,1.376,7.521,7.784.466-6.408,1.412-7.292,7.521-7.784-6.109-.5-7.055-1.379-7.521-7.789M259.062,28.36c-.472,6.492-1.429,7.387-7.617,7.887,6.189.5,7.145,1.4,7.617,7.886.472-6.491,1.431-7.387,7.619-7.886-6.189-.5-7.147-1.4-7.619-7.887" transform="translate(-6.296 -0.816)" fill="#fff" fill-rule="evenodd"/>
        <path id="Trazado_730203" data-name="Trazado 730203" d="M214.667,248.758c.709,9.725,2.142,11.066,11.414,11.814-9.272.748-10.7,2.089-11.414,11.817-.708-9.728-2.144-11.069-11.414-11.817,9.27-.748,10.706-2.089,11.414-11.814m-37.689,25.647c.378,5.192,1.144,5.908,6.094,6.307-4.95.4-5.717,1.116-6.094,6.31-.378-5.194-1.144-5.909-6.094-6.31,4.95-.4,5.717-1.115,6.094-6.307m16.505-39.959c.384,5.259,1.159,5.986,6.173,6.389-5.014.406-5.79,1.131-6.173,6.39-.384-5.259-1.159-5.984-6.171-6.39,5.013-.4,5.788-1.13,6.171-6.389" transform="translate(-4.917 -6.745)" fill="#fff" fill-rule="evenodd"/>
        <path id="Trazado_730204" data-name="Trazado 730204" d="M368.206,224.177c-.544,7.443-1.642,8.471-8.739,9.044,7.1.575,8.2,1.6,8.739,9.046.541-7.445,1.639-8.471,8.737-9.046-7.1-.573-8.2-1.6-8.737-9.044m28.854,19.634c-.29,3.976-.875,4.523-4.665,4.831,3.79.3,4.374.854,4.665,4.83.29-3.976.876-4.526,4.666-4.83-3.79-.308-4.375-.855-4.666-4.831m-12.638-30.593c-.292,4.026-.886,4.581-4.724,4.891,3.838.309,4.432.864,4.724,4.893.294-4.029.888-4.584,4.726-4.893-3.838-.31-4.432-.865-4.726-4.891" transform="translate(-10.342 -6.135)" fill="#fff" fill-rule="evenodd"/>
        <path id="Trazado_730205" data-name="Trazado 730205" d="M258.718,32.463,243.06,29.927l-.539-.067-7.014.035V98.77l8.034-.065L259.2,96.956a.6.6,0,0,0,.5-.633V33.692a1.19,1.19,0,0,0-.978-1.229" transform="translate(-6.776 -0.859)" fill="#c2a98a" fill-rule="evenodd"/>
        <path id="Trazado_730206" data-name="Trazado 730206" d="M235.473,98.8V29.861h.033l7.015-.035.543.066,15.658,2.537a1.226,1.226,0,0,1,1.007,1.262V96.322a.634.634,0,0,1-.531.666l-15.653,1.749Zm.067-68.875V98.736l8-.065,15.649-1.748a.568.568,0,0,0,.472-.6V33.691a1.157,1.157,0,0,0-.948-1.195l-15.659-2.537-.538-.067Z" transform="translate(-6.775 -0.858)" fill="#bca694"/>
        <path id="Trazado_730207" data-name="Trazado 730207" d="M198.018,29.9h43.63a1.393,1.393,0,0,1,1.389,1.39V97.807a.966.966,0,0,1-.962.963H197.47a.965.965,0,0,1-.962-.963v-66.4a1.514,1.514,0,0,1,1.51-1.51" transform="translate(-5.654 -0.86)" fill="#f9dec1" fill-rule="evenodd"/>
        <path id="Trazado_730208" data-name="Trazado 730208" d="M242.073,98.846H197.467a1.042,1.042,0,0,1-1.038-1.041V31.4a1.589,1.589,0,0,1,1.587-1.588h43.63a1.467,1.467,0,0,1,1.465,1.467V97.8a1.04,1.04,0,0,1-1.037,1.041M198.016,29.971a1.435,1.435,0,0,0-1.435,1.434V97.8a.886.886,0,0,0,.886.886h44.606a.885.885,0,0,0,.885-.886V31.284a1.313,1.313,0,0,0-1.312-1.312Z" transform="translate(-5.651 -0.858)" fill="#bca694"/>
        <rect id="Rectángulo_351022" data-name="Rectángulo 351022" width="9.662" height="22.008" transform="translate(209.288 28.451)" fill="#fe7062"/>
        <rect id="Rectángulo_351023" data-name="Rectángulo 351023" width="0.965" height="17.715" transform="translate(213.26 28.451)" fill="#f9dec1"/>
        <path id="Trazado_730209" data-name="Trazado 730209" d="M248.889,30.836l6.225,1.009-.2,20.964-6.023-.591Z" transform="translate(-7.161 -0.887)" fill="#fe7062" fill-rule="evenodd"/>
        <path id="Trazado_730210" data-name="Trazado 730210" d="M251.576,31.277l.965.156.082,17.529-1.047-.349Z" transform="translate(-7.238 -0.9)" fill="#c2a98a" fill-rule="evenodd"/>
        <path id="Trazado_730211" data-name="Trazado 730211" d="M184.28,91.321l2.069-.76,7.043.76,1.665,219.932-1.665.926H184.28ZM413.87,277.528v34.651l9.153-.047,1.864-.714L423.023,91.274l-7.249-.713-1.9.76v9.521H193.393v9.111H413.87v74.676H193.393v9.112H413.87v74.676H193.393v9.111Z" transform="translate(-5.302 -2.606)" fill="#1e77d1" fill-rule="evenodd"/>
        <path id="Trazado_730212" data-name="Trazado 730212" d="M415.83,276.768H195.353v-9.111H415.83V192.98H195.353v-9.111H415.83V109.19H195.353v-9.111H415.83V90.561h9.113V311.417H415.83ZM186.241,90.561h9.111V311.418h-9.111Z" transform="translate(-5.358 -2.606)" fill="#61a0e0" fill-rule="evenodd"/>
        <path id="Trazado_730213" data-name="Trazado 730213" d="M311.877,32.463l-15.656-2.536-.539-.067-7.016.035V98.77L296.7,98.7l15.655-1.748a.6.6,0,0,0,.5-.633V33.692a1.192,1.192,0,0,0-.978-1.229" transform="translate(-8.305 -0.859)" fill="#c2a98a" fill-rule="evenodd"/>
        <path id="Trazado_730214" data-name="Trazado 730214" d="M288.632,98.8V29.861h.033l7.016-.035.543.066,15.657,2.537a1.226,1.226,0,0,1,1.007,1.262V96.322a.634.634,0,0,1-.531.666L296.7,98.738Zm.067-68.875V98.736l8-.065,15.65-1.748a.568.568,0,0,0,.472-.6V33.691a1.157,1.157,0,0,0-.949-1.195l-15.658-2.537-.537-.067Z" transform="translate(-8.304 -0.858)" fill="#bca694"/>
        <path id="Trazado_730215" data-name="Trazado 730215" d="M251.178,29.9h43.628a1.394,1.394,0,0,1,1.392,1.39V97.807a.968.968,0,0,1-.962.963H250.63a.964.964,0,0,1-.961-.963v-66.4a1.513,1.513,0,0,1,1.509-1.51" transform="translate(-7.183 -0.86)" fill="#f9dec1" fill-rule="evenodd"/>
        <path id="Trazado_730216" data-name="Trazado 730216" d="M295.233,98.846H250.627a1.041,1.041,0,0,1-1.038-1.041V31.4a1.589,1.589,0,0,1,1.587-1.588H294.8a1.467,1.467,0,0,1,1.468,1.467V97.8a1.042,1.042,0,0,1-1.038,1.041M251.176,29.971a1.436,1.436,0,0,0-1.435,1.434V97.8a.887.887,0,0,0,.886.886h44.606a.885.885,0,0,0,.885-.886V31.284a1.313,1.313,0,0,0-1.314-1.312Z" transform="translate(-7.181 -0.858)" fill="#bca694"/>
        <rect id="Rectángulo_351024" data-name="Rectángulo 351024" width="9.663" height="22.008" transform="translate(260.917 28.451)" fill="#fe7062"/>
        <rect id="Rectángulo_351025" data-name="Rectángulo 351025" width="0.965" height="17.715" transform="translate(264.89 28.451)" fill="#f9dec1"/>
        <path id="Trazado_730217" data-name="Trazado 730217" d="M302.047,30.836l6.226,1.009-.2,20.964-6.024-.591Z" transform="translate(-8.69 -0.887)" fill="#fe7062" fill-rule="evenodd"/>
        <path id="Trazado_730218" data-name="Trazado 730218" d="M304.735,31.277l.965.156.082,17.529-1.047-.349Z" transform="translate(-8.768 -0.9)" fill="#c2a98a" fill-rule="evenodd"/>
        <path id="Trazado_730219" data-name="Trazado 730219" d="M365.037,32.463,349.38,29.927l-.539-.067-7.015.035V98.77l8.033-.065,15.654-1.748a.6.6,0,0,0,.5-.633V33.692a1.192,1.192,0,0,0-.978-1.229" transform="translate(-9.835 -0.859)" fill="#c2a98a" fill-rule="evenodd"/>
        <path id="Trazado_730220" data-name="Trazado 730220" d="M341.791,98.8V29.861h.034l7.015-.035.543.066,15.657,2.537a1.226,1.226,0,0,1,1.007,1.262V96.322a.634.634,0,0,1-.53.666l-15.655,1.749Zm.067-68.875V98.736l8-.065,15.65-1.748a.568.568,0,0,0,.472-.6V33.691a1.157,1.157,0,0,0-.948-1.195l-15.659-2.537-.537-.067Z" transform="translate(-9.834 -0.858)" fill="#bca694"/>
        <path id="Trazado_730221" data-name="Trazado 730221" d="M304.338,29.9h43.627a1.393,1.393,0,0,1,1.39,1.39V97.807a.966.966,0,0,1-.961.963H303.788a.965.965,0,0,1-.961-.963v-66.4a1.514,1.514,0,0,1,1.511-1.51" transform="translate(-8.713 -0.86)" fill="#f9dec1" fill-rule="evenodd"/>
        <path id="Trazado_730222" data-name="Trazado 730222" d="M348.391,98.844H303.785a1.041,1.041,0,0,1-1.038-1.039v-66.4a1.59,1.59,0,0,1,1.589-1.586h43.627a1.468,1.468,0,0,1,1.469,1.465V97.805a1.042,1.042,0,0,1-1.04,1.039M304.336,29.97a1.437,1.437,0,0,0-1.435,1.435v66.4a.888.888,0,0,0,.884.889h44.606a.888.888,0,0,0,.885-.889V31.284a1.314,1.314,0,0,0-1.313-1.314Z" transform="translate(-8.71 -0.858)" fill="#bca694"/>
        <rect id="Rectángulo_351026" data-name="Rectángulo 351026" width="9.661" height="22.008" transform="translate(312.548 28.451)" fill="#fe7062"/>
        <rect id="Rectángulo_351027" data-name="Rectángulo 351027" width="0.967" height="17.715" transform="translate(316.52 28.451)" fill="#f9dec1"/>
        <path id="Trazado_730223" data-name="Trazado 730223" d="M355.206,30.836l6.226,1.009-.2,20.964-6.024-.591Z" transform="translate(-10.22 -0.887)" fill="#fe7062" fill-rule="evenodd"/>
        <path id="Trazado_730224" data-name="Trazado 730224" d="M357.894,31.277l.965.156.082,17.529-1.047-.349Z" transform="translate(-10.297 -0.9)" fill="#c2a98a" fill-rule="evenodd"/>
        <path id="Trazado_730225" data-name="Trazado 730225" d="M418.2,32.463l-15.657-2.536L402,29.86l-7.015.035V98.77l8.035-.065,15.652-1.748a.6.6,0,0,0,.5-.633V33.692a1.192,1.192,0,0,0-.98-1.229" transform="translate(-11.364 -0.859)" fill="#c2a98a" fill-rule="evenodd"/>
        <path id="Trazado_730226" data-name="Trazado 730226" d="M394.95,98.8V29.861h.034L402,29.826l.544.066L418.2,32.429a1.228,1.228,0,0,1,1.009,1.262V96.322a.634.634,0,0,1-.532.666l-15.653,1.749Zm.067-68.875V98.736l8-.065,15.648-1.748a.57.57,0,0,0,.474-.6V33.691a1.158,1.158,0,0,0-.95-1.195l-15.659-2.537L402,29.892Z" transform="translate(-11.363 -0.858)" fill="#bca694"/>
        <path id="Trazado_730227" data-name="Trazado 730227" d="M357.5,29.9h43.628a1.393,1.393,0,0,1,1.39,1.39V97.807a.967.967,0,0,1-.961.963H356.947a.967.967,0,0,1-.963-.963v-66.4A1.516,1.516,0,0,1,357.5,29.9" transform="translate(-10.242 -0.86)" fill="#f9dec1" fill-rule="evenodd"/>
        <path id="Trazado_730228" data-name="Trazado 730228" d="M401.551,98.846H356.945a1.042,1.042,0,0,1-1.038-1.041V31.4a1.589,1.589,0,0,1,1.588-1.588h43.628a1.468,1.468,0,0,1,1.467,1.467V97.8a1.041,1.041,0,0,1-1.038,1.041M357.495,29.971a1.435,1.435,0,0,0-1.435,1.434V97.8a.886.886,0,0,0,.886.886h44.606a.886.886,0,0,0,.884-.886V31.284a1.314,1.314,0,0,0-1.312-1.312Z" transform="translate(-10.24 -0.858)" fill="#bca694"/>
        <rect id="Rectángulo_351028" data-name="Rectángulo 351028" width="9.661" height="22.008" transform="translate(364.178 28.451)" fill="#fe7062"/>
        <rect id="Rectángulo_351029" data-name="Rectángulo 351029" width="0.967" height="17.715" transform="translate(368.149 28.451)" fill="#f9dec1"/>
        <path id="Trazado_730229" data-name="Trazado 730229" d="M408.365,30.836l6.227,1.009-.2,20.964-6.025-.591Z" transform="translate(-11.749 -0.887)" fill="#fe7062" fill-rule="evenodd"/>
        <path id="Trazado_730230" data-name="Trazado 730230" d="M411.053,31.277l.965.156.082,17.529-1.047-.349Z" transform="translate(-11.826 -0.9)" fill="#f9dec1" fill-rule="evenodd"/>
        <path id="Trazado_730231" data-name="Trazado 730231" d="M258.718,118.653l-15.658-2.539-.539-.064-7.014.033v68.875l8.034-.063,15.654-1.751a.6.6,0,0,0,.5-.63V119.88a1.188,1.188,0,0,0-.978-1.227" transform="translate(-6.776 -3.339)" fill="#c2a98a" fill-rule="evenodd"/>
        <path id="Trazado_730232" data-name="Trazado 730232" d="M235.473,184.99V116.048h.033l7.015-.033.543.065,15.658,2.538a1.226,1.226,0,0,1,1.007,1.26v62.634a.639.639,0,0,1-.533.664l-15.651,1.751Zm.067-68.875v68.808l8-.063,15.649-1.75a.571.571,0,0,0,.472-.6V119.878a1.157,1.157,0,0,0-.948-1.193l-15.659-2.539-.538-.064Z" transform="translate(-6.775 -3.338)" fill="#bca694"/>
        <path id="Trazado_730233" data-name="Trazado 730233" d="M198.018,116.084h43.63a1.394,1.394,0,0,1,1.389,1.39V184a.964.964,0,0,1-.962.961H197.47a.965.965,0,0,1-.962-.961v-66.4a1.516,1.516,0,0,1,1.51-1.51" transform="translate(-5.654 -3.34)" fill="#f9dec1" fill-rule="evenodd"/>
        <path id="Trazado_730234" data-name="Trazado 730234" d="M242.073,185.033H197.467a1.039,1.039,0,0,1-1.038-1.038v-66.4A1.589,1.589,0,0,1,198.016,116h43.63a1.467,1.467,0,0,1,1.465,1.467v66.523a1.038,1.038,0,0,1-1.037,1.038m-44.057-68.874a1.435,1.435,0,0,0-1.435,1.434v66.4a.886.886,0,0,0,.886.885h44.606a.886.886,0,0,0,.885-.885V117.472a1.312,1.312,0,0,0-1.312-1.312Z" transform="translate(-5.651 -3.338)" fill="#bca694"/>
        <rect id="Rectángulo_351030" data-name="Rectángulo 351030" width="9.662" height="22.008" transform="translate(209.288 112.161)" fill="#fe7062"/>
        <rect id="Rectángulo_351031" data-name="Rectángulo 351031" width="0.965" height="17.715" transform="translate(213.26 112.16)" fill="#f9dec1"/>
        <path id="Trazado_730235" data-name="Trazado 730235" d="M248.889,117.024l6.225,1.009-.2,20.964-6.023-.59Z" transform="translate(-7.161 -3.367)" fill="#fe7062" fill-rule="evenodd"/>
        <path id="Trazado_730236" data-name="Trazado 730236" d="M251.576,117.467l.965.156.082,17.529-1.047-.349Z" transform="translate(-7.238 -3.38)" fill="#c2a98a" fill-rule="evenodd"/>
        <path id="Trazado_730237" data-name="Trazado 730237" d="M311.877,118.653l-15.656-2.539-.539-.064-7.016.033v68.875l8.033-.063,15.655-1.751a.6.6,0,0,0,.5-.63V119.88a1.19,1.19,0,0,0-.978-1.227" transform="translate(-8.305 -3.339)" fill="#c2a98a" fill-rule="evenodd"/>
        <path id="Trazado_730238" data-name="Trazado 730238" d="M288.632,184.99V116.048h.033l7.016-.033.543.065,15.657,2.538a1.226,1.226,0,0,1,1.007,1.26v62.634a.639.639,0,0,1-.533.664L296.7,184.927Zm.067-68.875v68.808l8-.063,15.65-1.75a.57.57,0,0,0,.472-.6V119.878a1.157,1.157,0,0,0-.949-1.193l-15.658-2.539-.537-.064Z" transform="translate(-8.304 -3.338)" fill="#bca694"/>
        <path id="Trazado_730239" data-name="Trazado 730239" d="M251.178,116.084h43.628a1.4,1.4,0,0,1,1.392,1.39V184a.966.966,0,0,1-.962.961H250.63a.964.964,0,0,1-.961-.961v-66.4a1.514,1.514,0,0,1,1.509-1.51" transform="translate(-7.183 -3.34)" fill="#f9dec1" fill-rule="evenodd"/>
        <path id="Trazado_730240" data-name="Trazado 730240" d="M295.233,185.033H250.627a1.039,1.039,0,0,1-1.038-1.038v-66.4A1.589,1.589,0,0,1,251.176,116H294.8a1.467,1.467,0,0,1,1.468,1.467v66.523a1.039,1.039,0,0,1-1.038,1.038m-44.057-68.874a1.435,1.435,0,0,0-1.435,1.434v66.4a.887.887,0,0,0,.886.885h44.606a.885.885,0,0,0,.885-.885V117.472a1.312,1.312,0,0,0-1.314-1.312Z" transform="translate(-7.181 -3.338)" fill="#bca694"/>
        <rect id="Rectángulo_351032" data-name="Rectángulo 351032" width="9.663" height="22.008" transform="translate(260.917 112.161)" fill="#fe7062"/>
        <rect id="Rectángulo_351033" data-name="Rectángulo 351033" width="0.965" height="17.715" transform="translate(264.89 112.16)" fill="#f9dec1"/>
        <path id="Trazado_730241" data-name="Trazado 730241" d="M302.047,117.024l6.226,1.009L308.07,139l-6.024-.59Z" transform="translate(-8.69 -3.367)" fill="#fe7062" fill-rule="evenodd"/>
        <path id="Trazado_730242" data-name="Trazado 730242" d="M304.735,117.467l.965.156.082,17.529-1.047-.349Z" transform="translate(-8.768 -3.38)" fill="#c2a98a" fill-rule="evenodd"/>
        <path id="Trazado_730243" data-name="Trazado 730243" d="M365.037,118.653l-15.657-2.539-.539-.064-7.015.033v68.875l8.033-.063,15.654-1.751a.6.6,0,0,0,.5-.63V119.88a1.19,1.19,0,0,0-.978-1.227" transform="translate(-9.835 -3.339)" fill="#c2a98a" fill-rule="evenodd"/>
        <path id="Trazado_730244" data-name="Trazado 730244" d="M341.791,184.99V116.048h.034l7.015-.033.543.065,15.657,2.538a1.226,1.226,0,0,1,1.007,1.26v62.634a.638.638,0,0,1-.533.664l-15.652,1.751Zm.067-68.875v68.808l8-.063,15.65-1.75a.57.57,0,0,0,.472-.6V119.878a1.157,1.157,0,0,0-.948-1.193l-15.659-2.539-.537-.064Z" transform="translate(-9.834 -3.338)" fill="#bca694"/>
        <path id="Trazado_730245" data-name="Trazado 730245" d="M304.338,116.084h43.627a1.394,1.394,0,0,1,1.39,1.39V184a.964.964,0,0,1-.961.961H303.788a.964.964,0,0,1-.961-.961v-66.4a1.515,1.515,0,0,1,1.511-1.51" transform="translate(-8.713 -3.34)" fill="#f9dec1" fill-rule="evenodd"/>
        <path id="Trazado_730246" data-name="Trazado 730246" d="M348.391,185.031H303.785a1.04,1.04,0,0,1-1.038-1.036v-66.4a1.59,1.59,0,0,1,1.589-1.586h43.627a1.468,1.468,0,0,1,1.469,1.465v66.524a1.041,1.041,0,0,1-1.04,1.036m-44.055-68.875a1.437,1.437,0,0,0-1.435,1.435v66.4a.886.886,0,0,0,.884.886h44.606a.886.886,0,0,0,.885-.886V117.471a1.314,1.314,0,0,0-1.313-1.314Z" transform="translate(-8.71 -3.338)" fill="#bca694"/>
        <rect id="Rectángulo_351034" data-name="Rectángulo 351034" width="9.661" height="22.008" transform="translate(312.548 112.161)" fill="#fe7062"/>
        <rect id="Rectángulo_351035" data-name="Rectángulo 351035" width="0.967" height="17.715" transform="translate(316.52 112.16)" fill="#f9dec1"/>
        <path id="Trazado_730247" data-name="Trazado 730247" d="M355.206,117.024l6.226,1.009-.2,20.964-6.024-.59Z" transform="translate(-10.22 -3.367)" fill="#fe7062" fill-rule="evenodd"/>
        <path id="Trazado_730248" data-name="Trazado 730248" d="M357.894,117.467l.965.156.082,17.529-1.047-.349Z" transform="translate(-10.297 -3.38)" fill="#c2a98a" fill-rule="evenodd"/>
        <path id="Trazado_730249" data-name="Trazado 730249" d="M418.2,118.653l-15.657-2.539L402,116.05l-7.015.033v68.875l8.035-.063,15.652-.78a.6.6,0,0,0,.5-.63v-63.6a1.19,1.19,0,0,0-.98-1.227" transform="translate(-11.364 -3.339)" fill="#c2a98a" fill-rule="evenodd"/>
        <path id="Trazado_730250" data-name="Trazado 730250" d="M394.95,184.99V116.048h.034l7.015-.033.544.065,15.656,2.538a1.228,1.228,0,0,1,1.009,1.26v63.6a.639.639,0,0,1-.534.664l-15.651.78Zm.067-68.875v68.808l8-.063,15.648-.779a.57.57,0,0,0,.474-.6v-63.6a1.159,1.159,0,0,0-.95-1.193l-15.659-2.539-.537-.064Z" transform="translate(-11.363 -3.338)" fill="#bca694"/>
        <path id="Trazado_730251" data-name="Trazado 730251" d="M357.5,116.084h43.628a1.4,1.4,0,0,1,1.39,1.39V184a.965.965,0,0,1-.961.961H356.947a.967.967,0,0,1-.963-.961v-66.4a1.518,1.518,0,0,1,1.513-1.51" transform="translate(-10.242 -3.34)" fill="#f9dec1" fill-rule="evenodd"/>
        <path id="Trazado_730252" data-name="Trazado 730252" d="M401.551,185.033H356.945a1.039,1.039,0,0,1-1.038-1.038v-66.4A1.589,1.589,0,0,1,357.495,116h43.628a1.468,1.468,0,0,1,1.467,1.467v66.523a1.039,1.039,0,0,1-1.038,1.038m-44.056-68.874a1.435,1.435,0,0,0-1.435,1.434v66.4a.886.886,0,0,0,.886.885h44.606a.886.886,0,0,0,.884-.885V117.472a1.313,1.313,0,0,0-1.312-1.312Z" transform="translate(-10.24 -3.338)" fill="#bca694"/>
        <rect id="Rectángulo_351036" data-name="Rectángulo 351036" width="9.661" height="22.008" transform="translate(364.178 112.161)" fill="#fe7062"/>
        <rect id="Rectángulo_351037" data-name="Rectángulo 351037" width="0.967" height="17.715" transform="translate(368.149 112.16)" fill="#f9dec1"/>
        <path id="Trazado_730253" data-name="Trazado 730253" d="M408.365,117.024l6.227,1.009L414.39,139l-6.025-.59Z" transform="translate(-11.749 -3.367)" fill="#fe7062" fill-rule="evenodd"/>
        <path id="Trazado_730254" data-name="Trazado 730254" d="M411.053,117.467l.965.156.082,17.529-1.047-.349Z" transform="translate(-11.826 -3.38)" fill="#f9dec1" fill-rule="evenodd"/>
        <path id="Trazado_730255" data-name="Trazado 730255" d="M258.718,204.841l-15.658-2.536-.539-.067-7.014.035v68.873l8.034-.063,15.654-1.751a.6.6,0,0,0,.5-.63V206.069a1.19,1.19,0,0,0-.978-1.229" transform="translate(-6.776 -5.819)" fill="#c2a98a" fill-rule="evenodd"/>
        <path id="Trazado_730256" data-name="Trazado 730256" d="M235.473,271.178V202.239h.033l7.015-.036.543.067,15.658,2.537a1.229,1.229,0,0,1,1.007,1.262V268.7a.63.63,0,0,1-.533.664l-15.651,1.751Zm.067-68.872v68.806l8-.063L259.19,269.3a.562.562,0,0,0,.472-.6V206.069a1.16,1.16,0,0,0-.948-1.195l-15.659-2.537-.538-.067Z" transform="translate(-6.775 -5.818)" fill="#bca694"/>
        <path id="Trazado_730257" data-name="Trazado 730257" d="M198.018,202.274h43.63a1.393,1.393,0,0,1,1.389,1.39v66.521a.962.962,0,0,1-.962.961H197.47a.963.963,0,0,1-.962-.961v-66.4a1.514,1.514,0,0,1,1.51-1.51" transform="translate(-5.654 -5.82)" fill="#f9dec1" fill-rule="evenodd"/>
        <path id="Trazado_730258" data-name="Trazado 730258" d="M242.073,271.221H197.467a1.039,1.039,0,0,1-1.038-1.038v-66.4a1.589,1.589,0,0,1,1.587-1.588h43.63a1.467,1.467,0,0,1,1.465,1.467v66.521a1.038,1.038,0,0,1-1.037,1.038m-44.057-68.872a1.435,1.435,0,0,0-1.435,1.434v66.4a.886.886,0,0,0,.886.884h44.606a.885.885,0,0,0,.885-.884V203.662a1.313,1.313,0,0,0-1.312-1.312Z" transform="translate(-5.651 -5.817)" fill="#bca694"/>
        <rect id="Rectángulo_351038" data-name="Rectángulo 351038" width="9.662" height="22.008" transform="translate(209.288 195.87)" fill="#fe7062"/>
        <rect id="Rectángulo_351039" data-name="Rectángulo 351039" width="0.965" height="17.715" transform="translate(213.26 195.869)" fill="#f9dec1"/>
        <path id="Trazado_730259" data-name="Trazado 730259" d="M248.889,203.214l6.225,1.007-.2,20.966-6.023-.591Z" transform="translate(-7.161 -5.847)" fill="#fe7062" fill-rule="evenodd"/>
        <path id="Trazado_730260" data-name="Trazado 730260" d="M251.576,203.657l.965.154.082,17.529-1.047-.349Z" transform="translate(-7.238 -5.859)" fill="#c2a98a" fill-rule="evenodd"/>
        <path id="Trazado_730261" data-name="Trazado 730261" d="M311.877,204.841l-15.656-2.536-.539-.067-7.016.035v68.873l8.033-.063,15.655-1.751a.6.6,0,0,0,.5-.63V206.069a1.192,1.192,0,0,0-.978-1.229" transform="translate(-8.305 -5.819)" fill="#c2a98a" fill-rule="evenodd"/>
        <path id="Trazado_730262" data-name="Trazado 730262" d="M288.632,271.178V202.239h.033l7.016-.036.543.067,15.657,2.537a1.229,1.229,0,0,1,1.007,1.262V268.7a.63.63,0,0,1-.533.664L296.7,271.116Zm.067-68.872v68.806l8-.063,15.65-1.751a.562.562,0,0,0,.472-.6V206.069a1.16,1.16,0,0,0-.949-1.195l-15.658-2.537-.537-.067Z" transform="translate(-8.304 -5.818)" fill="#bca694"/>
        <path id="Trazado_730263" data-name="Trazado 730263" d="M251.178,202.274h43.628a1.394,1.394,0,0,1,1.392,1.39v66.521a.964.964,0,0,1-.962.961H250.63a.961.961,0,0,1-.961-.961v-66.4a1.513,1.513,0,0,1,1.509-1.51" transform="translate(-7.183 -5.82)" fill="#f9dec1" fill-rule="evenodd"/>
        <path id="Trazado_730264" data-name="Trazado 730264" d="M295.233,271.221H250.627a1.039,1.039,0,0,1-1.038-1.038v-66.4a1.589,1.589,0,0,1,1.587-1.588H294.8a1.467,1.467,0,0,1,1.468,1.467v66.521a1.039,1.039,0,0,1-1.038,1.038m-44.057-68.872a1.435,1.435,0,0,0-1.435,1.434v66.4a.886.886,0,0,0,.886.884h44.606a.884.884,0,0,0,.885-.884V203.662a1.313,1.313,0,0,0-1.314-1.312Z" transform="translate(-7.181 -5.817)" fill="#bca694"/>
        <rect id="Rectángulo_351040" data-name="Rectángulo 351040" width="9.663" height="22.008" transform="translate(260.917 195.87)" fill="#fe7062"/>
        <rect id="Rectángulo_351041" data-name="Rectángulo 351041" width="0.965" height="17.715" transform="translate(264.89 195.869)" fill="#f9dec1"/>
        <path id="Trazado_730265" data-name="Trazado 730265" d="M302.047,203.214l6.226,1.007-.2,20.966-6.024-.591Z" transform="translate(-8.69 -5.847)" fill="#fe7062" fill-rule="evenodd"/>
        <path id="Trazado_730266" data-name="Trazado 730266" d="M304.735,203.657l.965.154.082,17.529-1.047-.349Z" transform="translate(-8.768 -5.859)" fill="#c2a98a" fill-rule="evenodd"/>
        <path id="Trazado_730267" data-name="Trazado 730267" d="M365.037,204.841l-15.657-2.536-.539-.067-7.015.035v68.873l8.033-.063,15.654-1.751a.6.6,0,0,0,.5-.63V206.069a1.192,1.192,0,0,0-.978-1.229" transform="translate(-9.835 -5.819)" fill="#c2a98a" fill-rule="evenodd"/>
        <path id="Trazado_730268" data-name="Trazado 730268" d="M341.791,271.178V202.239h.034l7.015-.036.543.067,15.657,2.537a1.229,1.229,0,0,1,1.007,1.262V268.7a.63.63,0,0,1-.533.664l-15.652,1.751Zm.067-68.872v68.806l8-.063,15.65-1.751a.562.562,0,0,0,.472-.6V206.069a1.16,1.16,0,0,0-.948-1.195l-15.659-2.537-.537-.067Z" transform="translate(-9.834 -5.818)" fill="#bca694"/>
        <path id="Trazado_730269" data-name="Trazado 730269" d="M304.338,202.274h43.627a1.393,1.393,0,0,1,1.39,1.39v66.521a.962.962,0,0,1-.961.961H303.788a.962.962,0,0,1-.961-.961v-66.4a1.514,1.514,0,0,1,1.511-1.51" transform="translate(-8.713 -5.82)" fill="#f9dec1" fill-rule="evenodd"/>
        <path id="Trazado_730270" data-name="Trazado 730270" d="M348.391,271.218H303.785a1.039,1.039,0,0,1-1.038-1.036v-66.4a1.59,1.59,0,0,1,1.589-1.586h43.627a1.468,1.468,0,0,1,1.469,1.465v66.521a1.04,1.04,0,0,1-1.04,1.036m-44.055-68.872a1.436,1.436,0,0,0-1.435,1.435v66.4a.886.886,0,0,0,.884.886h44.606a.886.886,0,0,0,.885-.886V203.661a1.314,1.314,0,0,0-1.313-1.314Z" transform="translate(-8.71 -5.817)" fill="#bca694"/>
        <rect id="Rectángulo_351042" data-name="Rectángulo 351042" width="9.661" height="22.008" transform="translate(312.548 195.87)" fill="#fe7062"/>
        <rect id="Rectángulo_351043" data-name="Rectángulo 351043" width="0.967" height="17.715" transform="translate(316.52 195.869)" fill="#f9dec1"/>
        <path id="Trazado_730271" data-name="Trazado 730271" d="M355.206,203.214l6.226,1.007-.2,20.966-6.024-.591Z" transform="translate(-10.22 -5.847)" fill="#fe7062" fill-rule="evenodd"/>
        <path id="Trazado_730272" data-name="Trazado 730272" d="M357.894,203.657l.965.154.082,17.529-1.047-.349Z" transform="translate(-10.297 -5.859)" fill="#c2a98a" fill-rule="evenodd"/>
        <path id="Trazado_730273" data-name="Trazado 730273" d="M418.2,204.841l-15.657-2.536-.539-.067-7.015.035v68.873l8.035-.063,15.652-.78a.6.6,0,0,0,.5-.63v-63.6a1.192,1.192,0,0,0-.98-1.229" transform="translate(-11.364 -5.819)" fill="#c2a98a" fill-rule="evenodd"/>
        <path id="Trazado_730274" data-name="Trazado 730274" d="M394.95,271.178V202.239h.034L402,202.2l.544.067,15.656,2.537a1.23,1.23,0,0,1,1.009,1.262v63.6a.63.63,0,0,1-.534.664l-15.651.78Zm.067-68.872v68.806l8-.063,15.648-.78a.563.563,0,0,0,.474-.6v-63.6a1.161,1.161,0,0,0-.95-1.195l-15.659-2.537L402,202.27Z" transform="translate(-11.363 -5.818)" fill="#bca694"/>
        <path id="Trazado_730275" data-name="Trazado 730275" d="M357.5,202.274h43.628a1.393,1.393,0,0,1,1.39,1.39v66.521a.963.963,0,0,1-.961.961H356.947a.965.965,0,0,1-.963-.961v-66.4a1.516,1.516,0,0,1,1.513-1.51" transform="translate(-10.242 -5.82)" fill="#f9dec1" fill-rule="evenodd"/>
        <path id="Trazado_730276" data-name="Trazado 730276" d="M401.551,271.221H356.945a1.039,1.039,0,0,1-1.038-1.038v-66.4a1.589,1.589,0,0,1,1.588-1.588h43.628a1.468,1.468,0,0,1,1.467,1.467v66.521a1.039,1.039,0,0,1-1.038,1.038m-44.056-68.872a1.435,1.435,0,0,0-1.435,1.434v66.4a.886.886,0,0,0,.886.884h44.606a.885.885,0,0,0,.884-.884V203.662a1.314,1.314,0,0,0-1.312-1.312Z" transform="translate(-10.24 -5.817)" fill="#bca694"/>
        <rect id="Rectángulo_351044" data-name="Rectángulo 351044" width="9.661" height="22.008" transform="translate(364.178 195.87)" fill="#fe7062"/>
        <rect id="Rectángulo_351045" data-name="Rectángulo 351045" width="0.967" height="17.715" transform="translate(368.149 195.869)" fill="#f9dec1"/>
        <path id="Trazado_730277" data-name="Trazado 730277" d="M408.365,203.214l6.227,1.007-.2,20.966-6.025-.591Z" transform="translate(-11.749 -5.847)" fill="#fe7062" fill-rule="evenodd"/>
        <path id="Trazado_730278" data-name="Trazado 730278" d="M411.053,203.657l.965.154.082,17.529-1.047-.349Z" transform="translate(-11.826 -5.859)" fill="#f9dec1" fill-rule="evenodd"/>
        <path id="Trazado_730279" data-name="Trazado 730279" d="M131.45,28.378c.835.06,1.639-.929,1.871-1.227A10.625,10.625,0,0,0,135,23.964q-.261-.74-.543-1.869-4.822-3.274-1.319-4.844a6.236,6.236,0,0,1,1.753,2.438,1.438,1.438,0,0,0,1.267-.855,42.535,42.535,0,0,1-1.3-5.6c1.584-2.355,5.288-2.689,10.191-2.054q.342,1.955.56,4.147c.866.8.754,3.759-.045,7.173q.6,2.908-3.595,3.176c-.028.47.017,1.006.024,1.336.008.3.017.88.329.969l.519.13c-.052,6.937-3.605,8.271-11.4.265" transform="translate(-3.782 -0.314)" fill="#ffb27d" fill-rule="evenodd"/>
        <path id="Trazado_730280" data-name="Trazado 730280" d="M144.953,11.036c-4.9-.635-8.608-.3-10.191,2.054a42.393,42.393,0,0,0,1.3,5.6,1.439,1.439,0,0,1-1.266.855,6.243,6.243,0,0,0-1.753-2.439q-3.5,1.57,1.318,4.845.284,1.128.544,1.868c-2.891-.648-5.31-3.234-5.651-4.354-3.373-6.646.388-9.454,2.4-10.478.888-6.583,10.369.031,15.158-3.145a3.221,3.221,0,0,1-1.856,5.194" transform="translate(-3.68 -0.168)" fill="#332208" fill-rule="evenodd"/>
        <path id="Trazado_730281" data-name="Trazado 730281" d="M138.971,25.42a8.265,8.265,0,0,0,3.222.675,9.783,9.783,0,0,0,.022,1.325,5.087,5.087,0,0,1-3.244-2" transform="translate(-3.998 -0.731)" fill="#f08261" fill-rule="evenodd"/>
        <path id="Trazado_730282" data-name="Trazado 730282" d="M125.244,162.486c-3.045-1.072-3.291-2.641-4.932-3.408s-1.842-2.147-.226-3.639c1.194.953,2.674,2.125,3.459,1.5.524-.416,2.3-.387,2.652.218,1.548,3.6,3.7,2.456,4.124,4.093.05,2.178-3.679,1.726-5.077,1.232" transform="translate(-3.423 -4.472)" fill="#163560" fill-rule="evenodd"/>
        <path id="Trazado_730283" data-name="Trazado 730283" d="M152.229,158.873c-5.364-.085-9.373-.151-11.225-.735-2-.631-1.585-1.851-.437-3.8,5.055,2.325,3.708-.479,6.073-.121a15.028,15.028,0,0,0,7.381,2.689c1.377,1.017.819,1.922-1.792,1.968" transform="translate(-4.017 -4.436)" fill="#163560" fill-rule="evenodd"/>
        <path id="Trazado_730284" data-name="Trazado 730284" d="M148.753,29.66a36.438,36.438,0,0,0-7.213-1.414q-.577,8.824-9.205-.121c-5.54.463-6.624.534-9.7,1.534-6.649,6.351-7.261,13.683-10.737,22.06a23.67,23.67,0,0,1,8.192,1.569q.842-3.011,1.411-4.849-.16,16.573-.122,22.708,23.11,2.931,27.495-.612.089-14.733.246-23.322a27.955,27.955,0,0,0,4.235,4.174c3.121-3.579,5.235-5.018,7-7.129a93.35,93.35,0,0,0-11.607-14.6" transform="translate(-3.22 -0.809)" fill="#fdfcdb" fill-rule="evenodd"/>
        <path id="Trazado_730285" data-name="Trazado 730285" d="M175.689,40.617q-10.03,4.171-14.045,6.888l-1.189-1.759c-1.105,1.107-2.368,2.194-3.908,3.769a21.147,21.147,0,0,0,4.732,3.752q6.97-.746,15.407-10.554a6.822,6.822,0,0,0,3.862-1.9,3.322,3.322,0,0,0-1.273-2.534q3.5-2.281,2.785-3.263-5.481,3.387-6.369,5.6" transform="translate(-4.504 -1.007)" fill="#ffb27d" fill-rule="evenodd"/>
        <path id="Trazado_730286" data-name="Trazado 730286" d="M149.2,53.076q-.108,9-.155,17.452c.835.658,1.953,6.247.962,9.491,1.693,10.445.243,24.041-.668,41.524-1.631,6.161-4.037,14.372-3.88,25.928-2.839.867-3.868.959-6.431.307-1.792-12.061-.569-21.718,1.05-26.179-1.036-6.894-2.584-14.61-4.839-25.741-2.538,12.131-5.934,21.131-7.406,27-.29,6.549-1.615,15.387-2.307,26.515a11.881,11.881,0,0,1-5.608.552c-2.839-10.227-2.362-21.359-1.16-33.389,1.279-14.462-.829-30.793,1.282-36.455.674-3.761.257-7.294,1.51-8.944a8.409,8.409,0,0,0,7.313-1.584q.306-21.388,1.471-28.353,1.183-10.062-6.028-12.006a3.286,3.286,0,0,1,3.764-.682q5.594,3.68,5.333,13.087,9.542,1.339,12.827-.861.354-8.885-3.532-12.406,1.466-1.049,3.8.679,2.981,4.1,2.621,12.709.752,3.115.085,11.353" transform="translate(-3.39 -0.804)" fill="#4f8ecc" fill-rule="evenodd"/>
        <path id="Trazado_730287" data-name="Trazado 730287" d="M123.62,60.3c-.683.1-1.327.189-1.933.271q-.05,7.312-.026,10.95c.683.088,1.354.17,2.013.25q-.079-6.114-.054-11.47m31.12-9.764a22.57,22.57,0,0,1-5.351-7.6,29.694,29.694,0,0,1,.227,4.906,27.339,27.339,0,0,0,4.022,3.924c.382-.439.748-.844,1.1-1.225m-30.59-9.5q-1.24,3.986-2.367,7.779-.032,3.2-.054,6.015c.545-.051,1.184-.085,1.942-.1q.118-7.778.479-13.689" transform="translate(-3.5 -1.181)" fill="#4a75cb" fill-rule="evenodd"/>
        <path id="Trazado_730288" data-name="Trazado 730288" d="M141.388,44.965H155.4a.974.974,0,0,1,.982,1.167l-3.145,19.853a1.424,1.424,0,0,1-1.353,1.165H137.874a.972.972,0,0,1-.983-1.165l3.145-19.853a1.424,1.424,0,0,1,1.352-1.167" transform="translate(-3.938 -1.294)" fill="#4d4d4e" fill-rule="evenodd"/>
        <path id="Trazado_730289" data-name="Trazado 730289" d="M113.211,52.494a17.706,17.706,0,0,0-.362,7.686c1.512,2.2,7.615.967,23.328-1.659a4.334,4.334,0,0,0,3.5.8c1.642-.41,1.721-.84,3.564-2.579a3.019,3.019,0,0,0-.276-3.1c-2.076,1.223-3.167,1.87-5.5,1.949q.932-2.4.282-3.1a4.626,4.626,0,0,0-1.558,2.885c-12.389-.539-15.656-.467-17.305.4.179-.779.337-1.46.476-2.051a21.822,21.822,0,0,0-6.143-1.229" transform="translate(-3.239 -1.51)" fill="#ffb27d" fill-rule="evenodd"/>
        <path id="Trazado_730290" data-name="Trazado 730290" d="M140.371,151.606a12.584,12.584,0,0,1,.054,2.831c4.23,1.839,3.512-.283,5.2-.337a7.42,7.42,0,0,1-.826-2.864,8.582,8.582,0,0,1-4.43.37m-19.71,1.939a8.076,8.076,0,0,1-.223,2.02c1.131.895,2.431,1.826,3.149,1.258a2.749,2.749,0,0,1,1.9-.207,20.585,20.585,0,0,1-.65-3.472,11.057,11.057,0,0,1-4.171.4" transform="translate(-3.465 -4.351)" fill="#ffb27d" fill-rule="evenodd"/>
        <path id="Trazado_730291" data-name="Trazado 730291" d="M130.779,2.06c5.614-3.679,10.777-2.238,13.519,2.8l.084.152c2.924-1.267,5.357-1.681,6.039-1.213l-11.985,6.512-11.692,6.367-.947-1.739c-2.348-4.31.252-9.778,4.981-12.877" transform="translate(-3.594 0)" fill="#f9b33a" fill-rule="evenodd"/>
        <path id="Trazado_730292" data-name="Trazado 730292" d="M144.3,4.857c-2.745-5.035-7.907-6.477-13.52-2.8-4.73,3.1-7.33,8.565-4.982,12.876l.409.75L144.382,5.01Z" transform="translate(-3.594 0)" fill="#dda234" fill-rule="evenodd"/>
        <path id="Trazado_730293" data-name="Trazado 730293" d="M129.486,4.744c5.116-3.354,9.859-2.455,12.736,1.541L144.4,5.01l-.083-.152c-2.745-5.035-7.907-6.476-13.521-2.8A13.265,13.265,0,0,0,125.369,8.8a14.343,14.343,0,0,1,4.117-4.055" transform="translate(-3.607 0)" fill="#f9b33a" fill-rule="evenodd"/>
        <path id="Trazado_730294" data-name="Trazado 730294" d="M193.113,164.565l-35.3-5.721L156.6,158.7l-15.814.08V314.053l18.114-.144,35.29-3.944a1.356,1.356,0,0,0,1.135-1.425V167.333a2.688,2.688,0,0,0-2.208-2.768" transform="translate(-4.05 -4.566)" fill="#c2a98a" fill-rule="evenodd"/>
        <path id="Trazado_730295" data-name="Trazado 730295" d="M140.705,314.125V158.7h.075l15.815-.08,1.225.151,35.3,5.721a2.761,2.761,0,0,1,2.271,2.841V308.537a1.423,1.423,0,0,1-1.2,1.5L158.9,313.98Zm.149-155.277V313.975l18.039-.144,35.282-3.943a1.28,1.28,0,0,0,1.07-1.351V167.33a2.62,2.62,0,0,0-2.144-2.7l-35.3-5.72-1.214-.149Z" transform="translate(-4.048 -4.564)" fill="#bca694"/>
        <path id="Trazado_730296" data-name="Trazado 730296" d="M56.264,158.778h98.363a3.14,3.14,0,0,1,3.132,3.131V311.886a2.175,2.175,0,0,1-2.169,2.169H55.026a2.173,2.173,0,0,1-2.166-2.169v-149.7a3.413,3.413,0,0,1,3.4-3.405" transform="translate(-1.521 -4.568)" fill="#f9dec1" fill-rule="evenodd"/>
        <path id="Trazado_730297" data-name="Trazado 730297" d="M155.586,314.222H55.021a2.342,2.342,0,0,1-2.339-2.341v-149.7a3.581,3.581,0,0,1,3.577-3.577h98.363a3.307,3.307,0,0,1,3.3,3.3V311.881a2.343,2.343,0,0,1-2.341,2.341M56.259,158.944a3.238,3.238,0,0,0-3.232,3.234v149.7a2,2,0,0,0,1.994,2H155.586a2,2,0,0,0,2-2V161.9a2.964,2.964,0,0,0-2.959-2.96Z" transform="translate(-1.516 -4.563)" fill="#bca694"/>
        <rect id="Rectángulo_351046" data-name="Rectángulo 351046" width="21.784" height="49.618" transform="translate(92.896 152.891)" fill="#fe7062"/>
        <rect id="Rectángulo_351047" data-name="Rectángulo 351047" width="2.178" height="39.938" transform="translate(101.853 152.892)" fill="#f9dec1"/>
        <path id="Trazado_730298" data-name="Trazado 730298" d="M170.949,160.9l14.036,2.273-.456,47.266-13.58-1.331Z" transform="translate(-4.918 -4.629)" fill="#fe7062" fill-rule="evenodd"/>
        <path id="Trazado_730299" data-name="Trazado 730299" d="M177.01,161.893l2.177.354.183,39.52-2.36-.786Z" transform="translate(-5.093 -4.658)" fill="#f9dec1" fill-rule="evenodd"/>
        <path id="Trazado_730300" data-name="Trazado 730300" d="M41.91,188.668q-8.9,3.225-11.418.623-2.56-.591-3.336-4.538c-1.767-4.005-.256-10.4,2.227-7.236,2.054-5.256,10.3-2.208,14.944-5.124,2.821,1.844,1.748,6.4-.279,7.941.08,5.242-.208,8.042-2.139,8.334" transform="translate(-0.759 -4.96)" fill="#332208" fill-rule="evenodd"/>
        <path id="Trazado_730301" data-name="Trazado 730301" d="M28.027,178.2a1.336,1.336,0,0,0,.621-1.618,2.655,2.655,0,0,0-2.809-.054q.81.047,2.188,1.672" transform="translate(-0.743 -5.068)" fill="#332208" fill-rule="evenodd"/>
        <path id="Trazado_730302" data-name="Trazado 730302" d="M29.311,176.772q-.685.768-1.257.339a2.987,2.987,0,0,1,.416-2.537,3.83,3.83,0,0,0,.841,2.2" transform="translate(-0.804 -5.023)" fill="#332208" fill-rule="evenodd"/>
        <path id="Trazado_730303" data-name="Trazado 730303" d="M32.507,179.093a1.981,1.981,0,0,0-2.537.443c.045,1.675.915,5.044,2.247,5.783.232-.162.178-3.708.289-6.226" transform="translate(-0.862 -5.146)" fill="#284191" fill-rule="evenodd"/>
        <path id="Trazado_730304" data-name="Trazado 730304" d="M32.951,177.431q-2.835,1.378-1.871,2.481a15.63,15.63,0,0,0,8.19-.923q-2.359.221-6.32-1.559" transform="translate(-0.887 -5.105)" fill="#284191" fill-rule="evenodd"/>
        <path id="Trazado_730305" data-name="Trazado 730305" d="M43.981,180.052c-2.14-2.16-6.176-2.421-11.737-.388-3.52-.873-4.31-2.5-2.824-5.146,2.1-3.738,6.645-.784,12.214-4.3-.212,2.732,8.078,5.075,2.347,9.834" transform="translate(-0.826 -4.897)" fill="#332208" fill-rule="evenodd"/>
        <path id="Trazado_730306" data-name="Trazado 730306" d="M30.637,182.235c1.475-.318,1.336,2.714,1.226,4.216-.219,2.954-3.551-3.723-1.226-4.216" transform="translate(-0.858 -5.242)" fill="#ffb27d" fill-rule="evenodd"/>
        <path id="Trazado_730307" data-name="Trazado 730307" d="M22.408,322.494c-2.773-.978-3-2.4-4.49-3.1s-1.676-1.954-.206-3.314c1.087.867,2.434,1.935,3.149,1.37.478-.378,2.095-.353,2.415.2,1.408,3.274,3.366,2.238,3.754,3.728.045,1.982-3.35,1.57-4.622,1.122" transform="translate(-0.48 -9.094)" fill="#2b2b2b" fill-rule="evenodd"/>
        <path id="Trazado_730308" data-name="Trazado 730308" d="M46.736,322.655c-5.117-.084-8.944-.145-10.711-.7-1.907-.6-1.512-1.766-.417-3.627,4.824,2.218,3.538-.456,5.793-.116a14.328,14.328,0,0,0,7.044,2.566c1.315.969.78,1.835-1.71,1.878" transform="translate(-0.998 -9.154)" fill="#2b2b2b" fill-rule="evenodd"/>
        <path id="Trazado_730309" data-name="Trazado 730309" d="M28.883,194.419a4.223,4.223,0,0,0,2.334-.388,10.275,10.275,0,0,0,1.694-2.984c-.168-.481-.347-1.09-.531-1.83q-4.725-3.209-1.292-4.747a6.146,6.146,0,0,1,1.718,2.39,1.408,1.408,0,0,0,1.241-.837,41.194,41.194,0,0,1-1.269-5.488c1.551-2.307,5.182-2.635,9.987-2.012q.334,1.917.548,4.064c.6.552,2.34,9.77-3.565,10.144a7.361,7.361,0,0,0,.067,1.594,1.164,1.164,0,0,0,.649.408v0q.137,4.707-11.581-.314" transform="translate(-0.831 -5.128)" fill="#ffb27d" fill-rule="evenodd"/>
        <path id="Trazado_730310" data-name="Trazado 730310" d="M42.682,178.356c-4.807-.623-8.436-.294-9.988,2.012a41.7,41.7,0,0,0,1.269,5.488,1.408,1.408,0,0,1-1.241.837A6.137,6.137,0,0,0,31,184.3q-3.432,1.54,1.292,4.747c.185.739.363,1.349.531,1.83-2.833-.635-5.2-3.167-5.536-4.264-3.305-6.515.38-9.266,2.353-10.269.87-6.452,10.237-.748,14.932-3.859,1.865,2.576-.442,5.81-1.895,5.866" transform="translate(-0.747 -4.963)" fill="#332208" fill-rule="evenodd"/>
        <path id="Trazado_730311" data-name="Trazado 730311" d="M71.193,206.324Q67.625,221.6,58.66,230.03a11.21,11.21,0,0,1-5.731-4.416q.131,11.049-.552,21.991-6.544,3.1-17.374-.4L32.074,243.6a4.254,4.254,0,0,0-3.28,1.952c-6.858-5.234-11.482-10.858-14.21-16.447q1.1-18.008,4.892-28.418,1.916-2.943,9-5.788,11.719,5.02,11.579.312a70.5,70.5,0,0,1,9.147,4.005q4.751,3.607,8.092,19.563,5.438-6.814,11.284-14.449a5.529,5.529,0,0,1,2.618,1.995M30.5,240.343q3.408-11.213-3.764-27.668-1.808,8.12-3.9,15.981,2.437,1.161,7.669,11.688" transform="translate(-0.42 -5.607)" fill="#2c6c6a" fill-rule="evenodd"/>
        <path id="Trazado_730312" data-name="Trazado 730312" d="M29.746,251.588q1.661-.131,5.356-2.884,10.832,3.505,17.374.4c.777,12.28-2.243,25.157-6.073,39.508-3.751,6.3-3.592,10.728-5.59,25.266q-1.667,1.187-5.5-.345c-.812-12.4-.251-20.6,2.965-25.226-.5-4.156.813-14.37.874-20.784-2.339,5.215-3.946,12.262-6.995,19.376A158.457,158.457,0,0,0,23.9,313.3a9.06,9.06,0,0,1-5.823-.713q3.118-20.853,6.913-28.7a148.9,148.9,0,0,1,3.9-36.832,13.881,13.881,0,0,1,.853,4.538" transform="translate(-0.52 -7.108)" fill="#4d4d4e" fill-rule="evenodd"/>
        <path id="Trazado_730313" data-name="Trazado 730313" d="M35.424,248.647q-3.695,2.755-5.356,2.884a13.912,13.912,0,0,0-.853-4.539,4.255,4.255,0,0,1,3.28-1.951Z" transform="translate(-0.841 -7.05)" fill="#ffb27d" fill-rule="evenodd"/>
        <path id="Trazado_730314" data-name="Trazado 730314" d="M54.014,226a112.355,112.355,0,0,0-1.722-17.594q3.472,14.576,6.727,19.342,2.057-.063,5.213-2.438a36.354,36.354,0,0,1-4.485,5.106A11.212,11.212,0,0,1,54.014,226" transform="translate(-1.505 -5.996)" fill="#204b4a" fill-rule="evenodd"/>
        <path id="Trazado_730315" data-name="Trazado 730315" d="M32.434,244.125a28.609,28.609,0,0,0-1.578-3.255q3.408-11.213-3.765-27.668,10.437,14.837,5.919,31.631Z" transform="translate(-0.779 -6.134)" fill="#204b4a" fill-rule="evenodd"/>
        <path id="Trazado_730316" data-name="Trazado 730316" d="M36.819,192.475a8.079,8.079,0,0,0,3.156.662,9.708,9.708,0,0,0,.022,1.3,4.977,4.977,0,0,1-3.179-1.96" transform="translate(-1.059 -5.538)" fill="#f08261" fill-rule="evenodd"/>
        <path id="Trazado_730317" data-name="Trazado 730317" d="M35.613,318.442a7.6,7.6,0,0,0,.291-2.735q2.931,1.052,4.471.367a4.849,4.849,0,0,0,.249,2.008c-1.778-.063-.966,2.089-5.011.359m-12.9-1.2a2.523,2.523,0,0,0-1.813.167c-.638.5-1.784-.294-2.8-1.091a10.664,10.664,0,0,0,.431-1.577,8.882,8.882,0,0,0,3.831.685,3.727,3.727,0,0,0,.347,1.816" transform="translate(-0.521 -9.056)" fill="#ffb27d" fill-rule="evenodd"/>
        <path id="Trazado_730318" data-name="Trazado 730318" d="M30.016,253.382a9.914,9.914,0,0,0,.074-1.744q1.661-.133,5.357-2.884c.586.19,1.162.363,1.728.524a16.349,16.349,0,0,1-7.159,4.1" transform="translate(-0.864 -7.157)" fill="#353536" fill-rule="evenodd"/>
        <path id="Trazado_730319" data-name="Trazado 730319" d="M72.792,206.341c.145-.361.732-1.494,1.308-2.91q2.142-1.1,3.42-4.808a4.306,4.306,0,0,0-3.233-3.109,8.936,8.936,0,0,1-2.487,4.517q.411-3.207-1.056-2.008a1.426,1.426,0,0,1,.02,1.036,3.445,3.445,0,0,0,.178,3.692c-.3.624-.623,1.254-.768,1.595a5.775,5.775,0,0,1,2.618,1.995" transform="translate(-2.019 -5.625)" fill="#ffb27d" fill-rule="evenodd"/>
        <path id="Trazado_730320" data-name="Trazado 730320" d="M71,191.55l5.623-1.279a1.066,1.066,0,0,1,1.27.8l2.689,11.84a1.063,1.063,0,0,1-.8,1.27l-5.623,1.276a1.062,1.062,0,0,1-1.27-.8L70.2,192.821a1.065,1.065,0,0,1,.8-1.27" transform="translate(-2.019 -5.474)" fill="#383838" fill-rule="evenodd"/>
        <path id="Trazado_730321" data-name="Trazado 730321" d="M71.8,200.1c.684-1.65-.081-2.806-1.059-2.008a1.419,1.419,0,0,1,.022,1.036,3.013,3.013,0,0,0-.39,2.233Z" transform="translate(-2.023 -5.692)" fill="#ffb27d" fill-rule="evenodd"/>
        <path id="Trazado_730322" data-name="Trazado 730322" d="M42.4,176.893a1.516,1.516,0,0,1,.7,1.832,3.007,3.007,0,0,1-3.175.061q.915-.052,2.474-1.893" transform="translate(-1.149 -5.089)" fill="#332208" fill-rule="evenodd"/>
        <path id="Trazado_730323" data-name="Trazado 730323" d="M40.87,195.349a3.289,3.289,0,0,1-.368,1.368v0a2.608,2.608,0,0,1-1.35,1.25,4.646,4.646,0,0,1-2.116.271C35.056,198.1,31.8,197,28.2,195.166l1.06-.416a21.283,21.283,0,0,0,7.84,2.621,3.747,3.747,0,0,0,1.717-.2,1.751,1.751,0,0,0,.911-.842v0a3.943,3.943,0,0,0,.292-1.317Z" transform="translate(-0.811 -5.603)" fill="#204b4a" fill-rule="evenodd"/>
        <path id="Trazado_730324" data-name="Trazado 730324" d="M149.969,227.629s-2.447-2-3.326-2.009-2.548-.45-2.482-.163,1.471.658,1.231.792-2.286-.418-2.857-.089-1.911,1.692-.834,2.285a15.543,15.543,0,0,0,5.142,1.431c.835-.11,2.725-.244,2.725-.244Z" transform="translate(-4.065 -6.484)" fill="#ffb27d" fill-rule="evenodd"/>
        <rect id="Rectángulo_351048" data-name="Rectángulo 351048" width="107.16" height="10.198" transform="translate(111.606 235.941) rotate(-42.163)" fill="#fcb44c"/>
        <rect id="Rectángulo_351049" data-name="Rectángulo 351049" width="107.16" height="4.391" transform="matrix(0.741, -0.671, 0.671, 0.741, 113.551, 238.089)" fill="#dda234"/>
        <path id="Trazado_730325" data-name="Trazado 730325" d="M114.666,242.928l-8.22,14.32,15.065-6.761Z" transform="translate(-3.063 -6.989)" fill="#f4d4be" fill-rule="evenodd"/>
        <path id="Trazado_730326" data-name="Trazado 730326" d="M203.543,176.236l6.233-5.645a3.839,3.839,0,0,0,.268-5.408l-1.7-1.884a3.84,3.84,0,0,0-5.409-.267l-6.232,5.643Z" transform="translate(-5.659 -4.662)" fill="#eb492d" fill-rule="evenodd"/>
        <path id="Trazado_730327" data-name="Trazado 730327" d="M112.161,254.932l-5.714,2.563,3.118-5.432c1.327-.656,2.508-.76,3.055-.156s.326,1.77-.458,3.025" transform="translate(-3.063 -7.236)" fill="#232323" fill-rule="evenodd"/>
        <path id="Trazado_730328" data-name="Trazado 730328" d="M174.558,196.361s1.315,8.568,1.552,11.926c.119,1.69.291,3.046-.769,4.182,0,0,2.643.257,3.539-.474a2.5,2.5,0,0,1-.339.519s2.955.106,4.176-.817c1.852-1.254.628-26.178-8.264-24.125,0,0-8.2-.7-7.553,7.348-.137,9.558-.906,17.8-1.545,19.467.923.528,3.151-1.209,3.426-1.97.244-.675.378-1.459.448-1.66a19.26,19.26,0,0,1-.423,2.451s3.314-.374,4.732-1.444,1.425-13.743,1.021-15.4" transform="translate(-4.757 -5.393)" fill="#190d01" fill-rule="evenodd"/>
        <path id="Trazado_730329" data-name="Trazado 730329" d="M178.289,202.9c-.027-.1-.051-.187-.074-.28a6.961,6.961,0,0,0,.221-2.833c.8-.706,2.534-.1,4,.345.64,5.9.634,11.881.279,12.324-.737.924-2.523.815-2.523.815a2.953,2.953,0,0,0,.2-.518c-.543.733-2.14.476-2.14.476.641-1.136.538-2.494.465-4.182-.062-1.448-.245-3.865-.433-6.147" transform="translate(-5.127 -5.739)" fill="#190d01" fill-rule="evenodd"/>
        <rect id="Rectángulo_351050" data-name="Rectángulo 351050" width="0.994" height="0.002" transform="matrix(0.986, -0.168, 0.168, 0.986, 146.191, 283.265)" fill="#636466"/>
        <path id="Trazado_730330" data-name="Trazado 730330" d="M166.093,213.458H183.74c-1.263-3.163-3.072-5.451-4.444-5.73-.731-.2-1.973-3.2-1.955-7.466l-.333.429-5.541,1.1s.124,1.746.128,3.389c0,1.37-.069,2.762-.38,2.927-.4.035-.762.107-.762.107a14.247,14.247,0,0,0-4.36,5.248" transform="translate(-4.779 -5.762)" fill="#ffb27d" fill-rule="evenodd"/>
        <path id="Trazado_730331" data-name="Trazado 730331" d="M171.626,201.8s.124,1.744.128,3.389c3.1-.087,4.742-2.917,5.414-4.485Z" transform="translate(-4.938 -5.774)" fill="#f08261" fill-rule="evenodd"/>
        <path id="Trazado_730332" data-name="Trazado 730332" d="M177.827,198.618c.008-4.571.956-7.634-3.728-7.9s-5.6,1.471-5.971,3a20.2,20.2,0,0,0,.431,7.037c1.624,5.913,9.265.844,9.267-2.129" transform="translate(-4.833 -5.486)" fill="#ffb27d" fill-rule="evenodd"/>
        <path id="Trazado_730333" data-name="Trazado 730333" d="M182.244,304.256l-2.051,8.643-3.074-.017-.113-8.626Z" transform="translate(-5.093 -8.754)" fill="#ffb27d" fill-rule="evenodd"/>
        <path id="Trazado_730334" data-name="Trazado 730334" d="M155.539,304.6l-5.838,8.274-2.277-2.921,3.514-6.491Z" transform="translate(-4.242 -8.731)" fill="#ffb27d" fill-rule="evenodd"/>
        <path id="Trazado_730335" data-name="Trazado 730335" d="M148.378,305.884l3.007.091,3.254.1a64.264,64.264,0,0,0,11.735-21.789c.1-.31.2-.627.311-.947,2.308-6.728,7.092-15.176,9.613-22.821.4-1.218.761-2.363,1.085-3.447.1-.35.2-.69.3-1.027a81.1,81.1,0,0,0,2.891-15.222l-18.206.147a339.288,339.288,0,0,1-13.992,64.913" transform="translate(-4.269 -6.929)" fill="#2320af" fill-rule="evenodd"/>
        <path id="Trazado_730336" data-name="Trazado 730336" d="M165.331,229.506c.046,8.661-1.271,12.378-1.271,12.378a24.456,24.456,0,0,0,17.06,1.045c.109-.034,7.671-1.759,7.671-1.759-.155-.352-1.534-6.189-1.685-6.51-1.956-4.2-3.441-6.042-3.674-7.334a27.5,27.5,0,0,1-.224-7.258,58.262,58.262,0,0,1,2.246-11.4,59.182,59.182,0,0,1-7.515-2.568,5.879,5.879,0,0,1-4.054,1.5c-1.845-.04-2.444-.832-2.348-1.695-1.967,1.095-3.535,2.129-3.535,2.129-1.671,2.9-5.061,5.722-5.307,10.177-.06,1.095,2.637,11.046,2.638,11.289" transform="translate(-4.681 -5.924)" fill="#fff" fill-rule="evenodd"/>
        <path id="Trazado_730337" data-name="Trazado 730337" d="M178.616,206.524a13.309,13.309,0,0,1-2.788,1.278,5.539,5.539,0,0,1-2.7.247A2.63,2.63,0,0,1,171.3,206.8a3.131,3.131,0,0,1-.291-.664l.738-.225a2.246,2.246,0,0,0,.219.5,1.9,1.9,0,0,0,1.313.894,4.873,4.873,0,0,0,2.326-.23,12.484,12.484,0,0,0,2.622-1.207Z" transform="translate(-4.92 -5.923)" fill="#1a0f91" fill-rule="evenodd"/>
        <path id="Trazado_730338" data-name="Trazado 730338" d="M180.275,312.658a8.315,8.315,0,0,0,.391,3.541s.5,2.294-1.755,2.336-2.811-.171-2.554-1.575.741-3.835.741-3.835Z" transform="translate(-5.072 -8.996)" fill="#ffb27d" fill-rule="evenodd"/>
        <path id="Trazado_730339" data-name="Trazado 730339" d="M176.051,320c1.435,2.708,3.48,2.512,4.945,0a13.2,13.2,0,0,0-.319-3.6c-.006-.031-.011-.052-.014-.069a.137.137,0,0,0,0-.023c-2.553,2.343-4.154-.06-4.154-.06l-.006.013a15.153,15.153,0,0,0-.448,3.744" transform="translate(-5.065 -9.099)" fill="#284191" fill-rule="evenodd"/>
        <path id="Trazado_730340" data-name="Trazado 730340" d="M141.823,317.117a56.623,56.623,0,0,0,5.441-6.969l3.093,1.583-6.917,6.5-1.618-.213Z" transform="translate(-4.08 -8.923)" fill="#ffb27d" fill-rule="evenodd"/>
        <path id="Trazado_730341" data-name="Trazado 730341" d="M139.1,319.872h5.236c.772,0,1.387-1.279,2.217-2.94a2.788,2.788,0,0,1,1.885-1.26l-.021,4.2h1.209l1.112-4.439c.737-1.356.058-2.584-.46-3.655-.6,0-2.225.414-5.3,3.876a4.033,4.033,0,0,1-3.234,1.51.334.334,0,0,1-.046.023c-2.554,1.151-2.6,2.684-2.6,2.684" transform="translate(-4.002 -8.97)" fill="#284191" fill-rule="evenodd"/>
        <path id="Trazado_730342" data-name="Trazado 730342" d="M151.474,306.367l3.254.1a64.252,64.252,0,0,0,11.735-21.789c.1-.309.2-.626.312-.946,2.308-6.728,7.092-15.176,9.612-22.821.4-1.219.761-2.363,1.086-3.448.1-.349.2-.69.3-1.026l-2.682-2.035s-8.05,13.035-10.541,25.3c-2.166,10.655-10.834,23.475-13.078,26.663" transform="translate(-4.358 -7.319)" fill="#1a0f91" fill-rule="evenodd"/>
        <path id="Trazado_730343" data-name="Trazado 730343" d="M175.45,280.744c-.046,5.964.256,19.679,1.033,25.355h2.882c1.595,0,2.388-.022,2.388-.022,1.949-9.87,3.335-18.039,4.345-25.078.827-5.776,1.565-10.728,2.129-14.988.571-4.291.966-7.882,1.109-10.919.021-.478.038-.942.047-1.394s.012-.894.008-1.322l-15.729-1.536c.2,10.455,1.814,26.436,1.788,29.9" transform="translate(-4.996 -7.217)" fill="#2320af" fill-rule="evenodd"/>
        <path id="Trazado_730344" data-name="Trazado 730344" d="M179.534,306.225c1.594,0,2.388-.023,2.388-.023,1.949-9.869,3.335-18.039,4.345-25.077.827-5.777,1.564-10.728,2.129-14.988.57-4.292.966-7.883,1.108-10.919l-5.771,3.4s3.683,1.3,2.279,11.14-4.521,35.078-6.478,36.472" transform="translate(-5.165 -7.343)" fill="#1a0f91" fill-rule="evenodd"/>
        <path id="Trazado_730345" data-name="Trazado 730345" d="M178.611,253.708s1.107,4.005,4.943,3.493a46.273,46.273,0,0,0,9.284-2.811s-1.637-5.177-3.676-11.977c-2.466-8.234-3.079-19.8-4.517-26.5-.4-1.876-3.12-2.486-3.223-3.608l-3.18-6.169s-4.743,10.643-5,13.327,5.366,34.243,5.366,34.243" transform="translate(-4.984 -5.931)" fill="#91b3fa" fill-rule="evenodd"/>
        <path id="Trazado_730346" data-name="Trazado 730346" d="M181.53,227.763c.171,4.345,1.69,11.754,7.8,15.013.023.013.049.023.072.034-2.466-8.234-2.434-16.131-3.872-22.828-3.283-.683-4.092,5.388-4,7.781" transform="translate(-5.223 -6.328)" fill="#6f9def" fill-rule="evenodd"/>
        <path id="Trazado_730347" data-name="Trazado 730347" d="M188.311,237.921s-2.74-.591-3.444.19-1.1,2.024-.4,2.461,2.741-.762,3.473-.28c.523.347.689,1.228,1.217.919s1.082-2.325,1.082-2.325Z" transform="translate(-5.297 -6.839)" fill="#ffb27d" fill-rule="evenodd"/>
        <path id="Trazado_730348" data-name="Trazado 730348" d="M178.39,206.137s7.391.323,9.166,1.975,12.412,14.4,12.588,17.738-9.317,12.833-9.317,12.833a7.32,7.32,0,0,1-3.78-2.3s5.889-10.5,5.537-10.959-10.328-8.633-11.145-6.82c-.705,1.563-3.05-12.471-3.05-12.471" transform="translate(-5.132 -5.931)" fill="#91b3fa" fill-rule="evenodd"/>
        <path id="Trazado_730349" data-name="Trazado 730349" d="M149.413,225.987s8.437,2.815,9.493,2.578,2.562-11.667,3.376-15.587a7.581,7.581,0,0,1,5.048-6.051l3.795-1.015s-4.345,10.734-4.472,12.908-.511,35.521-.511,35.521.255,1.535-2.684.895-3.705-1.276-3.705-1.276,1.273-9.325,1.872-17.6c-2.993-.512-12.622-5.39-12.622-5.39-1.494-2.346.411-4.98.411-4.98" transform="translate(-4.271 -5.924)" fill="#91b3fa" fill-rule="evenodd"/>
        <path id="Trazado_730350" data-name="Trazado 730350" d="M170.293,191.33c-3.9,2.285-2.671,3.842-3.68,5.919,0,0-1.17-4.015.659-6.23,1.941-2.35,3.021.312,3.021.312" transform="translate(-4.783 -5.468)" fill="#190d01" fill-rule="evenodd"/>
        <path id="Trazado_730351" data-name="Trazado 730351" d="M169.971,190.379s1.538,6.034,5.721,7.966c0,0-4.182-3.708-4.537-7.692s-1.184-.274-1.184-.274" transform="translate(-4.89 -5.432)" fill="#190d01" fill-rule="evenodd"/>
        <path id="Trazado_730352" data-name="Trazado 730352" d="M168.4,190.473c.517-.245.874-.192,1.075.151a2.492,2.492,0,0,1-1.149,1.813,3.2,3.2,0,0,0,.074-1.964" transform="translate(-4.843 -5.476)" fill="#190d01" fill-rule="evenodd"/>
        <path id="Trazado_730353" data-name="Trazado 730353" d="M174.343,188.8q-1.024-.286-.888-1.013a3.084,3.084,0,0,1,2.548-.771,3.966,3.966,0,0,0-1.66,1.784" transform="translate(-4.99 -5.38)" fill="#190d01" fill-rule="evenodd"/>
        <path id="Trazado_730354" data-name="Trazado 730354" d="M170.361,189.726s2.159,5.762,5.472,6.612,4.752-.035,4.752-.035a9.37,9.37,0,0,1-3.067-5.541s-5.529-3.782-7.157-1.036" transform="translate(-4.901 -5.43)" fill="#190d01" fill-rule="evenodd"/>
        <path id="Trazado_730355" data-name="Trazado 730355" d="M178.473,196.934a10.946,10.946,0,0,1-2.7-.378c-3.39-.869-5.541-6.514-5.63-6.755l-.039-.1.056-.094a2.314,2.314,0,0,1,2.151-1.114c2.273,0,5.211,1.991,5.335,2.077l.084.056.015.1a9.205,9.205,0,0,0,2.982,5.392l.256.2-.279.174a4.479,4.479,0,0,1-2.226.44m-7.861-7.189c.312.777,2.355,5.616,5.271,6.363a10.514,10.514,0,0,0,2.59.364,5.168,5.168,0,0,0,1.678-.243,9.6,9.6,0,0,1-2.853-5.338c-.49-.32-3.063-1.941-4.991-1.941a1.875,1.875,0,0,0-1.695.794" transform="translate(-4.894 -5.423)" fill="#190d01"/>
        <path id="Trazado_730356" data-name="Trazado 730356" d="M178.554,196.139q-1.168-1.2-2.072-.466a4.874,4.874,0,0,0,.852,4.109q-.208-1.193,1.22-3.643" transform="translate(-5.074 -5.622)" fill="#190d01" fill-rule="evenodd"/>
        <path id="Trazado_730357" data-name="Trazado 730357" d="M168.1,193.357q-.635-2.363-1.317-1.392a20.214,20.214,0,0,0,.088,7.162,19.867,19.867,0,0,1,1.229-5.77" transform="translate(-4.791 -5.515)" fill="#190d01" fill-rule="evenodd"/>
        <path id="Trazado_730358" data-name="Trazado 730358" d="M171.741,191.727c.553-1.536-1.049-1.444-1.793-1.17a20.272,20.272,0,0,0-4.018,5.929c1.371-1.184,5.955-3.4,5.811-4.759" transform="translate(-4.774 -5.478)" fill="#190d01" fill-rule="evenodd"/>
        <path id="Trazado_730359" data-name="Trazado 730359" d="M174.215,188.646a1.064,1.064,0,0,0,.346-1.013c-.307-.658-.638-.915-.993-.773a4.468,4.468,0,0,1,.647,1.786" transform="translate(-4.994 -5.375)" fill="#190d01" fill-rule="evenodd"/>
        <path id="Trazado_730360" data-name="Trazado 730360" d="M173.468,207.979c-.423-.071-.85.365-.956.98s.152,1.17.574,1.241.851-.364.955-.978-.151-1.17-.573-1.243" transform="translate(-4.963 -5.984)" fill="#1a0f91" fill-rule="evenodd"/>
        <path id="Trazado_730361" data-name="Trazado 730361" d="M172.988,209.915c-.26-.044-.524.225-.59.6s.094.721.355.764.524-.225.59-.6-.093-.724-.355-.767" transform="translate(-4.96 -6.039)" fill="#1a0f91" fill-rule="evenodd"/>
        <path id="Trazado_730362" data-name="Trazado 730362" d="M172.729,211.126c-.229-.04-.459.2-.517.528s.083.633.31.673.46-.2.518-.528-.082-.633-.311-.673" transform="translate(-4.954 -6.074)" fill="#1a0f91" fill-rule="evenodd"/>
        <path id="Trazado_730363" data-name="Trazado 730363" d="M328.549,247.911l-18.686-3.027-.644-.08-8.373.042v82.2l9.589-.076,18.681-2.087a.72.72,0,0,0,.6-.754v-74.75a1.425,1.425,0,0,0-1.167-1.465" transform="translate(-8.656 -7.043)" fill="#c2a98a" fill-rule="evenodd"/>
        <path id="Trazado_730364" data-name="Trazado 730364" d="M300.807,327.08V244.8h.038l8.374-.042.647.08,18.689,3.027a1.466,1.466,0,0,1,1.2,1.5v74.749a.757.757,0,0,1-.638.794L310.439,327Zm.08-82.2V327l9.548-.075,18.676-2.087a.68.68,0,0,0,.566-.715V249.374a1.386,1.386,0,0,0-1.135-1.425l-18.685-3.027-.644-.08Z" transform="translate(-8.655 -7.042)" fill="#bca694"/>
        <path id="Trazado_730365" data-name="Trazado 730365" d="M256.11,244.847h52.068a1.663,1.663,0,0,1,1.657,1.659V325.9a1.15,1.15,0,0,1-1.147,1.148H255.454a1.15,1.15,0,0,1-1.149-1.148V246.65a1.809,1.809,0,0,1,1.8-1.8" transform="translate(-7.317 -7.045)" fill="#f9dec1" fill-rule="evenodd"/>
        <path id="Trazado_730366" data-name="Trazado 730366" d="M308.684,327.132H255.451a1.241,1.241,0,0,1-1.239-1.238V246.648a1.9,1.9,0,0,1,1.895-1.895h52.068a1.752,1.752,0,0,1,1.747,1.75v79.39a1.24,1.24,0,0,1-1.237,1.238m-52.577-82.2a1.714,1.714,0,0,0-1.712,1.711v79.245a1.056,1.056,0,0,0,1.057,1.055h53.233a1.058,1.058,0,0,0,1.058-1.055V246.5a1.57,1.57,0,0,0-1.568-1.567Z" transform="translate(-7.314 -7.042)" fill="#bca694"/>
        <rect id="Rectángulo_351051" data-name="Rectángulo 351051" width="11.532" height="26.266" transform="translate(268.987 237.105)" fill="#fe7062"/>
        <rect id="Rectángulo_351052" data-name="Rectángulo 351052" width="1.153" height="21.141" transform="translate(273.73 237.105)" fill="#f9dec1"/>
        <path id="Trazado_730367" data-name="Trazado 730367" d="M316.816,245.97l7.429,1.2-.24,25.019-7.189-.7Z" transform="translate(-9.115 -7.077)" fill="#fe7062" fill-rule="evenodd"/>
        <path id="Trazado_730368" data-name="Trazado 730368" d="M320.026,246.5l1.153.187.1,20.921-1.249-.418Z" transform="translate(-9.208 -7.092)" fill="#f9dec1" fill-rule="evenodd"/>
      </g>
    </g>
  </g>
</svg>
