<svg id="Grupo_1010993" data-name="Grupo 1010993" xmlns="http://www.w3.org/2000/svg" xmlns:xlink="http://www.w3.org/1999/xlink" width="56.283" height="61.616" viewBox="0 0 56.283 61.616">
  <defs>
    <clipPath id="clip-path">
      <rect id="Rectángulo_351062" data-name="Rectángulo 351062" width="56.283" height="61.616" fill="none"/>
    </clipPath>
  </defs>
  <g id="Grupo_1010992" data-name="Grupo 1010992" transform="translate(0 0)" clip-path="url(#clip-path)">
    <path id="Trazado_730391" data-name="Trazado 730391" d="M52.884,17.506,19.559,9.417a5.68,5.68,0,0,0-6.853,4.176L3.148,52.969a.864.864,0,0,0,.635,1.044L46.462,64.371a.863.863,0,0,0,1.043-.637l9.557-39.376a5.68,5.68,0,0,0-4.177-6.853" transform="translate(-0.938 -2.779)" fill="#595bc1"/>
    <path id="Trazado_730392" data-name="Trazado 730392" d="M29.372,1.645,27.849,7.919Z" transform="translate(-8.363 -0.494)" fill="#161091"/>
    <path id="Trazado_730393" data-name="Trazado 730393" d="M27.084,8.542a1.15,1.15,0,0,1-.847-1.39L27.759.879A1.151,1.151,0,0,1,30,1.422L28.474,7.7a1.151,1.151,0,0,1-1.39.847" transform="translate(-7.869 0)" fill="#161091"/>
    <path id="Trazado_730394" data-name="Trazado 730394" d="M74.492,12.6,72.969,18.87Z" transform="translate(-21.912 -3.782)" fill="#161091"/>
    <path id="Trazado_730395" data-name="Trazado 730395" d="M72.2,19.493a1.15,1.15,0,0,1-.847-1.39l1.523-6.273a1.151,1.151,0,1,1,2.236.542l-1.523,6.274a1.151,1.151,0,0,1-1.39.847" transform="translate(-21.418 -3.288)" fill="#161091"/>
    <rect id="Rectángulo_351057" data-name="Rectángulo 351057" width="11.546" height="15.262" transform="translate(19.392 43.359) rotate(-76.359)" fill="#fff"/>
    <rect id="Rectángulo_351058" data-name="Rectángulo 351058" width="11.546" height="15.262" transform="translate(4.561 39.759) rotate(-76.359)" fill="#161091"/>
    <rect id="Rectángulo_351059" data-name="Rectángulo 351059" width="11.546" height="15.262" transform="translate(22.217 32.163) rotate(-76.357)" fill="#161091"/>
    <rect id="Rectángulo_351060" data-name="Rectángulo 351060" width="11.547" height="15.262" transform="translate(16.77 54.605) rotate(-76.357)" fill="#161091"/>
    <rect id="Rectángulo_351061" data-name="Rectángulo 351061" width="11.546" height="15.262" transform="translate(34.196 46.952) rotate(-76.359)" fill="#161091"/>
    <path id="Trazado_730396" data-name="Trazado 730396" d="M38.663,42.413l-3.773-6.19a.861.861,0,0,0-1.186-.288L12.958,48.577,7.239,39.193a.864.864,0,0,0-1.187-.288L.413,42.341a.864.864,0,0,0-.288,1.186L10.067,59.84a.864.864,0,0,0,1.186.288L38.375,43.6a.864.864,0,0,0,.288-1.187" transform="translate(0 -10.753)" fill="#fc7062"/>
    <path id="Trazado_730397" data-name="Trazado 730397" d="M13.18,49.89a.982.982,0,0,0-.192.013L7.24,40.469a.864.864,0,0,0-1.187-.288L.414,43.616A.864.864,0,0,0,.126,44.8l9.891,16.232a.871.871,0,0,0,.377.335Z" transform="translate(0 -12.028)" fill="#fc7062"/>
    <path id="Trazado_730398" data-name="Trazado 730398" d="M56.369,17.506,23.043,9.417a5.68,5.68,0,0,0-6.853,4.176l-1.438,5.923a.863.863,0,0,0,.635,1.043L58.067,30.917a.863.863,0,0,0,1.042-.635l1.437-5.923a5.68,5.68,0,0,0-4.177-6.853" transform="translate(-4.423 -2.779)" fill="#fc7062"/>
  </g>
</svg>
