<svg id="Grupo_1018568" data-name="Grupo 1018568" xmlns="http://www.w3.org/2000/svg" xmlns:xlink="http://www.w3.org/1999/xlink" width="120.894" height="116.189" viewBox="0 0 120.894 116.189">
  <defs>
    <clipPath id="clip-path">
      <rect id="Rectángulo_355515" data-name="Rectángulo 355515" width="120.894" height="116.189" fill="none"/>
    </clipPath>
    <clipPath id="clip-path-2">
      <rect id="Rectángulo_355466" data-name="Rectángulo 355466" width="120.893" height="116.189" fill="none"/>
    </clipPath>
    <clipPath id="clip-path-3">
      <rect id="Rectángulo_355463" data-name="Rectángulo 355463" width="5.615" height="13.858" fill="none"/>
    </clipPath>
    <clipPath id="clip-path-6">
      <rect id="Rectángulo_355487" data-name="Rectángulo 355487" width="5.65" height="13.946" fill="none"/>
    </clipPath>
    <clipPath id="clip-path-7">
      <rect id="Rectángulo_355489" data-name="Rectángulo 355489" width="5.649" height="13.946" fill="none"/>
    </clipPath>
    <clipPath id="clip-path-10">
      <rect id="Rectángulo_355513" data-name="Rectángulo 355513" width="5.613" height="13.858" fill="none"/>
    </clipPath>
  </defs>
  <g id="Grupo_1018567" data-name="Grupo 1018567" clip-path="url(#clip-path)">
    <rect id="Rectángulo_355443" data-name="Rectángulo 355443" width="51.096" height="84.301" transform="translate(69.797 13.822)" fill="#d7ba76"/>
    <rect id="Rectángulo_355444" data-name="Rectángulo 355444" width="21.938" height="9.873" transform="translate(72.052 86.051)" fill="#fcf7ea"/>
    <rect id="Rectángulo_355445" data-name="Rectángulo 355445" width="1.298" height="8.409" transform="translate(73.239 86.785)" fill="#354546"/>
    <rect id="Rectángulo_355446" data-name="Rectángulo 355446" width="0.438" height="8.409" transform="translate(75.325 86.785)" fill="#354546"/>
    <rect id="Rectángulo_355447" data-name="Rectángulo 355447" width="0.436" height="8.409" transform="translate(89.55 86.785)" fill="#354546"/>
    <rect id="Rectángulo_355448" data-name="Rectángulo 355448" width="1.298" height="8.409" transform="translate(77.414 86.785)" fill="#354546"/>
    <rect id="Rectángulo_355449" data-name="Rectángulo 355449" width="0.65" height="8.409" transform="translate(79.501 86.785)" fill="#354546"/>
    <rect id="Rectángulo_355450" data-name="Rectángulo 355450" width="0.648" height="8.409" transform="translate(76.311 86.785)" fill="#354546"/>
    <rect id="Rectángulo_355451" data-name="Rectángulo 355451" width="2.171" height="8.411" transform="translate(80.715 86.783)" fill="#354546"/>
    <rect id="Rectángulo_355452" data-name="Rectángulo 355452" width="1.298" height="8.409" transform="translate(87.818 86.785)" fill="#354546"/>
    <rect id="Rectángulo_355453" data-name="Rectángulo 355453" width="1.298" height="8.409" transform="translate(84.856 86.785)" fill="#354546"/>
    <rect id="Rectángulo_355454" data-name="Rectángulo 355454" width="0.65" height="8.409" transform="translate(83.676 86.785)" fill="#354546"/>
    <rect id="Rectángulo_355455" data-name="Rectángulo 355455" width="0.65" height="8.409" transform="translate(86.566 86.785)" fill="#354546"/>
    <rect id="Rectángulo_355456" data-name="Rectángulo 355456" width="2.141" height="8.411" transform="translate(90.301 86.783)" fill="#354546"/>
    <rect id="Rectángulo_355457" data-name="Rectángulo 355457" width="1.596" height="84.301" transform="translate(95.346 13.822)" fill="#b59d63"/>
    <rect id="Rectángulo_355458" data-name="Rectángulo 355458" width="51.096" height="7.222" transform="translate(69.797 13.822)" fill="#b59d63"/>
    <rect id="Rectángulo_355459" data-name="Rectángulo 355459" width="1.357" height="5.446" transform="translate(102.508 88.291)" fill="#b59d63"/>
    <path id="Trazado_747392" data-name="Trazado 747392" d="M52.92,48.178l2.03-3.519,2.032,3.519Z" transform="translate(48.237 40.707)" fill="#b59d63"/>
    <rect id="Rectángulo_355460" data-name="Rectángulo 355460" width="1.357" height="5.446" transform="translate(107.002 88.291)" fill="#b59d63"/>
    <path id="Trazado_747393" data-name="Trazado 747393" d="M55.27,48.178l2.03-3.519,2.034,3.519Z" transform="translate(50.379 40.707)" fill="#b59d63"/>
    <rect id="Rectángulo_355461" data-name="Rectángulo 355461" width="8.558" height="0.851" transform="translate(101.157 94.343)" fill="#b59d63"/>
    <g id="Grupo_1018550" data-name="Grupo 1018550" transform="translate(0 0)">
      <g id="Grupo_1018549" data-name="Grupo 1018549" clip-path="url(#clip-path-2)">
        <g id="Grupo_1018545" data-name="Grupo 1018545" transform="translate(78.062 13.823)" style="mix-blend-mode: multiply;isolation: isolate">
          <g id="Grupo_1018544" data-name="Grupo 1018544">
            <g id="Grupo_1018543" data-name="Grupo 1018543" clip-path="url(#clip-path-3)">
              <rect id="Rectángulo_355462" data-name="Rectángulo 355462" width="5.616" height="13.858" transform="translate(-0.002 -0.001)" fill="#b59d63"/>
            </g>
          </g>
        </g>
        <g id="Grupo_1018548" data-name="Grupo 1018548" transform="translate(105.965 13.823)" style="mix-blend-mode: multiply;isolation: isolate">
          <g id="Grupo_1018547" data-name="Grupo 1018547">
            <g id="Grupo_1018546" data-name="Grupo 1018546" clip-path="url(#clip-path-3)">
              <rect id="Rectángulo_355464" data-name="Rectángulo 355464" width="5.614" height="13.858" transform="translate(0.001 -0.001)" fill="#b59d63"/>
            </g>
          </g>
        </g>
      </g>
    </g>
    <rect id="Rectángulo_355467" data-name="Rectángulo 355467" width="51.423" height="27.103" transform="translate(7.68 13.803)" fill="#d7ba76"/>
    <rect id="Rectángulo_355468" data-name="Rectángulo 355468" width="22.078" height="9.934" transform="translate(9.951 28.759)" fill="#fcf7ea"/>
    <rect id="Rectángulo_355469" data-name="Rectángulo 355469" width="1.304" height="8.464" transform="translate(11.144 29.493)" fill="#354546"/>
    <rect id="Rectángulo_355470" data-name="Rectángulo 355470" width="0.44" height="8.464" transform="translate(13.245 29.493)" fill="#354546"/>
    <rect id="Rectángulo_355471" data-name="Rectángulo 355471" width="0.44" height="8.464" transform="translate(27.558 29.493)" fill="#354546"/>
    <rect id="Rectángulo_355472" data-name="Rectángulo 355472" width="1.307" height="8.464" transform="translate(15.346 29.493)" fill="#354546"/>
    <rect id="Rectángulo_355473" data-name="Rectángulo 355473" width="0.654" height="8.464" transform="translate(17.446 29.493)" fill="#354546"/>
    <rect id="Rectángulo_355474" data-name="Rectángulo 355474" width="0.654" height="8.464" transform="translate(14.237 29.493)" fill="#354546"/>
    <rect id="Rectángulo_355475" data-name="Rectángulo 355475" width="2.187" height="8.464" transform="translate(18.668 29.493)" fill="#354546"/>
    <rect id="Rectángulo_355476" data-name="Rectángulo 355476" width="1.306" height="8.464" transform="translate(25.817 29.493)" fill="#354546"/>
    <rect id="Rectángulo_355477" data-name="Rectángulo 355477" width="1.306" height="8.464" transform="translate(22.835 29.493)" fill="#354546"/>
    <rect id="Rectángulo_355478" data-name="Rectángulo 355478" width="0.65" height="8.464" transform="translate(21.652 29.493)" fill="#354546"/>
    <rect id="Rectángulo_355479" data-name="Rectángulo 355479" width="0.652" height="8.464" transform="translate(24.559 29.493)" fill="#354546"/>
    <rect id="Rectángulo_355480" data-name="Rectángulo 355480" width="2.154" height="8.464" transform="translate(28.317 29.493)" fill="#354546"/>
    <rect id="Rectángulo_355481" data-name="Rectángulo 355481" width="1.608" height="27.103" transform="translate(33.392 13.803)" fill="#b59d63"/>
    <rect id="Rectángulo_355482" data-name="Rectángulo 355482" width="51.423" height="7.269" transform="translate(7.68 13.803)" fill="#b59d63"/>
    <rect id="Rectángulo_355483" data-name="Rectángulo 355483" width="1.367" height="5.48" transform="translate(40.6 31.013)" fill="#b59d63"/>
    <path id="Trazado_747394" data-name="Trazado 747394" d="M20.528,18.224l2.043-3.54,2.045,3.54Z" transform="translate(18.712 13.385)" fill="#b59d63"/>
    <rect id="Rectángulo_355484" data-name="Rectángulo 355484" width="1.367" height="5.48" transform="translate(45.123 31.013)" fill="#b59d63"/>
    <path id="Trazado_747395" data-name="Trazado 747395" d="M22.895,18.224l2.043-3.54,2.045,3.54Z" transform="translate(20.869 13.385)" fill="#b59d63"/>
    <rect id="Rectángulo_355485" data-name="Rectángulo 355485" width="8.611" height="0.856" transform="translate(39.239 37.101)" fill="#b59d63"/>
    <g id="Grupo_1018558" data-name="Grupo 1018558" transform="translate(0 0)">
      <g id="Grupo_1018557" data-name="Grupo 1018557" clip-path="url(#clip-path-2)">
        <g id="Grupo_1018553" data-name="Grupo 1018553" transform="translate(16 13.804)" style="mix-blend-mode: multiply;isolation: isolate">
          <g id="Grupo_1018552" data-name="Grupo 1018552">
            <g id="Grupo_1018551" data-name="Grupo 1018551" clip-path="url(#clip-path-6)">
              <rect id="Rectángulo_355486" data-name="Rectángulo 355486" width="5.65" height="13.946" transform="translate(0 -0.001)" fill="#b59d63"/>
            </g>
          </g>
        </g>
        <g id="Grupo_1018556" data-name="Grupo 1018556" transform="translate(44.08 13.804)" style="mix-blend-mode: multiply;isolation: isolate">
          <g id="Grupo_1018555" data-name="Grupo 1018555">
            <g id="Grupo_1018554" data-name="Grupo 1018554" clip-path="url(#clip-path-7)">
              <rect id="Rectángulo_355488" data-name="Rectángulo 355488" width="5.648" height="13.946" transform="translate(0.001 -0.001)" fill="#b59d63"/>
            </g>
          </g>
        </g>
      </g>
    </g>
    <rect id="Rectángulo_355491" data-name="Rectángulo 355491" width="51.098" height="57.213" transform="translate(0 41.763)" fill="#d7ba76"/>
    <rect id="Rectángulo_355492" data-name="Rectángulo 355492" width="21.938" height="9.873" transform="translate(2.256 86.903)" fill="#fcf7ea"/>
    <rect id="Rectángulo_355493" data-name="Rectángulo 355493" width="1.298" height="8.409" transform="translate(3.443 87.635)" fill="#354546"/>
    <rect id="Rectángulo_355494" data-name="Rectángulo 355494" width="0.438" height="8.409" transform="translate(5.53 87.635)" fill="#354546"/>
    <rect id="Rectángulo_355495" data-name="Rectángulo 355495" width="0.436" height="8.409" transform="translate(19.753 87.635)" fill="#354546"/>
    <rect id="Rectángulo_355496" data-name="Rectángulo 355496" width="1.298" height="8.409" transform="translate(7.617 87.635)" fill="#354546"/>
    <rect id="Rectángulo_355497" data-name="Rectángulo 355497" width="0.65" height="8.409" transform="translate(9.705 87.635)" fill="#354546"/>
    <rect id="Rectángulo_355498" data-name="Rectángulo 355498" width="0.65" height="8.409" transform="translate(6.514 87.635)" fill="#354546"/>
    <rect id="Rectángulo_355499" data-name="Rectángulo 355499" width="2.171" height="8.411" transform="translate(10.92 87.633)" fill="#354546"/>
    <rect id="Rectángulo_355500" data-name="Rectángulo 355500" width="1.3" height="8.409" transform="translate(18.022 87.635)" fill="#354546"/>
    <rect id="Rectángulo_355501" data-name="Rectángulo 355501" width="1.3" height="8.409" transform="translate(15.057 87.635)" fill="#354546"/>
    <rect id="Rectángulo_355502" data-name="Rectángulo 355502" width="0.648" height="8.409" transform="translate(13.881 87.635)" fill="#354546"/>
    <rect id="Rectángulo_355503" data-name="Rectángulo 355503" width="0.65" height="8.409" transform="translate(16.77 87.635)" fill="#354546"/>
    <rect id="Rectángulo_355504" data-name="Rectángulo 355504" width="2.139" height="8.411" transform="translate(20.507 87.633)" fill="#354546"/>
    <rect id="Rectángulo_355505" data-name="Rectángulo 355505" width="1.598" height="57.213" transform="translate(25.547 41.763)" fill="#b59d63"/>
    <rect id="Rectángulo_355506" data-name="Rectángulo 355506" width="51.098" height="7.222" transform="translate(0 41.761)" fill="#b59d63"/>
    <rect id="Rectángulo_355507" data-name="Rectángulo 355507" width="1.359" height="5.448" transform="translate(32.712 89.142)" fill="#b59d63"/>
    <path id="Trazado_747396" data-name="Trazado 747396" d="M16.406,48.623l2.03-3.519,2.032,3.519Z" transform="translate(14.954 41.113)" fill="#b59d63"/>
    <rect id="Rectángulo_355508" data-name="Rectángulo 355508" width="1.357" height="5.448" transform="translate(37.206 89.142)" fill="#b59d63"/>
    <path id="Trazado_747397" data-name="Trazado 747397" d="M18.757,48.623l2.03-3.519,2.032,3.519Z" transform="translate(17.097 41.113)" fill="#b59d63"/>
    <rect id="Rectángulo_355509" data-name="Rectángulo 355509" width="8.556" height="0.851" transform="translate(31.36 95.193)" fill="#b59d63"/>
    <g id="Grupo_1018566" data-name="Grupo 1018566" transform="translate(0 0)">
      <g id="Grupo_1018565" data-name="Grupo 1018565" clip-path="url(#clip-path-2)">
        <g id="Grupo_1018561" data-name="Grupo 1018561" transform="translate(8.266 41.762)" style="mix-blend-mode: multiply;isolation: isolate">
          <g id="Grupo_1018560" data-name="Grupo 1018560">
            <g id="Grupo_1018559" data-name="Grupo 1018559" clip-path="url(#clip-path-3)">
              <rect id="Rectángulo_355510" data-name="Rectángulo 355510" width="5.616" height="13.858" transform="translate(-0.001 -0.001)" fill="#b59d63"/>
            </g>
          </g>
        </g>
        <g id="Grupo_1018564" data-name="Grupo 1018564" transform="translate(36.169 41.762)" style="mix-blend-mode: multiply;isolation: isolate">
          <g id="Grupo_1018563" data-name="Grupo 1018563">
            <g id="Grupo_1018562" data-name="Grupo 1018562" clip-path="url(#clip-path-10)">
              <rect id="Rectángulo_355512" data-name="Rectángulo 355512" width="5.612" height="13.858" transform="translate(0 -0.001)" fill="#b59d63"/>
            </g>
          </g>
        </g>
        <path id="Trazado_747398" data-name="Trazado 747398" d="M9.581,51.535c.025,0,.048.023.071.021,14.237,3.653,26.794,7.063,36.609,9.68,1.705.436,3.341.872,4.88,1.262l.143,5.708c-1.579-.1-3.206-.252-4.861-.426C35.765,66.638,23.919,64,11.481,60.588Z" transform="translate(8.733 46.974)" fill="#eab99a"/>
        <path id="Trazado_747399" data-name="Trazado 747399" d="M74.367,51.535c-.025,0-.048.023-.073.021C60.06,55.209,47.5,58.619,37.687,61.236c-1.705.436-3.341.872-4.88,1.262l-.143,5.708c1.579-.1,3.206-.252,4.859-.426,10.66-1.141,22.5-3.779,34.942-7.191Z" transform="translate(29.773 46.974)" fill="#eab99a"/>
        <path id="Trazado_747400" data-name="Trazado 747400" d="M67.614,28.759c0,15.883-24.465,54.709-24.465,54.709s-23.6-38.826-23.6-54.709S30.307,0,43.58,0,67.614,12.874,67.614,28.759" transform="translate(17.819 0)" fill="#7d4c2e"/>
        <path id="Trazado_747401" data-name="Trazado 747401" d="M51.654,8.841S63.9,28.83,44.709,43.225L31.235,42.057s-8.376-9.171-6.344-18.02Z" transform="translate(22.398 8.058)" fill="#5d2c10"/>
        <path id="Trazado_747402" data-name="Trazado 747402" d="M33,37.841c-.168.507-2,5.683-4.5,12.406-.2.507-.394,1.04-.593,1.575-.732,1.94-1.489,3.966-2.277,6.05.027,0,0,.027,0,.027-.2.535-.422,1.069-.621,1.632-.617,1.575-1.237,3.179-1.856,4.783l-.168.449c-1.6,4.106-1.436,8.13-1.743,11.563A4.961,4.961,0,0,1,16.256,80.8H16.23c-4.136-2.7-5.15-2.561-6.189-7.99a7.868,7.868,0,0,1-.365-3.4C13.3,54.748,16.256,47.265,22.136,33.959a2.117,2.117,0,0,1,.141-.394,5.668,5.668,0,0,1,6.47-2.869,2.588,2.588,0,0,1,.451.111,5.154,5.154,0,0,1,1.434.677A5.574,5.574,0,0,1,33,37.841" transform="translate(8.733 27.813)" fill="#eab99a"/>
        <path id="Trazado_747403" data-name="Trazado 747403" d="M65.339,72.808C64.3,78.237,63.313,78.1,59.151,80.8h-.031a4.959,4.959,0,0,1-4.978-4.473C53.832,72.892,54,68.869,52.4,64.763l-.141-.449c-.617-1.6-1.265-3.236-1.883-4.84-1.239-3.206-2.42-6.358-3.462-9.227-2.5-6.723-4.331-11.9-4.5-12.406a5.594,5.594,0,0,1,2.336-6.358,5.512,5.512,0,0,1,1.434-.677,2.877,2.877,0,0,1,.478-.111A5.63,5.63,0,0,1,53.1,33.565c.057.14.113.252.17.394,5.849,13.306,8.8,20.79,12.432,35.445a7.868,7.868,0,0,1-.365,3.4" transform="translate(38.419 27.813)" fill="#eab99a"/>
        <path id="Trazado_747404" data-name="Trazado 747404" d="M72.783,55.534a7.634,7.634,0,0,1,2.361,5.289,6.952,6.952,0,0,1-1.124,3.743,12.316,12.316,0,0,1-5.738,4.584.742.742,0,0,1-.2.113,11.863,11.863,0,0,1-1.491.564,2.663,2.663,0,0,1-.422.14,1.1,1.1,0,0,0-.084.281v.029a61.186,61.186,0,0,0-4.643,17.582h-29.9a60.807,60.807,0,0,0-4.53-17.3,5.867,5.867,0,0,0-.224-.589,13.04,13.04,0,0,1-1.774-.648,17.721,17.721,0,0,1-3.009-1.632,10.843,10.843,0,0,1-3.039-3.064,7.145,7.145,0,0,1-1.155-3.8,7.622,7.622,0,0,1,2.365-5.289L16.208,40.907c0-2.73,2.5-4.953,5.654-5.121h6.979a16.765,16.765,0,0,0,6.216-1.323,9.84,9.84,0,0,0,2.955-2.026A7.574,7.574,0,0,0,39,31.285a13.6,13.6,0,0,0,2.223-6.358H51.739a13.6,13.6,0,0,0,2.223,6.358,7.393,7.393,0,0,0,.956,1.153A9.974,9.974,0,0,0,57.9,34.463a16.767,16.767,0,0,0,6.218,1.323h6.61c3.32,0,6.019,2.307,6.019,5.121Z" transform="translate(14.774 22.721)" fill="#eab99a"/>
        <path id="Trazado_747405" data-name="Trazado 747405" d="M57.051,48.721a8.376,8.376,0,0,1-4.333,6.948.676.676,0,0,1-.195.111,11.5,11.5,0,0,1-1.464.761,4.239,4.239,0,0,1-.533.226V56.8a15.612,15.612,0,0,1-5.346.927c-6.581,0-11.9-4.024-11.9-9,0-4.953,5.318-9,11.9-9a14.712,14.712,0,0,1,5.176.929c3.966,1.434,6.7,4.528,6.7,8.074" transform="translate(30.335 36.203)" fill="#f5c4a5"/>
        <path id="Trazado_747406" data-name="Trazado 747406" d="M41.732,48.721c0,4.978-5.346,9-11.9,9a14.9,14.9,0,0,1-4.417-.648,10.53,10.53,0,0,1-2-.757,11.527,11.527,0,0,1-3.009-2.112,7.987,7.987,0,0,1-2.418-4.7s.029-.029,0-.029a6.3,6.3,0,0,1-.031-.759,7.527,7.527,0,0,1,2.309-5.289,10.878,10.878,0,0,1,3.823-2.617,15.575,15.575,0,0,1,5.74-1.1c6.555,0,11.9,4.05,11.9,9" transform="translate(16.37 36.203)" fill="#f5c4a5"/>
        <path id="Trazado_747407" data-name="Trazado 747407" d="M53.809,23.129c0,10.62-6.516,23.456-14.625,23.456a5.566,5.566,0,0,1-1.109-.094c-7.6-1.088-13.637-13.226-13.637-23.362C24.439,12.97,30.4,4.668,38,3.919c.363-.025.724-.048,1.113-.048,8.109,0,14.7,8.617,14.7,19.258" transform="translate(22.276 3.528)" fill="#eab99a"/>
        <path id="Trazado_747408" data-name="Trazado 747408" d="M51.59,23.107c0,10.137-5.937,22.275-13.514,23.362-7.6-1.088-13.637-13.226-13.637-23.362a6.533,6.533,0,0,1,.048-.965c.241-7.071,3.4-13.153,7.94-16.169A12.132,12.132,0,0,1,36.5,4.162l.1-.025a.154.154,0,0,1,.1-.023A12.789,12.789,0,0,1,38,3.9a12.057,12.057,0,0,1,2.751.627C46.28,6.5,50.5,12.559,51.4,20.09a24.646,24.646,0,0,1,.195,3.016" transform="translate(22.276 3.551)" fill="#f5c4a5"/>
        <path id="Trazado_747409" data-name="Trazado 747409" d="M23.616,10.144s2.8,6.637,14.776,8.447S52.776,25.83,53.984,29.453c0,0,6.635-15.688-3.42-21.722S28.039.088,23.616,10.144" transform="translate(21.526 2.643)" fill="#7d4c2e"/>
        <path id="Trazado_747410" data-name="Trazado 747410" d="M35.323,27.134c-10.779,0-11.509-10.167-11.513-10.271l1.4-.084a9.566,9.566,0,0,0,10.11,8.95Z" transform="translate(21.703 15.294)" fill="#606060"/>
        <path id="Trazado_747411" data-name="Trazado 747411" d="M24.728,21.889h0a1.155,1.155,0,0,1-1.153-1.153V16.682a1.153,1.153,0,0,1,2.305,0v4.054a1.156,1.156,0,0,1-1.153,1.153" transform="translate(21.489 14.156)" fill="#606060"/>
        <path id="Trazado_747412" data-name="Trazado 747412" d="M33.563,22.172v.413a.95.95,0,0,1-.946.946h-2.4a.948.948,0,0,1-.946-.946v-.413a.948.948,0,0,1,.946-.946h2.4a.95.95,0,0,1,.946.946" transform="translate(26.683 19.347)" fill="#404040"/>
        <path id="Trazado_747413" data-name="Trazado 747413" d="M79.345,60.018c.617,1.6,1.265,3.234,1.883,4.838l.143.451a20.234,20.234,0,0,1,1.042,3.813,25.672,25.672,0,0,0,5.941-2.261c1.653-.937,3.133-2.11,4.693-3.164C90.076,52.883,87.2,45.774,82.242,34.5c-.057-.141-.113-.252-.17-.394a5.635,5.635,0,0,0-6.442-2.869H69.441a16.747,16.747,0,0,1-6.218-1.323L51.8,40.41,40.38,29.916a16.71,16.71,0,0,1-6.216,1.323H28.032a5.671,5.671,0,0,0-6.47,2.869,2.167,2.167,0,0,0-.141.394c-5.1,11.551-8,18.721-11.054,30,3,2.8,6.843,4.1,10.718,5.4a20.928,20.928,0,0,1,1.181-4.593l.168-.451c.619-1.6,1.239-3.206,1.856-4.783a10.849,10.849,0,0,0,3.039,3.066,11.478,11.478,0,0,0,3.009,2.11,10.665,10.665,0,0,0,2,.759,60.791,60.791,0,0,1,4.53,17.3h29.9a61.136,61.136,0,0,1,4.643-17.584V65.7a5.058,5.058,0,0,0,.533-.226,11.885,11.885,0,0,0,1.464-.761A.685.685,0,0,0,73.6,64.6a12.311,12.311,0,0,0,5.74-4.584" transform="translate(9.449 27.268)" fill="#a0a0a0"/>
        <path id="Trazado_747414" data-name="Trazado 747414" d="M86.793,61.924H13.6a1.3,1.3,0,1,1,0-2.6h73.2a1.3,1.3,0,1,1,0,2.6" transform="translate(11.206 54.072)" fill="#303030"/>
        <path id="Trazado_747415" data-name="Trazado 747415" d="M80.484,43.182V76.6A2.615,2.615,0,0,1,77.878,79.2H17.293A2.617,2.617,0,0,1,14.684,76.6V43.182a2.617,2.617,0,0,1,2.609-2.607H77.878a2.615,2.615,0,0,1,2.605,2.607" transform="translate(13.385 36.984)" fill="#404040"/>
        <path id="Trazado_747416" data-name="Trazado 747416" d="M37.461,51.294a4.008,4.008,0,1,1-4.01-4.01,4.008,4.008,0,0,1,4.01,4.01" transform="translate(26.838 43.099)" fill="#909090"/>
      </g>
    </g>
  </g>
</svg>
