<svg xmlns="http://www.w3.org/2000/svg" xmlns:xlink="http://www.w3.org/1999/xlink" width="166" height="166" viewBox="0 0 166 166">
  <defs>
    <clipPath id="clip-path">
      <rect id="Rectángulo_354481" data-name="Rectángulo 354481" width="130.009" height="97.939" fill="none"/>
    </clipPath>
    <clipPath id="clip-path-3">
      <rect id="Rectángulo_354453" data-name="Rectángulo 354453" width="31.238" height="18.054" fill="none"/>
    </clipPath>
    <clipPath id="clip-path-5">
      <rect id="Rectángulo_354455" data-name="Rectángulo 354455" width="31.238" height="18.052" fill="none"/>
    </clipPath>
    <clipPath id="clip-path-7">
      <rect id="Rectángulo_354457" data-name="Rectángulo 354457" width="28.538" height="16.489" fill="none"/>
    </clipPath>
    <clipPath id="clip-path-9">
      <rect id="Rectángulo_354459" data-name="Rectángulo 354459" width="88.585" height="51.144" fill="none"/>
    </clipPath>
    <clipPath id="clip-path-11">
      <rect id="Rectángulo_354466" data-name="Rectángulo 354466" width="12.985" height="28.649" fill="none"/>
    </clipPath>
    <clipPath id="clip-path-13">
      <rect id="Rectángulo_354469" data-name="Rectángulo 354469" width="23.358" height="13.463" fill="none"/>
    </clipPath>
    <clipPath id="clip-path-15">
      <rect id="Rectángulo_354471" data-name="Rectángulo 354471" width="66.651" height="38.479" fill="none"/>
    </clipPath>
    <clipPath id="clip-path-17">
      <rect id="Rectángulo_354473" data-name="Rectángulo 354473" width="17.938" height="10.415" fill="none"/>
    </clipPath>
    <clipPath id="clip-path-19">
      <rect id="Rectángulo_354477" data-name="Rectángulo 354477" width="27.876" height="15.072" fill="none"/>
    </clipPath>
    <clipPath id="clip-path-21">
      <rect id="Rectángulo_354479" data-name="Rectángulo 354479" width="31.237" height="18.051" fill="none"/>
    </clipPath>
  </defs>
  <g id="Grupo_1017665" data-name="Grupo 1017665" transform="translate(-717 -9375)">
    <circle id="Elipse_8443" data-name="Elipse 8443" cx="83" cy="83" r="83" transform="translate(717 9375)" fill="#fff" opacity="0.45"/>
    <circle id="Elipse_8444" data-name="Elipse 8444" cx="67" cy="67" r="67" transform="translate(733 9391)" fill="#fff"/>
    <g id="Grupo_1017616" data-name="Grupo 1017616" transform="translate(734.996 9413)">
      <g id="Grupo_1017615" data-name="Grupo 1017615" clip-path="url(#clip-path)">
        <path id="Trazado_741338" data-name="Trazado 741338" d="M76.233,25.828,63.278,18.344v8.594l12.955,7.481Z" transform="translate(32.647 9.465)" fill="#efc58b"/>
        <path id="Trazado_741339" data-name="Trazado 741339" d="M71.824,27.435v8.591l21.128-12.2v-8.6Z" transform="translate(37.057 7.858)" fill="#c79d5c"/>
        <path id="Trazado_741340" data-name="Trazado 741340" d="M72.423,26.369v2.748L74.8,27.742V24.994Zm.1,2.563v-2.5L74.7,25.176v2.506Z" transform="translate(37.366 12.895)" fill="#995d43"/>
        <path id="Trazado_741341" data-name="Trazado 741341" d="M73.494,25.8v-.076l-.02-.017-.03.021-.026.039v.077l-.165.1-.349.418-.2.484V27l.716-.415v.855l-.149.247-.079.045-.152-.08v-.141l-.018-.012-.033.021-.02.032v.18l.188.112.147-.082.193-.329v-.891l.714-.417v-.158l-.2-.252-.356-.014Z" transform="translate(37.51 13.263)" fill="#995d43"/>
        <path id="Trazado_741342" data-name="Trazado 741342" d="M74.32,25.272v2.745L76.7,26.644V23.9Zm.106,2.565v-2.5l2.166-1.254v2.5Z" transform="translate(38.345 12.33)" fill="#995d43"/>
        <path id="Trazado_741343" data-name="Trazado 741343" d="M78.594,22.8l-2.377,1.372v2.742l2.377-1.369Zm-2.271,3.932v-2.5l2.168-1.252v2.5Z" transform="translate(39.323 11.765)" fill="#995d43"/>
        <path id="Trazado_741344" data-name="Trazado 741344" d="M74.64,25.047V26l.173.1.083-.049v.726l-.083.049-.173.168V27l.593-.346v-.012l-.176.035-.08.052v-.726l.08-.049.176-.3V24.7Z" transform="translate(38.51 12.746)" fill="#995d43"/>
        <path id="Trazado_741345" data-name="Trazado 741345" d="M75.232,25.656v-.887l.482-.287v.849l-.153.274-.209.121Zm-.055-.923v.955l.174.1.083-.052v.728l-.083.047-.174.167v.008l.593-.343v-.009l-.171.035-.083.047v-.723l.083-.049.171-.3V24.4Z" transform="translate(38.787 12.587)" fill="#995d43"/>
        <path id="Trazado_741346" data-name="Trazado 741346" d="M77.242,23.509l-.05.092v.088l.05.024.074-.038.048-.088-.015-.009-.046.071-.052.036-.042-.026V23.6l.042-.068L77.3,23.5l.046.024.015-.03-.048-.029Z" transform="translate(39.827 12.106)" fill="#995d43"/>
        <path id="Trazado_741347" data-name="Trazado 741347" d="M76.737,24.2l-.052.094v.085l.052.03.077-.044.05-.086-.021-.008-.041.07-.052.033-.039-.024v-.058l.039-.071.052-.029.041.023.021-.029-.05-.029Z" transform="translate(39.565 12.463)" fill="#995d43"/>
        <path id="Trazado_741348" data-name="Trazado 741348" d="M77.1,23.651l.045-.071.056-.035.041.024v.537l-.142.247Zm.03-.1-.061.1v.755l-.167.285-.24.139v.035l.256-.15.15-.261v.582l-.123.214v.22l.133.076.188-.108.13-.229v-.221l-.126-.07v-.817l.164-.285.243-.142v-.033l-.255.147-.152.264v-.518l-.059-.036Z" transform="translate(39.555 12.125)" fill="#995d43"/>
        <path id="Trazado_741349" data-name="Trazado 741349" d="M63.278,22.5l12.955,7.484,21.128-12.2L84.41,10.295Z" transform="translate(32.648 5.311)" fill="#f7e6bb"/>
        <path id="Trazado_741350" data-name="Trazado 741350" d="M68.661,25.584l-.628.146L67,24.63l21.14-12.2,1.657.957Z" transform="translate(34.569 6.414)" fill="#b88f5a"/>
        <path id="Trazado_741351" data-name="Trazado 741351" d="M68.661,23.879,67,22.924V20.479l1.66.954Z" transform="translate(34.569 10.566)" fill="#a16739"/>
        <g id="Grupo_1017569" data-name="Grupo 1017569" transform="translate(0 0.001)">
          <g id="Grupo_1017568" data-name="Grupo 1017568" clip-path="url(#clip-path)">
            <g id="Grupo_1017567" data-name="Grupo 1017567" transform="translate(72.424 38.127)" opacity="0.3">
              <g id="Grupo_1017566" data-name="Grupo 1017566">
                <g id="Grupo_1017565" data-name="Grupo 1017565" clip-path="url(#clip-path-3)">
                  <path id="Trazado_741352" data-name="Trazado 741352" d="M63.106,25.151l15.907,9.188L63.682,43.2,47.775,34.021Z" transform="translate(-47.775 -25.151)"/>
                </g>
              </g>
            </g>
          </g>
        </g>
        <path id="Trazado_741353" data-name="Trazado 741353" d="M63.494,29.167l-15.378-8.88v16.3l15.378,8.883Z" transform="translate(24.825 10.467)" fill="#efc58b"/>
        <path id="Trazado_741354" data-name="Trazado 741354" d="M73.083,36.8,58.26,45.364v-16.3l14.823-8.57Z" transform="translate(30.059 10.573)" fill="#c79d5c"/>
        <path id="Trazado_741355" data-name="Trazado 741355" d="M59.025,34.386v2.748l2.38-1.375V33.011Zm.108,2.563v-2.5L61.3,33.194v2.5Z" transform="translate(30.453 17.032)" fill="#995d43"/>
        <path id="Trazado_741356" data-name="Trazado 741356" d="M60.1,33.821v-.082l-.021-.012-.036.02-.02.035v.085l-.162.091-.352.417-.2.488v.156l.716-.411v.852l-.147.25-.082.042-.144-.08v-.141l-.026-.012-.032.02-.018.035v.179l.189.115.144-.085.2-.332v-.887l.711-.415v-.159l-.2-.25-.35-.014Z" transform="translate(30.598 17.4)" fill="#995d43"/>
        <path id="Trazado_741357" data-name="Trazado 741357" d="M60.924,33.287v2.751L63.3,34.66V31.918Zm.1,2.565v-2.5L63.193,32.1v2.5Z" transform="translate(31.433 16.468)" fill="#995d43"/>
        <path id="Trazado_741358" data-name="Trazado 741358" d="M65.2,30.821l-2.379,1.373v2.747L65.2,33.569Zm-2.275,3.937v-2.5L65.091,31v2.5Z" transform="translate(32.412 15.902)" fill="#995d43"/>
        <path id="Trazado_741359" data-name="Trazado 741359" d="M61.245,33.064v.952l.171.1.082-.049V34.8l-.082.045-.171.165v.011l.594-.34v-.011l-.176.03-.083.052v-.726l.083-.047.176-.3v-.952Z" transform="translate(31.599 16.883)" fill="#995d43"/>
        <path id="Trazado_741360" data-name="Trazado 741360" d="M61.832,33.673v-.887l.488-.283v.846l-.161.277-.206.118Zm-.05-.917v.95l.171.1.083-.047v.726l-.083.052-.171.159v.011l.588-.34v-.009l-.173.03-.08.052V33.71l.08-.042.173-.3v-.954Z" transform="translate(31.876 16.723)" fill="#995d43"/>
        <path id="Trazado_741361" data-name="Trazado 741361" d="M63.849,31.529l-.055.089v.091l.055.023.073-.039.053-.089-.023-.009-.042.076-.053.03-.039-.021v-.062l.039-.068.053-.03.042.023.023-.033-.053-.026Z" transform="translate(32.914 16.243)" fill="#995d43"/>
        <path id="Trazado_741362" data-name="Trazado 741362" d="M63.344,32.218l-.055.091v.085l.055.03.071-.041.05-.086-.015-.011-.041.073-.056.032-.039-.021v-.064l.039-.067.056-.029.041.023.015-.033-.05-.026Z" transform="translate(32.654 16.6)" fill="#995d43"/>
        <path id="Trazado_741363" data-name="Trazado 741363" d="M63.709,31.669l.042-.071.056-.036.042.024v.543l-.141.244Zm.027-.1-.061.1v.755l-.164.282-.241.141v.039l.255-.15.15-.262v.581l-.126.214v.218l.135.082.191-.112.13-.232v-.214l-.121-.076v-.817l.158-.283.247-.139v-.038l-.255.147-.15.268v-.521l-.068-.035Z" transform="translate(32.644 16.262)" fill="#995d43"/>
        <path id="Trazado_741364" data-name="Trazado 741364" d="M62.942,14.634,69.8,18.595l.22.844,1.445.114,6.857,3.961-14.824,8.57L48.116,23.2Z" transform="translate(24.825 7.55)" fill="#f7e6bb"/>
        <path id="Trazado_741365" data-name="Trazado 741365" d="M54.292,26.767l-.625.138L52.64,25.814l14.826-8.567,1.66.955Z" transform="translate(27.159 8.899)" fill="#b88f5a"/>
        <path id="Trazado_741366" data-name="Trazado 741366" d="M54.292,30.447l-1.652-.954V22.9l1.652.954Z" transform="translate(27.159 11.814)" fill="#a16739"/>
        <g id="Grupo_1017574" data-name="Grupo 1017574" transform="translate(0 0.001)">
          <g id="Grupo_1017573" data-name="Grupo 1017573" clip-path="url(#clip-path)">
            <g id="Grupo_1017572" data-name="Grupo 1017572" transform="translate(90.66 46.739)" opacity="0.3">
              <g id="Grupo_1017571" data-name="Grupo 1017571">
                <g id="Grupo_1017570" data-name="Grupo 1017570" clip-path="url(#clip-path-5)">
                  <path id="Trazado_741367" data-name="Trazado 741367" d="M75.137,30.832l15.905,9.185L75.71,48.884,59.8,39.7Z" transform="translate(-59.804 -30.832)"/>
                </g>
              </g>
            </g>
          </g>
        </g>
        <path id="Trazado_741368" data-name="Trazado 741368" d="M75.524,38.871,60.144,29.988V40.193l15.379,8.883Z" transform="translate(31.031 15.472)" fill="#efc58b"/>
        <path id="Trazado_741369" data-name="Trazado 741369" d="M85.113,40.4,70.29,48.969V38.763L85.113,30.2Z" transform="translate(36.265 15.58)" fill="#c79d5c"/>
        <path id="Trazado_741370" data-name="Trazado 741370" d="M71.055,40.061V42.8l2.377-1.373V38.683Zm.106,2.562v-2.5l2.166-1.251v2.5Z" transform="translate(36.66 19.958)" fill="#995d43"/>
        <path id="Trazado_741371" data-name="Trazado 741371" d="M72.129,39.494v-.082l-.023-.012-.033.02-.021.036v.08l-.164.092-.352.417-.2.488v.158l.716-.412v.852l-.146.25-.083.045-.144-.085V41.2l-.024-.012-.033.02-.017.036v.177l.188.114.144-.082.2-.332v-.89l.712-.414v-.158l-.2-.253-.352-.011Z" transform="translate(36.805 20.327)" fill="#995d43"/>
        <path id="Trazado_741372" data-name="Trazado 741372" d="M72.951,38.96v2.747l2.379-1.375V37.59Zm.109,2.563v-2.5l2.165-1.249v2.5Z" transform="translate(37.638 19.394)" fill="#995d43"/>
        <path id="Trazado_741373" data-name="Trazado 741373" d="M77.227,36.493l-2.375,1.375,0,2.744,2.374-1.37ZM74.955,40.43v-2.5l2.168-1.255v2.5Z" transform="translate(38.619 18.828)" fill="#995d43"/>
        <path id="Trazado_741374" data-name="Trazado 741374" d="M73.273,38.737v.949l.171.1.083-.049v.723l-.083.049-.171.165v.014l.594-.341v-.015l-.174.035-.08.049v-.728l.08-.044.174-.3V38.4Z" transform="translate(37.804 19.81)" fill="#995d43"/>
        <path id="Trazado_741375" data-name="Trazado 741375" d="M73.864,39.347v-.89l.488-.282v.844l-.161.279-.208.117Zm-.052-.92v.952l.171.1.085-.042v.725l-.085.045-.171.167v.008l.591-.341v-.011l-.173.032-.083.052v-.726l.083-.044.173-.3v-.954Z" transform="translate(38.083 19.649)" fill="#995d43"/>
        <path id="Trazado_741376" data-name="Trazado 741376" d="M75.877,37.2l-.053.092v.085l.053.026.073-.038.05-.088-.018-.009-.041.073-.052.032-.042-.021v-.064l.042-.068.052-.029.041.026L76,37.183l-.05-.027Z" transform="translate(39.121 19.17)" fill="#995d43"/>
        <path id="Trazado_741377" data-name="Trazado 741377" d="M75.373,37.891l-.053.089v.083l.053.032.073-.042.05-.083-.02-.012-.042.071-.053.033-.039-.021V37.98l.039-.067.053-.03.042.023.02-.033-.05-.027Z" transform="translate(38.861 19.526)" fill="#995d43"/>
        <path id="Trazado_741378" data-name="Trazado 741378" d="M75.737,37.341l.041-.073.058-.033.042.024V37.8l-.141.246Zm.029-.1-.061.106V38.1l-.165.282-.24.139v.041l.252-.15.153-.264v.582l-.124.215v.215l.136.08.186-.112.135-.23v-.214l-.127-.074V37.8l.162-.287.244-.139v-.036l-.253.149-.153.265v-.521l-.059-.035Z" transform="translate(38.85 19.189)" fill="#995d43"/>
        <path id="Trazado_741379" data-name="Trazado 741379" d="M74.971,24.336,81.825,28.3l.221.844,1.445.115,6.857,3.961L75.523,41.787,60.145,32.9Z" transform="translate(31.031 12.556)" fill="#f7e6bb"/>
        <path id="Trazado_741380" data-name="Trazado 741380" d="M66.321,36.472l-.626.138L64.67,35.518,79.5,26.95l1.66.957Z" transform="translate(33.366 13.905)" fill="#b88f5a"/>
        <path id="Trazado_741381" data-name="Trazado 741381" d="M66.321,36l-1.651-.954V32.6l1.651.954Z" transform="translate(33.366 16.821)" fill="#a16739"/>
        <path id="Trazado_741382" data-name="Trazado 741382" d="M61.908,22l-15.379-8.88V23.323L61.908,32.2Z" transform="translate(24.006 6.767)" fill="#efc58b"/>
        <path id="Trazado_741383" data-name="Trazado 741383" d="M71.495,23.53,56.674,32.1V21.89l14.821-8.567Z" transform="translate(29.24 6.874)" fill="#c79d5c"/>
        <path id="Trazado_741384" data-name="Trazado 741384" d="M57.438,23.191v2.745l2.379-1.378V21.811Zm.106,2.56v-2.5L59.71,22v2.5Z" transform="translate(29.635 11.253)" fill="#995d43"/>
        <path id="Trazado_741385" data-name="Trazado 741385" d="M58.513,22.62v-.082l-.021-.012-.035.018-.021.039v.08l-.162.1-.352.414-.2.488v.158l.717-.412v.853l-.147.249-.082.045-.144-.085v-.142l-.024-.011-.033.023-.017.033v.18l.188.109.147-.08.191-.332v-.888l.714-.411v-.164l-.2-.253-.35-.009Z" transform="translate(29.779 11.622)" fill="#995d43"/>
        <path id="Trazado_741386" data-name="Trazado 741386" d="M59.337,22.087v2.751l2.375-1.38V20.718Zm.1,2.566v-2.5L61.608,20.9v2.5Z" transform="translate(30.614 10.689)" fill="#995d43"/>
        <path id="Trazado_741387" data-name="Trazado 741387" d="M63.613,19.623l-2.379,1.372,0,2.745,2.377-1.373ZM61.34,23.555v-2.5L63.509,19.8v2.5Z" transform="translate(31.593 10.124)" fill="#995d43"/>
        <path id="Trazado_741388" data-name="Trazado 741388" d="M59.658,21.866v.949l.171.1.082-.047v.723l-.082.05-.171.165v.012l.59-.343v-.011l-.173.035L60,23.549v-.726l.079-.047.173-.3v-.955Z" transform="translate(30.78 11.104)" fill="#995d43"/>
        <path id="Trazado_741389" data-name="Trazado 741389" d="M60.244,22.474v-.888l.49-.282v.846l-.158.276-.211.12Zm-.049-.919v.95l.17.1.086-.047v.726l-.086.049-.17.167v.008l.591-.343v-.008l-.174.03-.082.052v-.729l.082-.042.174-.3v-.952Z" transform="translate(31.057 10.945)" fill="#995d43"/>
        <path id="Trazado_741390" data-name="Trazado 741390" d="M62.26,20.329l-.053.091v.088l.053.026.077-.041.05-.088-.021-.011-.042.077-.053.03-.039-.024v-.061l.039-.07.053-.03.042.023.021-.029-.05-.027Z" transform="translate(32.095 10.465)" fill="#995d43"/>
        <path id="Trazado_741391" data-name="Trazado 741391" d="M61.753,21.018l-.049.089v.086l.049.033.077-.047.049-.083-.018-.011-.041.071-.055.035-.038-.024v-.061l.038-.068.055-.029.041.026L61.879,21l-.049-.024Z" transform="translate(31.836 10.822)" fill="#995d43"/>
        <path id="Trazado_741392" data-name="Trazado 741392" d="M62.123,20.471l.039-.071.059-.036.039.024v.538l-.138.252Zm.024-.1-.059.109v.755l-.167.285-.238.139v.039l.252-.152.153-.264v.582l-.124.215v.218l.136.076.186-.108.132-.233v-.214l-.123-.073v-.817l.159-.283L62.7,20.5v-.033l-.252.147-.153.267v-.523l-.062-.036Z" transform="translate(31.825 10.483)" fill="#995d43"/>
        <path id="Trazado_741393" data-name="Trazado 741393" d="M61.355,7.466l6.855,3.96.218.843,1.446.117,6.855,3.96L61.907,24.913,46.529,16.031Z" transform="translate(24.006 3.852)" fill="#f7e6bb"/>
        <path id="Trazado_741394" data-name="Trazado 741394" d="M52.707,19.6l-.628.138-1.026-1.091,14.826-8.568,1.657.957Z" transform="translate(26.34 5.2)" fill="#b88f5a"/>
        <path id="Trazado_741395" data-name="Trazado 741395" d="M52.707,19.123l-1.654-.952V15.731l1.654.954Z" transform="translate(26.34 8.116)" fill="#a16739"/>
        <path id="Trazado_741396" data-name="Trazado 741396" d="M61.908,14.6,46.528,5.72v10.2l15.379,8.883Z" transform="translate(24.006 2.951)" fill="#efc58b"/>
        <path id="Trazado_741397" data-name="Trazado 741397" d="M71.495,16.133,56.674,24.7V14.494L71.495,5.926Z" transform="translate(29.24 3.058)" fill="#c79d5c"/>
        <path id="Trazado_741398" data-name="Trazado 741398" d="M57.438,15.793V18.54l2.379-1.376V14.412Zm.106,2.559v-2.5L59.71,14.6v2.5Z" transform="translate(29.635 7.436)" fill="#995d43"/>
        <path id="Trazado_741399" data-name="Trazado 741399" d="M58.513,15.221v-.079l-.021-.012-.035.017-.021.041v.079l-.162.1-.352.414-.2.49v.156l.717-.409v.853l-.147.246-.082.047-.144-.083v-.141l-.024-.015-.033.021-.017.039v.174l.188.114.147-.08.191-.334v-.888l.714-.414v-.159l-.2-.255-.35-.011Z" transform="translate(29.779 7.805)" fill="#995d43"/>
        <path id="Trazado_741400" data-name="Trazado 741400" d="M59.337,14.69v2.748l2.375-1.376V13.321Zm.1,2.566v-2.5L61.608,13.5V16Z" transform="translate(30.614 6.873)" fill="#995d43"/>
        <path id="Trazado_741401" data-name="Trazado 741401" d="M63.613,12.225,61.234,13.6l0,2.747,2.377-1.373ZM61.34,16.159v-2.5l2.169-1.254v2.5Z" transform="translate(31.593 6.307)" fill="#995d43"/>
        <path id="Trazado_741402" data-name="Trazado 741402" d="M59.658,14.467v.949l.171.1.082-.05V16.2l-.082.047-.171.168v.011l.59-.344v-.012l-.173.035-.079.05v-.726l.079-.052.173-.3v-.952Z" transform="translate(30.78 7.288)" fill="#995d43"/>
        <path id="Trazado_741403" data-name="Trazado 741403" d="M60.244,15.079v-.89l.49-.28v.843l-.158.276-.211.12Zm-.049-.92v.952l.17.1.086-.044v.723l-.086.05-.17.167v.008l.591-.343v-.009l-.174.032-.082.053v-.731l.082-.041.174-.3v-.957Z" transform="translate(31.057 7.126)" fill="#995d43"/>
        <path id="Trazado_741404" data-name="Trazado 741404" d="M62.26,12.929l-.053.1v.086l.053.023.077-.038.05-.088L62.366,13l-.042.071-.053.032-.039-.02v-.064l.039-.071.053-.03.042.026.021-.032-.05-.024Z" transform="translate(32.095 6.649)" fill="#995d43"/>
        <path id="Trazado_741405" data-name="Trazado 741405" d="M61.753,13.619l-.049.089v.085l.049.033.077-.041.049-.086-.018-.012-.041.071-.055.032-.038-.021v-.061l.038-.067.055-.03.041.024.018-.033-.049-.024Z" transform="translate(31.836 7.006)" fill="#995d43"/>
        <path id="Trazado_741406" data-name="Trazado 741406" d="M62.123,13.071,62.162,13l.059-.038.039.026v.54l-.138.247Zm.024-.1-.059.109v.753l-.167.287-.238.138V14.3l.252-.15.153-.264v.581l-.124.212v.22l.136.079.186-.111.132-.229v-.215l-.123-.076v-.814l.159-.288L62.7,13.1v-.032l-.252.144-.153.268v-.521l-.062-.036Z" transform="translate(31.825 6.667)" fill="#995d43"/>
        <path id="Trazado_741407" data-name="Trazado 741407" d="M46.529,8.636l15.378,8.882L76.73,8.948l-6.855-3.96-1.446-.117-.217-.841L61.355.066Z" transform="translate(24.006 0.034)" fill="#f7e6bb"/>
        <path id="Trazado_741408" data-name="Trazado 741408" d="M52.707,12.2l-.628.139-1.026-1.095L65.879,2.681l1.657.957Z" transform="translate(26.34 1.383)" fill="#b88f5a"/>
        <path id="Trazado_741409" data-name="Trazado 741409" d="M52.707,11.727l-1.654-.954V8.331l1.654.955Z" transform="translate(26.34 4.298)" fill="#a16739"/>
        <g id="Grupo_1017579" data-name="Grupo 1017579" transform="translate(0 0.001)">
          <g id="Grupo_1017578" data-name="Grupo 1017578" clip-path="url(#clip-path)">
            <g id="Grupo_1017577" data-name="Grupo 1017577" transform="translate(10.068 45.1)" opacity="0.3">
              <g id="Grupo_1017576" data-name="Grupo 1017576">
                <g id="Grupo_1017575" data-name="Grupo 1017575" clip-path="url(#clip-path-7)">
                  <path id="Trazado_741410" data-name="Trazado 741410" d="M20.652,29.751,35.179,38.14l-14,8.1L6.641,37.846Z" transform="translate(-6.641 -29.751)"/>
                </g>
              </g>
            </g>
          </g>
        </g>
        <path id="Trazado_741411" data-name="Trazado 741411" d="M21.005,26.111,6.954,17.995V43.969l14.051,8.113Z" transform="translate(3.588 9.284)" fill="#efc58b"/>
        <path id="Trazado_741412" data-name="Trazado 741412" d="M29.76,44.159,16.223,51.984V26.013l13.537-7.83Z" transform="translate(8.37 9.381)" fill="#c79d5c"/>
        <path id="Trazado_741413" data-name="Trazado 741413" d="M19.452,23.3,16.87,24.79v2.98l2.582-1.489Zm-2.465,4.272V24.859L19.335,23.5v2.71Z" transform="translate(8.704 12.022)" fill="#995d43"/>
        <path id="Trazado_741414" data-name="Trazado 741414" d="M17.365,24.746l.111-.064v1.445L17.7,26V24.554l.111-.065-.221-.367Z" transform="translate(8.959 12.445)" fill="#995d43"/>
        <path id="Trazado_741415" data-name="Trazado 741415" d="M17.365,25.78v.258l1.081-.623v-.256Z" transform="translate(8.959 12.98)" fill="#995d43"/>
        <path id="Trazado_741416" data-name="Trazado 741416" d="M17.782,24.506l.111-.062v1.445l.224-.132V24.313l.112-.062-.223-.371Z" transform="translate(9.175 12.32)" fill="#995d43"/>
        <path id="Trazado_741417" data-name="Trazado 741417" d="M21.509,22.114,18.929,23.6v2.979l2.58-1.489Zm-2.466,4.27V23.671l2.351-1.36v2.712Z" transform="translate(9.766 11.409)" fill="#995d43"/>
        <path id="Trazado_741418" data-name="Trazado 741418" d="M19.277,23.362v1.031l.185.108.089-.053v.79l-.089.045-.185.182v.015l.641-.373v-.012l-.188.039-.089.049V24.4l.089-.053.188-.324V22.987Z" transform="translate(9.946 11.86)" fill="#995d43"/>
        <path id="Trazado_741419" data-name="Trazado 741419" d="M19.915,24.022v-.969l.528-.3v.916l-.171.3-.224.127Zm-.055-1v1.034l.186.108.088-.05V24.9l-.088.053-.186.177v.015l.638-.373v-.011l-.185.035-.089.053V24.06l.089-.052.185-.324V22.65Z" transform="translate(10.247 11.686)" fill="#995d43"/>
        <path id="Trazado_741420" data-name="Trazado 741420" d="M20.5,12.831l14.045,8.118L21.005,28.776,6.954,20.659Z" transform="translate(3.588 6.62)" fill="#f7e6bb"/>
        <path id="Trazado_741421" data-name="Trazado 741421" d="M12.791,24.011l-.679.149L10.99,22.973l13.553-7.824,1.8,1.037Z" transform="translate(5.67 7.816)" fill="#b88f5a"/>
        <path id="Trazado_741422" data-name="Trazado 741422" d="M12.791,24l-1.8-1.037V20.31l1.8,1.038Z" transform="translate(5.67 10.479)" fill="#a16739"/>
        <g id="Grupo_1017584" data-name="Grupo 1017584" transform="translate(0 0.001)">
          <g id="Grupo_1017583" data-name="Grupo 1017583" clip-path="url(#clip-path)">
            <g id="Grupo_1017582" data-name="Grupo 1017582" transform="translate(0 46.795)" opacity="0.3">
              <g id="Grupo_1017581" data-name="Grupo 1017581">
                <g id="Grupo_1017580" data-name="Grupo 1017580" clip-path="url(#clip-path-9)">
                  <path id="Trazado_741423" data-name="Trazado 741423" d="M64.862,30.869,0,68.317,23.723,82.012,88.585,44.564Z" transform="translate(0 -30.869)"/>
                </g>
              </g>
            </g>
          </g>
        </g>
        <rect id="Rectángulo_354461" data-name="Rectángulo 354461" width="0.717" height="7.471" transform="translate(62.567 1.415)" fill="#d1d1d1"/>
        <rect id="Rectángulo_354462" data-name="Rectángulo 354462" width="0.359" height="7.471" transform="translate(62.567 1.135)" fill="#574943"/>
        <rect id="Rectángulo_354463" data-name="Rectángulo 354463" width="0.403" height="7.468" transform="translate(62.366 -0.001)" fill="#fff"/>
        <path id="Trazado_741424" data-name="Trazado 741424" d="M65.5,14.293l.361.682.5-.071v-.238l-.694-.694Z" transform="translate(33.792 7.209)" fill="#d1d1d1"/>
        <path id="Trazado_741425" data-name="Trazado 741425" d="M55.643,13.972v.243l7.9.726,7.21-.726v-.243Z" transform="translate(28.709 7.209)" fill="#fff"/>
        <path id="Trazado_741426" data-name="Trazado 741426" d="M71.444,14.821l-.694-.688H55.643V40.457H70.749l.694-.691Z" transform="translate(28.708 7.292)" fill="#f4efe9"/>
        <path id="Trazado_741427" data-name="Trazado 741427" d="M64.889,22.008v.1l.427.191.217-.191v-.1Z" transform="translate(33.479 11.355)" fill="#836e69"/>
        <path id="Trazado_741428" data-name="Trazado 741428" d="M64.59,22.461v.1l.312-.089.141-.364v-.1Z" transform="translate(33.325 11.354)" fill="#685750"/>
        <path id="Trazado_741429" data-name="Trazado 741429" d="M65.314,22.106l.136.364.317.089v-.1l-.453-.453Z" transform="translate(33.698 11.354)" fill="#403531"/>
        <path id="Trazado_741430" data-name="Trazado 741430" d="M66.14,22.525l-.453-.453h-.644l-.452.453V25.21l.452.452h.644l.453-.452Z" transform="translate(33.325 11.388)" fill="#544540"/>
        <path id="Trazado_741431" data-name="Trazado 741431" d="M65.179,22.337l-.229.226V24.4l.229.226H65.5l.226-.226V22.563l-.226-.226Z" transform="translate(33.51 11.525)" fill="#403531"/>
        <path id="Trazado_741432" data-name="Trazado 741432" d="M67.407,16.225l-.553-.553H58.631l-.553.553v5.042l.553.55h8.222l.553-.55Z" transform="translate(29.965 8.086)" fill="#e0dedc"/>
        <path id="Trazado_741433" data-name="Trazado 741433" d="M66.751,16.24l-.5-.493H58.892l-.49.493v4.514l.49.5h7.361l.5-.5Z" transform="translate(30.132 8.125)" fill="#f4efe9"/>
        <path id="Trazado_741434" data-name="Trazado 741434" d="M59.173,41.856,51.75,37.572V33.944l8.979,3.388Z" transform="translate(26.7 17.513)" fill="#685750"/>
        <path id="Trazado_741435" data-name="Trazado 741435" d="M59.173,38.537,51.75,34.25l1.555-.9,7.424,4.284Z" transform="translate(26.7 17.208)" fill="#836e69"/>
        <path id="Trazado_741436" data-name="Trazado 741436" d="M58.2,39.806l-1.555.9V37.079l1.555-.9Z" transform="translate(29.227 18.666)" fill="#544540"/>
        <path id="Trazado_741437" data-name="Trazado 741437" d="M63.792,39.4,46.4,49.437l-2.858-1.643-9.259,5.35V50.835L63.792,33.794Z" transform="translate(17.686 17.436)" fill="#544540"/>
        <path id="Trazado_741438" data-name="Trazado 741438" d="M55.593,42.026,51.2,39.487V35.312l4.393,2.541.528,2.075Z" transform="translate(26.416 18.219)" fill="#d6a950"/>
        <path id="Trazado_741439" data-name="Trazado 741439" d="M48.88,46.463l-4.013-2.312V39.782l5.371,1.561Z" transform="translate(23.149 20.525)" fill="#211a1a"/>
        <path id="Trazado_741440" data-name="Trazado 741440" d="M48.88,43.67l-4.013-2.312,2.67-4.628,7.79.136Z" transform="translate(23.149 18.95)" fill="#362c29"/>
        <path id="Trazado_741441" data-name="Trazado 741441" d="M50.64,39.79l-4.011-2.316,3.779-2.184,4.01,2.321Z" transform="translate(24.058 18.207)" fill="#574943"/>
        <path id="Trazado_741442" data-name="Trazado 741442" d="M56.634,38.359l-2.671-1.54L50.185,39l-2.674,4.627v4.364l2.674,1.542,3.778-2.181,2.671-4.627Z" transform="translate(24.513 18.996)" fill="#0a0808"/>
        <path id="Trazado_741443" data-name="Trazado 741443" d="M53.6,39.275v2.482l-1.519,2.63-2.15,1.242-.352-.208,2.148-1.239,1.517-2.635V39.072Z" transform="translate(25.58 20.159)" fill="#574943"/>
        <path id="Trazado_741444" data-name="Trazado 741444" d="M53.641,39.3v2.476l-1.517,2.635-2.148,1.237-1.164-.67v-1.95l.255-.981,1.261-2.177,2.15-1.242Z" transform="translate(25.184 19.93)" fill="#d8d1c7"/>
        <path id="Trazado_741445" data-name="Trazado 741445" d="M49.557,41.239l-.294.5-.4.235.182.109.409-.24.285-.5v-.465l-.179-.112Z" transform="translate(25.209 21.033)" fill="#a39c95"/>
        <path id="Trazado_741446" data-name="Trazado 741446" d="M49.066,40.965l-.253.45v.531l.071.047.4-.236.294-.5v-.473l-.106-.056Z" transform="translate(25.184 21.013)" fill="#0a0808"/>
        <path id="Trazado_741447" data-name="Trazado 741447" d="M51.9,39.887l-.288.5-.408.233.186.1.4-.233.287-.5v-.473l-.179-.1Z" transform="translate(26.418 20.335)" fill="#a39c95"/>
        <path id="Trazado_741448" data-name="Trazado 741448" d="M51.427,39.607l-.291.5v.47l.1.059.408-.235.288-.5v-.473l-.108-.061Z" transform="translate(26.383 20.315)" fill="#0a0808"/>
        <path id="Trazado_741449" data-name="Trazado 741449" d="M51.021,39.249l-.114.189v.185l.114.061.153-.086.114-.193v-.179l-.114-.068Z" transform="translate(26.265 20.203)" fill="#a39c95"/>
        <path id="Trazado_741450" data-name="Trazado 741450" d="M50.274,42.265l-.111.193v.18l.111.064.158-.091.109-.191v-.177l-.109-.068Z" transform="translate(25.881 21.759)" fill="#a39c95"/>
        <path id="Trazado_741451" data-name="Trazado 741451" d="M51.37,40.56l-.115.188v.182L51.37,41l.156-.089.108-.2v-.177l-.108-.061Z" transform="translate(26.444 20.881)" fill="#a39c95"/>
        <path id="Trazado_741452" data-name="Trazado 741452" d="M49.178,41.825l-.109.194v.176l.112.067.158-.091.111-.189V41.8l-.111-.067Z" transform="translate(25.317 21.531)" fill="#a39c95"/>
        <path id="Trazado_741453" data-name="Trazado 741453" d="M49.523,40.115l-.106.193,0,.179.109.061.156-.088.114-.2v-.179l-.114-.061Z" transform="translate(25.494 20.65)" fill="#a39c95"/>
        <path id="Trazado_741454" data-name="Trazado 741454" d="M50.727,39.592l-.291.493-.4.238.182.108.409-.236.285-.5v-.47l-.182-.1Z" transform="translate(25.814 20.185)" fill="#a39c95"/>
        <path id="Trazado_741455" data-name="Trazado 741455" d="M50.25,39.32l-.285.493v.471l.1.062.4-.24.291-.493v-.468l-.106-.065Z" transform="translate(25.779 20.163)" fill="#0a0808"/>
        <path id="Trazado_741456" data-name="Trazado 741456" d="M50.027,42.439l-.283.5-.406.235.18.106.408-.233.285-.5v-.468l-.183-.108Z" transform="translate(25.455 21.651)" fill="#a39c95"/>
        <path id="Trazado_741457" data-name="Trazado 741457" d="M49.555,42.161l-.288.5v.468l.1.064h0l.406-.236.285-.5v-.474l-.1-.056Z" transform="translate(25.419 21.632)" fill="#0a0808"/>
        <path id="Trazado_741458" data-name="Trazado 741458" d="M51.427,41.631l-.293.5-.4.236.182.1.408-.236.291-.5v-.471l-.183-.106Z" transform="translate(26.173 21.236)" fill="#a39c95"/>
        <path id="Trazado_741459" data-name="Trazado 741459" d="M50.948,41.357l-.29.494v.473l.108.064.406-.235.291-.5v-.47l-.108-.064Z" transform="translate(26.137 21.215)" fill="#0a0808"/>
        <path id="Trazado_741460" data-name="Trazado 741460" d="M50.239,40.562l-.42.728v.676l.35.208.652-.309.42-.722-.062-.717-.358-.2Z" transform="translate(25.704 20.753)" fill="#b5afa7"/>
        <path id="Trazado_741461" data-name="Trazado 741461" d="M50.463,40.7l-.414.723V42.1l.414.243.6-.347.412-.719V40.6l-.412-.243Z" transform="translate(25.823 20.822)" fill="#a39c95"/>
        <path id="Trazado_741462" data-name="Trazado 741462" d="M42.163,50.339l-4.011-2.312V43.658l5.372,1.56Z" transform="translate(19.684 22.525)" fill="#211a1a"/>
        <path id="Trazado_741463" data-name="Trazado 741463" d="M42.163,47.551l-4.011-2.318,2.673-4.627,7.79.135Z" transform="translate(19.684 20.951)" fill="#362c29"/>
        <path id="Trazado_741464" data-name="Trazado 741464" d="M43.925,43.666l-4.01-2.316L43.7,39.167l4.01,2.318Z" transform="translate(20.594 20.208)" fill="#574943"/>
        <path id="Trazado_741465" data-name="Trazado 741465" d="M49.921,42.237,47.25,40.695l-3.781,2.18L40.8,47.506v4.363l2.671,1.542,3.781-2.178L49.921,46.6Z" transform="translate(21.049 20.996)" fill="#0a0808"/>
        <path id="Trazado_741466" data-name="Trazado 741466" d="M46.884,43.151v2.485l-1.522,2.629L43.217,49.5l-.35-.2,2.147-1.24,1.516-2.632v-2.48Z" transform="translate(22.117 22.159)" fill="#574943"/>
        <path id="Trazado_741467" data-name="Trazado 741467" d="M46.928,43.176v2.48l-1.516,2.632-2.147,1.239-1.17-.67V46.912l.264-.985,1.257-2.18,2.145-1.24Z" transform="translate(21.718 21.931)" fill="#d8d1c7"/>
        <path id="Trazado_741468" data-name="Trazado 741468" d="M42.839,45.115l-.288.5-.4.232.18.109.406-.238.285-.5v-.47l-.18-.1Z" transform="translate(21.745 23.035)" fill="#a39c95"/>
        <path id="Trazado_741469" data-name="Trazado 741469" d="M42.355,44.842l-.261.452v.535l.079.041.4-.232.288-.5V44.67L42.76,44.6Z" transform="translate(21.718 23.013)" fill="#0a0808"/>
        <path id="Trazado_741470" data-name="Trazado 741470" d="M45.189,43.759l-.294.5-.4.233.183.106.4-.232.285-.5V43.4l-.176-.1Z" transform="translate(22.955 22.337)" fill="#a39c95"/>
        <path id="Trazado_741471" data-name="Trazado 741471" d="M44.71,43.485l-.288.5v.467l.1.059.4-.233.294-.5v-.465l-.109-.064Z" transform="translate(22.919 22.315)" fill="#0a0808"/>
        <path id="Trazado_741472" data-name="Trazado 741472" d="M44.305,43.126l-.111.193v.18l.111.067.158-.092.114-.2V43.1l-.114-.067Z" transform="translate(22.802 22.204)" fill="#a39c95"/>
        <path id="Trazado_741473" data-name="Trazado 741473" d="M43.56,46.144l-.114.191v.176l.114.067.158-.086.109-.193v-.185l-.109-.062Z" transform="translate(22.416 23.76)" fill="#a39c95"/>
        <path id="Trazado_741474" data-name="Trazado 741474" d="M44.655,44.437l-.112.194v.18l.112.059.158-.086.106-.193V44.41l-.109-.062Z" transform="translate(22.981 22.881)" fill="#a39c95"/>
        <path id="Trazado_741475" data-name="Trazado 741475" d="M42.467,45.7l-.111.2v.18l.111.067.153-.092.111-.193v-.182l-.111-.062Z" transform="translate(21.853 23.532)" fill="#a39c95"/>
        <path id="Trazado_741476" data-name="Trazado 741476" d="M42.807,43.988l-.106.193v.18l.106.064.156-.089.115-.191v-.18l-.115-.065Z" transform="translate(22.031 22.649)" fill="#a39c95"/>
        <path id="Trazado_741477" data-name="Trazado 741477" d="M44.011,43.465l-.287.5-.406.235.186.109.4-.241.29-.5v-.47L44.011,43Z" transform="translate(22.35 22.183)" fill="#a39c95"/>
        <path id="Trazado_741478" data-name="Trazado 741478" d="M43.536,43.2l-.287.5v.465l.1.064.408-.235.287-.5v-.468l-.1-.061Z" transform="translate(22.314 22.163)" fill="#0a0808"/>
        <path id="Trazado_741479" data-name="Trazado 741479" d="M43.314,46.308l-.285.5-.406.238.179.106.412-.236.279-.5v-.47l-.179-.1Z" transform="translate(21.991 23.654)" fill="#a39c95"/>
        <path id="Trazado_741480" data-name="Trazado 741480" d="M42.837,46.041l-.283.5v.468l.1.061h0l.406-.238.287-.5V45.87l-.1-.068Z" transform="translate(21.955 23.631)" fill="#0a0808"/>
        <path id="Trazado_741481" data-name="Trazado 741481" d="M44.711,45.508l-.291.5-.4.24.183.1.4-.233.29-.5v-.47l-.18-.112Z" transform="translate(22.709 23.235)" fill="#a39c95"/>
        <path id="Trazado_741482" data-name="Trazado 741482" d="M44.232,45.231l-.283.5V46.2l.1.061.406-.238.29-.5v-.473L44.636,45Z" transform="translate(22.675 23.216)" fill="#0a0808"/>
        <path id="Trazado_741483" data-name="Trazado 741483" d="M43.52,44.442l-.415.722v.684l.355.2.652-.306.418-.722-.065-.72-.353-.2Z" transform="translate(22.239 22.753)" fill="#b5afa7"/>
        <path id="Trazado_741484" data-name="Trazado 741484" d="M43.751,44.574l-.412.726v.681l.412.241.593-.344.42-.725v-.672l-.42-.249Z" transform="translate(22.36 22.822)" fill="#a39c95"/>
        <path id="Trazado_741485" data-name="Trazado 741485" d="M43.544,44.973l-4.4-2.544,15.446-8.915,4.393,2.536-10.84,6.826Z" transform="translate(20.197 17.291)" fill="#fbe979"/>
        <path id="Trazado_741486" data-name="Trazado 741486" d="M41.051,48.476l-4.4-2.538L40.433,39.4l4.4,2.544L43.1,45.92Z" transform="translate(18.91 20.326)" fill="#e3bd5e"/>
        <path id="Trazado_741487" data-name="Trazado 741487" d="M41.051,50.42l-4.4-2.533V43.712l4.4,2.538.528,2.075Z" transform="translate(18.91 22.553)" fill="#d6a950"/>
        <path id="Trazado_741488" data-name="Trazado 741488" d="M40.5,54.273l-.951.544v-4.17l3.779-6.537,15.443-8.923,3.775,2.183v4.175l-.949.546v-3.72l-3.223-1.856-14.652,8.46L40.5,50.553Z" transform="translate(20.408 18.155)" fill="#cc934c"/>
        <path id="Trazado_741489" data-name="Trazado 741489" d="M38.224,48.9l-9.4-5.43,5.832-3.37,9.406,5.43L41.6,48.135Z" transform="translate(14.869 20.687)" fill="#fbe979"/>
        <path id="Trazado_741490" data-name="Trazado 741490" d="M38.224,54.414l-9.4-5.43V42.319l9.4,5.432,1.057,2.82Z" transform="translate(14.869 21.834)" fill="#e3bd5e"/>
        <path id="Trazado_741491" data-name="Trazado 741491" d="M40.857,43.679l-5.833,3.37v6.664l5.833-3.37Z" transform="translate(18.07 22.536)" fill="#cc934c"/>
        <path id="Trazado_741492" data-name="Trazado 741492" d="M45.332,58.7,17.807,42.806V17.26L49.057,31Z" transform="translate(9.187 8.905)" fill="#f4efe9"/>
        <path id="Trazado_741493" data-name="Trazado 741493" d="M43.549,51.6v3.9L18.684,41.148V19.464l3.379,1.948V39.2Z" transform="translate(9.64 10.042)" fill="#3e6669"/>
        <path id="Trazado_741494" data-name="Trazado 741494" d="M42.4,33.158V50.943l-21.485-12.4V20.749Z" transform="translate(10.79 10.705)" fill="#418080"/>
        <path id="Trazado_741495" data-name="Trazado 741495" d="M45.332,39.833,17.807,23.944,51.819,4.305,79.377,20.183,63,32.869,48.391,39.833Z" transform="translate(9.187 2.221)" fill="#fff"/>
        <path id="Trazado_741496" data-name="Trazado 741496" d="M70.009,14.779,35.964,34.429V59.98L70.009,40.32Z" transform="translate(18.555 7.625)" fill="#d1d1d1"/>
        <path id="Trazado_741497" data-name="Trazado 741497" d="M61.041,21.875,55.025,22.88l-6.949,4.014-6.014,5.936L38.589,39.1v4.925l3.473,2.263,6.014-1.01,6.949-4.011,6.017-5.936,3.471-6.274V24.132Z" transform="translate(19.91 11.286)" fill="#e09d38"/>
        <path id="Trazado_741498" data-name="Trazado 741498" d="M56.143,18.561l.293.165.236-.86-.529-.042Z" transform="translate(28.966 9.196)" fill="#de822b"/>
        <path id="Trazado_741499" data-name="Trazado 741499" d="M56.59,17.377l-.447.781.293.171,1.085-1.149Z" transform="translate(28.966 8.864)" fill="#ef8f2d"/>
        <path id="Trazado_741500" data-name="Trazado 741500" d="M56.438,17.434l.294.171.637-.368-.3-.168Z" transform="translate(29.119 8.806)" fill="#fdbd6f"/>
        <path id="Trazado_741501" data-name="Trazado 741501" d="M57.87,17.439l-.449-.259-.637.368-.449.781v.729l.449.256.637-.367.449-.772Z" transform="translate(29.066 8.864)" fill="#d66b24"/>
        <path id="Trazado_741502" data-name="Trazado 741502" d="M8.491,35.267l.6-.346L11.1,36.166l.594,1.028v1.992l-1.082.632L9.086,38.3l-.6-1.029Z" transform="translate(4.381 18.017)" fill="#0a0808"/>
        <path id="Trazado_741503" data-name="Trazado 741503" d="M8.354,35.343l.6-.346,1.522,1.528.6,1.034v1.99l-.6.349L8.954,38.374l-.6-1.028Z" transform="translate(4.31 18.057)" fill="#362c29"/>
        <path id="Trazado_741504" data-name="Trazado 741504" d="M10.188,37.838l.538.3.083-.314-.622-.265Z" transform="translate(5.256 19.378)" fill="#211a1a"/>
        <path id="Trazado_741505" data-name="Trazado 741505" d="M10.188,37.658l.538.3.411-.426-.778-.171Z" transform="translate(5.256 19.278)" fill="#362c29"/>
        <path id="Trazado_741506" data-name="Trazado 741506" d="M10.3,37.413l.537.309.241-.139-.532-.308Z" transform="translate(5.314 19.232)" fill="#574943"/>
        <path id="Trazado_741507" data-name="Trazado 741507" d="M10.711,37.618l-.168.287v.276l.168.1.241-.136.171-.294v-.277l-.171-.094Z" transform="translate(5.44 19.337)" fill="#0a0808"/>
        <path id="Trazado_741508" data-name="Trazado 741508" d="M27.323,58.048,20.607,54.17V50.188l10.648,3.9Z" transform="translate(10.632 25.894)" fill="#403531"/>
        <path id="Trazado_741509" data-name="Trazado 741509" d="M25.613,54.218,21.6,51.9l-3.779,2.183,4.04,3.875Z" transform="translate(9.195 26.778)" fill="#574943"/>
        <path id="Trazado_741510" data-name="Trazado 741510" d="M20.418,55.588l-.537-.308,3.785-2.187.537.309Z" transform="translate(10.258 27.392)" fill="#362c29"/>
        <path id="Trazado_741511" data-name="Trazado 741511" d="M19.808,55.232l-.537-.309,3.781-2.184.535.314Z" transform="translate(9.943 27.21)" fill="#362c29"/>
        <path id="Trazado_741512" data-name="Trazado 741512" d="M19.2,54.879l-.537-.311,3.781-2.183.544.314Z" transform="translate(9.627 27.028)" fill="#362c29"/>
        <path id="Trazado_741513" data-name="Trazado 741513" d="M22.37,52.34l-3.782,2.184-.543-.309,3.784-2.186Z" transform="translate(9.31 26.844)" fill="#362c29"/>
        <path id="Trazado_741514" data-name="Trazado 741514" d="M22.742,55.657l-4.01-2.315-2.676,4.627,4.013,6.684Z" transform="translate(8.284 27.521)" fill="#362c29"/>
        <rect id="Rectángulo_354464" data-name="Rectángulo 354464" width="5.34" height="0.619" transform="translate(27.472 87.297) rotate(-60.046)" fill="#0a0808"/>
        <path id="Trazado_741515" data-name="Trazado 741515" d="M18.046,59.116l-.537-.308,2.67-4.63.538.309Z" transform="translate(9.034 27.953)" fill="#0a0808"/>
        <path id="Trazado_741516" data-name="Trazado 741516" d="M17.435,58.765l-.538-.312,2.673-4.628.537.311Z" transform="translate(8.718 27.77)" fill="#0a0808"/>
        <path id="Trazado_741517" data-name="Trazado 741517" d="M19.5,53.781l-2.676,4.628-.537-.3,2.67-4.633Z" transform="translate(8.402 27.588)" fill="#0a0808"/>
        <path id="Trazado_741518" data-name="Trazado 741518" d="M20.069,58.711l-4.013-2.316v4.361l4.013,2.321Z" transform="translate(8.284 29.096)" fill="#211a1a"/>
        <path id="Trazado_741519" data-name="Trazado 741519" d="M18.121,61.949l.537.308V57.894l-.537-.309Z" transform="translate(9.349 29.71)"/>
        <path id="Trazado_741520" data-name="Trazado 741520" d="M17.509,61.6l.538.306V57.539l-.538-.306Z" transform="translate(9.034 29.529)"/>
        <path id="Trazado_741521" data-name="Trazado 741521" d="M16.9,61.244l.538.306V57.19l-.538-.312Z" transform="translate(8.717 29.346)"/>
        <path id="Trazado_741522" data-name="Trazado 741522" d="M16.284,60.89l.538.306V56.832l-.538-.3Z" transform="translate(8.401 29.165)"/>
        <path id="Trazado_741523" data-name="Trazado 741523" d="M21.379,66.15,18.7,64.607V60.242l2.673-4.633,3.782-2.181,2.673,1.543,0,4.366-2.674,4.631Z" transform="translate(9.65 27.566)" fill="#0a0808"/>
        <path id="Trazado_741524" data-name="Trazado 741524" d="M21.126,62.241,23.276,61l1.517-2.635V55.889l-.355-.2v2.482L22.921,60.8,20.77,62.038Z" transform="translate(10.716 28.73)" fill="#362c29"/>
        <path id="Trazado_741525" data-name="Trazado 741525" d="M21.167,62.269l2.151-1.242L24.834,58.4v-2.48l-1.161-.678-1.686.976-.723.719L20,59.111v2.482Z" transform="translate(10.319 28.499)" fill="#d8d1c7"/>
        <path id="Trazado_741526" data-name="Trazado 741526" d="M21.6,56.378l-.291.5-.4.24.183.1.4-.235.3-.5,0-.47-.189-.1Z" transform="translate(10.784 28.847)" fill="#a39c95"/>
        <path id="Trazado_741527" data-name="Trazado 741527" d="M21.1,56.15l-.265.45v.462l.108.068.4-.238.291-.5-.006-.465-.07-.045Z" transform="translate(10.748 28.832)" fill="#0a0808"/>
        <path id="Trazado_741528" data-name="Trazado 741528" d="M21.6,59.094l-.288.493-.408.238.183.106.409-.236.288-.5v-.467l-.185-.109Z" transform="translate(10.784 30.243)" fill="#a39c95"/>
        <path id="Trazado_741529" data-name="Trazado 741529" d="M21.122,58.818l-.291.5v.468l.106.062.409-.24.287-.493v-.476l-.111-.058Z" transform="translate(10.748 30.224)" fill="#0a0808"/>
        <path id="Trazado_741530" data-name="Trazado 741530" d="M20.5,58.824l-.114.191V59.2l.108.062.164-.089.106-.191,0-.185-.1-.059Z" transform="translate(10.521 30.304)" fill="#a39c95"/>
        <path id="Trazado_741531" data-name="Trazado 741531" d="M22.74,56.669l-.109.191v.183l.112.068.155-.1.112-.193v-.182L22.9,56.58Z" transform="translate(11.676 29.192)" fill="#a39c95"/>
        <path id="Trazado_741532" data-name="Trazado 741532" d="M21.811,58.472l-.106.2-.006.179.115.062.155-.089.112-.194v-.182l-.112-.062Z" transform="translate(11.195 30.121)" fill="#a39c95"/>
        <path id="Trazado_741533" data-name="Trazado 741533" d="M21.815,55.945l-.111.188,0,.182.111.065.158-.089.114-.191v-.185l-.114-.062Z" transform="translate(11.196 28.816)" fill="#a39c95"/>
        <path id="Trazado_741534" data-name="Trazado 741534" d="M20.5,57.1l-.111.193v.18l.111.064.159-.092.106-.188v-.188l-.111-.058Z" transform="translate(10.521 29.413)" fill="#a39c95"/>
        <path id="Trazado_741535" data-name="Trazado 741535" d="M20.752,58.22l-.285.5-.406.232.185.111.406-.235.285-.5v-.471l-.182-.111Z" transform="translate(10.35 29.795)" fill="#a39c95"/>
        <path id="Trazado_741536" data-name="Trazado 741536" d="M20.28,57.948l-.287.5v.474l.1.055.406-.232.285-.5,0-.471-.1-.061Z" transform="translate(10.315 29.774)" fill="#0a0808"/>
        <path id="Trazado_741537" data-name="Trazado 741537" d="M22.869,56.194l-.287.5-.4.236.179.1.409-.233.288-.5,0-.476-.182-.1Z" transform="translate(11.443 28.75)" fill="#a39c95"/>
        <path id="Trazado_741538" data-name="Trazado 741538" d="M22.392,55.917l-.282.5v.467l.1.064.4-.236.287-.5,0-.468h0l-.1-.055Z" transform="translate(11.407 28.732)" fill="#0a0808"/>
        <path id="Trazado_741539" data-name="Trazado 741539" d="M22.869,57.8l-.287.5-.4.236.183.1.4-.23.287-.5,0-.47-.191-.111Z" transform="translate(11.443 29.579)" fill="#a39c95"/>
        <path id="Trazado_741540" data-name="Trazado 741540" d="M22.4,57.532l-.288.5,0,.468.108.061.406-.236.287-.5,0-.471-.1-.058Z" transform="translate(11.406 29.56)" fill="#0a0808"/>
        <path id="Trazado_741541" data-name="Trazado 741541" d="M21.429,57.174l-.418.723,0,.681.35.2.658-.3.415-.723-.062-.719-.356-.2Z" transform="translate(10.84 29.324)" fill="#b5afa7"/>
        <path id="Trazado_741542" data-name="Trazado 741542" d="M21.659,57.312l-.415.722v.678l.415.246.6-.341.412-.722,0-.685-.417-.24Z" transform="translate(10.96 29.393)" fill="#a39c95"/>
        <path id="Trazado_741543" data-name="Trazado 741543" d="M24.74,59.348,2.415,46.461l7.639-7.381L33.561,51.847Z" transform="translate(1.246 20.163)" fill="#fff"/>
        <path id="Trazado_741544" data-name="Trazado 741544" d="M5.721,46.688l-3.306.764,2.63,4.919,13.766,8.876,1.037-3.74.2-4.466Z" transform="translate(1.246 24.088)" fill="#a39c95"/>
        <path id="Trazado_741545" data-name="Trazado 741545" d="M4.786,49.474V52.12l.549.318V49.793L5.89,47.68l-.547-.32Z" transform="translate(2.469 24.435)" fill="#362c29"/>
        <path id="Trazado_741546" data-name="Trazado 741546" d="M5.848,50.084v2.645l.547.318V50.4l.553-2.113L6.4,47.974Z" transform="translate(3.017 24.752)" fill="#362c29"/>
        <path id="Trazado_741547" data-name="Trazado 741547" d="M6.907,50.7l0,2.641.547.318V51.016L8.013,48.9l-.552-.315Z" transform="translate(3.563 25.066)" fill="#362c29"/>
        <path id="Trazado_741548" data-name="Trazado 741548" d="M7.964,51.309v2.644l.555.321V51.626l.556-2.113L8.527,49.2Z" transform="translate(4.109 25.383)" fill="#362c29"/>
        <path id="Trazado_741549" data-name="Trazado 741549" d="M9.028,51.926v2.642l.549.318V52.243l.555-2.112-.55-.324Z" transform="translate(4.658 25.697)" fill="#362c29"/>
        <path id="Trazado_741550" data-name="Trazado 741550" d="M10.086,52.537v2.648l.555.317V52.855l.555-2.116-.55-.318Z" transform="translate(5.204 26.014)" fill="#362c29"/>
        <path id="Trazado_741551" data-name="Trazado 741551" d="M11.149,53.149v2.644l.549.317V53.462l.558-2.112-.553-.315Z" transform="translate(5.752 26.331)" fill="#362c29"/>
        <path id="Trazado_741552" data-name="Trazado 741552" d="M12.208,53.759V56.4l.552.32V54.077l.553-2.113-.55-.318Z" transform="translate(6.299 26.646)" fill="#362c29"/>
        <path id="Trazado_741553" data-name="Trazado 741553" d="M5.605,51.971,1.326,49.5V47.465l4.279,2.469Z" transform="translate(0.684 24.489)" fill="#de822b"/>
        <path id="Trazado_741554" data-name="Trazado 741554" d="M5.605,50.3,1.326,47.833V46.755l4.279,2.469Z" transform="translate(0.684 24.123)" fill="#d8d1c7"/>
        <path id="Trazado_741555" data-name="Trazado 741555" d="M5.605,50.1,1.326,47.629l.679-2.57,4.278,2.469Z" transform="translate(0.684 23.248)" fill="#fff"/>
        <rect id="Rectángulo_354465" data-name="Rectángulo 354465" width="1.945" height="25.778" transform="translate(2.69 68.307) rotate(-59.994)" fill="#f4efe9"/>
        <path id="Trazado_741556" data-name="Trazado 741556" d="M29.782,55.9,7.454,43.005l7.552-11.533,19.165,4.149L38.579,46.16Z" transform="translate(3.846 16.238)" fill="#f4efe9"/>
        <path id="Trazado_741557" data-name="Trazado 741557" d="M23.135,26.417l-8.06,5L12.436,34.08,34.761,46.972l2.726.615,7.974-8.28Z" transform="translate(6.416 13.63)" fill="#fff"/>
        <path id="Trazado_741558" data-name="Trazado 741558" d="M15.231,31.585,34.359,42.63l2.513-3.1,1.454-6.294L15.317,27.871Z" transform="translate(7.858 14.38)" fill="#e0dedc"/>
        <path id="Trazado_741559" data-name="Trazado 741559" d="M34.417,40.85,15.287,29.8l3.875-5.677,17.57,7.046,5.662.7Z" transform="translate(7.887 12.448)" fill="#f4efe9"/>
        <path id="Trazado_741560" data-name="Trazado 741560" d="M27.849,41.927l8.063-5V29.235l-4.095,3.3-3.881,5.682Z" transform="translate(14.368 15.084)" fill="#d1d1d1"/>
        <path id="Trazado_741561" data-name="Trazado 741561" d="M36.979,36.29,17.843,25.248l4.1-3.3L41.075,32.993Z" transform="translate(9.206 11.325)" fill="#fff"/>
        <path id="Trazado_741562" data-name="Trazado 741562" d="M43.364,34.92l-8.06,5-2.639,2.67L25.115,54.118l-7.642,7.377L16.5,63.183l1.164-.682.393.215,0,4.863,2.288-1.325v.508l1.933-3.349,4.5-2.66,2.665,1.354v3.819l.878-.218,13.045-7.531Z" transform="translate(8.513 18.017)" fill="#d1d1d1"/>
        <g id="Grupo_1017589" data-name="Grupo 1017589" transform="translate(0 0.001)">
          <g id="Grupo_1017588" data-name="Grupo 1017588" clip-path="url(#clip-path)">
            <g id="Grupo_1017587" data-name="Grupo 1017587" transform="translate(37.411 54.39)" opacity="0.4">
              <g id="Grupo_1017586" data-name="Grupo 1017586">
                <g id="Grupo_1017585" data-name="Grupo 1017585" clip-path="url(#clip-path-11)">
                  <path id="Trazado_741563" data-name="Trazado 741563" d="M37.663,57.975,26.31,64.527V60.883l-1.631-.919V49.24l4.114-6.888,2.372-2.386,6.5-4.087ZM26.45,64.286l11.077-6.391V36.129l-6.343,3.99-2.332,2.344-4.037,6.763V59.817l1.634.919Z" transform="translate(-24.678 -35.879)" fill="#574943"/>
                </g>
              </g>
            </g>
          </g>
        </g>
        <path id="Trazado_741564" data-name="Trazado 741564" d="M.344,52.219l23.37,13.5.794-1.2-.794-.747L.344,50.274Z" transform="translate(0.177 25.939)" fill="#f4efe9"/>
        <path id="Trazado_741565" data-name="Trazado 741565" d="M20.231,57.488l-2.375.876-2.1,1.683V62l1.113.276,3.359-1.934Z" transform="translate(8.131 29.661)" fill="#d1d1d1"/>
        <path id="Trazado_741566" data-name="Trazado 741566" d="M.123,49.48,23.49,62.972l3.528-1.537L29.331,59.6l-.543-.314-4.514,2.6L1.945,49.005v-.578Z" transform="translate(0.064 24.986)" fill="#574943"/>
        <path id="Trazado_741567" data-name="Trazado 741567" d="M.123,51.066,23.49,64.561l.784-1.343-.784-.6L.123,49.121Z" transform="translate(0.064 25.344)" fill="#362c29"/>
        <path id="Trazado_741568" data-name="Trazado 741568" d="M20.345,58.1,21.378,56.3v-.5l-5.839,3.374v1.946l4.807-2.776Z" transform="translate(8.017 28.788)" fill="#0a0808"/>
        <path id="Trazado_741569" data-name="Trazado 741569" d="M17.511,58.842l-4.279-2.468V54.337l4.279,2.474.5.611Z" transform="translate(6.827 28.034)" fill="#de822b"/>
        <path id="Trazado_741570" data-name="Trazado 741570" d="M17.511,57.174,13.231,54.7V53.632L17.511,56.1l.349.4Z" transform="translate(6.827 27.671)" fill="#d8d1c7"/>
        <path id="Trazado_741571" data-name="Trazado 741571" d="M17.511,56.978l-4.279-2.469.676-2.577,4.279,2.474.112,1.627Z" transform="translate(6.827 26.794)" fill="#fff"/>
        <path id="Trazado_741572" data-name="Trazado 741572" d="M16.054,56.407l2.228-1.287v2.037l-2.228,1.281Z" transform="translate(8.283 28.438)" fill="#ab531f"/>
        <path id="Trazado_741573" data-name="Trazado 741573" d="M18.284,54.41l-2.23,1.29v1.073l2.23-1.289Z" transform="translate(8.283 28.072)" fill="#a39c95"/>
        <path id="Trazado_741574" data-name="Trazado 741574" d="M18.287,53.329l-.393-.215-1.163.682-.678,2.573,2.233-1.29Z" transform="translate(8.283 27.404)" fill="#e0dedc"/>
        <path id="Trazado_741575" data-name="Trazado 741575" d="M36.356,37.15l-4.48,2.586-2.362,2.447-5.8,9.616v.79l12.567-7.261.346-.716V37.431Z" transform="translate(12.237 19.167)" fill="#0a0808"/>
        <path id="Trazado_741576" data-name="Trazado 741576" d="M35.4,37.349l-.141.082v6.9l-.287.6-9.487,5.479v.244l9.7-5.6.291-.6V37.43Z" transform="translate(13.15 19.27)" fill="#211a1a"/>
        <path id="Trazado_741577" data-name="Trazado 741577" d="M31.11,39.8l-2.316,2.4-3.306,5.483v2.7l9.487-5.479.287-.6V37.4Z" transform="translate(13.15 19.297)" fill="#403531"/>
        <path id="Trazado_741578" data-name="Trazado 741578" d="M32.091,43.72l-.252.435V46.17l.252.146.511-.3.255-.438V43.561l-.255-.146Z" transform="translate(16.427 22.4)" fill="#574943"/>
        <path id="Trazado_741579" data-name="Trazado 741579" d="M31.738,45.856l.156.091V43.934l-.156-.089Z" transform="translate(16.375 22.621)" fill="#0a0808"/>
        <path id="Trazado_741580" data-name="Trazado 741580" d="M31.738,43.993l.156.089.25-.435-.153-.092Z" transform="translate(16.375 22.472)" fill="#211a1a"/>
        <path id="Trazado_741581" data-name="Trazado 741581" d="M31.9,43.658l.155.092.509-.3-.156-.088Z" transform="translate(16.461 22.37)" fill="#362c29"/>
        <path id="Trazado_741582" data-name="Trazado 741582" d="M29.425,55.028,7.93,42.62l7-10.692L36.422,44.336Z" transform="translate(4.092 16.473)" fill="#0a0808"/>
        <path id="Trazado_741583" data-name="Trazado 741583" d="M29.355,54.405l-.124.189L8.154,42.426l6.734-10.284L15,32.2,8.385,42.3Z" transform="translate(4.207 16.583)" fill="#403531"/>
        <path id="Trazado_741584" data-name="Trazado 741584" d="M35.884,44.29,29.276,54.384,8.307,42.275l6.611-10.093.8.461,1.745,2.785,3.514.253Z" transform="translate(4.286 16.604)" fill="#736656"/>
        <path id="Trazado_741585" data-name="Trazado 741585" d="M14.258,32.486,11.135,37.66v2.7l8.382-4.84Z" transform="translate(5.745 16.761)" fill="#a39685"/>
        <path id="Trazado_741586" data-name="Trazado 741586" d="M25.01,46.136l.534.3.082-.32-.615-.264Z" transform="translate(12.904 23.659)" fill="#211a1a"/>
        <path id="Trazado_741587" data-name="Trazado 741587" d="M25.01,45.954l.534.308.406-.432-.775-.168Z" transform="translate(12.904 23.559)" fill="#362c29"/>
        <path id="Trazado_741588" data-name="Trazado 741588" d="M25.119,45.709l.532.306.243-.138-.531-.306Z" transform="translate(12.96 23.512)" fill="#574943"/>
        <path id="Trazado_741589" data-name="Trazado 741589" d="M25.526,45.911l-.164.294v.276l.164.1.243-.133.174-.3v-.28l-.174-.1Z" transform="translate(13.085 23.616)" fill="#403531"/>
        <path id="Trazado_741590" data-name="Trazado 741590" d="M25.454,45.322,26.54,44.7l2.154,1.16.6,1.032v1.992l-.6.344L26.05,48.35l-.6-1.032Z" transform="translate(13.133 23.062)" fill="#0a0808"/>
        <path id="Trazado_741591" data-name="Trazado 741591" d="M25.32,45.308l.593-.344,2.65.873.594,1.032v1.993l-.594.343-2.65-.875L25.32,47.3Z" transform="translate(13.063 23.198)" fill="#362c29"/>
        <path id="Trazado_741592" data-name="Trazado 741592" d="M25.037,56.706l.535.314V53.1l-.535-.308Z" transform="translate(12.918 27.237)" fill="#fff"/>
        <path id="Trazado_741593" data-name="Trazado 741593" d="M25.741,51.766l-4.552,2.621-2.231,3.87.843-.487,1.742-3.026,4.2-2.425,2.968,1.713v3.515l.479-.28,0-3.512Z" transform="translate(9.781 26.708)" fill="#e0dedc"/>
        <path id="Trazado_741594" data-name="Trazado 741594" d="M20.613,54.492l-.537-.3,4.551-2.63.538.312Z" transform="translate(10.358 26.601)" fill="#fff"/>
        <rect id="Rectángulo_354468" data-name="Rectángulo 354468" width="4.467" height="0.622" transform="matrix(0.502, -0.865, 0.865, 0.502, 28.194, 84.651)" fill="#f4efe9"/>
        <g id="Grupo_1017594" data-name="Grupo 1017594" transform="translate(0 0.001)">
          <g id="Grupo_1017593" data-name="Grupo 1017593" clip-path="url(#clip-path)">
            <g id="Grupo_1017592" data-name="Grupo 1017592" transform="translate(103.441 75.543)" opacity="0.3">
              <g id="Grupo_1017591" data-name="Grupo 1017591">
                <g id="Grupo_1017590" data-name="Grupo 1017590" clip-path="url(#clip-path-13)">
                  <path id="Trazado_741595" data-name="Trazado 741595" d="M89.1,50.656l-19.948,11.5-.256.15.023.03-.458.261-.229.139.112.261.406.235.452.059.236-.133.452-.261.07.018.246-.152L90.157,51.259l1.437-1.426Z" transform="translate(-68.236 -49.833)"/>
                </g>
              </g>
            </g>
          </g>
        </g>
        <path id="Trazado_741596" data-name="Trazado 741596" d="M83.2,49.647l.109.115.567-.291Z" transform="translate(42.925 25.524)" fill="#836e69"/>
        <path id="Trazado_741597" data-name="Trazado 741597" d="M83.282,49.808l.053.156.5-.493Z" transform="translate(42.969 25.524)" fill="#403531"/>
        <path id="Trazado_741598" data-name="Trazado 741598" d="M83.27,49.71l.012.127h.061l.494-.367Z" transform="translate(42.962 25.524)" fill="#685750"/>
        <path id="Trazado_741599" data-name="Trazado 741599" d="M82.786,49.869l-.635.108.018.609.591.453.362-.573.8-.711-.073-.126Z" transform="translate(42.385 25.606)" fill="#efc58b"/>
        <path id="Trazado_741600" data-name="Trazado 741600" d="M82.552,50.59V51l1.16-1.157v-.127Z" transform="translate(42.592 25.648)" fill="#c79d5c"/>
        <path id="Trazado_741601" data-name="Trazado 741601" d="M82.15,50l.355.215,1.343-.562-.109-.064Z" transform="translate(42.385 25.584)" fill="#f7e6bb"/>
        <path id="Trazado_741602" data-name="Trazado 741602" d="M69.823,57.03v.415l.256.444.359.2.253-.147v-.415l-.253-.435-.359-.212Z" transform="translate(36.024 29.346)" fill="#785b56"/>
        <path id="Trazado_741603" data-name="Trazado 741603" d="M70.351,60.714l-.359-.214L88.423,49.858l.355.214L70.391,60.722Z" transform="translate(36.112 25.724)" fill="#8ccccb"/>
        <path id="Trazado_741604" data-name="Trazado 741604" d="M70.482,61.075l-.253-.434L88.655,50l.255.441L70.528,61.1Z" transform="translate(36.234 25.797)" fill="#389998"/>
        <path id="Trazado_741605" data-name="Trazado 741605" d="M70.4,61.341v-.415L88.824,50.291V50.7Z" transform="translate(36.32 25.947)" fill="#3e6669"/>
        <path id="Trazado_741606" data-name="Trazado 741606" d="M68.835,57.6v.406l.253.437.352.211L69.7,58.5V58.1l-.265-.438-.352-.2Z" transform="translate(35.515 29.645)" fill="#d8d1c7"/>
        <path id="Trazado_741607" data-name="Trazado 741607" d="M69,57.756l.35.2h.056l1.454-.864-.359-.214Z" transform="translate(35.601 29.346)" fill="#e6e1dd"/>
        <path id="Trazado_741608" data-name="Trazado 741608" d="M69.233,57.885l.267.438.033.018L71,57.454l-.255-.435Z" transform="translate(35.72 29.418)" fill="#d1d1d1"/>
        <path id="Trazado_741609" data-name="Trazado 741609" d="M69.409,58.175v.406l1.5-.86v-.415Z" transform="translate(35.811 29.566)" fill="#a39c95"/>
        <path id="Trazado_741610" data-name="Trazado 741610" d="M68.381,57.9v.376l.226.4.341.183.229-.126v-.376l-.229-.408-.341-.2Z" transform="translate(35.281 29.799)" fill="#c26a5e"/>
        <path id="Trazado_741611" data-name="Trazado 741611" d="M68.531,57.891l.341.2.036,0,.644-.4-.326-.189Z" transform="translate(35.358 29.666)" fill="#fca48f"/>
        <path id="Trazado_741612" data-name="Trazado 741612" d="M68.756,58.023l.227.408.032.011.655-.412-.233-.406Z" transform="translate(35.474 29.73)" fill="#d57a70"/>
        <path id="Trazado_741613" data-name="Trazado 741613" d="M68.906,58.293v.376l.687-.4V57.89Z" transform="translate(35.551 29.868)" fill="#a6495d"/>
        <path id="Trazado_741614" data-name="Trazado 741614" d="M70.842,56.5l.353.209h.052l.5-.317-.353-.206Z" transform="translate(36.55 28.987)" fill="#fbe979"/>
        <path id="Trazado_741615" data-name="Trazado 741615" d="M71.075,56.635l.252.443.047.014.5-.334-.25-.44Z" transform="translate(36.67 29.057)" fill="#e3bd5e"/>
        <path id="Trazado_741616" data-name="Trazado 741616" d="M71.24,56.929v.417l.549-.327v-.411Z" transform="translate(36.756 29.206)" fill="#cc934c"/>
        <path id="Trazado_741617" data-name="Trazado 741617" d="M75.666,46.295l-.08.041V46.4l.08.045h.1l.085-.045v-.067l-.085-.041Z" transform="translate(38.998 23.885)" fill="#d8d1c7"/>
        <path id="Trazado_741618" data-name="Trazado 741618" d="M75.586,47.794l.08.045.006-1.422-.006-.008-.08-.044Z" transform="translate(38.998 23.922)" fill="#f4efe9"/>
        <path id="Trazado_741619" data-name="Trazado 741619" d="M75.639,46.4v1.428l.1,0,.009-1.419-.009-.008Z" transform="translate(39.025 23.937)" fill="#d8d1c7"/>
        <path id="Trazado_741620" data-name="Trazado 741620" d="M75.7,46.411v1.427l.085-.042v-1.43Z" transform="translate(39.059 23.922)" fill="#a39c95"/>
        <path id="Trazado_741621" data-name="Trazado 741621" d="M67.18,41.41l-.082.041v.061l.082.055h.1l.073-.055v-.061l-.073-.041Z" transform="translate(34.618 21.365)" fill="#d8d1c7"/>
        <path id="Trazado_741622" data-name="Trazado 741622" d="M67.1,42.911l.082.042,0-1.422,0,0-.082-.053Z" transform="translate(34.618 21.4)" fill="#f4efe9"/>
        <path id="Trazado_741623" data-name="Trazado 741623" d="M67.152,41.512v1.423h.1l.006-1.422-.006,0Z" transform="translate(34.646 21.418)" fill="#d8d1c7"/>
        <path id="Trazado_741624" data-name="Trazado 741624" d="M67.219,41.53v1.423l.074-.042V41.477Z" transform="translate(34.681 21.4)" fill="#a39c95"/>
        <g id="Grupo_1017599" data-name="Grupo 1017599" transform="translate(0 0.001)">
          <g id="Grupo_1017598" data-name="Grupo 1017598" clip-path="url(#clip-path)">
            <g id="Grupo_1017597" data-name="Grupo 1017597" transform="translate(55.824 58.958)" opacity="0.3">
              <g id="Grupo_1017596" data-name="Grupo 1017596">
                <g id="Grupo_1017595" data-name="Grupo 1017595" clip-path="url(#clip-path-15)">
                  <path id="Trazado_741625" data-name="Trazado 741625" d="M65.464,77.371,36.825,60.845,74.843,38.892l28.632,16.528Z" transform="translate(-36.824 -38.893)"/>
                </g>
              </g>
            </g>
          </g>
        </g>
        <path id="Trazado_741626" data-name="Trazado 741626" d="M37.174,60.737,65.285,76.953l37.477-21.639L74.664,39.1Z" transform="translate(19.179 20.173)" fill="#853e2a"/>
        <path id="Trazado_741627" data-name="Trazado 741627" d="M64.971,76.084,37.782,60.389l36.567-21.1,27.176,15.685Z" transform="translate(19.493 20.27)" fill="#d18067"/>
        <path id="Trazado_741628" data-name="Trazado 741628" d="M55.863,70.746l-.429.346.429.426L93.34,49.879l-.92-.244Z" transform="translate(28.601 25.608)" fill="#693121"/>
        <path id="Trazado_741629" data-name="Trazado 741629" d="M37.174,53.458,65.285,69.674V68.9L38.1,53.208Z" transform="translate(19.179 27.452)" fill="#944e39"/>
        <g id="Grupo_1017604" data-name="Grupo 1017604" transform="translate(0 0.001)">
          <g id="Grupo_1017603" data-name="Grupo 1017603" clip-path="url(#clip-path)">
            <g id="Grupo_1017602" data-name="Grupo 1017602" transform="translate(97.121 62.932)" opacity="0.3">
              <g id="Grupo_1017601" data-name="Grupo 1017601">
                <g id="Grupo_1017600" data-name="Grupo 1017600" clip-path="url(#clip-path-17)">
                  <path id="Trazado_741630" data-name="Trazado 741630" d="M78.267,51.928l-14.2-8.194,3.844-2.221,13.051,7.534.887.954.156.089-.521-.012Z" transform="translate(-64.067 -41.513)"/>
                </g>
              </g>
            </g>
          </g>
        </g>
        <path id="Trazado_741631" data-name="Trazado 741631" d="M78.174,51.111,64.246,43.067v-.262L81.757,48.78Z" transform="translate(33.147 22.085)" fill="#d8d1c7"/>
        <path id="Trazado_741632" data-name="Trazado 741632" d="M73.434,49.078v-.264l1.105-1.552,2.477-.515V47.3h-.5Z" transform="translate(37.888 24.118)" fill="#a39c95"/>
        <path id="Trazado_741633" data-name="Trazado 741633" d="M78.174,51.554,64.246,43.51l3.573-2.074,13.938,8.05Z" transform="translate(33.147 21.379)" fill="#e6e1dd"/>
        <path id="Trazado_741634" data-name="Trazado 741634" d="M73.583,46.425l-.37.214v.308l.37.223h.537l.376-.223v-.308l-.376-.214Z" transform="translate(37.774 23.953)" fill="#f4efe9"/>
        <path id="Trazado_741635" data-name="Trazado 741635" d="M73.854,46.993l-.126.047.126.042.376-.218v-.1Z" transform="translate(38.039 24.13)" fill="#a39c95"/>
        <path id="Trazado_741636" data-name="Trazado 741636" d="M73.213,46.863l.37.218.221-.042-.221-.047-.37-.223Z" transform="translate(37.774 24.13)" fill="#d8d1c7"/>
        <rect id="Rectángulo_354475" data-name="Rectángulo 354475" width="0.537" height="0.089" transform="translate(111.356 71.122)" fill="#b5afa7"/>
        <path id="Trazado_741637" data-name="Trazado 741637" d="M66.586,42.383l-.379.22v.3l.379.223h.534L67.5,42.9v-.3l-.384-.22Z" transform="translate(34.159 21.867)" fill="#f4efe9"/>
        <path id="Trazado_741638" data-name="Trazado 741638" d="M66.851,42.948,66.728,43l.123.041.384-.211v-.1Z" transform="translate(34.428 22.044)" fill="#a39c95"/>
        <path id="Trazado_741639" data-name="Trazado 741639" d="M66.207,42.827l.379.211L66.8,43l-.217-.049-.379-.223Z" transform="translate(34.159 22.044)" fill="#d8d1c7"/>
        <rect id="Rectángulo_354476" data-name="Rectángulo 354476" width="0.534" height="0.089" transform="translate(100.745 64.99)" fill="#b5afa7"/>
        <path id="Trazado_741640" data-name="Trazado 741640" d="M85.2,55.612l2.207-1.27-24.783-14.3-2.054,1.192,3.94,3.106L77.942,52.69Z" transform="translate(31.252 20.657)" fill="#fff"/>
        <path id="Trazado_741641" data-name="Trazado 741641" d="M61.333,40.823,59.1,42.356l3.37,5.083,14.188,7.54,7.22,1.668,2.083-1.44Z" transform="translate(30.493 21.062)" fill="#f4efe9"/>
        <path id="Trazado_741642" data-name="Trazado 741642" d="M68.981,41.834,39.954,58.587l24.769,14.3L93.759,56.125Z" transform="translate(20.614 21.584)" fill="#fff"/>
        <path id="Trazado_741643" data-name="Trazado 741643" d="M60.6,43.865l-1,.593L77.614,54.85l1-.573Z" transform="translate(30.749 22.632)" fill="#e0dedc"/>
        <path id="Trazado_741644" data-name="Trazado 741644" d="M71.872,52.459,58.791,44.915l-1,.584,13.073,7.548Z" transform="translate(29.818 23.173)" fill="#e0dedc"/>
        <path id="Trazado_741645" data-name="Trazado 741645" d="M55.988,46.538l18,10.395L75,56.363,56.978,45.958Z" transform="translate(28.886 23.711)" fill="#e0dedc"/>
        <path id="Trazado_741646" data-name="Trazado 741646" d="M54.18,47.584,72.191,57.976,73.2,57.4,55.17,47Z" transform="translate(27.954 24.25)" fill="#e0dedc"/>
        <path id="Trazado_741647" data-name="Trazado 741647" d="M52.371,48.624l18,10.395,1-.576-18-10.395Z" transform="translate(27.02 24.79)" fill="#e0dedc"/>
        <path id="Trazado_741648" data-name="Trazado 741648" d="M50.554,49.671l18.012,10.39,1.011-.576L51.567,49.092Z" transform="translate(26.083 25.328)" fill="#e0dedc"/>
        <path id="Trazado_741649" data-name="Trazado 741649" d="M53.764,57.714l5.022,2.9,1-.578-5.018-2.9Z" transform="translate(27.739 29.477)" fill="#e0dedc"/>
        <path id="Trazado_741650" data-name="Trazado 741650" d="M62.832,57.685,49.755,50.129l-1,.581,13.081,7.557Z" transform="translate(25.153 25.864)" fill="#e0dedc"/>
        <path id="Trazado_741651" data-name="Trazado 741651" d="M64.92,42.656v.089l.059.092.07.041.055-.032V42.76l-.055-.1-.07-.038Z" transform="translate(33.495 21.992)" fill="#d8d1c7"/>
        <path id="Trazado_741652" data-name="Trazado 741652" d="M65.03,43.328l-.071-.038,3.376-1.951.08.033-3.37,1.956Z" transform="translate(33.515 21.329)" fill="#f4efe9"/>
        <path id="Trazado_741653" data-name="Trazado 741653" d="M65.059,43.413l-.053-.1,3.385-1.957.045.106-3.365,1.96Z" transform="translate(33.539 21.34)" fill="#d8d1c7"/>
        <path id="Trazado_741654" data-name="Trazado 741654" d="M65.04,43.463v-.086l3.378-1.946v.091Z" transform="translate(33.557 21.376)" fill="#a39c95"/>
        <path id="Trazado_741655" data-name="Trazado 741655" d="M73.467,47.534l-.062.1v.088l.062.027.076-.038.053-.094v-.086l-.053-.035Z" transform="translate(37.873 24.503)" fill="#d8d1c7"/>
        <path id="Trazado_741656" data-name="Trazado 741656" d="M77.8,50.045,77.878,50l-12.8-7.378-.07.039,12.776,7.38Z" transform="translate(33.539 21.992)" fill="#f4efe9"/>
        <path id="Trazado_741657" data-name="Trazado 741657" d="M77.782,50.128l.064-.1-12.8-7.381-.13.062,12.863,7.417Z" transform="translate(33.495 22.005)" fill="#d8d1c7"/>
        <path id="Trazado_741658" data-name="Trazado 741658" d="M77.922,50.268v-.085l-13-7.49v.02l.059.091Z" transform="translate(33.495 22.027)" fill="#a39c95"/>
        <path id="Trazado_741659" data-name="Trazado 741659" d="M73.522,48.222l-.076-.041,3.378-1.943.073.039-3.365,1.945Z" transform="translate(37.894 23.856)" fill="#f4efe9"/>
        <path id="Trazado_741660" data-name="Trazado 741660" d="M73.5,48.341v-.132l3.374-1.945.058.088-3.341,1.96Z" transform="translate(37.92 23.869)" fill="#d8d1c7"/>
        <path id="Trazado_741661" data-name="Trazado 741661" d="M73.51,48.395l-.039-.047.039-.038,3.432-1.987v.089Z" transform="translate(37.906 23.9)" fill="#a39c95"/>
        <g id="Grupo_1017609" data-name="Grupo 1017609" transform="translate(0 0.001)">
          <g id="Grupo_1017608" data-name="Grupo 1017608" clip-path="url(#clip-path)">
            <g id="Grupo_1017607" data-name="Grupo 1017607" transform="translate(78.997 75.816)" opacity="0.3">
              <g id="Grupo_1017606" data-name="Grupo 1017606">
                <g id="Grupo_1017605" data-name="Grupo 1017605" clip-path="url(#clip-path-19)">
                  <path id="Trazado_741662" data-name="Trazado 741662" d="M79.987,50.334l-4.128-.321-1.41.82H72.911l-20.8,12v1.316l1.608.931h2.275L76.8,53.07v-.885Z" transform="translate(-52.111 -50.013)"/>
                </g>
              </g>
            </g>
          </g>
        </g>
        <path id="Trazado_741663" data-name="Trazado 741663" d="M67.412,50.226l1.12,1.008.155-.755.027-.227-.676-.388Z" transform="translate(34.78 25.727)" fill="#fbe979"/>
        <path id="Trazado_741664" data-name="Trazado 741664" d="M68.407,50.875l-.7.794.42.764.435-2.1V50.12Z" transform="translate(34.933 25.859)" fill="#a3763d"/>
        <path id="Trazado_741665" data-name="Trazado 741665" d="M73.184,49.162l-5.538,3.2L65.3,50.977,73.184,49.1Z" transform="translate(33.689 25.33)" fill="#a39c95"/>
        <path id="Trazado_741666" data-name="Trazado 741666" d="M73.184,49.207l-5.538,3.2L65.3,51.051l3.76-2.171Z" transform="translate(33.689 25.219)" fill="#e6e1dd"/>
        <path id="Trazado_741667" data-name="Trazado 741667" d="M67.3,50.77l.618,1.108.556-.393.141-.4V50.8l.156-.755v-.327Z" transform="translate(34.723 25.65)" fill="#a3763d"/>
        <path id="Trazado_741668" data-name="Trazado 741668" d="M69.112,49.489l-3.643.249,3.813,2.2.434-2.106Z" transform="translate(33.778 25.533)" fill="#cc934c"/>
        <path id="Trazado_741669" data-name="Trazado 741669" d="M65.955,49.55l1.524,1.307.828.045,1.161-1.072-.6-.341Z" transform="translate(34.029 25.534)" fill="#e3bd5e"/>
        <path id="Trazado_741670" data-name="Trazado 741670" d="M55.382,63.794,74.976,52.478l.726-.565-3.077-.784-19.6,11.3Z" transform="translate(27.358 26.379)" fill="#a3763d"/>
        <path id="Trazado_741671" data-name="Trazado 741671" d="M53.508,59.636l1.627.052.731-.565-.947-.035Z" transform="translate(27.607 30.486)" fill="#0a0808"/>
        <path id="Trazado_741672" data-name="Trazado 741672" d="M54.305,60.191,51.96,58.832v-.82l3.3.929Z" transform="translate(26.808 29.931)" fill="#362c29"/>
        <path id="Trazado_741673" data-name="Trazado 741673" d="M74.652,51.925,55.063,63.241v-.82l11.517-7.375L74.652,51.1Z" transform="translate(28.409 26.367)" fill="#cc934c"/>
        <path id="Trazado_741674" data-name="Trazado 741674" d="M52.547,61.034,72.136,49.717l.735-.188-1.026.876L54.4,60.442l-1.129.678Z" transform="translate(27.111 25.554)" fill="#e3bd5e"/>
        <path id="Trazado_741675" data-name="Trazado 741675" d="M54.581,62.355v-.623l3.246-2.192,12.4-7.155,3.948-1.963.726,1.035L55.311,62.772Z" transform="translate(28.16 26.015)" fill="#d6a950"/>
        <path id="Trazado_741676" data-name="Trazado 741676" d="M55.382,62.193l19.594-11.31-2.351-1.354-19.6,11.31Z" transform="translate(27.358 25.554)" fill="#fbe979"/>
        <path id="Trazado_741677" data-name="Trazado 741677" d="M70.166,51.286,58.578,57.972l-1.013-.612,11.562-7Z" transform="translate(29.7 25.982)" fill="#e6e1dd"/>
        <path id="Trazado_741678" data-name="Trazado 741678" d="M60.458,55.647l-.279.158-1-.609L54.209,58.06l-.288-.159,5.257-3.036Z" transform="translate(27.82 28.307)" fill="#cc934c"/>
        <path id="Trazado_741679" data-name="Trazado 741679" d="M60.082,55.691l-4.936,2.851-1.035-.6,4.971-2.864Z" transform="translate(27.918 28.42)" fill="#a3763d"/>
        <path id="Trazado_741680" data-name="Trazado 741680" d="M65.068,50.679h.188l1.038.608.279-.17-1.317-.758Z" transform="translate(33.571 25.982)" fill="#e3bd5e"/>
        <path id="Trazado_741681" data-name="Trazado 741681" d="M69.219,50.68,57.656,57.359l-.267-.168,11.83-6.832Z" transform="translate(29.609 25.982)" fill="#cc934c"/>
        <path id="Trazado_741682" data-name="Trazado 741682" d="M57.993,57.423l5.087-2.936v-.828l-1.739.8-5.224,1.387Z" transform="translate(28.953 27.685)" fill="#0a0808"/>
        <path id="Trazado_741683" data-name="Trazado 741683" d="M57.993,56.679V56.2l-.855-1.034-1.02-.062v.488Z" transform="translate(28.953 28.429)" fill="#362c29"/>
        <path id="Trazado_741684" data-name="Trazado 741684" d="M59.406,53.85l-3.288,1.9,1.875,1.1,3.294-1.9Z" transform="translate(28.953 27.783)" fill="#574943"/>
        <path id="Trazado_741685" data-name="Trazado 741685" d="M60.168,55.412l1.795-1.386-1.88-1.082-1.8,1.372Z" transform="translate(30.072 27.316)" fill="#362c29"/>
        <path id="Trazado_741686" data-name="Trazado 741686" d="M51.96,58.538l.391-1.067.5-.288.726-.193-.55,1.122Z" transform="translate(26.808 29.404)" fill="#362c29"/>
        <path id="Trazado_741687" data-name="Trazado 741687" d="M55.215,58.636l-1.707.449V59.9l1.848-.223.509-.291v-.82Z" transform="translate(27.607 30.218)" fill="#0a0808"/>
        <path id="Trazado_741688" data-name="Trazado 741688" d="M55.134,57.883l.731,1.041-.511.294-1.846.22.379-1.116Z" transform="translate(27.607 29.864)" fill="#211a1a"/>
        <path id="Trazado_741689" data-name="Trazado 741689" d="M53.577,56.99l2.356,1.354L54.3,59.9l-2.344-1.361Z" transform="translate(26.809 29.404)" fill="#574943"/>
        <g id="Grupo_1017614" data-name="Grupo 1017614" transform="translate(0 0.001)">
          <g id="Grupo_1017613" data-name="Grupo 1017613" clip-path="url(#clip-path)">
            <g id="Grupo_1017612" data-name="Grupo 1017612" transform="translate(48.995 75.071)" opacity="0.3">
              <g id="Grupo_1017611" data-name="Grupo 1017611">
                <g id="Grupo_1017610" data-name="Grupo 1017610" clip-path="url(#clip-path-21)">
                  <path id="Trazado_741690" data-name="Trazado 741690" d="M47.651,49.521,63.556,58.71,48.227,67.572,32.32,58.39Z" transform="translate(-32.32 -49.521)"/>
                </g>
              </g>
            </g>
          </g>
        </g>
        <path id="Trazado_741691" data-name="Trazado 741691" d="M48.04,57.56,32.662,48.678V58.883l15.378,8.88Z" transform="translate(16.852 25.115)" fill="#efc58b"/>
        <path id="Trazado_741692" data-name="Trazado 741692" d="M57.626,59.089l-14.82,8.568v-10.2l14.82-8.568Z" transform="translate(22.086 25.222)" fill="#c79d5c"/>
        <path id="Trazado_741693" data-name="Trazado 741693" d="M43.57,58.748V61.5l2.379-1.375V57.372Zm.108,2.56v-2.5l2.169-1.254v2.5Z" transform="translate(22.479 29.6)" fill="#995d43"/>
        <path id="Trazado_741694" data-name="Trazado 741694" d="M44.643,58.18V58.1l-.018-.011-.035.017-.021.041v.079l-.168.1-.347.412-.2.488v.155l.716-.408v.85l-.149.252-.079.045-.149-.086v-.138l-.023-.015-.033.021-.02.038v.177l.189.112.147-.08.193-.335v-.887l.714-.414V58.35l-.2-.252-.355-.012Z" transform="translate(22.626 29.969)" fill="#995d43"/>
        <path id="Trazado_741695" data-name="Trazado 741695" d="M45.468,57.651V60.4l2.377-1.376V56.278Zm.108,2.563v-2.5l2.166-1.254v2.5Z" transform="translate(23.459 29.036)" fill="#995d43"/>
        <path id="Trazado_741696" data-name="Trazado 741696" d="M49.746,55.181l-2.379,1.375,0,2.747,2.377-1.375Zm-2.272,3.937v-2.5l2.166-1.251v2.5Z" transform="translate(24.439 28.47)" fill="#995d43"/>
        <path id="Trazado_741697" data-name="Trazado 741697" d="M45.79,57.424v.954l.173.1.082-.045v.72l-.082.05-.173.167v.011l.593-.341v-.012l-.176.033-.079.05v-.728l.079-.047.176-.3v-.949Z" transform="translate(23.625 29.452)" fill="#995d43"/>
        <path id="Trazado_741698" data-name="Trazado 741698" d="M46.377,58.035v-.89l.487-.282v.847l-.156.274L46.5,58.1Zm-.05-.922v.954l.171.1.083-.045v.725l-.083.045-.171.167v.008l.59-.338v-.012l-.173.032-.082.052V58.07l.082-.042.173-.3v-.949Z" transform="translate(23.902 29.292)" fill="#995d43"/>
        <path id="Trazado_741699" data-name="Trazado 741699" d="M48.392,55.889l-.052.091v.089l.052.026.077-.042.052-.086-.026-.009-.039.074-.055.032-.036-.023v-.062l.036-.073.055-.029.039.026.026-.032-.052-.027Z" transform="translate(24.941 28.812)" fill="#995d43"/>
        <path id="Trazado_741700" data-name="Trazado 741700" d="M47.89,56.578l-.055.091v.088l.055.03.074-.042.045-.089L48,56.647l-.041.07-.056.032-.039-.02v-.061l.039-.07.056-.03.041.026.012-.03-.045-.029Z" transform="translate(24.68 29.169)" fill="#995d43"/>
        <path id="Trazado_741701" data-name="Trazado 741701" d="M48.254,56.027l.041-.068.058-.036.044.026v.538l-.143.249Zm.03-.1-.062.1v.755l-.162.285-.243.143v.038l.252-.15.153-.262v.579l-.126.215v.217l.138.079.185-.111.135-.23v-.212l-.126-.077v-.817l.161-.285.247-.139v-.036l-.258.15-.15.265v-.521l-.062-.036Z" transform="translate(24.671 28.831)" fill="#995d43"/>
        <path id="Trazado_741702" data-name="Trazado 741702" d="M47.488,43.024l6.854,3.961.221.844,1.443.115,6.855,3.963-14.821,8.57L32.662,51.594Z" transform="translate(16.852 22.198)" fill="#f7e6bb"/>
        <path id="Trazado_741703" data-name="Trazado 741703" d="M38.839,55.16l-.625.141-1.028-1.093,14.824-8.57,1.66.958Z" transform="translate(19.186 23.546)" fill="#b88f5a"/>
        <path id="Trazado_741704" data-name="Trazado 741704" d="M38.839,54.687l-1.652-.955V51.291l1.652.952Z" transform="translate(19.186 26.463)" fill="#a16739"/>
      </g>
    </g>
  </g>
</svg>
