<svg xmlns="http://www.w3.org/2000/svg" xmlns:xlink="http://www.w3.org/1999/xlink" width="271" height="172" viewBox="0 0 271 172">
  <defs>
    <linearGradient id="linear-gradient" x1="0.5" y1="1" x2="0.5" gradientUnits="objectBoundingBox">
      <stop offset="0" stop-color="#fff"/>
      <stop offset="0.742" stop-color="#f1f1f1"/>
      <stop offset="1" stop-color="#fff"/>
    </linearGradient>
    <clipPath id="clip-path">
      <rect id="Rectángulo_352782" data-name="Rectángulo 352782" width="130.529" height="140.631" fill="none"/>
    </clipPath>
    <clipPath id="clip-path-2">
      <rect id="Rectángulo_352781" data-name="Rectángulo 352781" width="130.529" height="140.63" fill="none"/>
    </clipPath>
    <clipPath id="clip-path-3">
      <rect id="Rectángulo_352758" data-name="Rectángulo 352758" width="118.438" height="119.282" fill="none"/>
    </clipPath>
    <clipPath id="clip-path-4">
      <rect id="Rectángulo_352780" data-name="Rectángulo 352780" width="6.438" height="0.485" fill="none"/>
    </clipPath>
  </defs>
  <g id="Grupo_1019119" data-name="Grupo 1019119" transform="translate(-329 -5279)">
    <rect id="hombre-negocios-dibuja-grafico-crecimiento-progreso-negocios-analiza-finanzas-inversion" width="271" height="172" rx="10" transform="translate(329 5279)" fill="url(#linear-gradient)"/>
    <g id="Grupo_1015542" data-name="Grupo 1015542" transform="translate(399.497 5295)">
      <g id="Grupo_1013047" data-name="Grupo 1013047" clip-path="url(#clip-path)">
        <g id="Grupo_1013046" data-name="Grupo 1013046" transform="translate(0 0)">
          <g id="Grupo_1013045" data-name="Grupo 1013045" clip-path="url(#clip-path-2)">
            <g id="Grupo_1013041" data-name="Grupo 1013041" transform="translate(12.091)" opacity="0.75">
              <g id="Grupo_1013040" data-name="Grupo 1013040">
                <g id="Grupo_1013039" data-name="Grupo 1013039" clip-path="url(#clip-path-3)">
                  <rect id="Rectángulo_352717" data-name="Rectángulo 352717" width="88.87" height="1.893" transform="translate(2.322 89.553)" fill="#6686b5"/>
                  <rect id="Rectángulo_352718" data-name="Rectángulo 352718" width="2.322" height="119.282" transform="translate(31.149)" fill="#6686b5"/>
                  <rect id="Rectángulo_352719" data-name="Rectángulo 352719" width="88.87" height="1.892" transform="translate(2.322 49.274)" fill="#6686b5"/>
                  <rect id="Rectángulo_352720" data-name="Rectángulo 352720" width="19.763" height="21.611" transform="translate(88.451 47.668)" fill="#f8c187"/>
                  <rect id="Rectángulo_352721" data-name="Rectángulo 352721" width="3.701" height="21.611" transform="translate(108.214 47.668)" fill="#f7a374"/>
                  <rect id="Rectángulo_352722" data-name="Rectángulo 352722" width="5.521" height="2.241" transform="translate(91.892 51.739)" fill="#fff"/>
                  <rect id="Rectángulo_352723" data-name="Rectángulo 352723" width="27.512" height="21.326" transform="translate(79.049 86.621)" fill="#f8c187"/>
                  <rect id="Rectángulo_352724" data-name="Rectángulo 352724" width="5.364" height="21.326" transform="translate(106.562 86.621)" fill="#f7a374"/>
                  <rect id="Rectángulo_352725" data-name="Rectángulo 352725" width="5.464" height="2.346" transform="translate(80.696 94.041)" fill="#fff"/>
                  <rect id="Rectángulo_352726" data-name="Rectángulo 352726" width="36.171" height="11.147" transform="translate(69.134 19.473)" fill="#f8c187"/>
                  <rect id="Rectángulo_352727" data-name="Rectángulo 352727" width="3.543" height="11.147" transform="translate(105.305 19.471)" fill="#f7a374"/>
                  <rect id="Rectángulo_352728" data-name="Rectángulo 352728" width="10.038" height="2.474" transform="translate(71.792 22.572)" fill="#fff"/>
                  <rect id="Rectángulo_352729" data-name="Rectángulo 352729" width="80.066" height="3.957" transform="translate(6.724 107.947)" fill="#9db1d0"/>
                  <path id="Trazado_732970" data-name="Trazado 732970" d="M81.018,89.427l-4.4-1.83V83.64h4.4Z" transform="translate(10.175 24.307)" fill="#9db1d0"/>
                  <path id="Trazado_732971" data-name="Trazado 732971" d="M11.167,89.427l4.4-1.83V83.64h-4.4Z" transform="translate(-8.845 24.307)" fill="#9db1d0"/>
                  <path id="Trazado_732972" data-name="Trazado 732972" d="M19.424,85.419a1.093,1.093,0,1,1-1.093-1.094,1.093,1.093,0,0,1,1.093,1.094" transform="translate(-7.081 24.506)" fill="#6686b5"/>
                  <path id="Trazado_732973" data-name="Trazado 732973" d="M28.6,85.419A1.093,1.093,0,1,1,27.5,84.325,1.094,1.094,0,0,1,28.6,85.419" transform="translate(-4.416 24.506)" fill="#6686b5"/>
                  <path id="Trazado_732974" data-name="Trazado 732974" d="M37.765,85.419a1.093,1.093,0,1,1-1.093-1.094,1.093,1.093,0,0,1,1.093,1.094" transform="translate(-1.751 24.506)" fill="#6686b5"/>
                  <path id="Trazado_732975" data-name="Trazado 732975" d="M46.936,85.419a1.093,1.093,0,1,1-1.093-1.094,1.093,1.093,0,0,1,1.093,1.094" transform="translate(0.914 24.506)" fill="#6686b5"/>
                  <path id="Trazado_732976" data-name="Trazado 732976" d="M56.107,85.419a1.093,1.093,0,1,1-1.093-1.094,1.093,1.093,0,0,1,1.093,1.094" transform="translate(3.58 24.506)" fill="#6686b5"/>
                  <path id="Trazado_732977" data-name="Trazado 732977" d="M65.278,85.419a1.093,1.093,0,1,1-1.093-1.094,1.093,1.093,0,0,1,1.093,1.094" transform="translate(6.245 24.506)" fill="#6686b5"/>
                  <path id="Trazado_732978" data-name="Trazado 732978" d="M74.448,85.419a1.093,1.093,0,1,1-1.093-1.094,1.093,1.093,0,0,1,1.093,1.094" transform="translate(8.91 24.506)" fill="#6686b5"/>
                  <rect id="Rectángulo_352730" data-name="Rectángulo 352730" width="80.066" height="3.956" transform="translate(6.724 69.284)" fill="#9db1d0"/>
                  <path id="Trazado_732979" data-name="Trazado 732979" d="M81.018,59.471l-4.4-1.831V53.684h4.4Z" transform="translate(10.175 15.601)" fill="#9db1d0"/>
                  <path id="Trazado_732980" data-name="Trazado 732980" d="M11.167,59.471l4.4-1.831V53.684h-4.4Z" transform="translate(-8.845 15.601)" fill="#9db1d0"/>
                  <path id="Trazado_732981" data-name="Trazado 732981" d="M19.424,55.462a1.093,1.093,0,1,1-1.093-1.093,1.094,1.094,0,0,1,1.093,1.093" transform="translate(-7.081 15.8)" fill="#6686b5"/>
                  <path id="Trazado_732982" data-name="Trazado 732982" d="M28.6,55.462A1.093,1.093,0,1,1,27.5,54.369,1.095,1.095,0,0,1,28.6,55.462" transform="translate(-4.416 15.8)" fill="#6686b5"/>
                  <path id="Trazado_732983" data-name="Trazado 732983" d="M37.765,55.462a1.093,1.093,0,1,1-1.093-1.093,1.094,1.094,0,0,1,1.093,1.093" transform="translate(-1.751 15.8)" fill="#6686b5"/>
                  <path id="Trazado_732984" data-name="Trazado 732984" d="M46.936,55.462a1.093,1.093,0,1,1-1.093-1.093,1.094,1.094,0,0,1,1.093,1.093" transform="translate(0.914 15.8)" fill="#6686b5"/>
                  <path id="Trazado_732985" data-name="Trazado 732985" d="M56.107,55.462a1.093,1.093,0,1,1-1.093-1.093,1.094,1.094,0,0,1,1.093,1.093" transform="translate(3.58 15.8)" fill="#6686b5"/>
                  <path id="Trazado_732986" data-name="Trazado 732986" d="M65.278,55.462a1.093,1.093,0,1,1-1.093-1.093,1.094,1.094,0,0,1,1.093,1.093" transform="translate(6.245 15.8)" fill="#6686b5"/>
                  <path id="Trazado_732987" data-name="Trazado 732987" d="M74.448,55.462a1.093,1.093,0,1,1-1.093-1.093,1.094,1.094,0,0,1,1.093,1.093" transform="translate(8.91 15.8)" fill="#6686b5"/>
                  <rect id="Rectángulo_352731" data-name="Rectángulo 352731" width="80.066" height="3.956" transform="translate(6.724 30.62)" fill="#9db1d0"/>
                  <path id="Trazado_732988" data-name="Trazado 732988" d="M81.018,29.512l-4.4-1.831V23.725h4.4Z" transform="translate(10.175 6.895)" fill="#9db1d0"/>
                  <path id="Trazado_732989" data-name="Trazado 732989" d="M11.167,29.512l4.4-1.831V23.725h-4.4Z" transform="translate(-8.845 6.895)" fill="#9db1d0"/>
                  <path id="Trazado_732990" data-name="Trazado 732990" d="M19.424,25.5a1.093,1.093,0,1,1-1.093-1.093A1.093,1.093,0,0,1,19.424,25.5" transform="translate(-7.081 7.094)" fill="#6686b5"/>
                  <path id="Trazado_732991" data-name="Trazado 732991" d="M28.6,25.5A1.093,1.093,0,1,1,27.5,24.41,1.094,1.094,0,0,1,28.6,25.5" transform="translate(-4.416 7.094)" fill="#6686b5"/>
                  <path id="Trazado_732992" data-name="Trazado 732992" d="M37.765,25.5a1.093,1.093,0,1,1-1.093-1.093A1.093,1.093,0,0,1,37.765,25.5" transform="translate(-1.751 7.094)" fill="#6686b5"/>
                  <path id="Trazado_732993" data-name="Trazado 732993" d="M46.936,25.5a1.093,1.093,0,1,1-1.093-1.093A1.093,1.093,0,0,1,46.936,25.5" transform="translate(0.914 7.094)" fill="#6686b5"/>
                  <path id="Trazado_732994" data-name="Trazado 732994" d="M56.107,25.5a1.093,1.093,0,1,1-1.093-1.093A1.093,1.093,0,0,1,56.107,25.5" transform="translate(3.58 7.094)" fill="#6686b5"/>
                  <path id="Trazado_732995" data-name="Trazado 732995" d="M65.278,25.5a1.093,1.093,0,1,1-1.093-1.093A1.093,1.093,0,0,1,65.278,25.5" transform="translate(6.245 7.094)" fill="#6686b5"/>
                  <path id="Trazado_732996" data-name="Trazado 732996" d="M74.448,25.5a1.093,1.093,0,1,1-1.093-1.093A1.093,1.093,0,0,1,74.448,25.5" transform="translate(8.91 7.094)" fill="#6686b5"/>
                  <rect id="Rectángulo_352732" data-name="Rectángulo 352732" width="2.322" height="119.282" transform="translate(0)" fill="#859ec4"/>
                  <rect id="Rectángulo_352733" data-name="Rectángulo 352733" width="2.322" height="119.282" transform="translate(91.192)" fill="#859ec4"/>
                  <rect id="Rectángulo_352734" data-name="Rectángulo 352734" width="2.322" height="119.282" transform="translate(116.116)" fill="#6686b5"/>
                  <rect id="Rectángulo_352735" data-name="Rectángulo 352735" width="88.87" height="1.892" transform="translate(2.322 12.605)" fill="#9db1d0"/>
                  <rect id="Rectángulo_352736" data-name="Rectángulo 352736" width="34.621" height="19.065" transform="translate(3.992 50.219)" fill="#f8c187"/>
                  <rect id="Rectángulo_352737" data-name="Rectángulo 352737" width="4.831" height="19.065" transform="translate(38.611 50.219)" fill="#f7a374"/>
                  <rect id="Rectángulo_352738" data-name="Rectángulo 352738" width="6.844" height="4.299" transform="translate(7.195 52.143)" fill="#fff"/>
                  <rect id="Rectángulo_352739" data-name="Rectángulo 352739" width="4.475" height="1.843" transform="translate(25.621 61.97)" fill="#fff"/>
                  <rect id="Rectángulo_352740" data-name="Rectángulo 352740" width="17.925" height="26.127" transform="translate(59.901 43.157)" fill="#f8c187"/>
                  <rect id="Rectángulo_352741" data-name="Rectángulo 352741" width="5.532" height="26.127" transform="translate(77.827 43.157)" fill="#f7a374"/>
                  <rect id="Rectángulo_352742" data-name="Rectángulo 352742" width="4.287" height="2.543" transform="translate(62.45 47.677)" fill="#fff"/>
                  <rect id="Rectángulo_352743" data-name="Rectángulo 352743" width="14.67" height="21.383" transform="translate(4.524 9.211)" fill="#f8c187"/>
                  <rect id="Rectángulo_352744" data-name="Rectángulo 352744" width="4.527" height="21.383" transform="translate(19.193 9.211)" fill="#f7a374"/>
                  <rect id="Rectángulo_352745" data-name="Rectángulo 352745" width="3.508" height="2.08" transform="translate(6.609 12.911)" fill="#fff"/>
                  <path id="Trazado_732997" data-name="Trazado 732997" d="M81.826,23.724v5.787l1.458-1.831h19.684l1.458,1.831V23.724Z" transform="translate(11.689 6.895)" fill="#6686b5"/>
                  <path id="Trazado_732998" data-name="Trazado 732998" d="M84.2,25.486a1.018,1.018,0,1,1-1.018-1.018A1.019,1.019,0,0,1,84.2,25.486" transform="translate(11.788 7.111)" fill="#304768"/>
                  <path id="Trazado_732999" data-name="Trazado 732999" d="M91.83,25.486a1.018,1.018,0,1,1-1.018-1.018,1.018,1.018,0,0,1,1.018,1.018" transform="translate(14.005 7.111)" fill="#304768"/>
                  <path id="Trazado_733000" data-name="Trazado 733000" d="M99.455,25.486a1.018,1.018,0,1,1-1.018-1.018,1.019,1.019,0,0,1,1.018,1.018" transform="translate(16.221 7.111)" fill="#304768"/>
                  <path id="Trazado_733001" data-name="Trazado 733001" d="M81.826,53.683V59.47l1.458-1.831h19.684l1.458,1.831V53.683Z" transform="translate(11.689 15.601)" fill="#6686b5"/>
                  <path id="Trazado_733002" data-name="Trazado 733002" d="M84.2,55.445a1.018,1.018,0,1,1-1.018-1.018A1.019,1.019,0,0,1,84.2,55.445" transform="translate(11.788 15.817)" fill="#304768"/>
                  <path id="Trazado_733003" data-name="Trazado 733003" d="M91.83,55.445a1.018,1.018,0,1,1-1.018-1.018,1.018,1.018,0,0,1,1.018,1.018" transform="translate(14.005 15.817)" fill="#304768"/>
                  <path id="Trazado_733004" data-name="Trazado 733004" d="M99.455,55.445a1.018,1.018,0,1,1-1.018-1.018,1.019,1.019,0,0,1,1.018,1.018" transform="translate(16.221 15.817)" fill="#304768"/>
                  <path id="Trazado_733005" data-name="Trazado 733005" d="M81.826,83.64v5.787l1.458-1.83h19.684l1.458,1.83V83.64Z" transform="translate(11.689 24.307)" fill="#6686b5"/>
                  <path id="Trazado_733006" data-name="Trazado 733006" d="M84.2,85.4a1.018,1.018,0,1,1-1.018-1.018A1.019,1.019,0,0,1,84.2,85.4" transform="translate(11.788 24.523)" fill="#304768"/>
                  <path id="Trazado_733007" data-name="Trazado 733007" d="M91.83,85.4a1.018,1.018,0,1,1-1.018-1.018A1.018,1.018,0,0,1,91.83,85.4" transform="translate(14.005 24.523)" fill="#304768"/>
                  <path id="Trazado_733008" data-name="Trazado 733008" d="M99.455,85.4a1.018,1.018,0,1,1-1.018-1.018A1.019,1.019,0,0,1,99.455,85.4" transform="translate(16.221 24.523)" fill="#304768"/>
                  <rect id="Rectángulo_352746" data-name="Rectángulo 352746" width="22.601" height="1.892" transform="translate(93.515 12.605)" fill="#6686b5"/>
                  <rect id="Rectángulo_352747" data-name="Rectángulo 352747" width="37.157" height="24.646" transform="translate(9.406 83.301)" fill="#f8c187"/>
                  <rect id="Rectángulo_352748" data-name="Rectángulo 352748" width="4.223" height="24.646" transform="translate(46.563 83.301)" fill="#f7a374"/>
                  <rect id="Rectángulo_352749" data-name="Rectángulo 352749" width="6.297" height="2.555" transform="translate(13.331 87.945)" fill="#fff"/>
                  <rect id="Rectángulo_352750" data-name="Rectángulo 352750" width="18.294" height="20.003" transform="translate(43.442 87.944)" fill="#f8c187"/>
                  <rect id="Rectángulo_352751" data-name="Rectángulo 352751" width="3.427" height="20.003" transform="translate(61.736 87.944)" fill="#f7a374"/>
                  <rect id="Rectángulo_352752" data-name="Rectángulo 352752" width="5.111" height="2.073" transform="translate(46.627 91.714)" fill="#fff"/>
                  <rect id="Rectángulo_352753" data-name="Rectángulo 352753" width="29.418" height="22.806" transform="translate(26.468 7.788)" fill="#f8c187"/>
                  <rect id="Rectángulo_352754" data-name="Rectángulo 352754" width="5.734" height="22.806" transform="translate(55.886 7.788)" fill="#f7a374"/>
                  <rect id="Rectángulo_352755" data-name="Rectángulo 352755" width="5.843" height="2.51" transform="translate(28.228 15.722)" fill="#fff"/>
                  <rect id="Rectángulo_352756" data-name="Rectángulo 352756" width="22.601" height="1.892" transform="translate(93.515 49.274)" fill="#6686b5"/>
                  <rect id="Rectángulo_352757" data-name="Rectángulo 352757" width="22.601" height="1.893" transform="translate(93.515 89.553)" fill="#6686b5"/>
                </g>
              </g>
            </g>
            <path id="Trazado_733009" data-name="Trazado 733009" d="M21.143,18.895s-.4-.392-2.335-.509c.438,2.213.466,1.973.466,1.973l2.02-.607Z" transform="translate(5.466 5.343)" fill="#a0b5e0"/>
            <path id="Trazado_733010" data-name="Trazado 733010" d="M13.375,19.036s.221-.545,1.568-.808,1.55,1.382,1.55,1.382l-1.271,1.149-1.847-1.052Z" transform="translate(3.887 5.289)" fill="#a0b5e0"/>
            <path id="Trazado_733011" data-name="Trazado 733011" d="M21.47,22.848l-7.326.074L15.1,11.646h5.414Z" transform="translate(4.111 3.385)" fill="#f1a19a"/>
            <path id="Trazado_733012" data-name="Trazado 733012" d="M21.875,11.382a3.81,3.81,0,0,1,.074,1.027c-.034.507-.072.949-.1,1.267a.471.471,0,0,1-.685.373,2.581,2.581,0,0,1-1.313-2.006,2.653,2.653,0,0,1,.711-2.416.689.689,0,0,1,.284-.1.531.531,0,0,1,.408.119,3.412,3.412,0,0,1,.623,1.732" transform="translate(5.762 2.769)" fill="#f1a19a"/>
            <path id="Trazado_733013" data-name="Trazado 733013" d="M11.717,16.395a.471.471,0,0,1-.78-.005c-.177-.267-.419-.636-.689-1.069a3.845,3.845,0,0,1-.421-.941c-.284-.969-.447-1.6-.208-1.932a.561.561,0,0,1,.243-.186.688.688,0,0,1,.367-.043c.579.079,1.275.783,1.7,1.788a2.585,2.585,0,0,1-.21,2.388" transform="translate(2.762 3.549)" fill="#f1a19a"/>
            <path id="Trazado_733014" data-name="Trazado 733014" d="M23.546,10.527c0,.049.006.1.009.143.125,2.434,1.113,3.913,1.094,5.574-.018,1.677-2.265,5.439-3.944,7.012a1.178,1.178,0,0,1-.524.288l-1.094.275a1.206,1.206,0,0,1-.6-.005c-2.224-.594-5.981-2.848-6.789-4.318-.65-1.183-.66-2.573-1.2-4.236q-.054-.168-.116-.341c-.1-.276-.217-.56-.354-.852-.021-.044-.041-.088-.061-.132a6.331,6.331,0,0,1,3.055-8.244c.1-.05.21-.1.319-.142a6.387,6.387,0,0,1,.892-.294l1.449-.364a6.328,6.328,0,0,1,7.86,5.636" transform="translate(2.741 1.365)" fill="#f6c1af"/>
            <path id="Trazado_733015" data-name="Trazado 733015" d="M16.31,15.343c-.059-.106-.115-.216-.166-.325s-.1-.222-.148-.334c-.093-.225-.179-.453-.254-.685a9.244,9.244,0,0,1-.348-1.421,7.794,7.794,0,0,1-.1-1.46c0-.123.01-.245.018-.367.005-.061.013-.121.018-.182l.01-.092c0-.03.008-.059.013-.09l.026-.181.035-.179.018-.09.021-.089.045-.177-.03.181-.014.089-.012.092-.023.179-.015.181c0,.03-.006.061-.009.09l-.005.092c0,.061-.008.12-.01.181,0,.121-.008.243-.005.363s.005.241.009.363c0,.061.008.121.012.181l.005.09.009.09c.018.241.05.48.089.719.009.061.018.12.03.179l.032.178c.026.119.049.237.077.354.053.237.115.471.183.7s.143.465.225.693c.04.112.084.227.128.339.022.057.045.114.068.169s.046.112.072.168" transform="translate(4.443 2.811)" fill="#f1a19a"/>
            <path id="Trazado_733016" data-name="Trazado 733016" d="M14.714,12.31c-.156.1-.324.191-.5.28a14.337,14.337,0,0,1-1.652.693c-.377.133-.631.209-.631.209s-.528-.5-.489-.685a2.58,2.58,0,0,1,1.368-1.55,3.23,3.23,0,0,1,1.79.312s.221.5.114.741" transform="translate(3.325 3.266)" fill="#fff"/>
            <path id="Trazado_733017" data-name="Trazado 733017" d="M14.6,11.582a3.5,3.5,0,0,0-.435-.143c-.148-.035-.185-.044-.223-.05l-.111-.021-.114-.017a3.491,3.491,0,0,0-.45-.034c-.112,0-.226,0-.226,0a1.1,1.1,0,0,0-.112.009l-.112.009a3.11,3.11,0,0,0-.422.259c-.035.025-.068.053-.1.079s-.066.054-.1.084c-.065.058-.128.119-.187.181s-.116.13-.169.2a2.275,2.275,0,0,0-.152.213,2.5,2.5,0,0,0-.134.227c-.021.039-.041.077-.058.117a1.234,1.234,0,0,0-.049.124,1.3,1.3,0,0,1,.07-.258,2.345,2.345,0,0,1,.11-.247,2.608,2.608,0,0,1,.137-.232,2.434,2.434,0,0,1,.163-.217c.058-.07.121-.136.186-.2a2.693,2.693,0,0,1,.206-.176c.036-.03.074-.054.11-.081l.058-.037c.018-.013.037-.025.057-.036a2.7,2.7,0,0,1,.241-.129c.021-.006.138-.015.138-.015.039,0,.079-.006.119-.005h.116c.235.012.351.025.351.025.155.023.194.03.231.039l.115.026.112.031c.074.022.148.044.222.074a2.336,2.336,0,0,1,.416.2" transform="translate(3.326 3.251)" fill="#f1a19a"/>
            <path id="Trazado_733018" data-name="Trazado 733018" d="M19.762,11.526s-.232.048-.59.1a14.082,14.082,0,0,1-1.8.178,5.781,5.781,0,0,1-.619-.009c-.208-.161-.249-.706-.249-.706a3.235,3.235,0,0,1,1.43-1.122,2.574,2.574,0,0,1,1.937.721c.124.148-.106.835-.106.835" transform="translate(4.795 2.896)" fill="#fff"/>
            <path id="Trazado_733019" data-name="Trazado 733019" d="M16.5,11.107a2.153,2.153,0,0,1,.271-.376c.05-.059.106-.115.16-.17l.085-.079c.028-.027.059-.053.088-.077s.061-.049.092-.074c.094-.07.191-.136.191-.136.2-.121.3-.176.3-.176.035-.019.071-.035.106-.05l.108-.048a1.909,1.909,0,0,1,.294-.005l.068.005.068.005.134.018a2.664,2.664,0,0,1,.267.059c.086.026.173.054.257.088a2.512,2.512,0,0,1,.247.115,2.591,2.591,0,0,1,.23.139,2.242,2.242,0,0,1,.213.166,1.247,1.247,0,0,1,.185.194c-.032-.03-.067-.058-.1-.085s-.071-.053-.107-.077c-.074-.049-.148-.094-.226-.137s-.155-.081-.235-.115-.161-.067-.243-.094-.165-.052-.25-.072c-.041-.01-.084-.019-.126-.027s-.085-.015-.128-.021a2.892,2.892,0,0,0-.518-.025c.022-.005-.081.04-.081.04-.035.015-.068.028-.1.046l-.1.049a3.836,3.836,0,0,0-.48.3c-.031.022-.062.044-.092.067l-.089.07c-.03.025-.058.05-.086.075a3.781,3.781,0,0,0-.4.408" transform="translate(4.795 2.881)" fill="#f1a19a"/>
            <path id="Trazado_733020" data-name="Trazado 733020" d="M24.48,11.254a.525.525,0,0,0-.408-.117.669.669,0,0,0-.284.1s-1.8-4.416-4.037-3.539-2.608-1.975-6.391.036c-3.171,1.687-3.042,5.551-2.917,6.755a.1.1,0,0,1-.1.111.664.664,0,0,0-.252.052.548.548,0,0,0-.244.186,13.679,13.679,0,0,1-1.034-3.686C8.159,7.526,11.092,5.3,14.833,4.383c7.123-1.742,8.941,3.107,8.941,3.107a15.418,15.418,0,0,1,.706,3.765" transform="translate(2.535 1.164)" fill="#a95c3e"/>
            <path id="Trazado_733021" data-name="Trazado 733021" d="M10.18,13.091s.661-4.027,4.327-3.55,6.576.014,5.659-3.731c-.539-2.206-3.214-3.174-3.214-3.174s1.439,1.279.977,2.206a3.785,3.785,0,0,0-2.571-2.333c.73.752.472,2.495.472,2.495s-.169-1.3-1.044-1.7a2.19,2.19,0,0,1-1.009,2.437c-1.012.412-5.863,3.246-3.6,7.35" transform="translate(2.785 0.729)" fill="#bf6449"/>
            <path id="Trazado_733022" data-name="Trazado 733022" d="M17.462,16.953a4.413,4.413,0,0,1-.9.277.067.067,0,0,1-.079-.053.065.065,0,0,1,.053-.079,4.041,4.041,0,0,0,1.88-.9.067.067,0,0,1,.088.1,3.9,3.9,0,0,1-1.042.653" transform="translate(4.79 4.703)" fill="#f1a19a"/>
            <path id="Trazado_733023" data-name="Trazado 733023" d="M15.647,15.268a.333.333,0,0,1-.12-.492,1.224,1.224,0,0,1,.644-.507,1.229,1.229,0,0,1,.809.142.334.334,0,0,1,.126.49,1.13,1.13,0,0,1-.683.368,1.14,1.14,0,0,1-.777,0" transform="translate(4.494 4.14)" fill="#f1a19a"/>
            <path id="Trazado_733024" data-name="Trazado 733024" d="M10.779,12.279a1.267,1.267,0,0,1,.114-.308,2.062,2.062,0,0,1,.176-.283,2.834,2.834,0,0,1,.453-.485,3.958,3.958,0,0,1,.539-.387,4.944,4.944,0,0,1,.589-.3c.206-.059.392-.11.581-.151s.377-.081.567-.115.381-.062.573-.084.385-.037.579-.04c-.182.072-.363.137-.545.2s-.364.121-.546.181l-.546.169-.274.081-.274.081c-.172.077-.359.166-.542.265a6.026,6.026,0,0,0-.534.32,4.518,4.518,0,0,0-.492.382,2.471,2.471,0,0,0-.418.476" transform="translate(3.133 2.943)" fill="#a95c3e"/>
            <path id="Trazado_733025" data-name="Trazado 733025" d="M20.439,9.851a1.213,1.213,0,0,0-.244-.222,1.983,1.983,0,0,0-.285-.17,2.9,2.9,0,0,0-.627-.221,3.734,3.734,0,0,0-.656-.094,4.516,4.516,0,0,0-.661.006c-.21.041-.4.085-.585.133s-.372.1-.556.16-.365.121-.546.19-.359.145-.533.232c.195-.019.385-.046.576-.075s.377-.061.565-.093.377-.067.564-.1l.28-.053.28-.054c.187-.01.395-.018.6-.015a6.212,6.212,0,0,1,.621.037,4.3,4.3,0,0,1,.613.112,2.419,2.419,0,0,1,.591.23" transform="translate(4.576 2.655)" fill="#a95c3e"/>
            <rect id="Rectángulo_352759" data-name="Rectángulo 352759" width="1.788" height="0.304" transform="translate(18.664 13.971) rotate(-13.735)" fill="#3c4f7a"/>
            <path id="Trazado_733026" data-name="Trazado 733026" d="M11.342,11.677l.044.17-1.3.694a.161.161,0,0,1-.206-.062.153.153,0,0,1,.062-.206l1.389-.74a.492.492,0,0,0,.014.143" transform="translate(2.865 3.352)" fill="#3c4f7a"/>
            <path id="Trazado_733027" data-name="Trazado 733027" d="M20.984,9.687a.151.151,0,0,1-.116.146c-.037,0-1.567-.012-1.567-.012l-.037-.159a.5.5,0,0,0-.062-.147l1.631.017a.154.154,0,0,1,.151.155" transform="translate(5.58 2.765)" fill="#3c4f7a"/>
            <path id="Trazado_733028" data-name="Trazado 733028" d="M15.522,10.832a.467.467,0,0,0-.214-.29.474.474,0,0,0-.355-.053l-3.584.9a.494.494,0,0,0-.372.453.5.5,0,0,0,.014.145l.044.17.284,1.131a1.173,1.173,0,0,0,1.416.853l1.577-.395a1.863,1.863,0,0,0,1.354-2.262Zm-.176,1.984A1.705,1.705,0,0,1,14.3,13.6l-1.571.394a1.023,1.023,0,0,1-1.239-.741l-.3-1.173-.031-.128a.344.344,0,0,1-.009-.12.34.34,0,0,1,.256-.292l3.581-.9a.315.315,0,0,1,.241.036.3.3,0,0,1,.145.195l.164.652a1.7,1.7,0,0,1-.191,1.3" transform="translate(3.196 3.044)" fill="#3c4f7a"/>
            <path id="Trazado_733029" data-name="Trazado 733029" d="M20.212,9.568a.491.491,0,0,0-.53-.217l-3.592.854a.471.471,0,0,0-.35.568l.155.653a1.862,1.862,0,0,0,2.246,1.381l1.573-.374a1.177,1.177,0,0,0,.871-1.413l-.274-1.146-.037-.159a.5.5,0,0,0-.062-.147m.225,1.487a1.022,1.022,0,0,1-.75,1.229L18.1,12.66a1.712,1.712,0,0,1-2.061-1.269l-.155-.653a.311.311,0,0,1,.039-.241.318.318,0,0,1,.195-.143L19.716,9.5a.332.332,0,0,1,.257.04.372.372,0,0,1,.089.079.356.356,0,0,1,.063.132l.028.121Z" transform="translate(4.57 2.713)" fill="#3c4f7a"/>
            <path id="Trazado_733030" data-name="Trazado 733030" d="M13.993,12.44a14.337,14.337,0,0,1-1.652.693.885.885,0,0,1-.137-.476.908.908,0,0,1,1.789-.217" transform="translate(3.547 3.415)" fill="#4a1c0f"/>
            <path id="Trazado_733031" data-name="Trazado 733031" d="M18.979,11.445a14.082,14.082,0,0,1-1.8.178.709.709,0,0,1-.009-.117.907.907,0,0,1,1.812-.061" transform="translate(4.989 3.08)" fill="#4a1c0f"/>
            <path id="Trazado_733032" data-name="Trazado 733032" d="M13.8,12.013a.361.361,0,1,1-.36-.36.36.36,0,0,1,.36.36" transform="translate(3.802 3.387)" fill="#fff"/>
            <path id="Trazado_733033" data-name="Trazado 733033" d="M18.876,10.856a.361.361,0,1,1-.36-.36.36.36,0,0,1,.36.36" transform="translate(5.276 3.05)" fill="#fff"/>
            <path id="Trazado_733034" data-name="Trazado 733034" d="M45.225,37.992l2-4.364s-9.841-9.032-20.6-11.417L25.6,30.729s6.6.847,19.623,7.264" transform="translate(7.44 6.455)" fill="#a0b5e0"/>
            <path id="Trazado_733035" data-name="Trazado 733035" d="M9.2,22.213a17.1,17.1,0,0,0-2.915,3.454C2.849,30.787,0,40.988,0,43.632s4.641,1.751,4.641,1.751c1.76-4.965,6.185-8.859,7.589-13.665S9.2,22.213,9.2,22.213" transform="translate(0 6.455)" fill="#a0b5e0"/>
            <path id="Trazado_733036" data-name="Trazado 733036" d="M17.526,20.347l-.068,1.193-.444-1.187.512-.005" transform="translate(4.945 5.913)" fill="#f1a19a"/>
            <path id="Trazado_733037" data-name="Trazado 733037" d="M32.329,54.821c.128.511.261.987.4,1.418H8.544c.861-3.569.869-10.165.811-13.46C9.334,41.565,9.3,40.8,9.3,40.8s-2.95-6.6-2.95-11.119a60.241,60.241,0,0,1,1-6.92S14.1,20.4,16.133,20.4c.98,0,2.292-.017,3.65-.035l.329-.005.443,1.187.07-1.193h.111c1.146-.015,2.281-.027,3.232-.027.471.083,1,.2,1.562.341,1.615.4,3.469,1,4.817,1.444,1.113.373,1.879.65,1.879.65l.333,2.29a22.938,22.938,0,0,1-.524,9.156L30.291,40.8c-.012,0,.231,2.833.676,6.232a75.149,75.149,0,0,0,1.362,7.788Z" transform="translate(1.846 5.907)" fill="#acbfe2"/>
            <path id="Trazado_733038" data-name="Trazado 733038" d="M19.589,37.172l-.327,1.185a3.873,3.873,0,0,1-2.905,2.754A7.891,7.891,0,0,0,10.3,47.287c-.236,1.186-.485,2.554-.727,4.082A112.057,112.057,0,0,0,8.2,68.692a168.838,168.838,0,0,0,3.229,30.455A106.066,106.066,0,0,1,7.177,81.974c.338,11.565-2,36.459-2.07,37.18.458-7.477.751-18.835.752-18.918-.1-4.527-.235-8.406-.235-11.27,0-.965.014-1.815.053-2.536,0,0,.546-18.914,1.729-28.689a27.511,27.511,0,0,1,1.5-6.372,56.743,56.743,0,0,0,.831-11.163,43.735,43.735,0,0,0,4.52-1.884c.013-.173.021-.347.022-.521.907-.428,1.456-.71,1.456-.71-.005-.023.022,0,.058.01l.888.179a4.694,4.694,0,0,0,1.806.013c.234-.032.687-.08,1.1-.121" transform="translate(1.484 10.776)" fill="#a0b5e0"/>
            <rect id="Rectángulo_352760" data-name="Rectángulo 352760" width="18.747" height="18.707" transform="translate(28.654 52.694) rotate(-86.646)" fill="#f8c187"/>
            <path id="Trazado_733039" data-name="Trazado 733039" d="M43.979,46.81l-7.307-.92,1.1-18.714,7.309.919Z" transform="translate(10.657 7.898)" fill="#f7a374"/>
            <path id="Trazado_733040" data-name="Trazado 733040" d="M13.843,37.883s-.355.182-.965.476l-.489.234a9.187,9.187,0,0,0-.151-1.6,13.671,13.671,0,0,0-.621-2.275l.372-.1q.474-.122.994-.259c.013.054.521,2.139.521,2.139l.324,1.327.015.059" transform="translate(3.376 9.985)" fill="#f6c1af"/>
            <path id="Trazado_733041" data-name="Trazado 733041" d="M19.358,32.258l-.074.276a1.024,1.024,0,0,1-.076.208,1.211,1.211,0,0,1-1.1.7H14.168a1.217,1.217,0,0,1-1.176-.9l-.072-.276Z" transform="translate(3.755 9.375)" fill="#9db1d0"/>
            <path id="Trazado_733042" data-name="Trazado 733042" d="M23.627,32.829H12.516a1.269,1.269,0,0,1,0-2.537H23.627a1.269,1.269,0,1,1,0,2.537" transform="translate(3.269 8.803)" fill="#6686b5"/>
            <path id="Trazado_733043" data-name="Trazado 733043" d="M22.151,32.829H17.6a1.269,1.269,0,1,1,0-2.537h4.555a1.269,1.269,0,0,1,0,2.537" transform="translate(4.745 8.803)" fill="#859ec4"/>
            <path id="Trazado_733044" data-name="Trazado 733044" d="M22.4,31.706H17.1a.351.351,0,0,1,0-.7h5.3a.351.351,0,0,1,0,.7" transform="translate(4.868 9.01)" fill="#fff"/>
            <path id="Trazado_733045" data-name="Trazado 733045" d="M14.613,40.446a1.1,1.1,0,0,1-1.08-1.314L14.7,33.173h2.855l-1.136,5.785a1.842,1.842,0,0,1-1.808,1.488" transform="translate(3.927 9.641)" fill="#6686b5"/>
            <path id="Trazado_733046" data-name="Trazado 733046" d="M17.951,36.564a.888.888,0,0,1-.3.932.864.864,0,0,1-.755.652l-.279.028c-.416.041-.869.089-1.1.12-.151-.13-.195-.524-.174-1.027a25,25,0,0,1,.578-3.634l1.431.421A.963.963,0,0,1,18,35.249a1.515,1.515,0,0,1-.041,1.146l-.036.077Z" transform="translate(4.457 9.775)" fill="#f1a19a"/>
            <path id="Trazado_733047" data-name="Trazado 733047" d="M18.225,35.972l-.16.707A2.169,2.169,0,0,1,16.4,38.321c-.039.008-.079.017-.119.023a4.652,4.652,0,0,1-1.8-.012l-.889-.179a.1.1,0,0,1-.074-.07l-.324-1.327-.509-2.08a.093.093,0,0,1,.032-.1,5.047,5.047,0,0,1,2.673-1.118,4.841,4.841,0,0,1,1.3.218c.112.034.213.065.311.1a1.87,1.87,0,0,1,1.225,2.193" transform="translate(3.686 9.725)" fill="#f6c1af"/>
            <path id="Trazado_733048" data-name="Trazado 733048" d="M44.359,37.528l-.822,1.985-1.009,1.4a.049.049,0,0,1-.077.005.359.359,0,0,1-.046-.427L44.1,37.635Z" transform="translate(12.308 10.906)" fill="#f1a19a"/>
            <path id="Trazado_733049" data-name="Trazado 733049" d="M44.475,37.528l-.92,1.866a.541.541,0,0,1-.054.086l-1.256,1.554a.093.093,0,0,1-.128.017.348.348,0,0,1-.129-.443l.816-1.647Z" transform="translate(12.192 10.906)" fill="#f1a19a"/>
            <path id="Trazado_733050" data-name="Trazado 733050" d="M44.763,37.615,43.2,39.778a.681.681,0,0,1-.317.24l-1.782.654a.088.088,0,0,1-.114-.052.451.451,0,0,1,.181-.547l1.313-.818,1.155-2.026Z" transform="translate(11.904 10.819)" fill="#f1a19a"/>
            <path id="Trazado_733051" data-name="Trazado 733051" d="M45.444,34.287a23.113,23.113,0,0,1-.475,4.262,17.372,17.372,0,0,1-2.155,1.806.76.76,0,0,1-.5.136l-1.208-.1-.78-.214a.1.1,0,0,1-.074-.115.392.392,0,0,1,.457-.32l.444.08,1.162-.134.764-1.2a1.043,1.043,0,0,0,.055-1.143,6.345,6.345,0,0,1-.752-1.839l1.15-1.489Z" transform="translate(11.698 9.886)" fill="#f6c1af"/>
            <path id="Trazado_733052" data-name="Trazado 733052" d="M43.781,36.737a11.02,11.02,0,0,1-1.738,1.051l-1.131.55c-.243.107-.467.117-.57-.126a.177.177,0,0,1,.035-.191l1.145-1.205a2.915,2.915,0,0,0,.627-1.3,2.676,2.676,0,0,1,.206-.674,1.867,1.867,0,0,1,1.158-.827l.622,1.256a1.171,1.171,0,0,1-.354,1.464" transform="translate(11.72 9.886)" fill="#f6c1af"/>
            <path id="Trazado_733053" data-name="Trazado 733053" d="M44.705,35a34.009,34.009,0,0,0-1.687-3.434L42.8,34.73Z" transform="translate(12.437 9.173)" fill="#f6c1af"/>
            <path id="Trazado_733054" data-name="Trazado 733054" d="M15.764,38.565c0,.174-.009.35-.023.521L15.5,39.2a42.894,42.894,0,0,1-4.276,1.768,28.078,28.078,0,0,1-8.055,1.714c-.172.013-.339.025-.5.03A2.533,2.533,0,0,1,.081,39.553,3.367,3.367,0,0,1,2.118,37.12a21.506,21.506,0,0,1,4.023-1.062l.108-.014.124-.014A71.363,71.363,0,0,0,14.9,34.451s.021.05.055.142l.035.093a13.58,13.58,0,0,1,.621,2.275,9.187,9.187,0,0,1,.151,1.6" transform="translate(0 10.012)" fill="#acbfe2"/>
            <path id="Trazado_733055" data-name="Trazado 733055" d="M6.526,105.374a10.842,10.842,0,0,1-4.5,2.319,1.321,1.321,0,0,0-.928,1.576l.174.738H12.3l.145-.653a6.786,6.786,0,0,0,.021-2.838l-.236-1.142Z" transform="translate(0.309 30.623)" fill="#4a5770"/>
            <path id="Trazado_733056" data-name="Trazado 733056" d="M25.224,105.374l-.141.534a9.512,9.512,0,0,0-.168,4.1H32.7v-.6a4.34,4.34,0,0,0-.835-2.558,11.467,11.467,0,0,1-.932-1.475Z" transform="translate(7.198 30.623)" fill="#4a5770"/>
            <path id="Trazado_733057" data-name="Trazado 733057" d="M22.908,48.152V55.09c0,2.04-3.387,17.581-4.95,24.647-.468,2.117-.773,3.476-.773,3.476s-.277,3.849-.277,7.736c0,1.061-.026,2.061-.07,3.015-.075,1.562-.205,3-.382,4.351-.487,5.184-1.438,14.31-2.847,23.488a.723.723,0,0,1-.618.605,23.486,23.486,0,0,1-7.708-.24.7.7,0,0,1-.545-.8c.172-1.109.333-3.07.476-5.414.459-7.487.752-18.853.755-18.936-.1-4.527-.236-8.406-.236-11.27,0-.965.015-1.815.053-2.536,0,0,.546-18.914,1.729-28.689a27.511,27.511,0,0,1,1.5-6.372Z" transform="translate(1.375 13.994)" fill="#acbfe2"/>
            <path id="Trazado_733058" data-name="Trazado 733058" d="M33.848,122.744a19.544,19.544,0,0,1-7.326-.061.437.437,0,0,1-.35-.408c-.032-.795-.12-1.808-.25-2.975-.8-7.215-3.125-20.272-3.125-23.4-.138-1.535-.218-3.168-.218-4.95a56.39,56.39,0,0,0-.612-7.736S19.6,73.084,17.859,64.936a98.152,98.152,0,0,1-1.834-9.846V48.152H29.917a24.07,24.07,0,0,1,1.652,6.421c1.182,9.774,1.76,28.574,1.76,28.574s.11,2.208.169,3.295c.049.929.084,1.822.106,2.69.045,1.653.045,3.2.018,4.693.018,0-.046,20.343.689,28.275a.6.6,0,0,1-.463.645" transform="translate(4.657 13.994)" fill="#acbfe2"/>
            <path id="Trazado_733059" data-name="Trazado 733059" d="M18.022,20.106l-.21,1.96s-.108.01-.3.018a9.475,9.475,0,0,1-4.844-1.034,6.048,6.048,0,0,1,.914-2.2,9.109,9.109,0,0,0,4.441,1.258" transform="translate(3.681 5.477)" fill="#c5d5ef"/>
            <path id="Trazado_733060" data-name="Trazado 733060" d="M22.534,21.213a7.971,7.971,0,0,1-4.247.934,6.21,6.21,0,0,1-.636-.061l-.21-1.96a6.936,6.936,0,0,0,4.1-1.346,5.134,5.134,0,0,1,.99,2.393.2.2,0,0,1,0,.04" transform="translate(5.068 5.458)" fill="#c5d5ef"/>
            <rect id="Rectángulo_352761" data-name="Rectángulo 352761" width="12.913" height="5.517" transform="translate(30.779 40.43)" fill="#fff"/>
            <rect id="Rectángulo_352762" data-name="Rectángulo 352762" width="0.547" height="3.889" transform="translate(31.402 41.071)" fill="#aa663f"/>
            <rect id="Rectángulo_352763" data-name="Rectángulo 352763" width="0.274" height="3.889" transform="translate(32.154 41.071)" fill="#aa663f"/>
            <rect id="Rectángulo_352764" data-name="Rectángulo 352764" width="0.395" height="3.889" transform="translate(32.739 41.071)" fill="#aa663f"/>
            <rect id="Rectángulo_352765" data-name="Rectángulo 352765" width="0.222" height="3.889" transform="translate(33.33 41.071)" fill="#aa663f"/>
            <rect id="Rectángulo_352766" data-name="Rectángulo 352766" width="0.547" height="3.889" transform="translate(33.902 41.071)" fill="#aa663f"/>
            <rect id="Rectángulo_352767" data-name="Rectángulo 352767" width="0.183" height="3.889" transform="translate(34.874 41.071)" fill="#aa663f"/>
            <rect id="Rectángulo_352768" data-name="Rectángulo 352768" width="0.547" height="3.889" transform="translate(35.399 41.071)" fill="#aa663f"/>
            <rect id="Rectángulo_352769" data-name="Rectángulo 352769" width="0.274" height="3.889" transform="translate(36.217 41.071)" fill="#aa663f"/>
            <rect id="Rectángulo_352770" data-name="Rectángulo 352770" width="0.316" height="3.889" transform="translate(36.786 41.071)" fill="#aa663f"/>
            <rect id="Rectángulo_352771" data-name="Rectángulo 352771" width="0.101" height="3.889" transform="translate(37.372 41.071)" fill="#aa663f"/>
            <rect id="Rectángulo_352772" data-name="Rectángulo 352772" width="0.274" height="3.889" transform="translate(37.854 41.071)" fill="#aa663f"/>
            <rect id="Rectángulo_352773" data-name="Rectángulo 352773" width="0.395" height="3.889" transform="translate(38.567 41.071)" fill="#aa663f"/>
            <rect id="Rectángulo_352774" data-name="Rectángulo 352774" width="0.298" height="3.889" transform="translate(39.295 41.071)" fill="#aa663f"/>
            <rect id="Rectángulo_352775" data-name="Rectángulo 352775" width="0.549" height="3.889" transform="translate(39.942 41.071)" fill="#aa663f"/>
            <rect id="Rectángulo_352776" data-name="Rectángulo 352776" width="0.183" height="3.889" transform="translate(40.915 41.071)" fill="#aa663f"/>
            <rect id="Rectángulo_352777" data-name="Rectángulo 352777" width="0.547" height="3.889" transform="translate(41.44 41.071)" fill="#aa663f"/>
            <rect id="Rectángulo_352778" data-name="Rectángulo 352778" width="0.274" height="3.889" transform="translate(42.257 41.071)" fill="#aa663f"/>
            <rect id="Rectángulo_352779" data-name="Rectángulo 352779" width="0.316" height="3.889" transform="translate(42.828 41.071)" fill="#aa663f"/>
            <path id="Trazado_733061" data-name="Trazado 733061" d="M9.69,47.9a21.981,21.981,0,0,0,2.514.591q1.264.23,2.537.355a33.8,33.8,0,0,0,5.1.1c.212-.006.423-.027.636-.04s.425-.03.635-.053l.635-.058.635-.079c.106-.013.212-.022.316-.037l.316-.046.632-.093.631-.108.315-.052.315-.062c1.679-.32,3.344-.746,5.017-1.214a23.557,23.557,0,0,1-4.855,1.913l-.316.086-.319.079-.639.148c-.214.045-.428.088-.644.128l-.323.062c-.108.019-.217.036-.324.053a24.682,24.682,0,0,1-2.615.284,23.175,23.175,0,0,1-5.245-.307,19.543,19.543,0,0,1-2.549-.629c-.414-.137-.827-.281-1.229-.453-.2-.085-.4-.173-.6-.266s-.39-.194-.577-.306" transform="translate(2.816 13.689)" fill="#a0b5e0"/>
            <path id="Trazado_733062" data-name="Trazado 733062" d="M27.581,48.852,25.56,42.836l-2.87-1.979,3.53.206a75.174,75.174,0,0,0,1.362,7.789" transform="translate(6.594 11.874)" fill="#a0b5e0"/>
            <path id="Trazado_733063" data-name="Trazado 733063" d="M31.62,113.517a19.543,19.543,0,0,1-7.326-.061.437.437,0,0,1-.35-.408c-.032-.8-.12-1.808-.25-2.975,0,0,9.291,5.9,7.411-29.835.092-.114.182-.227.271-.334.045,1.653.045,3.2.018,4.693.018,0-.046,20.343.689,28.275a.6.6,0,0,1-.463.645" transform="translate(6.886 23.221)" fill="#a0b5e0"/>
            <path id="Trazado_733064" data-name="Trazado 733064" d="M26.952,22.02l-.61-.114a13.756,13.756,0,0,0-6.2.275,2.009,2.009,0,0,1-1.924-.447l-.138-.125a8.123,8.123,0,0,0,4.264-.945c1.555.36,3.3.919,4.588,1.347Z" transform="translate(5.255 6.006)" fill="#a0b5e0"/>
            <path id="Trazado_733065" data-name="Trazado 733065" d="M17.51,21.589c-.006.156-.013.348-.023.579-4.143-.185-4.8-1.569-4.819-1.613a9.471,9.471,0,0,0,4.842,1.034" transform="translate(3.682 5.974)" fill="#a0b5e0"/>
            <path id="Trazado_733066" data-name="Trazado 733066" d="M12.878,38.3l-.489.234a9.163,9.163,0,0,0-.151-1.6,13.515,13.515,0,0,0-.622-2.275l.372-.1a8.809,8.809,0,0,1,.891,3.743" transform="translate(3.376 10.043)" fill="#f1a19a"/>
            <g id="Grupo_1013044" data-name="Grupo 1013044" transform="translate(16.675 41.633)" opacity="0.5">
              <g id="Grupo_1013043" data-name="Grupo 1013043">
                <g id="Grupo_1013042" data-name="Grupo 1013042" clip-path="url(#clip-path-4)">
                  <path id="Trazado_733067" data-name="Trazado 733067" d="M19.358,32.258l-.074.276a1.024,1.024,0,0,1-.076.208l-6.288-.484Z" transform="translate(-12.92 -32.259)" fill="#6686b5"/>
                </g>
              </g>
            </g>
            <path id="Trazado_733068" data-name="Trazado 733068" d="M15.425,31.168,8.832,29.975a.344.344,0,0,1-.276-.4l.634-3.491a.342.342,0,0,1,.4-.277L16.18,27a.343.343,0,0,1,.276.4l-.632,3.491a.344.344,0,0,1-.4.276" transform="translate(2.485 7.498)" fill="#fff"/>
            <path id="Trazado_733069" data-name="Trazado 733069" d="M10.538,28.4,9.195,28.16a.166.166,0,0,1-.134-.192l.283-1.556a.167.167,0,0,1,.194-.134l1.342.243a.167.167,0,0,1,.134.194l-.281,1.556a.167.167,0,0,1-.194.134" transform="translate(2.632 7.636)" fill="#a0b5e0"/>
            <path id="Trazado_733070" data-name="Trazado 733070" d="M14.768,28.436l-3.82-.692a.307.307,0,0,1,.108-.605l3.822.693a.307.307,0,0,1-.11.6" transform="translate(3.108 7.886)" fill="#a0b5e0"/>
            <path id="Trazado_733071" data-name="Trazado 733071" d="M14.529,29.758l-3.822-.693a.306.306,0,1,1,.11-.6l3.822.692a.307.307,0,1,1-.11.6" transform="translate(3.039 8.27)" fill="#a0b5e0"/>
            <path id="Trazado_733072" data-name="Trazado 733072" d="M15.407,79.569l.754-8.389a35.014,35.014,0,0,0-1.273-12.986L13.511,48.73l3.245.247v5.946A98.081,98.081,0,0,0,18.59,64.77c-1.065,5.166-2.371,11.128-3.183,14.8" transform="translate(3.926 14.162)" fill="#a0b5e0"/>
            <path id="Trazado_733073" data-name="Trazado 733073" d="M18.62,24.52l-1.966-2.736.137-1.273.074-.688.254.683.444,1.187L18.62,24.52" transform="translate(4.84 5.761)" fill="#c5d5ef"/>
            <path id="Trazado_733074" data-name="Trazado 733074" d="M17.675,21.783l-.314-.076c0-.014.063-1.207.063-1.207l.04-.678.072.676Z" transform="translate(5.045 5.761)" fill="#c5d5ef"/>
          </g>
        </g>
      </g>
    </g>
  </g>
</svg>
