<svg id="Grupo_1019115" data-name="Grupo 1019115" xmlns="http://www.w3.org/2000/svg" xmlns:xlink="http://www.w3.org/1999/xlink" width="197.694" height="107.186" viewBox="0 0 197.694 107.186">
  <defs>
    <clipPath id="clip-path">
      <rect id="Rectángulo_355901" data-name="Rectángulo 355901" width="197.694" height="107.186" fill="none"/>
    </clipPath>
    <clipPath id="clip-path-3">
      <rect id="Rectángulo_355855" data-name="Rectángulo 355855" width="25.198" height="25.197" fill="none"/>
    </clipPath>
    <clipPath id="clip-path-4">
      <rect id="Rectángulo_355856" data-name="Rectángulo 355856" width="22.761" height="36.524" fill="none"/>
    </clipPath>
    <clipPath id="clip-path-5">
      <rect id="Rectángulo_355857" data-name="Rectángulo 355857" width="104.554" height="7.058" fill="none"/>
    </clipPath>
    <clipPath id="clip-path-6">
      <rect id="Rectángulo_355859" data-name="Rectángulo 355859" width="56.089" height="47.656" fill="none"/>
    </clipPath>
    <clipPath id="clip-path-7">
      <rect id="Rectángulo_355860" data-name="Rectángulo 355860" width="92.882" height="28.946" fill="none"/>
    </clipPath>
    <clipPath id="clip-path-8">
      <rect id="Rectángulo_355861" data-name="Rectángulo 355861" width="2.374" height="57.015" fill="none"/>
    </clipPath>
    <clipPath id="clip-path-10">
      <rect id="Rectángulo_355864" data-name="Rectángulo 355864" width="42.343" height="81.311" fill="none"/>
    </clipPath>
    <clipPath id="clip-path-11">
      <rect id="Rectángulo_355865" data-name="Rectángulo 355865" width="18.031" height="32.672" fill="none"/>
    </clipPath>
    <clipPath id="clip-path-12">
      <rect id="Rectángulo_355866" data-name="Rectángulo 355866" width="5.214" height="3.321" fill="none"/>
    </clipPath>
    <clipPath id="clip-path-13">
      <rect id="Rectángulo_355867" data-name="Rectángulo 355867" width="53.879" height="43.714" fill="none"/>
    </clipPath>
    <clipPath id="clip-path-14">
      <rect id="Rectángulo_355868" data-name="Rectángulo 355868" width="2.309" height="38.162" fill="none"/>
    </clipPath>
    <clipPath id="clip-path-16">
      <rect id="Rectángulo_355884" data-name="Rectángulo 355884" width="68.697" height="80.85" fill="none"/>
    </clipPath>
    <clipPath id="clip-path-17">
      <rect id="Rectángulo_355885" data-name="Rectángulo 355885" width="11.899" height="18.197" fill="none"/>
    </clipPath>
    <clipPath id="clip-path-18">
      <rect id="Rectángulo_355886" data-name="Rectángulo 355886" width="16.038" height="18.197" fill="none"/>
    </clipPath>
    <clipPath id="clip-path-19">
      <rect id="Rectángulo_355887" data-name="Rectángulo 355887" width="33.699" height="82.659" fill="none"/>
    </clipPath>
    <clipPath id="clip-path-20">
      <rect id="Rectángulo_355888" data-name="Rectángulo 355888" width="17.943" height="33.37" fill="none"/>
    </clipPath>
    <clipPath id="clip-path-21">
      <rect id="Rectángulo_355890" data-name="Rectángulo 355890" width="25.315" height="35.821" fill="none"/>
    </clipPath>
    <clipPath id="clip-path-22">
      <rect id="Rectángulo_355892" data-name="Rectángulo 355892" width="42.694" height="2.505" fill="none"/>
    </clipPath>
    <clipPath id="clip-path-23">
      <rect id="Rectángulo_355894" data-name="Rectángulo 355894" width="20.354" height="31.432" fill="none"/>
    </clipPath>
    <clipPath id="clip-path-24">
      <rect id="Rectángulo_355895" data-name="Rectángulo 355895" width="13.63" height="5.961" fill="none"/>
    </clipPath>
    <clipPath id="clip-path-25">
      <rect id="Rectángulo_355896" data-name="Rectángulo 355896" width="6.091" height="11.084" fill="none"/>
    </clipPath>
    <clipPath id="clip-path-26">
      <rect id="Rectángulo_355897" data-name="Rectángulo 355897" width="1.833" height="3.41" fill="none"/>
    </clipPath>
    <clipPath id="clip-path-27">
      <rect id="Rectángulo_355898" data-name="Rectángulo 355898" width="4.056" height="10.742" fill="none"/>
    </clipPath>
    <clipPath id="clip-path-28">
      <rect id="Rectángulo_355899" data-name="Rectángulo 355899" width="19.812" height="17.351" fill="none"/>
    </clipPath>
  </defs>
  <g id="Grupo_1019114" data-name="Grupo 1019114" clip-path="url(#clip-path)">
    <g id="Grupo_1019113" data-name="Grupo 1019113" transform="translate(0 0)">
      <g id="Grupo_1019112" data-name="Grupo 1019112" clip-path="url(#clip-path)">
        <line id="Línea_3113" data-name="Línea 3113" x1="6.147" transform="translate(0.659 106.527)" fill="none" stroke="#333" stroke-linecap="round" stroke-linejoin="round" stroke-width="1.128"/>
        <line id="Línea_3114" data-name="Línea 3114" x1="180.649" transform="translate(9.957 106.527)" fill="none" stroke="#333" stroke-linecap="round" stroke-linejoin="round" stroke-width="1.128"/>
        <line id="Línea_3115" data-name="Línea 3115" x1="2.881" transform="translate(194.154 106.527)" fill="none" stroke="#333" stroke-linecap="round" stroke-linejoin="round" stroke-width="1.128"/>
        <path id="Trazado_748280" data-name="Trazado 748280" d="M17.83,65.546A15.8,15.8,0,0,1,21.3,63.534l-.447-2.724,3.565-.956.978,2.588a15.354,15.354,0,0,1,4.011,0l.977-2.587,3.565.956L33.5,63.537a15.732,15.732,0,0,1,3.469,2.013l2.145-1.757L41.727,66.4l-1.755,2.145a15.825,15.825,0,0,1,2.013,3.469l2.726-.447.956,3.565-2.588.978a15.7,15.7,0,0,1,.131,2,16.045,16.045,0,0,1-.131,2.009l2.588.977-.956,3.565-2.725-.447a15.745,15.745,0,0,1-2.012,3.472l1.753,2.141L39.118,92.44l-2.141-1.753A15.785,15.785,0,0,1,33.5,92.7l.447,2.729-3.565.956-.979-2.594a15.385,15.385,0,0,1-4.007,0l-.98,2.594-3.565-.956.448-2.731a15.719,15.719,0,0,1-3.469-2.009L15.689,92.44,13.08,89.831l1.757-2.145a15.812,15.812,0,0,1-2.009-3.469l-2.73.447L9.142,81.1l2.594-.979a15.464,15.464,0,0,1,0-4.008l-2.593-.979.956-3.565,2.729.448a15.758,15.758,0,0,1,2.008-3.472L13.08,66.4l2.609-2.609ZM34.406,85.119a9.9,9.9,0,1,0-14.005,0,9.9,9.9,0,0,0,14.005,0" transform="translate(1.55 10.147)" fill="#fff"/>
        <g id="Grupo_1019036" data-name="Grupo 1019036" transform="translate(16.356 75.666)" style="mix-blend-mode: multiply;isolation: isolate">
          <g id="Grupo_1019035" data-name="Grupo 1019035">
            <g id="Grupo_1019034" data-name="Grupo 1019034" clip-path="url(#clip-path-3)">
              <path id="Trazado_748281" data-name="Trazado 748281" d="M26.583,64.7h0a12.6,12.6,0,1,0,12.6,12.6,12.6,12.6,0,0,0-12.6-12.6m9.9,12.6a9.9,9.9,0,1,1-9.9-9.9,9.9,9.9,0,0,1,9.9,9.9" transform="translate(-13.985 -64.697)" fill="#dfdfdf"/>
            </g>
          </g>
        </g>
        <g id="Grupo_1019039" data-name="Grupo 1019039" transform="translate(24.455 70.002)" style="mix-blend-mode: multiply;isolation: isolate">
          <g id="Grupo_1019038" data-name="Grupo 1019038">
            <g id="Grupo_1019037" data-name="Grupo 1019037" clip-path="url(#clip-path-4)">
              <path id="Trazado_748282" data-name="Trazado 748282" d="M41.215,78.114a15.919,15.919,0,0,0-.131-2l2.587-.978-.956-3.565-2.726.447a15.732,15.732,0,0,0-2.013-3.469L39.734,66.4l-2.609-2.61-2.145,1.757a15.778,15.778,0,0,0-3.469-2.013l.447-2.726-3.565-.956-.978,2.587a15.354,15.354,0,0,0-4.011,0l-.977-2.588-1.517.406V69.3a9.9,9.9,0,1,1,0,17.644v9.033l1.517.407.979-2.594a15.385,15.385,0,0,0,4.007,0l.98,2.594,3.565-.956L31.509,92.7a15.759,15.759,0,0,0,3.472-2.008l2.143,1.754,2.609-2.61L37.98,87.69a15.745,15.745,0,0,0,2.012-3.472l2.724.447.956-3.565-2.588-.977a15.826,15.826,0,0,0,.132-2.009" transform="translate(-20.91 -59.855)" fill="#dfdfdf"/>
            </g>
          </g>
        </g>
        <path id="Trazado_748283" data-name="Trazado 748283" d="M17.83,65.546A15.8,15.8,0,0,1,21.3,63.534l-.447-2.724,3.565-.956.978,2.588a15.354,15.354,0,0,1,4.011,0l.977-2.587,3.565.956L33.5,63.537a15.732,15.732,0,0,1,3.469,2.013l2.145-1.757L41.727,66.4l-1.755,2.145a15.825,15.825,0,0,1,2.013,3.469l2.726-.447.956,3.565-2.588.978a15.7,15.7,0,0,1,.131,2,16.045,16.045,0,0,1-.131,2.009l2.588.977-.956,3.565-2.725-.447a15.745,15.745,0,0,1-2.012,3.472l1.753,2.141L39.118,92.44l-2.141-1.753A15.785,15.785,0,0,1,33.5,92.7l.447,2.729-3.565.956-.979-2.594a15.385,15.385,0,0,1-4.007,0l-.98,2.594-3.565-.956.448-2.731a15.719,15.719,0,0,1-3.469-2.009L15.689,92.44,13.08,89.831l1.757-2.145a15.812,15.812,0,0,1-2.009-3.469l-2.73.447L9.142,81.1l2.594-.979a15.464,15.464,0,0,1,0-4.008l-2.593-.979.956-3.565,2.729.448a15.758,15.758,0,0,1,2.008-3.472L13.08,66.4l2.609-2.609ZM34.406,85.119a9.9,9.9,0,1,0-14.005,0A9.9,9.9,0,0,0,34.406,85.119Z" transform="translate(1.55 10.147)" fill="none" stroke="#333" stroke-linecap="round" stroke-linejoin="round" stroke-width="1.128"/>
        <path id="Trazado_748284" data-name="Trazado 748284" d="M81.56,85.05h0a2.738,2.738,0,0,1-2.738,2.738H60.162a2.738,2.738,0,0,1-2.738-2.738H16.713v2.085a4.974,4.974,0,0,0,4.974,4.973H117.3a4.974,4.974,0,0,0,4.974-4.973V85.05Z" transform="translate(2.833 14.419)" fill="#fff"/>
        <path id="Trazado_748285" data-name="Trazado 748285" d="M54.261,87.788h18.66a2.738,2.738,0,0,0,2.738-2.738H51.523a2.738,2.738,0,0,0,2.738,2.738" transform="translate(8.735 14.419)" fill="#92cef8"/>
        <g id="Grupo_1019042" data-name="Grupo 1019042" transform="translate(20.55 99.468)" style="mix-blend-mode: multiply;isolation: isolate">
          <g id="Grupo_1019041" data-name="Grupo 1019041">
            <g id="Grupo_1019040" data-name="Grupo 1019040" clip-path="url(#clip-path-5)">
              <path id="Trazado_748286" data-name="Trazado 748286" d="M120.147,85.05v2.118a3.016,3.016,0,0,1-3.034,2.962H17.571a4.966,4.966,0,0,0,3.971,1.978h95.61a4.973,4.973,0,0,0,4.974-4.973V85.05Z" transform="translate(-17.571 -85.05)" fill="#dfdfdf"/>
            </g>
          </g>
        </g>
        <path id="Trazado_748287" data-name="Trazado 748287" d="M81.56,85.05h0a2.738,2.738,0,0,1-2.738,2.738H60.162a2.738,2.738,0,0,1-2.738-2.738H16.713v2.085a4.974,4.974,0,0,0,4.974,4.973H117.3a4.974,4.974,0,0,0,4.974-4.973V85.05Z" transform="translate(2.833 14.419)" fill="none" stroke="#333" stroke-linecap="round" stroke-linejoin="round" stroke-width="1.128"/>
        <path id="Trazado_748288" data-name="Trazado 748288" d="M114.511,41.4V38.976a2.719,2.719,0,0,0-2.719-2.719H25.228a2.72,2.72,0,0,0-2.72,2.719V41.4Z" transform="translate(3.816 6.147)" fill="#fff"/>
        <path id="Trazado_748289" data-name="Trazado 748289" d="M114.511,83.075V80.651h-92v2.424a2.72,2.72,0,0,0,2.72,2.719h86.564a2.719,2.719,0,0,0,2.719-2.719" transform="translate(3.816 13.673)" fill="#fff"/>
        <rect id="Rectángulo_355858" data-name="Rectángulo 355858" width="92.003" height="46.776" transform="translate(26.324 47.548)" fill="#91b3fa"/>
        <g id="Grupo_1019045" data-name="Grupo 1019045" transform="translate(44.288 47.108)" opacity="0.15">
          <g id="Grupo_1019044" data-name="Grupo 1019044">
            <g id="Grupo_1019043" data-name="Grupo 1019043" clip-path="url(#clip-path-6)">
              <line id="Línea_3116" data-name="Línea 3116" y2="46.776" transform="translate(0.44 0.44)" fill="none" stroke="#fff" stroke-linecap="round" stroke-linejoin="round" stroke-width="0.752"/>
              <line id="Línea_3117" data-name="Línea 3117" y2="46.776" transform="translate(18.843 0.44)" fill="none" stroke="#fff" stroke-linecap="round" stroke-linejoin="round" stroke-width="0.752"/>
              <line id="Línea_3118" data-name="Línea 3118" y2="46.776" transform="translate(37.246 0.44)" fill="none" stroke="#fff" stroke-linecap="round" stroke-linejoin="round" stroke-width="0.752"/>
              <line id="Línea_3119" data-name="Línea 3119" y2="46.776" transform="translate(55.649 0.44)" fill="none" stroke="#fff" stroke-linecap="round" stroke-linejoin="round" stroke-width="0.752"/>
            </g>
          </g>
        </g>
        <g id="Grupo_1019048" data-name="Grupo 1019048" transform="translate(25.884 56.463)" opacity="0.15">
          <g id="Grupo_1019047" data-name="Grupo 1019047">
            <g id="Grupo_1019046" data-name="Grupo 1019046" clip-path="url(#clip-path-7)">
              <line id="Línea_3120" data-name="Línea 3120" x2="92.003" transform="translate(0.44 0.44)" fill="none" stroke="#fff" stroke-linecap="round" stroke-linejoin="round" stroke-width="0.752"/>
              <line id="Línea_3121" data-name="Línea 3121" x2="92.003" transform="translate(0.44 9.795)" fill="none" stroke="#fff" stroke-linecap="round" stroke-linejoin="round" stroke-width="0.752"/>
              <line id="Línea_3122" data-name="Línea 3122" x2="92.003" transform="translate(0.44 19.151)" fill="none" stroke="#fff" stroke-linecap="round" stroke-linejoin="round" stroke-width="0.752"/>
              <line id="Línea_3123" data-name="Línea 3123" x2="92.003" transform="translate(0.44 28.506)" fill="none" stroke="#fff" stroke-linecap="round" stroke-linejoin="round" stroke-width="0.752"/>
            </g>
          </g>
        </g>
        <path id="Trazado_748290" data-name="Trazado 748290" d="M101.61,46.939,82.282,66.266l-10-10-21.4,21.4L41.5,68.291,29.845,79.947" transform="translate(5.06 7.958)" fill="none" stroke="#fff" stroke-linecap="round" stroke-linejoin="round" stroke-width="1.128"/>
        <line id="Línea_3124" data-name="Línea 3124" transform="translate(77.353 64.206)" fill="none" stroke="#fff" stroke-linecap="round" stroke-miterlimit="10" stroke-width="3.008"/>
        <line id="Línea_3125" data-name="Línea 3125" transform="translate(87.345 74.163)" fill="none" stroke="#fff" stroke-linecap="round" stroke-miterlimit="10" stroke-width="3.008"/>
        <line id="Línea_3126" data-name="Línea 3126" transform="translate(106.669 54.896)" fill="none" stroke="#fff" stroke-linecap="round" stroke-miterlimit="10" stroke-width="3.008"/>
        <line id="Línea_3127" data-name="Línea 3127" transform="translate(55.937 85.624)" fill="none" stroke="#fff" stroke-linecap="round" stroke-miterlimit="10" stroke-width="3.008"/>
        <line id="Línea_3128" data-name="Línea 3128" transform="translate(46.561 76.249)" fill="none" stroke="#fff" stroke-linecap="round" stroke-miterlimit="10" stroke-width="3.008"/>
        <line id="Línea_3129" data-name="Línea 3129" transform="translate(34.905 87.905)" fill="none" stroke="#fff" stroke-linecap="round" stroke-miterlimit="10" stroke-width="3.008"/>
        <g id="Grupo_1019051" data-name="Grupo 1019051" transform="translate(26.324 42.428)" style="mix-blend-mode: overlay;isolation: isolate">
          <g id="Grupo_1019050" data-name="Grupo 1019050">
            <g id="Grupo_1019049" data-name="Grupo 1019049" clip-path="url(#clip-path-8)">
              <path id="Trazado_748291" data-name="Trazado 748291" d="M24.882,36.278a2.719,2.719,0,0,0-2.374,2.7V90.6a2.72,2.72,0,0,0,2.374,2.7Z" transform="translate(-22.508 -36.278)" fill="#b3b3b3"/>
            </g>
          </g>
        </g>
        <g id="Grupo_1019054" data-name="Grupo 1019054" transform="translate(115.953 42.428)" style="mix-blend-mode: multiply;isolation: isolate">
          <g id="Grupo_1019053" data-name="Grupo 1019053">
            <g id="Grupo_1019052" data-name="Grupo 1019052" clip-path="url(#clip-path-8)">
              <path id="Trazado_748292" data-name="Trazado 748292" d="M99.145,36.278a2.719,2.719,0,0,1,2.374,2.7V90.6a2.72,2.72,0,0,1-2.374,2.7Z" transform="translate(-99.145 -36.278)" fill="#dfdfdf"/>
            </g>
          </g>
        </g>
        <path id="Trazado_748293" data-name="Trazado 748293" d="M114.511,41.4V38.976a2.719,2.719,0,0,0-2.719-2.719H25.228a2.72,2.72,0,0,0-2.72,2.719V41.4Z" transform="translate(3.816 6.147)" fill="none" stroke="#333" stroke-linecap="round" stroke-linejoin="round" stroke-width="1.128"/>
        <path id="Trazado_748294" data-name="Trazado 748294" d="M114.511,83.075V80.651h-92v2.424a2.72,2.72,0,0,0,2.72,2.719h86.564A2.719,2.719,0,0,0,114.511,83.075Z" transform="translate(3.816 13.673)" fill="none" stroke="#333" stroke-linecap="round" stroke-linejoin="round" stroke-width="1.128"/>
        <rect id="Rectángulo_355863" data-name="Rectángulo 355863" width="92.003" height="46.776" transform="translate(26.324 47.548)" fill="none" stroke="#333" stroke-linecap="round" stroke-linejoin="round" stroke-width="1.128"/>
        <path id="Trazado_748295" data-name="Trazado 748295" d="M115.339,21.56a40.656,40.656,0,1,0,40.655,40.655A40.655,40.655,0,0,0,115.339,21.56" transform="translate(12.661 3.655)" fill="#fff"/>
        <path id="Trazado_748296" data-name="Trazado 748296" d="M115.339,21.56a40.656,40.656,0,1,0,40.655,40.656A40.655,40.655,0,0,0,115.339,21.56m0,73.2a32.545,32.545,0,1,1,32.544-32.544,32.544,32.544,0,0,1-32.544,32.544" transform="translate(12.661 3.655)" fill="#f56656"/>
        <g id="Grupo_1019057" data-name="Grupo 1019057" transform="translate(126.313 25.215)" style="mix-blend-mode: multiply;isolation: isolate">
          <g id="Grupo_1019056" data-name="Grupo 1019056">
            <g id="Grupo_1019055" data-name="Grupo 1019055" clip-path="url(#clip-path-10)">
              <path id="Trazado_748297" data-name="Trazado 748297" d="M109.691,21.56c-.566,0-1.127.015-1.688.037a40.653,40.653,0,0,1,0,81.237c.56.022,1.122.037,1.688.037a40.656,40.656,0,0,0,0-81.311" transform="translate(-108.003 -21.56)" fill="#f5a39a"/>
            </g>
          </g>
        </g>
        <path id="Trazado_748298" data-name="Trazado 748298" d="M112.988,35.43a24.434,24.434,0,1,0,24.435,24.434A24.435,24.435,0,0,0,112.988,35.43m0,40.758a16.324,16.324,0,1,1,16.324-16.324,16.324,16.324,0,0,1-16.324,16.324" transform="translate(15.012 6.007)" fill="#f56656"/>
        <path id="Trazado_748299" data-name="Trazado 748299" d="M110.637,49.3a8.213,8.213,0,1,0,8.214,8.214,8.213,8.213,0,0,0-8.214-8.214" transform="translate(17.364 8.358)" fill="#f56656"/>
        <path id="Trazado_748300" data-name="Trazado 748300" d="M115.339,21.56a40.656,40.656,0,1,0,40.655,40.655A40.655,40.655,0,0,0,115.339,21.56Z" transform="translate(12.661 3.655)" fill="none" stroke="#333" stroke-linecap="round" stroke-linejoin="round" stroke-width="1.128"/>
        <g id="Grupo_1019060" data-name="Grupo 1019060" transform="translate(89.582 33.858)" opacity="0.7">
          <g id="Grupo_1019059" data-name="Grupo 1019059">
            <g id="Grupo_1019058" data-name="Grupo 1019058" clip-path="url(#clip-path-11)">
              <path id="Trazado_748301" data-name="Trazado 748301" d="M93.872,29.514A37.721,37.721,0,0,0,77.161,60.867" transform="translate(-76.501 -28.855)" fill="none" stroke="#fff" stroke-linecap="round" stroke-linejoin="round" stroke-width="1.128"/>
            </g>
          </g>
        </g>
        <g id="Grupo_1019063" data-name="Grupo 1019063" transform="translate(108.185 30.664)" opacity="0.7">
          <g id="Grupo_1019062" data-name="Grupo 1019062">
            <g id="Grupo_1019061" data-name="Grupo 1019061" clip-path="url(#clip-path-12)">
              <path id="Trazado_748302" data-name="Trazado 748302" d="M96.963,26.783a37.4,37.4,0,0,0-3.9,2" transform="translate(-92.407 -26.123)" fill="none" stroke="#fff" stroke-linecap="round" stroke-linejoin="round" stroke-width="1.128"/>
            </g>
          </g>
        </g>
        <line id="Línea_3130" data-name="Línea 3130" y1="40.893" x2="40.893" transform="translate(128 24.978)" fill="none" stroke="#333" stroke-linecap="round" stroke-linejoin="round" stroke-width="1.128"/>
        <path id="Trazado_748303" data-name="Trazado 748303" d="M142.1,18.117l-6.227,6.227a.4.4,0,0,0-.1.384l.965,3.495a.393.393,0,0,0,.657.174l6.227-6.228a.392.392,0,0,0,.1-.382l-.965-3.5a.394.394,0,0,0-.657-.173" transform="translate(23.015 3.052)" fill="#f56656"/>
        <path id="Trazado_748304" data-name="Trazado 748304" d="M149.176,24.825l-6.227,6.227a.4.4,0,0,1-.384.1l-3.495-.965a.393.393,0,0,1-.174-.657l6.228-6.227a.392.392,0,0,1,.382-.1l3.5.965a.394.394,0,0,1,.173.657" transform="translate(23.527 3.931)" fill="#f56656"/>
        <g id="Grupo_1019066" data-name="Grupo 1019066" transform="translate(47.998 62.813)" style="mix-blend-mode: multiply;isolation: isolate">
          <g id="Grupo_1019065" data-name="Grupo 1019065">
            <g id="Grupo_1019064" data-name="Grupo 1019064" clip-path="url(#clip-path-13)">
              <path id="Trazado_748305" data-name="Trazado 748305" d="M94.92,95.864V60.816a3.287,3.287,0,0,0-.841-2.2l-.047-.06-.084-.084A3.291,3.291,0,0,0,91.6,57.5H88.73v-.692a3.1,3.1,0,0,0-3.1-3.1H84.58a3.1,3.1,0,0,0-3.1,3.1V57.5h-27v-.692a3.1,3.1,0,0,0-3.1-3.1H50.332a3.1,3.1,0,0,0-3.1,3.1V57.5H44.358a3.291,3.291,0,0,0-2.345.972,1.783,1.783,0,0,0-.126.139,3.3,3.3,0,0,0-.846,2.206V95.864a3.3,3.3,0,0,0,.391,1.558h53.1a3.3,3.3,0,0,0,.391-1.558" transform="translate(-41.041 -53.708)" fill="#dfdfdf"/>
            </g>
          </g>
        </g>
        <path id="Trazado_748306" data-name="Trazado 748306" d="M91.348,96.617H44.1a1.557,1.557,0,0,1-1.557-1.558V60.012A1.558,1.558,0,0,1,44.1,58.454H91.348a1.558,1.558,0,0,1,1.558,1.558V95.059a1.557,1.557,0,0,1-1.558,1.558" transform="translate(7.213 9.91)" fill="#fff"/>
        <path id="Trazado_748307" data-name="Trazado 748307" d="M91.348,58.454H44.1a1.557,1.557,0,0,0-1.557,1.558v7.076H92.906V60.012a1.557,1.557,0,0,0-1.558-1.558" transform="translate(7.213 9.91)" fill="#91b3fa"/>
        <g id="Grupo_1019069" data-name="Grupo 1019069" transform="translate(97.81 68.364)" style="mix-blend-mode: multiply;isolation: isolate">
          <g id="Grupo_1019068" data-name="Grupo 1019068">
            <g id="Grupo_1019067" data-name="Grupo 1019067" clip-path="url(#clip-path-14)">
              <path id="Trazado_748308" data-name="Trazado 748308" d="M84.383,58.454h-.751V96.617h.751a1.558,1.558,0,0,0,1.558-1.558V60.012a1.557,1.557,0,0,0-1.558-1.558" transform="translate(-83.632 -58.454)" fill="#ccc"/>
            </g>
          </g>
        </g>
        <g id="Grupo_1019072" data-name="Grupo 1019072" transform="translate(49.757 68.364)" style="mix-blend-mode: overlay;isolation: isolate">
          <g id="Grupo_1019071" data-name="Grupo 1019071">
            <g id="Grupo_1019070" data-name="Grupo 1019070" clip-path="url(#clip-path-14)">
              <path id="Trazado_748309" data-name="Trazado 748309" d="M44.1,58.454h.751V96.617H44.1a1.558,1.558,0,0,1-1.558-1.558V60.012A1.557,1.557,0,0,1,44.1,58.454" transform="translate(-42.545 -58.454)" fill="#b3b3b3"/>
            </g>
          </g>
        </g>
        <rect id="Rectángulo_355870" data-name="Rectángulo 355870" width="50.361" height="38.163" rx="1.332" transform="translate(49.757 68.364)" fill="none" stroke="#333" stroke-linecap="round" stroke-linejoin="round" stroke-width="1.128"/>
        <line id="Línea_3131" data-name="Línea 3131" x2="50.361" transform="translate(49.757 76.998)" fill="none" stroke="#333" stroke-linecap="round" stroke-linejoin="round" stroke-width="1.128"/>
        <path id="Trazado_748310" data-name="Trazado 748310" d="M49.178,55.211a1.341,1.341,0,0,0-1.341,1.341v4.9A1.342,1.342,0,0,0,49.178,62.8h1.05a1.342,1.342,0,0,0,1.341-1.341v-4.9a1.341,1.341,0,0,0-1.341-1.341Z" transform="translate(8.11 9.36)" fill="#fff"/>
        <path id="Trazado_748311" data-name="Trazado 748311" d="M49.178,55.211a1.341,1.341,0,0,0-1.341,1.341v4.9A1.342,1.342,0,0,0,49.178,62.8h1.05a1.342,1.342,0,0,0,1.341-1.341v-4.9a1.341,1.341,0,0,0-1.341-1.341Z" transform="translate(8.11 9.36)" fill="none" stroke="#333" stroke-linecap="round" stroke-linejoin="round" stroke-width="1.128"/>
        <path id="Trazado_748312" data-name="Trazado 748312" d="M78.462,55.211a1.341,1.341,0,0,0-1.341,1.341v4.9A1.342,1.342,0,0,0,78.462,62.8h1.05a1.342,1.342,0,0,0,1.341-1.341v-4.9a1.341,1.341,0,0,0-1.341-1.341Z" transform="translate(13.074 9.36)" fill="#fff"/>
        <path id="Trazado_748313" data-name="Trazado 748313" d="M78.462,55.211a1.341,1.341,0,0,0-1.341,1.341v4.9A1.342,1.342,0,0,0,78.462,62.8h1.05a1.342,1.342,0,0,0,1.341-1.341v-4.9a1.341,1.341,0,0,0-1.341-1.341Z" transform="translate(13.074 9.36)" fill="none" stroke="#333" stroke-linecap="round" stroke-linejoin="round" stroke-width="1.128"/>
        <rect id="Rectángulo_355871" data-name="Rectángulo 355871" width="4.295" height="4.295" transform="translate(64.293 82.115)" fill="none" stroke="#333" stroke-linecap="round" stroke-linejoin="round" stroke-width="1.128"/>
        <rect id="Rectángulo_355872" data-name="Rectángulo 355872" width="4.293" height="4.295" transform="translate(72.791 82.115)" fill="none" stroke="#333" stroke-linecap="round" stroke-linejoin="round" stroke-width="1.128"/>
        <rect id="Rectángulo_355873" data-name="Rectángulo 355873" width="4.293" height="4.295" transform="translate(81.288 82.115)" fill="none" stroke="#333" stroke-linecap="round" stroke-linejoin="round" stroke-width="1.128"/>
        <rect id="Rectángulo_355874" data-name="Rectángulo 355874" width="4.295" height="4.295" transform="translate(89.785 82.115)" fill="none" stroke="#333" stroke-linecap="round" stroke-linejoin="round" stroke-width="1.128"/>
        <rect id="Rectángulo_355875" data-name="Rectángulo 355875" width="4.293" height="4.293" transform="translate(55.797 89.519)" fill="none" stroke="#333" stroke-linecap="round" stroke-linejoin="round" stroke-width="1.128"/>
        <rect id="Rectángulo_355876" data-name="Rectángulo 355876" width="4.295" height="4.293" transform="translate(64.293 89.519)" fill="none" stroke="#333" stroke-linecap="round" stroke-linejoin="round" stroke-width="1.128"/>
        <rect id="Rectángulo_355877" data-name="Rectángulo 355877" width="4.293" height="4.293" transform="translate(72.791 89.519)" fill="none" stroke="#333" stroke-linecap="round" stroke-linejoin="round" stroke-width="1.128"/>
        <rect id="Rectángulo_355878" data-name="Rectángulo 355878" width="4.293" height="4.293" transform="translate(81.288 89.519)" fill="none" stroke="#333" stroke-linecap="round" stroke-linejoin="round" stroke-width="1.128"/>
        <rect id="Rectángulo_355879" data-name="Rectángulo 355879" width="4.295" height="4.293" transform="translate(89.785 89.519)" fill="none" stroke="#333" stroke-linecap="round" stroke-linejoin="round" stroke-width="1.128"/>
        <rect id="Rectángulo_355880" data-name="Rectángulo 355880" width="4.293" height="4.293" transform="translate(55.797 96.924)" fill="none" stroke="#333" stroke-linecap="round" stroke-linejoin="round" stroke-width="1.128"/>
        <rect id="Rectángulo_355881" data-name="Rectángulo 355881" width="4.295" height="4.293" transform="translate(64.293 96.924)" fill="none" stroke="#333" stroke-linecap="round" stroke-linejoin="round" stroke-width="1.128"/>
        <rect id="Rectángulo_355882" data-name="Rectángulo 355882" width="4.293" height="4.293" transform="translate(72.791 96.924)" fill="none" stroke="#333" stroke-linecap="round" stroke-linejoin="round" stroke-width="1.128"/>
        <rect id="Rectángulo_355883" data-name="Rectángulo 355883" width="4.293" height="4.293" transform="translate(81.288 96.924)" fill="none" stroke="#333" stroke-linecap="round" stroke-linejoin="round" stroke-width="1.128"/>
        <g id="Grupo_1019075" data-name="Grupo 1019075" transform="translate(69 25.676)" style="mix-blend-mode: multiply;isolation: isolate">
          <g id="Grupo_1019074" data-name="Grupo 1019074">
            <g id="Grupo_1019073" data-name="Grupo 1019073" clip-path="url(#clip-path-16)">
              <path id="Trazado_748314" data-name="Trazado 748314" d="M125.936,89.724a5.121,5.121,0,0,1-5.116-5.116V82.849h-4.368V81.356h4.479V79.6c0-5.6-5.806-11.5-11.954-17.743-5.494-5.582-11.622-11.808-13.183-17.683a15.953,15.953,0,0,0,4.029.49,23.143,23.143,0,0,0,5.842-.808v2.465h10.927A6.417,6.417,0,0,0,123,39.909V30.994l-.956-.491A32.4,32.4,0,0,1,111.9,21.954,40.649,40.649,0,0,0,84.8,38.682H60.113a67.086,67.086,0,0,0-.649,8.575A87.731,87.731,0,0,0,65.827,80.3l.461,1.053h3.953v1.493H65.874v1.759a5.122,5.122,0,0,1-5.117,5.116H59V102.8h59a40.757,40.757,0,0,0,9.7-1.167V89.724Z" transform="translate(-58.998 -21.954)" fill="#dfdfdf"/>
            </g>
          </g>
        </g>
        <path id="Trazado_748315" data-name="Trazado 748315" d="M118.851,83.223c0-10.475-25.513-24.379-25.513-38.162,5.842,3.3,13.764,0,13.764,0v3.125h9.169a4.652,4.652,0,0,0,4.651-4.651V35.693c-14.2-7.3-19.895-25.835-19.895-25.835H94.594V.564C41.383,24.594,67.115,83.223,67.115,83.223Z" transform="translate(10.323 0.096)" fill="#57dbd8"/>
        <path id="Trazado_748316" data-name="Trazado 748316" d="M118.807,75.526H67.378A6.875,6.875,0,0,1,60.5,82.4V93.723h65.179V82.4a6.875,6.875,0,0,1-6.874-6.874" transform="translate(10.257 12.804)" fill="#57dbd8"/>
        <g id="Grupo_1019078" data-name="Grupo 1019078" transform="translate(70.759 88.33)" opacity="0.5" style="mix-blend-mode: overlay;isolation: isolate">
          <g id="Grupo_1019077" data-name="Grupo 1019077">
            <g id="Grupo_1019076" data-name="Grupo 1019076" clip-path="url(#clip-path-17)">
              <path id="Trazado_748317" data-name="Trazado 748317" d="M72.4,75.526H67.376A6.874,6.874,0,0,1,60.5,82.4V93.723h5.024V82.4A6.875,6.875,0,0,0,72.4,75.526" transform="translate(-60.502 -75.526)" fill="#fff"/>
            </g>
          </g>
        </g>
        <g id="Grupo_1019081" data-name="Grupo 1019081" transform="translate(119.9 88.33)" style="mix-blend-mode: multiply;isolation: isolate">
          <g id="Grupo_1019080" data-name="Grupo 1019080">
            <g id="Grupo_1019079" data-name="Grupo 1019079" clip-path="url(#clip-path-18)">
              <path id="Trazado_748318" data-name="Trazado 748318" d="M111.683,75.526H102.52A6.875,6.875,0,0,0,109.4,82.4V93.723h9.162V82.4a6.875,6.875,0,0,1-6.874-6.874" transform="translate(-102.52 -75.526)" fill="#fddebb"/>
            </g>
          </g>
        </g>
        <g id="Grupo_1019084" data-name="Grupo 1019084" transform="translate(71.218 0.66)" opacity="0.5" style="mix-blend-mode: overlay;isolation: isolate">
          <g id="Grupo_1019083" data-name="Grupo 1019083">
            <g id="Grupo_1019082" data-name="Grupo 1019082" clip-path="url(#clip-path-19)">
              <path id="Trazado_748319" data-name="Trazado 748319" d="M94.594.564C41.383,24.594,67.115,83.223,67.115,83.223h8.118C47.6,26.4,94.594.564,94.594.564" transform="translate(-60.895 -0.564)" fill="#fff"/>
            </g>
          </g>
        </g>
        <g id="Grupo_1019087" data-name="Grupo 1019087" transform="translate(113.303 14.918)" style="mix-blend-mode: multiply;isolation: isolate">
          <g id="Grupo_1019086" data-name="Grupo 1019086">
            <g id="Grupo_1019085" data-name="Grupo 1019085" clip-path="url(#clip-path-20)">
              <path id="Trazado_748320" data-name="Trazado 748320" d="M114.822,41.468V33.628c-9.526-4.9-15.224-14.85-17.943-20.873C99.8,26.983,111.765,34.92,111.765,34.92v5.05c0,6.6-7.152,6.149-7.152,6.149h5.558a4.652,4.652,0,0,0,4.651-4.651" transform="translate(-96.879 -12.755)" fill="#fddebb"/>
            </g>
          </g>
        </g>
        <rect id="Rectángulo_355889" data-name="Rectángulo 355889" width="42.695" height="5.011" transform="translate(82 83.318)" fill="#57dbd8"/>
        <g id="Grupo_1019090" data-name="Grupo 1019090" transform="translate(103.859 47.497)" style="mix-blend-mode: multiply;isolation: isolate">
          <g id="Grupo_1019089" data-name="Grupo 1019089">
            <g id="Grupo_1019088" data-name="Grupo 1019088" clip-path="url(#clip-path-21)">
              <path id="Trazado_748321" data-name="Trazado 748321" d="M88.846,40.612h0s-.885,4.448,5.464,13.519c5.9,8.433,6.691,18.329,2.718,22.3H114.12c0-9.883-22.7-22.816-25.274-35.821" transform="translate(-88.804 -40.612)" fill="#fddebb"/>
            </g>
          </g>
        </g>
        <g id="Grupo_1019093" data-name="Grupo 1019093" transform="translate(82.001 83.319)" style="mix-blend-mode: multiply;isolation: isolate">
          <g id="Grupo_1019092" data-name="Grupo 1019092">
            <g id="Grupo_1019091" data-name="Grupo 1019091" clip-path="url(#clip-path-22)">
              <rect id="Rectángulo_355891" data-name="Rectángulo 355891" width="42.695" height="2.505" transform="translate(0 0.001)" fill="#fddebb"/>
            </g>
          </g>
        </g>
        <path id="Trazado_748322" data-name="Trazado 748322" d="M118.851,83.223c0-10.475-25.513-24.379-25.513-38.162,5.842,3.3,13.764,0,13.764,0v3.125h9.169a4.652,4.652,0,0,0,4.651-4.651V35.693c-14.2-7.3-19.895-25.835-19.895-25.835H94.594V.564C41.383,24.594,67.115,83.223,67.115,83.223Z" transform="translate(10.323 0.096)" fill="none" stroke="#333" stroke-linecap="round" stroke-linejoin="round" stroke-width="1.128"/>
        <rect id="Rectángulo_355893" data-name="Rectángulo 355893" width="42.695" height="5.011" transform="translate(82 83.318)" fill="none" stroke="#333" stroke-linecap="round" stroke-linejoin="round" stroke-width="1.128"/>
        <path id="Trazado_748323" data-name="Trazado 748323" d="M118.807,75.526H67.378A6.875,6.875,0,0,1,60.5,82.4V93.723h65.179V82.4A6.875,6.875,0,0,1,118.807,75.526Z" transform="translate(10.257 12.804)" fill="none" stroke="#333" stroke-linecap="round" stroke-linejoin="round" stroke-width="1.128"/>
        <path id="Trazado_748324" data-name="Trazado 748324" d="M85.258,36.259a13.728,13.728,0,0,0,3.949,2.752" transform="translate(14.454 6.147)" fill="none" stroke="#333" stroke-linecap="round" stroke-linejoin="round" stroke-width="1.128"/>
        <line id="Línea_3132" data-name="Línea 3132" x2="65.179" transform="translate(70.759 95.205)" fill="none" stroke="#333" stroke-linecap="round" stroke-linejoin="round" stroke-width="1.128"/>
        <path id="Trazado_748325" data-name="Trazado 748325" d="M90.782,19.178h4.4l1.481,1.849" transform="translate(15.39 3.251)" fill="none" stroke="#333" stroke-linecap="round" stroke-linejoin="round" stroke-width="1.128"/>
        <g id="Grupo_1019096" data-name="Grupo 1019096" transform="translate(148.266 67.509)" style="mix-blend-mode: multiply;isolation: isolate">
          <g id="Grupo_1019095" data-name="Grupo 1019095">
            <g id="Grupo_1019094" data-name="Grupo 1019094" clip-path="url(#clip-path-23)">
              <path id="Trazado_748326" data-name="Trazado 748326" d="M147.041,57.723c-.268,0-.533.007-.791.018-.221.009-.441.023-.661.039l-.068,0a20.071,20.071,0,0,0-11.885,5.01l-.5.441-.851.851-.441.5a20.188,20.188,0,0,0-1.686,24.569q.707-.507,1.392-1.042a40.834,40.834,0,0,0,10.921-13.057c.38-.719.741-1.45,1.078-2.194a40.387,40.387,0,0,0,3.471-13.381q.072-.874.106-1.757l-.087,0" transform="translate(-126.774 -57.723)" fill="#dfdfdf"/>
            </g>
          </g>
        </g>
        <path id="Trazado_748327" data-name="Trazado 748327" d="M158.119,63.858a18.492,18.492,0,0,0-24.482,0L145.878,76.1Z" transform="translate(22.655 10.041)" fill="#57dbd8"/>
        <path id="Trazado_748328" data-name="Trazado 748328" d="M162.167,75.67a18.427,18.427,0,0,0-4.592-11.084L146.492,75.67Z" transform="translate(24.835 10.949)" fill="#fff"/>
        <g id="Grupo_1019099" data-name="Grupo 1019099" transform="translate(167.144 69.268)" style="mix-blend-mode: multiply;isolation: isolate">
          <g id="Grupo_1019098" data-name="Grupo 1019098">
            <g id="Grupo_1019097" data-name="Grupo 1019097" clip-path="url(#clip-path-24)">
              <path id="Trazado_748329" data-name="Trazado 748329" d="M155.215,65.188l1.33-1.33a18.431,18.431,0,0,0-12.24-4.631c-.468,0-.93.022-1.389.056a18.449,18.449,0,0,1,12.3,5.9" transform="translate(-142.916 -59.227)" fill="#e6e6e6"/>
            </g>
          </g>
        </g>
        <g id="Grupo_1019102" data-name="Grupo 1019102" transform="translate(180.911 75.536)" style="mix-blend-mode: multiply;isolation: isolate">
          <g id="Grupo_1019101" data-name="Grupo 1019101">
            <g id="Grupo_1019100" data-name="Grupo 1019100" clip-path="url(#clip-path-25)">
              <path id="Trazado_748330" data-name="Trazado 748330" d="M160.778,75.67a18.427,18.427,0,0,0-4.592-11.084l-1.5,1.5a18.4,18.4,0,0,1,3.4,9.584Z" transform="translate(-154.687 -64.586)" fill="#e6e6e6"/>
            </g>
          </g>
        </g>
        <path id="Trazado_748331" data-name="Trazado 748331" d="M132.909,64.586a18.506,18.506,0,1,0,32.346,13.4H146.307Z" transform="translate(21.747 10.949)" fill="#91b3fa"/>
        <g id="Grupo_1019105" data-name="Grupo 1019105" transform="translate(152.109 82.265)" opacity="0.85">
          <g id="Grupo_1019104" data-name="Grupo 1019104">
            <g id="Grupo_1019103" data-name="Grupo 1019103" clip-path="url(#clip-path-26)">
              <path id="Trazado_748332" data-name="Trazado 748332" d="M130.624,73a15.95,15.95,0,0,1,.513-2.091" transform="translate(-129.964 -70.245)" fill="none" stroke="#fff" stroke-linecap="round" stroke-linejoin="round" stroke-width="1.128"/>
            </g>
          </g>
        </g>
        <g id="Grupo_1019108" data-name="Grupo 1019108" transform="translate(151.869 86.636)" opacity="0.85">
          <g id="Grupo_1019107" data-name="Grupo 1019107">
            <g id="Grupo_1019106" data-name="Grupo 1019106" clip-path="url(#clip-path-27)">
              <path id="Trazado_748333" data-name="Trazado 748333" d="M133.156,84.065a15.911,15.911,0,0,1-2.737-8.942q0-.24.007-.481" transform="translate(-129.759 -73.982)" fill="none" stroke="#fff" stroke-linecap="round" stroke-linejoin="round" stroke-width="1.128"/>
            </g>
          </g>
        </g>
        <g id="Grupo_1019111" data-name="Grupo 1019111" transform="translate(167.19 88.934)" style="mix-blend-mode: multiply;isolation: isolate">
          <g id="Grupo_1019110" data-name="Grupo 1019110">
            <g id="Grupo_1019109" data-name="Grupo 1019109" clip-path="url(#clip-path-28)">
              <path id="Trazado_748334" data-name="Trazado 748334" d="M160.079,76.042a18.5,18.5,0,0,1-17.123,17.3c.443.033.89.054,1.341.054a18.506,18.506,0,0,0,18.469-17.351Z" transform="translate(-142.955 -76.042)" fill="#e6e6e6"/>
            </g>
          </g>
        </g>
        <path id="Trazado_748335" data-name="Trazado 748335" d="M162.167,75.67a18.427,18.427,0,0,0-4.592-11.084L146.492,75.67Z" transform="translate(24.835 10.949)" fill="none" stroke="#333" stroke-linecap="round" stroke-linejoin="round" stroke-width="1.128"/>
        <path id="Trazado_748336" data-name="Trazado 748336" d="M132.909,64.586a18.506,18.506,0,1,0,32.346,13.4H146.307Z" transform="translate(21.747 10.949)" fill="none" stroke="#333" stroke-linecap="round" stroke-linejoin="round" stroke-width="1.128"/>
        <path id="Trazado_748337" data-name="Trazado 748337" d="M158.119,63.858a18.492,18.492,0,0,0-24.482,0L145.878,76.1Z" transform="translate(22.655 10.041)" fill="none" stroke="#333" stroke-linecap="round" stroke-linejoin="round" stroke-width="1.128"/>
      </g>
    </g>
  </g>
</svg>
