<svg xmlns="http://www.w3.org/2000/svg" xmlns:xlink="http://www.w3.org/1999/xlink" width="281" height="655" viewBox="0 0 281 655">
  <defs>
    <filter id="Trazado_748338" x="9" y="28" width="271" height="163" filterUnits="userSpaceOnUse">
      <feOffset dx="3" dy="3" input="SourceAlpha"/>
      <feGaussianBlur stdDeviation="3" result="blur"/>
      <feFlood flood-opacity="0.161"/>
      <feComposite operator="in" in2="blur"/>
      <feComposite in="SourceGraphic"/>
    </filter>
    <filter id="Trazado_748339" x="28" y="0" width="233" height="74" filterUnits="userSpaceOnUse">
      <feOffset dx="3" dy="3" input="SourceAlpha"/>
      <feGaussianBlur stdDeviation="3" result="blur-2"/>
      <feFlood flood-opacity="0.161"/>
      <feComposite operator="in" in2="blur-2"/>
      <feComposite in="SourceGraphic"/>
    </filter>
    <radialGradient id="radial-gradient" cx="0.5" cy="0.5" r="0.5" gradientUnits="objectBoundingBox">
      <stop offset="0" stop-opacity="0.349"/>
      <stop offset="1" stop-opacity="0"/>
    </radialGradient>
    <filter id="Trazado_748343" x="7" y="247" width="271" height="163" filterUnits="userSpaceOnUse">
      <feOffset dx="3" dy="3" input="SourceAlpha"/>
      <feGaussianBlur stdDeviation="3" result="blur-3"/>
      <feFlood flood-opacity="0.161"/>
      <feComposite operator="in" in2="blur-3"/>
      <feComposite in="SourceGraphic"/>
    </filter>
    <filter id="Trazado_748344" x="26" y="219" width="233" height="74" filterUnits="userSpaceOnUse">
      <feOffset dx="3" dy="3" input="SourceAlpha"/>
      <feGaussianBlur stdDeviation="3" result="blur-4"/>
      <feFlood flood-opacity="0.161"/>
      <feComposite operator="in" in2="blur-4"/>
      <feComposite in="SourceGraphic"/>
    </filter>
    <filter id="Trazado_748349" x="6" y="466" width="271" height="163" filterUnits="userSpaceOnUse">
      <feOffset dx="3" dy="3" input="SourceAlpha"/>
      <feGaussianBlur stdDeviation="3" result="blur-5"/>
      <feFlood flood-opacity="0.161"/>
      <feComposite operator="in" in2="blur-5"/>
      <feComposite in="SourceGraphic"/>
    </filter>
    <filter id="Trazado_748350" x="25" y="438" width="233" height="74" filterUnits="userSpaceOnUse">
      <feOffset dx="3" dy="3" input="SourceAlpha"/>
      <feGaussianBlur stdDeviation="3" result="blur-6"/>
      <feFlood flood-opacity="0.161"/>
      <feComposite operator="in" in2="blur-6"/>
      <feComposite in="SourceGraphic"/>
    </filter>
  </defs>
  <g id="Grupo_1019120" data-name="Grupo 1019120" transform="translate(-374 -7508)">
    <g transform="matrix(1, 0, 0, 1, 374, 7508)" filter="url(#Trazado_748338)">
      <g id="Trazado_748338-2" data-name="Trazado 748338" transform="translate(15 34)" fill="#fff">
        <path d="M 243 144 L 10 144 C 5.03736686706543 144 1 139.9626312255859 1 135 L 1 10 C 1 5.03736686706543 5.03736686706543 1 10 1 L 243 1 C 247.9626312255859 1 252 5.03736686706543 252 10 L 252 135 C 252 139.9626312255859 247.9626312255859 144 243 144 Z" stroke="none"/>
        <path d="M 10 2 C 5.58880615234375 2 2 5.58880615234375 2 10 L 2 135 C 2 139.4111938476562 5.58880615234375 143 10 143 L 243 143 C 247.4111938476562 143 251 139.4111938476562 251 135 L 251 10 C 251 5.58880615234375 247.4111938476562 2 243 2 L 10 2 M 10 0 L 243 0 C 248.5228271484375 0 253 4.4771728515625 253 10 L 253 135 C 253 140.5228271484375 248.5228271484375 145 243 145 L 10 145 C 4.4771728515625 145 0 140.5228271484375 0 135 L 0 10 C 0 4.4771728515625 4.4771728515625 0 10 0 Z" stroke="none" fill="#91b3fa"/>
      </g>
    </g>
    <g transform="matrix(1, 0, 0, 1, 374, 7508)" filter="url(#Trazado_748339)">
      <g id="Trazado_748339-2" data-name="Trazado 748339" transform="translate(34 6)" fill="#91b3fa">
        <path d="M 205 55 L 10 55 C 5.037388801574707 55 1 50.96261215209961 1 46 L 1 10 C 1 5.037388801574707 5.037388801574707 1 10 1 L 205 1 C 209.9626159667969 1 214 5.037388801574707 214 10 L 214 46 C 214 50.96261215209961 209.9626159667969 55 205 55 Z" stroke="none"/>
        <path d="M 10 2 C 5.588790893554688 2 2 5.588794708251953 2 10 L 2 46 C 2 50.41120529174805 5.588790893554688 54 10 54 L 205 54 C 209.4112091064453 54 213 50.41120529174805 213 46 L 213 10 C 213 5.588794708251953 209.4112091064453 2 205 2 L 10 2 M 10 0 L 205 0 C 210.5228576660156 0 215 4.477146148681641 215 10 L 215 46 C 215 51.52285385131836 210.5228576660156 56 205 56 L 10 56 C 4.477142333984375 56 0 51.52285385131836 0 46 L 0 10 C 0 4.477146148681641 4.477142333984375 0 10 0 Z" stroke="none" fill="#fff"/>
      </g>
    </g>
    <path id="Trazado_748340" data-name="Trazado 748340" d="M127,0c70.14,0,127,3.582,127,8s-56.86,8-127,8S0,12.418,0,8,56.86,0,127,0Z" transform="translate(389 7697)" opacity="0.53" fill="url(#radial-gradient)"/>
    <path id="Trazado_748341" data-name="Trazado 748341" d="M76.941,3.914l2.7,8.409,2.689-8.409h3.835V16H83.241V13.178L83.523,7.4,80.6,16H78.676l-2.93-8.608.282,5.786V16H73.114V3.914Zm15.29,12.252a4.617,4.617,0,0,1-3.345-1.233,4.257,4.257,0,0,1-1.278-3.208v-.232a5.516,5.516,0,0,1,.51-2.432,3.735,3.735,0,0,1,1.49-1.631,4.5,4.5,0,0,1,2.324-.577A3.888,3.888,0,0,1,94.92,8.027a4.616,4.616,0,0,1,1.1,3.275v1.087H90.454a2.016,2.016,0,0,0,.656,1.187,1.951,1.951,0,0,0,1.312.432,2.514,2.514,0,0,0,2.075-.93l1.278,1.511a3.573,3.573,0,0,1-1.482,1.15A5.007,5.007,0,0,1,92.231,16.166Zm-.315-7.155q-1.229,0-1.461,1.627h2.822v-.216a1.386,1.386,0,0,0-.34-1.042A1.354,1.354,0,0,0,91.915,9.011Zm4.873,2.432a5.486,5.486,0,0,1,.921-3.362,3.033,3.033,0,0,1,2.573-1.229,2.579,2.579,0,0,1,2.025.946V3.25h2.806V16H102.6l-.141-.963a2.649,2.649,0,0,1-2.191,1.129,3.027,3.027,0,0,1-2.54-1.229A5.66,5.66,0,0,1,96.788,11.443Zm2.8.174q0,2.391,1.395,2.391a1.377,1.377,0,0,0,1.328-.78V9.808a1.34,1.34,0,0,0-1.312-.8q-1.295,0-1.4,2.092ZM109.654,16h-2.806V7.019h2.806ZM106.682,4.7a1.249,1.249,0,0,1,.432-.979,1.835,1.835,0,0,1,2.241,0,1.249,1.249,0,0,1,.432.979,1.249,1.249,0,0,1-.432.979,1.835,1.835,0,0,1-2.241,0A1.249,1.249,0,0,1,106.682,4.7Zm13.032,6.881a5.474,5.474,0,0,1-.913,3.4,3.058,3.058,0,0,1-2.573,1.187,2.654,2.654,0,0,1-2.208-1.087L113.9,16H111.4V3.25h2.8V7.741a2.561,2.561,0,0,1,2.017-.888,3.059,3.059,0,0,1,2.59,1.2,5.5,5.5,0,0,1,.913,3.387Zm-2.806-.178a3.651,3.651,0,0,0-.344-1.844,1.161,1.161,0,0,0-1.058-.551,1.339,1.339,0,0,0-1.312.721V13.3a1.347,1.347,0,0,0,1.328.713,1.188,1.188,0,0,0,1.253-.961A6.9,6.9,0,0,0,116.909,11.406ZM123.9,16h-2.806V3.25H123.9Zm6.068.166a4.617,4.617,0,0,1-3.345-1.233,4.257,4.257,0,0,1-1.278-3.208v-.232a5.516,5.516,0,0,1,.51-2.432,3.735,3.735,0,0,1,1.49-1.631,4.5,4.5,0,0,1,2.324-.577,3.888,3.888,0,0,1,2.988,1.175,4.616,4.616,0,0,1,1.1,3.275v1.087H128.19a2.016,2.016,0,0,0,.656,1.187,1.951,1.951,0,0,0,1.312.432,2.514,2.514,0,0,0,2.075-.93l1.278,1.511a3.573,3.573,0,0,1-1.482,1.15A5.007,5.007,0,0,1,129.966,16.166Zm-.315-7.155q-1.229,0-1.461,1.627h2.822v-.216a1.386,1.386,0,0,0-.34-1.042A1.354,1.354,0,0,0,129.651,9.011Zm9.928,4.466a.646.646,0,0,0-.374-.573,5.682,5.682,0,0,0-1.419-.448,6.473,6.473,0,0,1-1.727-.61,2.892,2.892,0,0,1-1.038-.917,2.19,2.19,0,0,1-.357-1.237,2.482,2.482,0,0,1,1.021-2.038,4.206,4.206,0,0,1,2.673-.8,4.66,4.66,0,0,1,2.855.805,2.518,2.518,0,0,1,1.079,2.117h-2.806q0-1.079-1.137-1.079a1.127,1.127,0,0,0-.739.245.758.758,0,0,0-.3.61.7.7,0,0,0,.365.606,3.451,3.451,0,0,0,1.166.382,10.079,10.079,0,0,1,1.407.357,2.556,2.556,0,0,1,2.025,2.5,2.352,2.352,0,0,1-1.092,2,4.787,4.787,0,0,1-2.826.772,4.885,4.885,0,0,1-2.059-.415,3.442,3.442,0,0,1-1.411-1.129,2.556,2.556,0,0,1-.506-1.5H137a1.081,1.081,0,0,0,.415.909,1.707,1.707,0,0,0,1.021.286,1.343,1.343,0,0,0,.859-.232A.743.743,0,0,0,139.578,13.477Z" transform="translate(408 7531)" fill="#12263f"/>
    <path id="Trazado_748342" data-name="Trazado 748342" d="M51.164,15V3.625h3.359A5.269,5.269,0,0,1,57.2,4.3,4.581,4.581,0,0,1,59.008,6.2a6.051,6.051,0,0,1,.641,2.828V9.6A6.026,6.026,0,0,1,59,12.445a4.526,4.526,0,0,1-1.836,1.891,5.513,5.513,0,0,1-2.73.664Zm1.977-9.781v8.2H54.43a2.968,2.968,0,0,0,2.387-.973,4.237,4.237,0,0,0,.848-2.793V9.023a4.347,4.347,0,0,0-.8-2.828,2.853,2.853,0,0,0-2.336-.977Zm12.016,9.938A3.928,3.928,0,0,1,62.23,14.02a4.124,4.124,0,0,1-1.121-3.027v-.234A5.072,5.072,0,0,1,61.6,8.5a3.716,3.716,0,0,1,1.371-1.551,3.625,3.625,0,0,1,1.969-.555,3.318,3.318,0,0,1,2.668,1.1,4.658,4.658,0,0,1,.941,3.117v.766H63.023a2.539,2.539,0,0,0,.7,1.656,2.1,2.1,0,0,0,1.543.609,2.571,2.571,0,0,0,2.125-1.055l1.023.977a3.418,3.418,0,0,1-1.355,1.176A4.244,4.244,0,0,1,65.156,15.156ZM64.93,7.914a1.6,1.6,0,0,0-1.262.547,2.835,2.835,0,0,0-.613,1.523h3.617V9.844A2.307,2.307,0,0,0,66.164,8.4,1.586,1.586,0,0,0,64.93,7.914Zm12.508,2.945a5.078,5.078,0,0,1-.879,3.133,2.863,2.863,0,0,1-2.418,1.164,2.758,2.758,0,0,1-2.312-1.07L71.734,15H70.016V3h1.9V7.359a2.748,2.748,0,0,1,2.211-.969,2.9,2.9,0,0,1,2.43,1.148,5.162,5.162,0,0,1,.883,3.211Zm-1.9-.164a3.589,3.589,0,0,0-.484-2.062,1.613,1.613,0,0,0-1.406-.687,1.763,1.763,0,0,0-1.734,1.078v3.484a1.781,1.781,0,0,0,1.75,1.1,1.6,1.6,0,0,0,1.375-.664,3.477,3.477,0,0,0,.5-2.008Zm7.211,4.461a3.928,3.928,0,0,1-2.926-1.137A4.124,4.124,0,0,1,78.7,10.992v-.234A5.072,5.072,0,0,1,79.191,8.5a3.716,3.716,0,0,1,1.371-1.551,3.625,3.625,0,0,1,1.969-.555,3.318,3.318,0,0,1,2.668,1.1,4.658,4.658,0,0,1,.941,3.117v.766H80.617a2.539,2.539,0,0,0,.7,1.656,2.1,2.1,0,0,0,1.543.609,2.571,2.571,0,0,0,2.125-1.055l1.023.977a3.418,3.418,0,0,1-1.355,1.176A4.244,4.244,0,0,1,82.75,15.156Zm-.227-7.242a1.6,1.6,0,0,0-1.262.547,2.835,2.835,0,0,0-.613,1.523h3.617V9.844A2.307,2.307,0,0,0,83.758,8.4,1.586,1.586,0,0,0,82.523,7.914Zm6.852-1.367.055.977a3.039,3.039,0,0,1,2.461-1.133q2.641,0,2.688,3.023V15h-1.9V9.523a1.741,1.741,0,0,0-.348-1.191A1.462,1.462,0,0,0,91.2,7.945a1.829,1.829,0,0,0-1.711,1.039V15h-1.9V6.547ZM105.234,12.7a.861.861,0,0,0-.418-.773,4.445,4.445,0,0,0-1.387-.469,7.129,7.129,0,0,1-1.617-.516,2.158,2.158,0,0,1-1.422-1.992,2.25,2.25,0,0,1,.922-1.828,3.644,3.644,0,0,1,2.344-.734,3.792,3.792,0,0,1,2.449.75,2.38,2.38,0,0,1,.934,1.945h-1.9a1.17,1.17,0,0,0-.406-.91,1.557,1.557,0,0,0-1.078-.363,1.682,1.682,0,0,0-1.02.289.911.911,0,0,0-.395.773.769.769,0,0,0,.367.68,5.049,5.049,0,0,0,1.484.488,7.027,7.027,0,0,1,1.754.586,2.484,2.484,0,0,1,.945.816A2.082,2.082,0,0,1,107.1,12.6a2.2,2.2,0,0,1-.945,1.848,4.031,4.031,0,0,1-2.477.707,4.371,4.371,0,0,1-1.852-.375,3.047,3.047,0,0,1-1.266-1.031,2.441,2.441,0,0,1-.453-1.414h1.844a1.338,1.338,0,0,0,.508,1.035,1.973,1.973,0,0,0,1.242.363,1.92,1.92,0,0,0,1.141-.285A.883.883,0,0,0,105.234,12.7Zm7.242,2.453a3.928,3.928,0,0,1-2.926-1.137,4.124,4.124,0,0,1-1.121-3.027v-.234a5.072,5.072,0,0,1,.488-2.262,3.716,3.716,0,0,1,1.371-1.551,3.625,3.625,0,0,1,1.969-.555,3.318,3.318,0,0,1,2.668,1.1,4.658,4.658,0,0,1,.941,3.117v.766h-5.523a2.539,2.539,0,0,0,.7,1.656,2.1,2.1,0,0,0,1.543.609,2.571,2.571,0,0,0,2.125-1.055l1.023.977a3.418,3.418,0,0,1-1.355,1.176A4.244,4.244,0,0,1,112.477,15.156Zm-.227-7.242a1.6,1.6,0,0,0-1.262.547,2.835,2.835,0,0,0-.613,1.523h3.617V9.844a2.307,2.307,0,0,0-.508-1.441A1.586,1.586,0,0,0,112.25,7.914Zm9.516.367a4.7,4.7,0,0,0-.773-.062,1.741,1.741,0,0,0-1.758,1V15h-1.9V6.547h1.813l.047.945a2.139,2.139,0,0,1,1.906-1.1,1.777,1.777,0,0,1,.672.109ZM34.3,35.641a1.716,1.716,0,0,0,1.18-.414,1.415,1.415,0,0,0,.5-1.023h1.789a2.789,2.789,0,0,1-.492,1.473,3.228,3.228,0,0,1-1.25,1.082,3.725,3.725,0,0,1-1.7.4,3.6,3.6,0,0,1-2.812-1.148,4.555,4.555,0,0,1-1.039-3.172v-.2a4.479,4.479,0,0,1,1.031-3.09,3.571,3.571,0,0,1,2.813-1.16,3.473,3.473,0,0,1,2.457.879,3.148,3.148,0,0,1,1,2.309H35.984a1.738,1.738,0,0,0-.5-1.2,1.6,1.6,0,0,0-1.184-.469,1.671,1.671,0,0,0-1.422.668,3.408,3.408,0,0,0-.508,2.027v.3a3.465,3.465,0,0,0,.5,2.051A1.669,1.669,0,0,0,34.3,35.641Zm10.023.531a2.944,2.944,0,0,1-2.375.984,2.624,2.624,0,0,1-2.082-.8,3.423,3.423,0,0,1-.707-2.328V28.547h1.9V34q0,1.609,1.336,1.609a1.876,1.876,0,0,0,1.867-.992v-6.07h1.9V37H44.375Zm8.82.828a2.93,2.93,0,0,1-.219-.789,3.193,3.193,0,0,1-4.3.219,2.325,2.325,0,0,1-.8-1.8,2.4,2.4,0,0,1,1-2.074,4.865,4.865,0,0,1,2.871-.723h1.164v-.555A1.481,1.481,0,0,0,52.5,30.23a1.456,1.456,0,0,0-1.117-.395,1.672,1.672,0,0,0-1.062.324,1,1,0,0,0-.414.824h-1.9a2.107,2.107,0,0,1,.461-1.3,3.071,3.071,0,0,1,1.254-.949,4.4,4.4,0,0,1,1.77-.344,3.547,3.547,0,0,1,2.367.746,2.661,2.661,0,0,1,.906,2.1v3.813a4.321,4.321,0,0,0,.32,1.82V37Zm-2.086-1.367a2.159,2.159,0,0,0,1.059-.273,1.827,1.827,0,0,0,.746-.734V33.031H51.844a2.8,2.8,0,0,0-1.586.367,1.189,1.189,0,0,0-.531,1.039,1.109,1.109,0,0,0,.363.871A1.407,1.407,0,0,0,51.063,35.633Zm7.453-7.086.055.977a3.039,3.039,0,0,1,2.461-1.133q2.641,0,2.688,3.023V37h-1.9V31.523a1.741,1.741,0,0,0-.348-1.191,1.462,1.462,0,0,0-1.137-.387,1.829,1.829,0,0,0-1.711,1.039V37h-1.9V28.547Zm9.516-2.055v2.055h1.492v1.406H68.031v4.719a1.039,1.039,0,0,0,.191.7.888.888,0,0,0,.684.215,2.925,2.925,0,0,0,.664-.078v1.469a4.676,4.676,0,0,1-1.25.18q-2.188,0-2.187-2.414V29.953H64.742V28.547h1.391V26.492ZM72.992,37h-1.9V28.547h1.9ZM70.977,26.352a1.008,1.008,0,0,1,.277-.727,1.048,1.048,0,0,1,.793-.289,1.061,1.061,0,0,1,.8.289,1,1,0,0,1,.281.727.977.977,0,0,1-.281.715,1.069,1.069,0,0,1-.8.285,1.056,1.056,0,0,1-.793-.285A.984.984,0,0,1,70.977,26.352ZM75.563,37V29.953H74.273V28.547h1.289v-.578a3.382,3.382,0,0,1,.422-1.7,2.624,2.624,0,0,1,1.172-1.07,4.218,4.218,0,0,1,1.82-.359,5.306,5.306,0,0,1,1.2.133q.574.133,1.191.336l-.289,1.57a6.043,6.043,0,0,0-1.969-.375,1.759,1.759,0,0,0-1.258.379,1.516,1.516,0,0,0-.391,1.137v.531h1.664v1.406H77.461V37Zm6.7,0h-1.9V28.547h1.9Zm5.578-1.359a1.716,1.716,0,0,0,1.18-.414,1.415,1.415,0,0,0,.5-1.023h1.789a2.789,2.789,0,0,1-.492,1.473,3.228,3.228,0,0,1-1.25,1.082,3.725,3.725,0,0,1-1.7.4,3.6,3.6,0,0,1-2.812-1.148,4.555,4.555,0,0,1-1.039-3.172v-.2a4.479,4.479,0,0,1,1.031-3.09,3.571,3.571,0,0,1,2.813-1.16,3.473,3.473,0,0,1,2.457.879,3.148,3.148,0,0,1,1,2.309H89.523a1.738,1.738,0,0,0-.5-1.2,1.6,1.6,0,0,0-1.184-.469,1.671,1.671,0,0,0-1.422.668,3.408,3.408,0,0,0-.508,2.027v.3a3.465,3.465,0,0,0,.5,2.051A1.669,1.669,0,0,0,87.844,35.641ZM97.8,37a2.93,2.93,0,0,1-.219-.789,3.193,3.193,0,0,1-4.3.219,2.325,2.325,0,0,1-.8-1.8,2.4,2.4,0,0,1,1-2.074,4.865,4.865,0,0,1,2.871-.723h1.164v-.555a1.481,1.481,0,0,0-.367-1.051,1.456,1.456,0,0,0-1.117-.395,1.672,1.672,0,0,0-1.062.324,1,1,0,0,0-.414.824h-1.9a2.107,2.107,0,0,1,.461-1.3,3.071,3.071,0,0,1,1.254-.949,4.4,4.4,0,0,1,1.77-.344,3.547,3.547,0,0,1,2.367.746,2.661,2.661,0,0,1,.906,2.1v3.813a4.321,4.321,0,0,0,.32,1.82V37Zm-2.086-1.367a2.159,2.159,0,0,0,1.059-.273,1.827,1.827,0,0,0,.746-.734V33.031H96.492a2.8,2.8,0,0,0-1.586.367,1.189,1.189,0,0,0-.531,1.039,1.109,1.109,0,0,0,.363.871A1.407,1.407,0,0,0,95.711,35.633Zm13.109-2.773a5.078,5.078,0,0,1-.879,3.133,2.863,2.863,0,0,1-2.418,1.164,2.758,2.758,0,0,1-2.312-1.07l-.094.914H101.4V25h1.9v4.359a2.748,2.748,0,0,1,2.211-.969,2.9,2.9,0,0,1,2.43,1.148,5.162,5.162,0,0,1,.883,3.211Zm-1.9-.164a3.589,3.589,0,0,0-.484-2.062,1.613,1.613,0,0,0-1.406-.687,1.763,1.763,0,0,0-1.734,1.078v3.484a1.781,1.781,0,0,0,1.75,1.1,1.6,1.6,0,0,0,1.375-.664,3.477,3.477,0,0,0,.5-2.008ZM112.43,37h-1.9V25h1.9Zm5.789.156a3.928,3.928,0,0,1-2.926-1.137,4.124,4.124,0,0,1-1.121-3.027v-.234a5.072,5.072,0,0,1,.488-2.262,3.716,3.716,0,0,1,1.371-1.551A3.625,3.625,0,0,1,118,28.391a3.318,3.318,0,0,1,2.668,1.1,4.658,4.658,0,0,1,.941,3.117v.766h-5.523a2.539,2.539,0,0,0,.7,1.656,2.1,2.1,0,0,0,1.543.609,2.571,2.571,0,0,0,2.125-1.055l1.023.977a3.418,3.418,0,0,1-1.355,1.176A4.244,4.244,0,0,1,118.219,37.156Zm-.227-7.242a1.6,1.6,0,0,0-1.262.547,2.835,2.835,0,0,0-.613,1.523h3.617v-.141a2.307,2.307,0,0,0-.508-1.441A1.586,1.586,0,0,0,117.992,29.914ZM127.82,34.7a.861.861,0,0,0-.418-.773,4.445,4.445,0,0,0-1.387-.469,7.129,7.129,0,0,1-1.617-.516,2.158,2.158,0,0,1-1.422-1.992,2.25,2.25,0,0,1,.922-1.828,3.644,3.644,0,0,1,2.344-.734,3.792,3.792,0,0,1,2.449.75,2.38,2.38,0,0,1,.934,1.945h-1.9a1.17,1.17,0,0,0-.406-.91,1.557,1.557,0,0,0-1.078-.363,1.682,1.682,0,0,0-1.02.289.911.911,0,0,0-.395.773.769.769,0,0,0,.367.68,5.049,5.049,0,0,0,1.484.488,7.027,7.027,0,0,1,1.754.586,2.484,2.484,0,0,1,.945.816,2.082,2.082,0,0,1,.309,1.156,2.2,2.2,0,0,1-.945,1.848,4.031,4.031,0,0,1-2.477.707,4.371,4.371,0,0,1-1.852-.375,3.047,3.047,0,0,1-1.266-1.031,2.441,2.441,0,0,1-.453-1.414h1.844a1.338,1.338,0,0,0,.508,1.035,1.973,1.973,0,0,0,1.242.363,1.92,1.92,0,0,0,1.141-.285A.883.883,0,0,0,127.82,34.7Zm10.461-.422L140,28.547h2.023l-3.359,9.734a2.73,2.73,0,0,1-2.625,2.133,3.384,3.384,0,0,1-.914-.141V38.8l.359.023a1.848,1.848,0,0,0,1.082-.262,1.734,1.734,0,0,0,.574-.878l.273-.726-2.969-8.408h2.047ZM41.82,56.7a.861.861,0,0,0-.418-.773,4.445,4.445,0,0,0-1.387-.469,7.129,7.129,0,0,1-1.617-.516,2.158,2.158,0,0,1-1.422-1.992,2.25,2.25,0,0,1,.922-1.828,3.644,3.644,0,0,1,2.344-.734,3.792,3.792,0,0,1,2.449.75,2.38,2.38,0,0,1,.934,1.945h-1.9a1.17,1.17,0,0,0-.406-.91,1.557,1.557,0,0,0-1.078-.363,1.682,1.682,0,0,0-1.02.289.911.911,0,0,0-.395.773.769.769,0,0,0,.367.68,5.049,5.049,0,0,0,1.484.488,7.027,7.027,0,0,1,1.754.586,2.484,2.484,0,0,1,.945.816,2.082,2.082,0,0,1,.309,1.156,2.2,2.2,0,0,1-.945,1.848,4.031,4.031,0,0,1-2.477.707,4.371,4.371,0,0,1-1.852-.375,3.047,3.047,0,0,1-1.266-1.031,2.441,2.441,0,0,1-.453-1.414h1.844a1.338,1.338,0,0,0,.508,1.035,1.973,1.973,0,0,0,1.242.363,1.92,1.92,0,0,0,1.141-.285A.883.883,0,0,0,41.82,56.7ZM47.359,59h-1.9V50.547h1.9ZM45.344,48.352a1.008,1.008,0,0,1,.277-.727,1.048,1.048,0,0,1,.793-.289,1.061,1.061,0,0,1,.8.289,1,1,0,0,1,.281.727.977.977,0,0,1-.281.715,1.069,1.069,0,0,1-.8.285,1.056,1.056,0,0,1-.793-.285A.984.984,0,0,1,45.344,48.352Zm3.75,6.359a4.944,4.944,0,0,1,.926-3.145,2.971,2.971,0,0,1,2.457-1.176A2.784,2.784,0,0,1,54.75,51.4l.086-.852h1.711v8.2a3.406,3.406,0,0,1-1.035,2.625,3.943,3.943,0,0,1-2.793.961,4.5,4.5,0,0,1-1.816-.387,3.227,3.227,0,0,1-1.348-1.012l.9-1.141a2.713,2.713,0,0,0,2.156,1.039,2.1,2.1,0,0,0,1.492-.512,1.961,1.961,0,0,0,.547-1.5v-.57a2.8,2.8,0,0,1-2.187.914,2.964,2.964,0,0,1-2.426-1.18A5.1,5.1,0,0,1,49.094,54.711Zm1.891.164a3.4,3.4,0,0,0,.52,2,1.671,1.671,0,0,0,1.441.73,1.827,1.827,0,0,0,1.7-.984V52.906a1.8,1.8,0,0,0-1.687-.961,1.677,1.677,0,0,0-1.457.742A3.811,3.811,0,0,0,50.984,54.875Zm9.273-4.328.055.977a3.039,3.039,0,0,1,2.461-1.133q2.641,0,2.688,3.023V59h-1.9V53.523a1.741,1.741,0,0,0-.348-1.191,1.462,1.462,0,0,0-1.137-.387,1.829,1.829,0,0,0-1.711,1.039V59h-1.9V50.547ZM69.414,59h-1.9V50.547h1.9ZM67.4,48.352a1.008,1.008,0,0,1,.277-.727,1.048,1.048,0,0,1,.793-.289,1.061,1.061,0,0,1,.8.289,1,1,0,0,1,.281.727.977.977,0,0,1-.281.715,1.069,1.069,0,0,1-.8.285,1.056,1.056,0,0,1-.793-.285A.984.984,0,0,1,67.4,48.352ZM71.984,59V51.953H70.7V50.547h1.289v-.578a3.382,3.382,0,0,1,.422-1.7,2.624,2.624,0,0,1,1.172-1.07,4.218,4.218,0,0,1,1.82-.359,5.306,5.306,0,0,1,1.2.133q.574.133,1.191.336l-.289,1.57a6.043,6.043,0,0,0-1.969-.375,1.759,1.759,0,0,0-1.258.379,1.516,1.516,0,0,0-.391,1.137v.531h1.664v1.406H73.883V59Zm6.7,0h-1.9V50.547h1.9Zm5.578-1.359a1.716,1.716,0,0,0,1.18-.414,1.415,1.415,0,0,0,.5-1.023h1.789a2.789,2.789,0,0,1-.492,1.473,3.228,3.228,0,0,1-1.25,1.082,3.725,3.725,0,0,1-1.7.4,3.6,3.6,0,0,1-2.812-1.148,4.555,4.555,0,0,1-1.039-3.172v-.2a4.479,4.479,0,0,1,1.031-3.09,3.571,3.571,0,0,1,2.813-1.16,3.473,3.473,0,0,1,2.457.879,3.148,3.148,0,0,1,1,2.309H85.945a1.738,1.738,0,0,0-.5-1.2,1.6,1.6,0,0,0-1.184-.469,1.671,1.671,0,0,0-1.422.668,3.408,3.408,0,0,0-.508,2.027v.3a3.465,3.465,0,0,0,.5,2.051A1.669,1.669,0,0,0,84.266,57.641ZM94.219,59A2.93,2.93,0,0,1,94,58.211a3.193,3.193,0,0,1-4.3.219,2.325,2.325,0,0,1-.8-1.8,2.4,2.4,0,0,1,1-2.074,4.865,4.865,0,0,1,2.871-.723h1.164v-.555a1.481,1.481,0,0,0-.367-1.051,1.456,1.456,0,0,0-1.117-.395,1.672,1.672,0,0,0-1.062.324,1,1,0,0,0-.414.824h-1.9a2.107,2.107,0,0,1,.461-1.3,3.071,3.071,0,0,1,1.254-.949,4.4,4.4,0,0,1,1.77-.344,3.547,3.547,0,0,1,2.367.746,2.661,2.661,0,0,1,.906,2.1v3.813a4.321,4.321,0,0,0,.32,1.82V59Zm-2.086-1.367a2.159,2.159,0,0,0,1.059-.273,1.827,1.827,0,0,0,.746-.734V55.031H92.914a2.8,2.8,0,0,0-1.586.367,1.189,1.189,0,0,0-.531,1.039,1.109,1.109,0,0,0,.363.871A1.407,1.407,0,0,0,92.133,57.633Zm8.07-9.141v2.055H101.7v1.406H100.2v4.719a1.039,1.039,0,0,0,.191.7.888.888,0,0,0,.684.215,2.925,2.925,0,0,0,.664-.078v1.469a4.676,4.676,0,0,1-1.25.18q-2.188,0-2.187-2.414V51.953H96.914V50.547H98.3V48.492ZM105.164,59h-1.9V50.547h1.9Zm-2.016-10.648a1.008,1.008,0,0,1,.277-.727,1.048,1.048,0,0,1,.793-.289,1.061,1.061,0,0,1,.8.289,1,1,0,0,1,.281.727.977.977,0,0,1-.281.715,1.069,1.069,0,0,1-.8.285,1.056,1.056,0,0,1-.793-.285A.984.984,0,0,1,103.148,48.352Zm7.063,8.242L112,50.547h1.961L111.031,59h-1.648l-2.953-8.453H108.4Zm4.461-1.9a4.984,4.984,0,0,1,.492-2.238,3.6,3.6,0,0,1,1.383-1.531,3.9,3.9,0,0,1,2.047-.535,3.692,3.692,0,0,1,2.777,1.1,4.333,4.333,0,0,1,1.152,2.922l.008.445a5.029,5.029,0,0,1-.48,2.234,3.551,3.551,0,0,1-1.375,1.523,3.925,3.925,0,0,1-2.066.539,3.667,3.667,0,0,1-2.863-1.191,4.563,4.563,0,0,1-1.074-3.176Zm1.9.164a3.406,3.406,0,0,0,.539,2.043,1.752,1.752,0,0,0,1.5.738,1.733,1.733,0,0,0,1.5-.75,3.762,3.762,0,0,0,.535-2.2,3.362,3.362,0,0,0-.551-2.031,1.856,1.856,0,0,0-2.973-.012A3.691,3.691,0,0,0,116.57,54.859Zm12.3,1.844a.861.861,0,0,0-.418-.773,4.445,4.445,0,0,0-1.387-.469,7.129,7.129,0,0,1-1.617-.516,2.158,2.158,0,0,1-1.422-1.992,2.25,2.25,0,0,1,.922-1.828,3.644,3.644,0,0,1,2.344-.734,3.792,3.792,0,0,1,2.449.75,2.38,2.38,0,0,1,.934,1.945h-1.9a1.17,1.17,0,0,0-.406-.91,1.557,1.557,0,0,0-1.078-.363,1.682,1.682,0,0,0-1.02.289.911.911,0,0,0-.395.773.769.769,0,0,0,.367.68,5.049,5.049,0,0,0,1.484.488,7.027,7.027,0,0,1,1.754.586,2.484,2.484,0,0,1,.945.816,2.082,2.082,0,0,1,.309,1.156,2.2,2.2,0,0,1-.945,1.848,4.031,4.031,0,0,1-2.477.707,4.371,4.371,0,0,1-1.852-.375A3.047,3.047,0,0,1,124.2,57.75a2.441,2.441,0,0,1-.453-1.414h1.844a1.338,1.338,0,0,0,.508,1.035,1.973,1.973,0,0,0,1.242.363,1.92,1.92,0,0,0,1.141-.285A.883.883,0,0,0,128.875,56.7Zm4.7.3a1.084,1.084,0,0,1,.82.3,1.045,1.045,0,0,1,.289.754,1.008,1.008,0,0,1-.289.738,1.28,1.28,0,0,1-1.625,0,.991.991,0,0,1-.3-.742,1.045,1.045,0,0,1,.289-.754A1.074,1.074,0,0,1,133.578,57Z" transform="translate(427 7590)" fill="#12263f"/>
    <g transform="matrix(1, 0, 0, 1, 374, 7508)" filter="url(#Trazado_748343)">
      <g id="Trazado_748343-2" data-name="Trazado 748343" transform="translate(13 253)" fill="#fff">
        <path d="M 243 144 L 10 144 C 5.03736686706543 144 1 139.9626312255859 1 135 L 1 10 C 1 5.03736686706543 5.03736686706543 1 10 1 L 243 1 C 247.9626312255859 1 252 5.03736686706543 252 10 L 252 135 C 252 139.9626312255859 247.9626312255859 144 243 144 Z" stroke="none"/>
        <path d="M 10 2 C 5.58880615234375 2 2 5.58880615234375 2 10 L 2 135 C 2 139.4111938476562 5.58880615234375 143 10 143 L 243 143 C 247.4111938476562 143 251 139.4111938476562 251 135 L 251 10 C 251 5.58880615234375 247.4111938476562 2 243 2 L 10 2 M 10 0 L 243 0 C 248.5228271484375 0 253 4.4771728515625 253 10 L 253 135 C 253 140.5228271484375 248.5228271484375 145 243 145 L 10 145 C 4.4771728515625 145 0 140.5228271484375 0 135 L 0 10 C 0 4.4771728515625 4.4771728515625 0 10 0 Z" stroke="none" fill="#57dbd8"/>
      </g>
    </g>
    <g transform="matrix(1, 0, 0, 1, 374, 7508)" filter="url(#Trazado_748344)">
      <g id="Trazado_748344-2" data-name="Trazado 748344" transform="translate(32 225)" fill="#57dbd8">
        <path d="M 205 55 L 10 55 C 5.037388801574707 55 1 50.96261215209961 1 46 L 1 10 C 1 5.037388801574707 5.037388801574707 1 10 1 L 205 1 C 209.9626159667969 1 214 5.037388801574707 214 10 L 214 46 C 214 50.96261215209961 209.9626159667969 55 205 55 Z" stroke="none"/>
        <path d="M 10 2 C 5.588790893554688 2 2 5.588794708251953 2 10 L 2 46 C 2 50.41120529174805 5.588790893554688 54 10 54 L 205 54 C 209.4112091064453 54 213 50.41120529174805 213 46 L 213 10 C 213 5.588794708251953 209.4112091064453 2 205 2 L 10 2 M 10 0 L 205 0 C 210.5228576660156 0 215 4.477146148681641 215 10 L 215 46 C 215 51.52285385131836 210.5228576660156 56 205 56 L 10 56 C 4.477142333984375 56 0 51.52285385131836 0 46 L 0 10 C 0 4.477146148681641 4.477142333984375 0 10 0 Z" stroke="none" fill="#fff"/>
      </g>
    </g>
    <path id="Trazado_748345" data-name="Trazado 748345" d="M127,0c70.14,0,127,3.582,127,8s-56.86,8-127,8S0,12.418,0,8,56.86,0,127,0Z" transform="translate(386 7916)" opacity="0.53" fill="url(#radial-gradient)"/>
    <path id="Trazado_748346" data-name="Trazado 748346" d="M70.8,10.87H66.216v2.889h5.412V16H63.3V3.914h8.342v2.25H66.216V8.712H70.8Zm4.458-3.852.091,1.054a3.046,3.046,0,0,1,2.565-1.22,2.562,2.562,0,0,1,2.1.838,3.991,3.991,0,0,1,.718,2.523V16H77.92V10.331a1.516,1.516,0,0,0-.274-1,1.267,1.267,0,0,0-1-.32,1.334,1.334,0,0,0-1.22.647V16h-2.8V7.019ZM85.532,4.786V7.019H87.01V8.961H85.532V13.07a1.049,1.049,0,0,0,.183.706.98.98,0,0,0,.722.2,4.1,4.1,0,0,0,.7-.05v2a5.163,5.163,0,0,1-1.577.241,2.93,2.93,0,0,1-2.133-.681,2.79,2.79,0,0,1-.689-2.067V8.961H81.589V7.019h1.146V4.786Zm6.923,11.38a4.617,4.617,0,0,1-3.345-1.233,4.257,4.257,0,0,1-1.278-3.208v-.232a5.516,5.516,0,0,1,.51-2.432,3.735,3.735,0,0,1,1.49-1.631,4.5,4.5,0,0,1,2.324-.577,3.888,3.888,0,0,1,2.988,1.175,4.616,4.616,0,0,1,1.1,3.275v1.087H90.678a2.016,2.016,0,0,0,.656,1.187,1.951,1.951,0,0,0,1.312.432,2.514,2.514,0,0,0,2.075-.93L96,14.589a3.573,3.573,0,0,1-1.482,1.15A5.007,5.007,0,0,1,92.455,16.166Zm-.315-7.155q-1.229,0-1.461,1.627H93.5v-.216a1.386,1.386,0,0,0-.34-1.042A1.354,1.354,0,0,0,92.139,9.011Zm7.794-1.992.091,1.054a3.046,3.046,0,0,1,2.565-1.22,2.562,2.562,0,0,1,2.1.838,3.991,3.991,0,0,1,.718,2.523V16H102.6V10.331a1.516,1.516,0,0,0-.274-1,1.267,1.267,0,0,0-1-.32,1.334,1.334,0,0,0-1.22.647V16h-2.8V7.019Zm6.666,4.424a5.486,5.486,0,0,1,.921-3.362,3.033,3.033,0,0,1,2.573-1.229,2.579,2.579,0,0,1,2.025.946V3.25h2.806V16H112.41l-.141-.963a2.649,2.649,0,0,1-2.191,1.129,3.027,3.027,0,0,1-2.54-1.229A5.66,5.66,0,0,1,106.6,11.443Zm2.8.174q0,2.391,1.395,2.391a1.377,1.377,0,0,0,1.328-.78V9.808a1.34,1.34,0,0,0-1.312-.8q-1.295,0-1.4,2.092ZM119.466,16H116.66V7.019h2.806ZM116.494,4.7a1.249,1.249,0,0,1,.432-.979,1.835,1.835,0,0,1,2.241,0,1.249,1.249,0,0,1,.432.979,1.249,1.249,0,0,1-.432.979,1.835,1.835,0,0,1-2.241,0A1.249,1.249,0,0,1,116.494,4.7Zm13.032,6.881a5.474,5.474,0,0,1-.913,3.4,3.058,3.058,0,0,1-2.573,1.187,2.654,2.654,0,0,1-2.208-1.087l-.116.921h-2.507V3.25h2.8V7.741a2.561,2.561,0,0,1,2.017-.888,3.059,3.059,0,0,1,2.59,1.2,5.5,5.5,0,0,1,.913,3.387Zm-2.806-.178a3.651,3.651,0,0,0-.344-1.844,1.161,1.161,0,0,0-1.058-.551,1.339,1.339,0,0,0-1.312.721V13.3a1.347,1.347,0,0,0,1.328.713,1.188,1.188,0,0,0,1.253-.961A6.9,6.9,0,0,0,126.72,11.406ZM133.71,16H130.9V3.25h2.806Zm6.068.166a4.617,4.617,0,0,1-3.345-1.233,4.257,4.257,0,0,1-1.278-3.208v-.232a5.516,5.516,0,0,1,.51-2.432,3.735,3.735,0,0,1,1.49-1.631,4.5,4.5,0,0,1,2.324-.577,3.888,3.888,0,0,1,2.988,1.175,4.616,4.616,0,0,1,1.1,3.275v1.087H138a2.016,2.016,0,0,0,.656,1.187,1.951,1.951,0,0,0,1.312.432,2.514,2.514,0,0,0,2.075-.93l1.278,1.511a3.573,3.573,0,0,1-1.482,1.15A5.007,5.007,0,0,1,139.778,16.166Zm-.315-7.155q-1.229,0-1.461,1.627h2.822v-.216a1.386,1.386,0,0,0-.34-1.042A1.354,1.354,0,0,0,139.462,9.011Zm9.928,4.466a.646.646,0,0,0-.374-.573,5.682,5.682,0,0,0-1.419-.448,6.473,6.473,0,0,1-1.727-.61,2.892,2.892,0,0,1-1.038-.917,2.19,2.19,0,0,1-.357-1.237A2.482,2.482,0,0,1,145.5,7.654a4.206,4.206,0,0,1,2.673-.8,4.66,4.66,0,0,1,2.855.805A2.518,2.518,0,0,1,152.1,9.774H149.3q0-1.079-1.137-1.079a1.127,1.127,0,0,0-.739.245.758.758,0,0,0-.3.61.7.7,0,0,0,.365.606,3.451,3.451,0,0,0,1.166.382,10.079,10.079,0,0,1,1.407.357,2.556,2.556,0,0,1,2.025,2.5,2.352,2.352,0,0,1-1.092,2,4.787,4.787,0,0,1-2.826.772,4.885,4.885,0,0,1-2.059-.415,3.442,3.442,0,0,1-1.411-1.129,2.556,2.556,0,0,1-.506-1.5h2.615a1.081,1.081,0,0,0,.415.909,1.707,1.707,0,0,0,1.021.286,1.343,1.343,0,0,0,.859-.232A.743.743,0,0,0,149.39,13.477Z" transform="translate(406 7750)" fill="#12263f"/>
    <path id="Trazado_748347" data-name="Trazado 748347" d="M44.207,15V3.625h3.359a5.269,5.269,0,0,1,2.676.672A4.581,4.581,0,0,1,52.051,6.2a6.051,6.051,0,0,1,.641,2.828V9.6a6.026,6.026,0,0,1-.645,2.844,4.526,4.526,0,0,1-1.836,1.891A5.513,5.513,0,0,1,47.48,15Zm1.977-9.781v8.2h1.289a2.968,2.968,0,0,0,2.387-.973,4.237,4.237,0,0,0,.848-2.793V9.023A4.347,4.347,0,0,0,49.9,6.2a2.853,2.853,0,0,0-2.336-.977ZM58.2,15.156a3.928,3.928,0,0,1-2.926-1.137,4.124,4.124,0,0,1-1.121-3.027v-.234A5.072,5.072,0,0,1,54.641,8.5a3.716,3.716,0,0,1,1.371-1.551,3.625,3.625,0,0,1,1.969-.555,3.318,3.318,0,0,1,2.668,1.1,4.658,4.658,0,0,1,.941,3.117v.766H56.066a2.539,2.539,0,0,0,.7,1.656,2.1,2.1,0,0,0,1.543.609,2.571,2.571,0,0,0,2.125-1.055l1.023.977A3.418,3.418,0,0,1,60.1,14.738,4.244,4.244,0,0,1,58.2,15.156Zm-.227-7.242a1.6,1.6,0,0,0-1.262.547A2.835,2.835,0,0,0,56.1,9.984h3.617V9.844A2.307,2.307,0,0,0,59.207,8.4,1.586,1.586,0,0,0,57.973,7.914ZM67.715,15V7.953H66.426V6.547h1.289V5.773A2.9,2.9,0,0,1,68.5,3.6a2.993,2.993,0,0,1,2.188-.766,4.388,4.388,0,0,1,1.063.141L71.7,4.461a3.739,3.739,0,0,0-.727-.062,1.219,1.219,0,0,0-1.359,1.4v.75h1.719V7.953H69.613V15ZM77.77,15a2.93,2.93,0,0,1-.219-.789,3.193,3.193,0,0,1-4.3.219,2.325,2.325,0,0,1-.8-1.8,2.4,2.4,0,0,1,1-2.074,4.865,4.865,0,0,1,2.871-.723h1.164V9.281a1.481,1.481,0,0,0-.367-1.051A1.456,1.456,0,0,0,76,7.836a1.672,1.672,0,0,0-1.062.324,1,1,0,0,0-.414.824h-1.9a2.107,2.107,0,0,1,.461-1.3,3.071,3.071,0,0,1,1.254-.949,4.4,4.4,0,0,1,1.77-.344,3.547,3.547,0,0,1,2.367.746,2.661,2.661,0,0,1,.906,2.1v3.813a4.321,4.321,0,0,0,.32,1.82V15Zm-2.086-1.367a2.159,2.159,0,0,0,1.059-.273,1.827,1.827,0,0,0,.746-.734V11.031H76.465a2.8,2.8,0,0,0-1.586.367,1.189,1.189,0,0,0-.531,1.039,1.109,1.109,0,0,0,.363.871A1.407,1.407,0,0,0,75.684,13.633ZM76.738,3H78.9L76.738,5.367l-1.523,0Zm8.109,10.641a1.716,1.716,0,0,0,1.18-.414,1.415,1.415,0,0,0,.5-1.023h1.789a2.789,2.789,0,0,1-.492,1.473,3.228,3.228,0,0,1-1.25,1.082,3.725,3.725,0,0,1-1.7.4,3.6,3.6,0,0,1-2.812-1.148,4.555,4.555,0,0,1-1.039-3.172v-.2a4.479,4.479,0,0,1,1.031-3.09,3.571,3.571,0,0,1,2.813-1.16,3.473,3.473,0,0,1,2.457.879,3.148,3.148,0,0,1,1,2.309H86.527a1.738,1.738,0,0,0-.5-1.2,1.6,1.6,0,0,0-1.184-.469,1.671,1.671,0,0,0-1.422.668,3.408,3.408,0,0,0-.508,2.027v.3a3.465,3.465,0,0,0,.5,2.051A1.669,1.669,0,0,0,84.848,13.641ZM91.77,15h-1.9V6.547h1.9ZM89.754,4.352a1.008,1.008,0,0,1,.277-.727,1.048,1.048,0,0,1,.793-.289,1.061,1.061,0,0,1,.8.289,1,1,0,0,1,.281.727.977.977,0,0,1-.281.715,1.069,1.069,0,0,1-.8.285,1.056,1.056,0,0,1-.793-.285A.984.984,0,0,1,89.754,4.352ZM95.855,15h-1.9V3h1.9ZM21.3,35.641a1.716,1.716,0,0,0,1.18-.414,1.415,1.415,0,0,0,.5-1.023h1.789a2.789,2.789,0,0,1-.492,1.473,3.228,3.228,0,0,1-1.25,1.082,3.725,3.725,0,0,1-1.7.4,3.6,3.6,0,0,1-2.812-1.148,4.555,4.555,0,0,1-1.039-3.172v-.2a4.479,4.479,0,0,1,1.031-3.09,3.571,3.571,0,0,1,2.813-1.16,3.473,3.473,0,0,1,2.457.879,3.148,3.148,0,0,1,1,2.309H22.977a1.738,1.738,0,0,0-.5-1.2,1.6,1.6,0,0,0-1.184-.469,1.671,1.671,0,0,0-1.422.668,3.408,3.408,0,0,0-.508,2.027v.3a3.465,3.465,0,0,0,.5,2.051A1.669,1.669,0,0,0,21.3,35.641ZM25.844,32.7a4.984,4.984,0,0,1,.492-2.238,3.6,3.6,0,0,1,1.383-1.531,3.9,3.9,0,0,1,2.047-.535,3.692,3.692,0,0,1,2.777,1.1A4.333,4.333,0,0,1,33.7,32.414l.008.445a5.029,5.029,0,0,1-.48,2.234,3.551,3.551,0,0,1-1.375,1.523,3.925,3.925,0,0,1-2.066.539,3.667,3.667,0,0,1-2.863-1.191,4.563,4.563,0,0,1-1.074-3.176Zm1.9.164a3.406,3.406,0,0,0,.539,2.043,1.752,1.752,0,0,0,1.5.738,1.733,1.733,0,0,0,1.5-.75,3.762,3.762,0,0,0,.535-2.2,3.362,3.362,0,0,0-.551-2.031,1.856,1.856,0,0,0-2.973-.012A3.691,3.691,0,0,0,27.742,32.859Zm9.352-4.312.055.883a3.042,3.042,0,0,1,2.438-1.039,2.337,2.337,0,0,1,2.32,1.3,3,3,0,0,1,2.594-1.3,2.636,2.636,0,0,1,2.082.773,3.405,3.405,0,0,1,.7,2.281V37h-1.9V31.5a1.681,1.681,0,0,0-.352-1.18,1.539,1.539,0,0,0-1.164-.375,1.581,1.581,0,0,0-1.059.348,1.833,1.833,0,0,0-.574.91l.008,5.8h-1.9V31.438a1.354,1.354,0,0,0-1.523-1.492,1.671,1.671,0,0,0-1.617.93V37H35.3V28.547Zm19.539,4.313a5.033,5.033,0,0,1-.891,3.129,3.094,3.094,0,0,1-4.617.254V40.25h-1.9v-11.7h1.75l.078.859a2.788,2.788,0,0,1,2.273-1.016,2.881,2.881,0,0,1,2.426,1.152,5.167,5.167,0,0,1,.879,3.2ZM54.742,32.7a3.526,3.526,0,0,0-.5-2.008,1.638,1.638,0,0,0-1.441-.742,1.747,1.747,0,0,0-1.672.961v3.75a1.763,1.763,0,0,0,1.688.984,1.636,1.636,0,0,0,1.418-.73A3.881,3.881,0,0,0,54.742,32.7Zm7.922-2.414a4.7,4.7,0,0,0-.773-.062,1.741,1.741,0,0,0-1.758,1V37h-1.9V28.547h1.813l.047.945A2.139,2.139,0,0,1,62,28.391a1.777,1.777,0,0,1,.672.109Zm4.773,6.875a3.928,3.928,0,0,1-2.926-1.137,4.124,4.124,0,0,1-1.121-3.027v-.234a5.072,5.072,0,0,1,.488-2.262,3.716,3.716,0,0,1,1.371-1.551,3.625,3.625,0,0,1,1.969-.555,3.318,3.318,0,0,1,2.668,1.1,4.658,4.658,0,0,1,.941,3.117v.766H65.3a2.539,2.539,0,0,0,.7,1.656,2.1,2.1,0,0,0,1.543.609,2.571,2.571,0,0,0,2.125-1.055l1.023.977a3.418,3.418,0,0,1-1.355,1.176A4.244,4.244,0,0,1,67.438,37.156Zm-.227-7.242a1.6,1.6,0,0,0-1.262.547,2.835,2.835,0,0,0-.613,1.523h3.617v-.141a2.307,2.307,0,0,0-.508-1.441A1.586,1.586,0,0,0,67.211,29.914Zm6.852-1.367.055.977a3.039,3.039,0,0,1,2.461-1.133q2.641,0,2.688,3.023V37h-1.9V31.523a1.741,1.741,0,0,0-.348-1.191,1.462,1.462,0,0,0-1.137-.387,1.829,1.829,0,0,0-1.711,1.039V37h-1.9V28.547ZM85.938,34.7a.861.861,0,0,0-.418-.773,4.445,4.445,0,0,0-1.387-.469,7.129,7.129,0,0,1-1.617-.516,2.158,2.158,0,0,1-1.422-1.992,2.25,2.25,0,0,1,.922-1.828,3.644,3.644,0,0,1,2.344-.734,3.792,3.792,0,0,1,2.449.75,2.38,2.38,0,0,1,.934,1.945h-1.9a1.17,1.17,0,0,0-.406-.91,1.557,1.557,0,0,0-1.078-.363,1.682,1.682,0,0,0-1.02.289.911.911,0,0,0-.395.773.769.769,0,0,0,.367.68,5.049,5.049,0,0,0,1.484.488,7.027,7.027,0,0,1,1.754.586,2.484,2.484,0,0,1,.945.816A2.082,2.082,0,0,1,87.8,34.6a2.2,2.2,0,0,1-.945,1.848,4.031,4.031,0,0,1-2.477.707,4.371,4.371,0,0,1-1.852-.375,3.047,3.047,0,0,1-1.266-1.031,2.441,2.441,0,0,1-.453-1.414h1.844a1.338,1.338,0,0,0,.508,1.035,1.973,1.973,0,0,0,1.242.363,1.92,1.92,0,0,0,1.141-.285A.883.883,0,0,0,85.938,34.7ZM91.477,37h-1.9V28.547h1.9ZM89.461,26.352a1.008,1.008,0,0,1,.277-.727,1.048,1.048,0,0,1,.793-.289,1.061,1.061,0,0,1,.8.289,1,1,0,0,1,.281.727.977.977,0,0,1-.281.715,1.069,1.069,0,0,1-.8.285,1.056,1.056,0,0,1-.793-.285A.984.984,0,0,1,89.461,26.352ZM93.188,32.7a4.984,4.984,0,0,1,.492-2.238,3.6,3.6,0,0,1,1.383-1.531,3.9,3.9,0,0,1,2.047-.535,3.692,3.692,0,0,1,2.777,1.1,4.333,4.333,0,0,1,1.152,2.922l.008.445a5.029,5.029,0,0,1-.48,2.234,3.551,3.551,0,0,1-1.375,1.523,3.925,3.925,0,0,1-2.066.539,3.667,3.667,0,0,1-2.863-1.191,4.563,4.563,0,0,1-1.074-3.176Zm1.9.164a3.406,3.406,0,0,0,.539,2.043,1.752,1.752,0,0,0,1.5.738,1.733,1.733,0,0,0,1.5-.75,3.762,3.762,0,0,0,.535-2.2,3.362,3.362,0,0,0-.551-2.031,1.856,1.856,0,0,0-2.973-.012A3.691,3.691,0,0,0,95.086,32.859ZM97.633,25H99.8l-2.164,2.367-1.523,0Zm6.781,3.547.055.977a3.039,3.039,0,0,1,2.461-1.133q2.641,0,2.688,3.023V37h-1.9V31.523a1.741,1.741,0,0,0-.348-1.191,1.462,1.462,0,0,0-1.137-.387,1.829,1.829,0,0,0-1.711,1.039V37h-1.9V28.547Zm14.844,8.609a3.928,3.928,0,0,1-2.926-1.137,4.124,4.124,0,0,1-1.121-3.027v-.234A5.072,5.072,0,0,1,115.7,30.5a3.716,3.716,0,0,1,1.371-1.551,3.625,3.625,0,0,1,1.969-.555,3.318,3.318,0,0,1,2.668,1.1,4.658,4.658,0,0,1,.941,3.117v.766h-5.523a2.539,2.539,0,0,0,.7,1.656,2.1,2.1,0,0,0,1.543.609,2.571,2.571,0,0,0,2.125-1.055l1.023.977a3.418,3.418,0,0,1-1.355,1.176A4.244,4.244,0,0,1,119.258,37.156Zm-.227-7.242a1.6,1.6,0,0,0-1.262.547,2.835,2.835,0,0,0-.613,1.523h3.617v-.141a2.307,2.307,0,0,0-.508-1.441A1.586,1.586,0,0,0,119.031,29.914ZM20.742,59h-1.9V50.547h1.9ZM18.727,48.352A1.008,1.008,0,0,1,19,47.625a1.048,1.048,0,0,1,.793-.289,1.061,1.061,0,0,1,.8.289,1,1,0,0,1,.281.727.977.977,0,0,1-.281.715,1.069,1.069,0,0,1-.8.285A1.056,1.056,0,0,1,19,49.066.984.984,0,0,1,18.727,48.352Zm5.844,2.2.055.977a3.039,3.039,0,0,1,2.461-1.133q2.641,0,2.688,3.023V59h-1.9V53.523a1.741,1.741,0,0,0-.348-1.191,1.462,1.462,0,0,0-1.137-.387,1.829,1.829,0,0,0-1.711,1.039V59h-1.9V50.547Zm9.516-2.055v2.055h1.492v1.406H34.086v4.719a1.039,1.039,0,0,0,.191.7.888.888,0,0,0,.684.215,2.925,2.925,0,0,0,.664-.078v1.469a4.676,4.676,0,0,1-1.25.18q-2.187,0-2.187-2.414V51.953H30.8V50.547h1.391V48.492ZM40.75,59.156a3.928,3.928,0,0,1-2.926-1.137A4.124,4.124,0,0,1,36.7,54.992v-.234a5.072,5.072,0,0,1,.488-2.262,3.716,3.716,0,0,1,1.371-1.551,3.625,3.625,0,0,1,1.969-.555,3.318,3.318,0,0,1,2.668,1.1,4.658,4.658,0,0,1,.941,3.117v.766H38.617a2.539,2.539,0,0,0,.7,1.656,2.1,2.1,0,0,0,1.543.609,2.571,2.571,0,0,0,2.125-1.055l1.023.977a3.418,3.418,0,0,1-1.355,1.176A4.244,4.244,0,0,1,40.75,59.156Zm-.227-7.242a1.6,1.6,0,0,0-1.262.547,2.835,2.835,0,0,0-.613,1.523h3.617v-.141a2.307,2.307,0,0,0-.508-1.441A1.586,1.586,0,0,0,40.523,51.914Zm9.516.367a4.7,4.7,0,0,0-.773-.062,1.741,1.741,0,0,0-1.758,1V59h-1.9V50.547h1.813l.047.945a2.139,2.139,0,0,1,1.906-1.1,1.777,1.777,0,0,1,.672.109Zm8.6,2.578a5.033,5.033,0,0,1-.891,3.129,3.094,3.094,0,0,1-4.617.254V62.25h-1.9v-11.7h1.75l.078.859a2.788,2.788,0,0,1,2.273-1.016,2.881,2.881,0,0,1,2.426,1.152,5.167,5.167,0,0,1,.879,3.2ZM56.75,54.7a3.526,3.526,0,0,0-.5-2.008,1.638,1.638,0,0,0-1.441-.742,1.747,1.747,0,0,0-1.672.961v3.75a1.763,1.763,0,0,0,1.688.984,1.636,1.636,0,0,0,1.418-.73A3.881,3.881,0,0,0,56.75,54.7Zm7.922-2.414a4.7,4.7,0,0,0-.773-.062,1.741,1.741,0,0,0-1.758,1V59h-1.9V50.547h1.813l.047.945a2.139,2.139,0,0,1,1.906-1.1,1.777,1.777,0,0,1,.672.109Zm4.773,6.875A3.928,3.928,0,0,1,66.52,58.02,4.124,4.124,0,0,1,65.4,54.992v-.234a5.072,5.072,0,0,1,.488-2.262,3.716,3.716,0,0,1,1.371-1.551,3.625,3.625,0,0,1,1.969-.555,3.318,3.318,0,0,1,2.668,1.1,4.658,4.658,0,0,1,.941,3.117v.766H67.313a2.539,2.539,0,0,0,.7,1.656,2.1,2.1,0,0,0,1.543.609,2.571,2.571,0,0,0,2.125-1.055l1.023.977a3.418,3.418,0,0,1-1.355,1.176A4.244,4.244,0,0,1,69.445,59.156Zm-.227-7.242a1.6,1.6,0,0,0-1.262.547,2.835,2.835,0,0,0-.613,1.523h3.617v-.141a2.307,2.307,0,0,0-.508-1.441A1.586,1.586,0,0,0,69.219,51.914Zm7.469-3.422v2.055H78.18v1.406H76.688v4.719a1.039,1.039,0,0,0,.191.7.888.888,0,0,0,.684.215,2.925,2.925,0,0,0,.664-.078v1.469a4.676,4.676,0,0,1-1.25.18q-2.188,0-2.187-2.414V51.953H73.4V50.547h1.391V48.492ZM84.68,59a2.93,2.93,0,0,1-.219-.789,3.193,3.193,0,0,1-4.3.219,2.325,2.325,0,0,1-.8-1.8,2.4,2.4,0,0,1,1-2.074,4.865,4.865,0,0,1,2.871-.723H84.4v-.555a1.481,1.481,0,0,0-.367-1.051,1.456,1.456,0,0,0-1.117-.395,1.672,1.672,0,0,0-1.062.324,1,1,0,0,0-.414.824h-1.9a2.107,2.107,0,0,1,.461-1.3,3.071,3.071,0,0,1,1.254-.949,4.4,4.4,0,0,1,1.77-.344,3.547,3.547,0,0,1,2.367.746,2.661,2.661,0,0,1,.906,2.1v3.813a4.321,4.321,0,0,0,.32,1.82V59Zm-2.086-1.367a2.159,2.159,0,0,0,1.059-.273,1.827,1.827,0,0,0,.746-.734V55.031H83.375a2.8,2.8,0,0,0-1.586.367,1.189,1.189,0,0,0-.531,1.039,1.109,1.109,0,0,0,.363.871A1.407,1.407,0,0,0,82.594,57.633Zm9.164.008a1.716,1.716,0,0,0,1.18-.414,1.415,1.415,0,0,0,.5-1.023h1.789a2.789,2.789,0,0,1-.492,1.473,3.228,3.228,0,0,1-1.25,1.082,3.725,3.725,0,0,1-1.7.4,3.6,3.6,0,0,1-2.812-1.148,4.555,4.555,0,0,1-1.039-3.172v-.2a4.479,4.479,0,0,1,1.031-3.09,3.571,3.571,0,0,1,2.813-1.16,3.473,3.473,0,0,1,2.457.879,3.148,3.148,0,0,1,1,2.309H93.438a1.738,1.738,0,0,0-.5-1.2,1.6,1.6,0,0,0-1.184-.469,1.671,1.671,0,0,0-1.422.668,3.408,3.408,0,0,0-.508,2.027v.3a3.465,3.465,0,0,0,.5,2.051A1.669,1.669,0,0,0,91.758,57.641ZM98.68,59h-1.9V50.547h1.9ZM96.664,48.352a1.008,1.008,0,0,1,.277-.727,1.048,1.048,0,0,1,.793-.289,1.061,1.061,0,0,1,.8.289,1,1,0,0,1,.281.727.977.977,0,0,1-.281.715,1.069,1.069,0,0,1-.8.285,1.056,1.056,0,0,1-.793-.285A.984.984,0,0,1,96.664,48.352Zm3.727,6.344a4.984,4.984,0,0,1,.492-2.238,3.6,3.6,0,0,1,1.383-1.531,3.9,3.9,0,0,1,2.047-.535,3.692,3.692,0,0,1,2.777,1.1,4.333,4.333,0,0,1,1.152,2.922l.008.445a5.029,5.029,0,0,1-.48,2.234,3.551,3.551,0,0,1-1.375,1.523,3.925,3.925,0,0,1-2.066.539,3.667,3.667,0,0,1-2.863-1.191,4.563,4.563,0,0,1-1.074-3.176Zm1.9.164a3.406,3.406,0,0,0,.539,2.043,1.752,1.752,0,0,0,1.5.738,1.733,1.733,0,0,0,1.5-.75,3.762,3.762,0,0,0,.535-2.2,3.362,3.362,0,0,0-.551-2.031,1.856,1.856,0,0,0-2.973-.012A3.691,3.691,0,0,0,102.289,54.859ZM104.836,47H107l-2.164,2.367-1.523,0Zm6.781,3.547.055.977a3.039,3.039,0,0,1,2.461-1.133q2.641,0,2.688,3.023V59h-1.9V53.523a1.741,1.741,0,0,0-.348-1.191,1.462,1.462,0,0,0-1.137-.387,1.829,1.829,0,0,0-1.711,1.039V59h-1.9V50.547ZM119.938,57a1.084,1.084,0,0,1,.82.3,1.045,1.045,0,0,1,.289.754,1.008,1.008,0,0,1-.289.738,1.28,1.28,0,0,1-1.625,0,.991.991,0,0,1-.3-.742,1.045,1.045,0,0,1,.289-.754A1.074,1.074,0,0,1,119.938,57Z" transform="translate(443 7809)" fill="#12263f"/>
    <path id="Trazado_748348" data-name="Trazado 748348" d="M127,0c70.14,0,127,3.582,127,8s-56.86,8-127,8S0,12.418,0,8,56.86,0,127,0Z" transform="translate(387 8135)" opacity="0.53" fill="url(#radial-gradient)"/>
    <g transform="matrix(1, 0, 0, 1, 374, 7508)" filter="url(#Trazado_748349)">
      <g id="Trazado_748349-2" data-name="Trazado 748349" transform="translate(12 472)" fill="#fff">
        <path d="M 243 144 L 10 144 C 5.03736686706543 144 1 139.9626312255859 1 135 L 1 10 C 1 5.03736686706543 5.03736686706543 1 10 1 L 243 1 C 247.9626312255859 1 252 5.03736686706543 252 10 L 252 135 C 252 139.9626312255859 247.9626312255859 144 243 144 Z" stroke="none"/>
        <path d="M 10 2 C 5.58880615234375 2 2 5.58880615234375 2 10 L 2 135 C 2 139.4111938476562 5.58880615234375 143 10 143 L 243 143 C 247.4111938476562 143 251 139.4111938476562 251 135 L 251 10 C 251 5.58880615234375 247.4111938476562 2 243 2 L 10 2 M 10 0 L 243 0 C 248.5228271484375 0 253 4.4771728515625 253 10 L 253 135 C 253 140.5228271484375 248.5228271484375 145 243 145 L 10 145 C 4.4771728515625 145 0 140.5228271484375 0 135 L 0 10 C 0 4.4771728515625 4.4771728515625 0 10 0 Z" stroke="none" fill="#91b3fa"/>
      </g>
    </g>
    <g transform="matrix(1, 0, 0, 1, 374, 7508)" filter="url(#Trazado_748350)">
      <g id="Trazado_748350-2" data-name="Trazado 748350" transform="translate(31 444)" fill="#91b3fa">
        <path d="M 205 55 L 10 55 C 5.037388801574707 55 1 50.96261215209961 1 46 L 1 10 C 1 5.037388801574707 5.037388801574707 1 10 1 L 205 1 C 209.9626159667969 1 214 5.037388801574707 214 10 L 214 46 C 214 50.96261215209961 209.9626159667969 55 205 55 Z" stroke="none"/>
        <path d="M 10 2 C 5.588790893554688 2 2 5.588794708251953 2 10 L 2 46 C 2 50.41120529174805 5.588790893554688 54 10 54 L 205 54 C 209.4112091064453 54 213 50.41120529174805 213 46 L 213 10 C 213 5.588794708251953 209.4112091064453 2 205 2 L 10 2 M 10 0 L 205 0 C 210.5228576660156 0 215 4.477146148681641 215 10 L 215 46 C 215 51.52285385131836 210.5228576660156 56 205 56 L 10 56 C 4.477142333984375 56 0 51.52285385131836 0 46 L 0 10 C 0 4.477146148681641 4.477142333984375 0 10 0 Z" stroke="none" fill="#fff"/>
      </g>
    </g>
    <path id="Trazado_748351" data-name="Trazado 748351" d="M69.333,11.908a4.414,4.414,0,0,1-.681,2.229,4.108,4.108,0,0,1-1.747,1.5,5.947,5.947,0,0,1-2.569.531,4.746,4.746,0,0,1-3.752-1.552,6.409,6.409,0,0,1-1.37-4.383v-.6a7.316,7.316,0,0,1,.618-3.109,4.686,4.686,0,0,1,1.781-2.059A4.968,4.968,0,0,1,64.3,3.74,5.209,5.209,0,0,1,67.839,4.9a4.575,4.575,0,0,1,1.519,3.192H66.453A2.165,2.165,0,0,0,65.9,6.5,2.287,2.287,0,0,0,64.3,6.022a1.74,1.74,0,0,0-1.594.813,5.228,5.228,0,0,0-.531,2.6v.855a5.785,5.785,0,0,0,.486,2.764,1.777,1.777,0,0,0,1.673.83,2.237,2.237,0,0,0,1.536-.473,2.008,2.008,0,0,0,.564-1.5Zm.9-.481a5.3,5.3,0,0,1,.523-2.395,3.74,3.74,0,0,1,1.5-1.615,4.525,4.525,0,0,1,2.3-.564A4.13,4.13,0,0,1,77.733,8.1,4.794,4.794,0,0,1,78.9,11.5v.1a4.651,4.651,0,0,1-1.166,3.333,4.141,4.141,0,0,1-3.158,1.233,4.188,4.188,0,0,1-3.08-1.15A4.5,4.5,0,0,1,70.238,11.9Zm2.8.174a3.342,3.342,0,0,0,.39,1.826,1.3,1.3,0,0,0,1.154.581q1.494,0,1.527-2.3v-.282q0-2.416-1.544-2.416-1.4,0-1.519,2.083ZM82.7,7.019l.091,1.054a3.046,3.046,0,0,1,2.565-1.22,2.562,2.562,0,0,1,2.1.838,3.991,3.991,0,0,1,.718,2.523V16H85.362V10.331a1.516,1.516,0,0,0-.274-1,1.267,1.267,0,0,0-1-.32,1.334,1.334,0,0,0-1.22.647V16h-2.8V7.019ZM92.974,4.786V7.019h1.478V8.961H92.974V13.07a1.049,1.049,0,0,0,.183.706.98.98,0,0,0,.722.2,4.1,4.1,0,0,0,.7-.05v2A5.163,5.163,0,0,1,93,16.166a2.93,2.93,0,0,1-2.133-.681,2.79,2.79,0,0,1-.689-2.067V8.961H89.031V7.019h1.146V4.786Zm8.01,4.765-.921-.066a1.655,1.655,0,0,0-1.693.83V16h-2.8V7.019h2.623l.091,1.154a2.166,2.166,0,0,1,1.967-1.32,2.728,2.728,0,0,1,.78.1Zm.357,1.876a5.3,5.3,0,0,1,.523-2.395,3.74,3.74,0,0,1,1.5-1.615,4.525,4.525,0,0,1,2.3-.564A4.13,4.13,0,0,1,108.845,8.1a4.794,4.794,0,0,1,1.162,3.4v.1a4.651,4.651,0,0,1-1.166,3.333,4.141,4.141,0,0,1-3.158,1.233,4.188,4.188,0,0,1-3.08-1.15,4.5,4.5,0,0,1-1.253-3.117Zm2.8.174a3.342,3.342,0,0,0,.39,1.826,1.3,1.3,0,0,0,1.154.581q1.494,0,1.527-2.3v-.282q0-2.416-1.544-2.416-1.4,0-1.519,2.083ZM114.19,16h-2.806V3.25h2.806Zm6.782,0a3.159,3.159,0,0,1-.266-.805,2.6,2.6,0,0,1-2.158.971,3.187,3.187,0,0,1-2.158-.768,2.444,2.444,0,0,1-.888-1.93,2.512,2.512,0,0,1,1.079-2.208,5.5,5.5,0,0,1,3.138-.747h.863v-.475q0-1.243-1.071-1.243a.875.875,0,0,0-1,.984h-2.8a2.508,2.508,0,0,1,1.108-2.114,4.657,4.657,0,0,1,2.826-.813,4.083,4.083,0,0,1,2.714.838,2.915,2.915,0,0,1,1.021,2.3v3.976a4.072,4.072,0,0,0,.382,1.893V16Zm-1.751-1.826a1.56,1.56,0,0,0,.867-.224,1.4,1.4,0,0,0,.494-.506V12.007h-.813q-1.461,0-1.461,1.312a.8.8,0,0,0,.257.618A.931.931,0,0,0,119.221,14.174Zm14.053-2.59a5.474,5.474,0,0,1-.913,3.4,3.058,3.058,0,0,1-2.573,1.187,2.654,2.654,0,0,1-2.208-1.087l-.116.921h-2.507V3.25h2.8V7.741a2.561,2.561,0,0,1,2.017-.888,3.059,3.059,0,0,1,2.59,1.2,5.5,5.5,0,0,1,.913,3.387Zm-2.806-.178a3.651,3.651,0,0,0-.344-1.844,1.161,1.161,0,0,0-1.058-.551,1.339,1.339,0,0,0-1.312.721V13.3a1.347,1.347,0,0,0,1.328.713,1.188,1.188,0,0,0,1.253-.961A6.9,6.9,0,0,0,130.468,11.406ZM137.458,16h-2.806V3.25h2.806Zm6.068.166a4.617,4.617,0,0,1-3.345-1.233,4.257,4.257,0,0,1-1.278-3.208v-.232a5.516,5.516,0,0,1,.51-2.432,3.735,3.735,0,0,1,1.49-1.631,4.5,4.5,0,0,1,2.324-.577,3.888,3.888,0,0,1,2.988,1.175,4.616,4.616,0,0,1,1.1,3.275v1.087h-5.562a2.016,2.016,0,0,0,.656,1.187,1.951,1.951,0,0,0,1.312.432,2.514,2.514,0,0,0,2.075-.93l1.278,1.511a3.573,3.573,0,0,1-1.482,1.15A5.007,5.007,0,0,1,143.525,16.166Zm-.315-7.155q-1.229,0-1.461,1.627h2.822v-.216a1.386,1.386,0,0,0-.34-1.042A1.354,1.354,0,0,0,143.21,9.011Zm9.928,4.466a.646.646,0,0,0-.374-.573,5.682,5.682,0,0,0-1.419-.448,6.473,6.473,0,0,1-1.727-.61,2.892,2.892,0,0,1-1.038-.917,2.19,2.19,0,0,1-.357-1.237,2.482,2.482,0,0,1,1.021-2.038,4.206,4.206,0,0,1,2.673-.8,4.66,4.66,0,0,1,2.855.805,2.518,2.518,0,0,1,1.079,2.117h-2.806q0-1.079-1.137-1.079a1.127,1.127,0,0,0-.739.245.758.758,0,0,0-.3.61.7.7,0,0,0,.365.606,3.451,3.451,0,0,0,1.166.382,10.079,10.079,0,0,1,1.407.357,2.556,2.556,0,0,1,2.025,2.5,2.352,2.352,0,0,1-1.092,2,4.787,4.787,0,0,1-2.826.772,4.885,4.885,0,0,1-2.059-.415,3.442,3.442,0,0,1-1.411-1.129,2.556,2.556,0,0,1-.506-1.5h2.615a1.081,1.081,0,0,0,.415.909,1.707,1.707,0,0,0,1.021.286,1.343,1.343,0,0,0,.859-.232A.743.743,0,0,0,153.138,13.477Z" transform="translate(405 7969)" fill="#12263f"/>
    <path id="Trazado_748352" data-name="Trazado 748352" d="M39.488,12.07a1.374,1.374,0,0,0-.527-1.156,6.345,6.345,0,0,0-1.9-.82,9.186,9.186,0,0,1-2.187-.922,2.919,2.919,0,0,1-1.555-2.547,2.772,2.772,0,0,1,1.121-2.266,4.538,4.538,0,0,1,2.91-.891,4.916,4.916,0,0,1,2.117.438,3.475,3.475,0,0,1,1.461,1.246,3.2,3.2,0,0,1,.531,1.793H39.488a1.782,1.782,0,0,0-.559-1.395,2.305,2.305,0,0,0-1.6-.5,2.408,2.408,0,0,0-1.5.414,1.379,1.379,0,0,0-.535,1.156,1.247,1.247,0,0,0,.578,1.043,6.66,6.66,0,0,0,1.906.813,8.768,8.768,0,0,1,2.133.9,3.392,3.392,0,0,1,1.18,1.156,3.011,3.011,0,0,1,.375,1.527,2.707,2.707,0,0,1-1.09,2.262,4.727,4.727,0,0,1-2.957.84,5.557,5.557,0,0,1-2.27-.457,3.812,3.812,0,0,1-1.609-1.262,3.144,3.144,0,0,1-.574-1.875h1.977a1.84,1.84,0,0,0,.641,1.5,2.805,2.805,0,0,0,1.836.531,2.437,2.437,0,0,0,1.551-.418A1.349,1.349,0,0,0,39.488,12.07Zm7.25,3.086a3.928,3.928,0,0,1-2.926-1.137,4.124,4.124,0,0,1-1.121-3.027v-.234A5.072,5.072,0,0,1,43.18,8.5a3.716,3.716,0,0,1,1.371-1.551,3.625,3.625,0,0,1,1.969-.555,3.318,3.318,0,0,1,2.668,1.1,4.658,4.658,0,0,1,.941,3.117v.766H44.605a2.539,2.539,0,0,0,.7,1.656,2.1,2.1,0,0,0,1.543.609,2.571,2.571,0,0,0,2.125-1.055L50,13.563a3.418,3.418,0,0,1-1.355,1.176A4.244,4.244,0,0,1,46.738,15.156Zm-.227-7.242a1.6,1.6,0,0,0-1.262.547,2.835,2.835,0,0,0-.613,1.523h3.617V9.844A2.307,2.307,0,0,0,47.746,8.4,1.586,1.586,0,0,0,46.512,7.914Zm16.477,2.945a5.033,5.033,0,0,1-.891,3.129,3.094,3.094,0,0,1-4.617.254V18.25h-1.9V6.547h1.75l.078.859a2.788,2.788,0,0,1,2.273-1.016,2.881,2.881,0,0,1,2.426,1.152,5.167,5.167,0,0,1,.879,3.2ZM61.1,10.7a3.526,3.526,0,0,0-.5-2.008,1.638,1.638,0,0,0-1.441-.742,1.747,1.747,0,0,0-1.672.961v3.75a1.763,1.763,0,0,0,1.688.984,1.636,1.636,0,0,0,1.418-.73A3.881,3.881,0,0,0,61.1,10.7Zm8.617,3.477a2.944,2.944,0,0,1-2.375.984,2.624,2.624,0,0,1-2.082-.8,3.423,3.423,0,0,1-.707-2.328V6.547h1.9V12q0,1.609,1.336,1.609a1.876,1.876,0,0,0,1.867-.992V6.547h1.9V15H69.762Zm7.492.984a3.928,3.928,0,0,1-2.926-1.137,4.124,4.124,0,0,1-1.121-3.027v-.234A5.072,5.072,0,0,1,73.648,8.5,3.716,3.716,0,0,1,75.02,6.945a3.625,3.625,0,0,1,1.969-.555,3.318,3.318,0,0,1,2.668,1.1,4.658,4.658,0,0,1,.941,3.117v.766H75.074a2.539,2.539,0,0,0,.7,1.656,2.1,2.1,0,0,0,1.543.609,2.571,2.571,0,0,0,2.125-1.055l1.023.977a3.418,3.418,0,0,1-1.355,1.176A4.244,4.244,0,0,1,77.207,15.156ZM76.98,7.914a1.6,1.6,0,0,0-1.262.547,2.835,2.835,0,0,0-.613,1.523h3.617V9.844A2.307,2.307,0,0,0,78.215,8.4,1.586,1.586,0,0,0,76.98,7.914Zm4.734,2.8a5.026,5.026,0,0,1,.906-3.137,2.9,2.9,0,0,1,2.43-1.184,2.759,2.759,0,0,1,2.172.938V3h1.9V15H87.4l-.094-.875a2.8,2.8,0,0,1-2.273,1.031,2.887,2.887,0,0,1-2.4-1.2A5.21,5.21,0,0,1,81.715,10.711Zm1.9.164a3.519,3.519,0,0,0,.5,2.012,1.61,1.61,0,0,0,1.41.723,1.793,1.793,0,0,0,1.7-1.039V8.961a1.766,1.766,0,0,0-1.687-1.016,1.622,1.622,0,0,0-1.422.73A3.918,3.918,0,0,0,83.613,10.875Zm11.211,4.281A3.928,3.928,0,0,1,91.9,14.02a4.124,4.124,0,0,1-1.121-3.027v-.234A5.072,5.072,0,0,1,91.266,8.5a3.716,3.716,0,0,1,1.371-1.551,3.625,3.625,0,0,1,1.969-.555,3.318,3.318,0,0,1,2.668,1.1,4.658,4.658,0,0,1,.941,3.117v.766H92.691a2.539,2.539,0,0,0,.7,1.656,2.1,2.1,0,0,0,1.543.609,2.571,2.571,0,0,0,2.125-1.055l1.023.977a3.418,3.418,0,0,1-1.355,1.176A4.244,4.244,0,0,1,94.824,15.156ZM94.6,7.914a1.6,1.6,0,0,0-1.262.547,2.835,2.835,0,0,0-.613,1.523H96.34V9.844A2.307,2.307,0,0,0,95.832,8.4,1.586,1.586,0,0,0,94.6,7.914Zm6.852-1.367.055.977a3.039,3.039,0,0,1,2.461-1.133q2.641,0,2.688,3.023V15h-1.9V9.523a1.741,1.741,0,0,0-.348-1.191,1.462,1.462,0,0,0-1.137-.387,1.829,1.829,0,0,0-1.711,1.039V15h-1.9V6.547ZM40.625,35.641a1.716,1.716,0,0,0,1.18-.414,1.415,1.415,0,0,0,.5-1.023h1.789a2.789,2.789,0,0,1-.492,1.473,3.228,3.228,0,0,1-1.25,1.082,3.725,3.725,0,0,1-1.7.4,3.6,3.6,0,0,1-2.812-1.148A4.555,4.555,0,0,1,36.8,32.836v-.2a4.479,4.479,0,0,1,1.031-3.09,3.571,3.571,0,0,1,2.813-1.16,3.473,3.473,0,0,1,2.457.879,3.148,3.148,0,0,1,1,2.309H42.3a1.738,1.738,0,0,0-.5-1.2,1.6,1.6,0,0,0-1.184-.469,1.671,1.671,0,0,0-1.422.668,3.408,3.408,0,0,0-.508,2.027v.3a3.465,3.465,0,0,0,.5,2.051A1.669,1.669,0,0,0,40.625,35.641ZM45.172,32.7a4.984,4.984,0,0,1,.492-2.238,3.6,3.6,0,0,1,1.383-1.531,3.9,3.9,0,0,1,2.047-.535,3.692,3.692,0,0,1,2.777,1.1,4.333,4.333,0,0,1,1.152,2.922l.008.445a5.029,5.029,0,0,1-.48,2.234,3.551,3.551,0,0,1-1.375,1.523,3.925,3.925,0,0,1-2.066.539,3.667,3.667,0,0,1-2.863-1.191,4.563,4.563,0,0,1-1.074-3.176Zm1.9.164a3.406,3.406,0,0,0,.539,2.043,1.752,1.752,0,0,0,1.5.738,1.733,1.733,0,0,0,1.5-.75,3.762,3.762,0,0,0,.535-2.2,3.362,3.362,0,0,0-.551-2.031,1.856,1.856,0,0,0-2.973-.012A3.691,3.691,0,0,0,47.07,32.859ZM56.4,28.547l.055.977a3.039,3.039,0,0,1,2.461-1.133q2.641,0,2.688,3.023V37H59.7V31.523a1.741,1.741,0,0,0-.348-1.191,1.462,1.462,0,0,0-1.137-.387,1.829,1.829,0,0,0-1.711,1.039V37h-1.9V28.547Zm9.516-2.055v2.055h1.492v1.406H65.914v4.719a1.039,1.039,0,0,0,.191.7.888.888,0,0,0,.684.215,2.925,2.925,0,0,0,.664-.078v1.469a4.676,4.676,0,0,1-1.25.18q-2.188,0-2.187-2.414V29.953H62.625V28.547h1.391V26.492Zm7.367,3.789a4.7,4.7,0,0,0-.773-.062,1.741,1.741,0,0,0-1.758,1V37h-1.9V28.547h1.813l.047.945a2.139,2.139,0,0,1,1.906-1.1,1.777,1.777,0,0,1,.672.109Zm.563,2.414a4.984,4.984,0,0,1,.492-2.238,3.6,3.6,0,0,1,1.383-1.531,3.9,3.9,0,0,1,2.047-.535,3.692,3.692,0,0,1,2.777,1.1A4.333,4.333,0,0,1,81.7,32.414l.008.445a5.029,5.029,0,0,1-.48,2.234,3.551,3.551,0,0,1-1.375,1.523,3.925,3.925,0,0,1-2.066.539,3.667,3.667,0,0,1-2.863-1.191,4.563,4.563,0,0,1-1.074-3.176Zm1.9.164a3.406,3.406,0,0,0,.539,2.043,1.752,1.752,0,0,0,1.5.738,1.733,1.733,0,0,0,1.5-.75,3.762,3.762,0,0,0,.535-2.2,3.362,3.362,0,0,0-.551-2.031,1.856,1.856,0,0,0-2.973-.012A3.691,3.691,0,0,0,75.742,32.859ZM85.328,37h-1.9V25h1.9Zm7.117,0a2.93,2.93,0,0,1-.219-.789,3.193,3.193,0,0,1-4.3.219,2.325,2.325,0,0,1-.8-1.8,2.4,2.4,0,0,1,1-2.074A4.865,4.865,0,0,1,91,31.836h1.164v-.555A1.481,1.481,0,0,0,91.8,30.23a1.456,1.456,0,0,0-1.117-.395,1.672,1.672,0,0,0-1.062.324,1,1,0,0,0-.414.824H87.3a2.107,2.107,0,0,1,.461-1.3,3.071,3.071,0,0,1,1.254-.949,4.4,4.4,0,0,1,1.77-.344,3.547,3.547,0,0,1,2.367.746,2.661,2.661,0,0,1,.906,2.1v3.813a4.321,4.321,0,0,0,.32,1.82V37Zm-2.086-1.367a2.159,2.159,0,0,0,1.059-.273,1.827,1.827,0,0,0,.746-.734V33.031H91.141a2.8,2.8,0,0,0-1.586.367,1.189,1.189,0,0,0-.531,1.039,1.109,1.109,0,0,0,.363.871A1.407,1.407,0,0,0,90.359,35.633Zm10.117-5.352a4.7,4.7,0,0,0-.773-.062,1.741,1.741,0,0,0-1.758,1V37h-1.9V28.547h1.813l.047.945a2.139,2.139,0,0,1,1.906-1.1,1.777,1.777,0,0,1,.672.109ZM101.508,35a1.084,1.084,0,0,1,.82.3,1.045,1.045,0,0,1,.289.754,1.008,1.008,0,0,1-.289.738,1.28,1.28,0,0,1-1.625,0,.991.991,0,0,1-.3-.742,1.045,1.045,0,0,1,.289-.754A1.074,1.074,0,0,1,101.508,35Z" transform="translate(443 8039)" fill="#12263f"/>
  </g>
</svg>
